<svg xmlns="http://www.w3.org/2000/svg" xmlns:xlink="http://www.w3.org/1999/xlink" width="1080" zoomAndPan="magnify" viewBox="0 0 810 809.999993" height="1080" preserveAspectRatio="xMidYMid meet" version="1.0"><path fill="#f0be70" d="M 807.6875 531.804688 C 807.820312 535.0625 806.671875 536.320312 803.257812 535.753906 C 796.269531 534.59375 789.757812 536.050781 783.65625 539.722656 C 774.882812 545 765.101562 546.253906 755.339844 544.667969 C 740.769531 542.300781 728.429688 546.503906 717.253906 555.355469 C 707.324219 563.21875 696.09375 565.160156 683.859375 563.324219 C 675.203125 562.027344 666.515625 562.027344 658.417969 565.761719 C 645.285156 571.820312 633.3125 570.058594 621.953125 561.488281 C 614.140625 555.59375 605.261719 554.824219 595.976562 556.710938 C 592.636719 557.386719 589.320312 558.171875 585.992188 558.90625 C 575.832031 561.144531 566.1875 559.65625 556.730469 555.53125 C 548.515625 551.945312 541.046875 547.144531 534.351562 541.367188 C 513.617188 523.484375 489.441406 515.339844 462.382812 514.914062 C 453.3125 514.773438 446.511719 510.300781 440.433594 504.085938 C 432.046875 495.515625 429.269531 484.503906 426.835938 473.355469 C 425.71875 468.25 423.917969 463.667969 418.960938 461.285156 C 415.164062 459.457031 415.695312 457.105469 417.214844 454.082031 C 418.714844 451.101562 418.03125 443.226562 417.996094 441.347656 C 417.898438 435.953125 418.359375 430.53125 417.234375 425.183594 C 416.964844 423.910156 417.414062 422.640625 418.742188 422.769531 C 423.109375 423.195312 449.910156 429.6875 458.601562 430.742188 C 486.363281 434.125 514.023438 436.8125 541.5625 428.980469 C 551.644531 426.117188 561.335938 422.390625 570.632812 417.628906 C 584.660156 410.441406 591.824219 398.464844 594.714844 383.328125 C 595.257812 380.492188 595.738281 369.8125 596.277344 366.429688 C 598.410156 353.023438 600.332031 339.578125 601.996094 326.105469 C 604.152344 308.597656 605.917969 291.039062 610.484375 273.925781 C 607.683594 273.0625 606.988281 275.535156 605.957031 277.042969 C 603.105469 281.234375 598.96875 283.316406 594.425781 285.058594 C 586.703125 288.027344 579.210938 286.179688 571.699219 284.3125 C 558.171875 280.953125 544.6875 278.066406 530.816406 282.894531 C 524.542969 285.078125 518.664062 288.050781 512.949219 291.253906 C 501.609375 297.605469 490.171875 298.019531 479.320312 291.222656 C 465.945312 282.84375 452.308594 282.617188 437.484375 286.144531 C 427.164062 288.601562 416.238281 288.933594 409.632812 277.835938 C 397.421875 257.316406 380.234375 241.664062 361.476562 227.425781 C 352.800781 220.839844 344.089844 214.277344 338.957031 204.136719 C 333.003906 192.375 323.945312 183.914062 311.71875 178.59375 C 302.472656 174.566406 296.253906 167.289062 294.121094 157.339844 C 291.945312 147.207031 289.53125 137.007812 290.964844 126.46875 C 284.9375 129.167969 279.839844 133.289062 274.960938 137.570312 C 261.171875 149.6875 250.101562 163.914062 241.984375 180.484375 C 232.289062 200.265625 222.59375 220.007812 216.386719 241.261719 C 213.457031 251.289062 210.445312 261.265625 208.8125 271.613281 C 207.988281 276.851562 207.019531 277.570312 201.65625 277.695312 C 196.886719 277.808594 192.109375 277.765625 187.34375 277.960938 C 183.519531 278.117188 179.648438 278.300781 176.3125 280.597656 C 178.117188 282.59375 180.449219 282.289062 182.667969 281.851562 C 187.175781 280.960938 191.71875 281.058594 196.261719 281.089844 C 204.273438 281.136719 204.488281 281.371094 204.546875 289.675781 C 204.578125 294.222656 204.511719 298.773438 204.566406 303.324219 C 204.679688 312.429688 207.972656 320.183594 214.746094 326.304688 C 219.984375 331.035156 225.761719 335.066406 231.640625 338.980469 C 254.972656 354.503906 280.253906 366.5625 304.820312 379.863281 C 324.769531 390.664062 345.445312 400.019531 368.265625 407.429688 C 360.363281 405.132812 353.160156 404.707031 346.742188 402.03125 C 333.355469 396.457031 322.960938 400.910156 313.589844 410.386719 C 311.351562 412.648438 309.152344 414.953125 306.679688 416.976562 C 301.597656 421.140625 295.84375 424.324219 289.214844 423.394531 C 273.34375 421.171875 261.378906 427.296875 251.761719 439.402344 C 250.214844 441.347656 248.273438 442.980469 246.480469 444.726562 C 238.273438 452.730469 229.976562 453.226562 221.054688 445.871094 C 216.675781 442.261719 212.378906 438.53125 208.109375 434.785156 C 194.339844 422.707031 179.234375 413.257812 160.328125 412.242188 C 145.558594 411.445312 133.378906 404.871094 121.941406 396.273438 C 116.671875 392.3125 111.519531 388.183594 106.019531 384.539062 C 87.554688 372.300781 67.96875 367.527344 46.542969 375.949219 C 42.609375 377.492188 35.597656 390.957031 31.613281 399.855469 C 30.605469 402.113281 29.738281 404.5625 29.464844 406.996094 C 28.109375 419.046875 24.351562 430.445312 20.46875 441.828125 C 19.882812 443.546875 19.203125 445.261719 18.871094 447.035156 C 17.597656 453.804688 16.46875 460.875 20.890625 466.738281 C 23.375 470.035156 27.367188 473.527344 31.066406 475.007812 C 42.878906 479.742188 55.148438 483.230469 66.949219 488.054688 C 115.234375 507.796875 163.9375 525.59375 216.886719 528.714844 C 240.652344 530.113281 262.691406 527.640625 282.140625 513.003906 C 293.046875 504.800781 303.488281 504.300781 314.464844 512.988281 C 322.589844 519.414062 331.855469 520.027344 341.609375 516.679688 C 351.261719 513.363281 359.226562 507.351562 367.320312 501.460938 C 373.246094 497.148438 379.5 493.339844 387.078125 492.898438 C 393.195312 492.542969 394.925781 494.613281 393.753906 500.554688 C 391.8125 510.367188 389.183594 520.039062 388.039062 530.011719 C 387.753906 532.488281 387.296875 535.167969 385.257812 536.828125 C 379.675781 541.367188 376.046875 547.4375 371.929688 553.140625 C 366.761719 560.300781 359.59375 563.578125 350.921875 564.0625 C 341.453125 564.597656 333.128906 561.859375 325.308594 556.464844 C 316.4375 550.34375 308.394531 552.507812 302.769531 561.644531 C 299.453125 567.03125 298.410156 573.066406 297.207031 579.085938 C 295.613281 587.058594 291.941406 593.453125 284.316406 597.273438 C 271.757812 603.566406 259.582031 601.644531 247.207031 591 C 240.429688 585.171875 235.042969 578.15625 229.960938 570.839844 C 220.160156 556.71875 210.546875 554.046875 194.773438 560.816406 C 186.417969 564.40625 178.132812 568.109375 169.132812 569.960938 C 159.511719 571.941406 151.105469 570.023438 144.019531 563.050781 C 140.292969 559.382812 136.089844 556.144531 132.546875 552.386719 C 120.339844 539.433594 98.246094 541.527344 85.667969 553.59375 C 80.589844 558.464844 75.160156 563.042969 68.859375 566.339844 C 59.292969 571.347656 48.894531 570.007812 40.984375 562.910156 C 34.425781 557.027344 32.996094 548.804688 36.804688 538.375 C 38.285156 534.320312 40.179688 530.382812 40.9375 526.109375 C 41.9375 520.453125 38.808594 516.050781 33.234375 516.730469 C 25.960938 517.617188 18.726562 518.433594 11.40625 518.476562 C 12.257812 520.273438 14.066406 521.515625 13.972656 523.875 C 13.695312 530.894531 14.394531 537.898438 13.113281 544.949219 C 11.636719 553.058594 11.90625 561.144531 15.261719 569.039062 C 20.828125 582.148438 29.933594 591.976562 42.375 598.5 C 64.992188 610.363281 88.972656 618.570312 113.542969 625.546875 C 145.011719 634.480469 177.0625 638.667969 209.574219 639.652344 C 227.953125 640.207031 246.347656 640.074219 264.761719 638.6875 C 284.445312 637.207031 304.085938 635.617188 323.671875 633.078125 C 342.710938 630.613281 360.09375 623.792969 376.644531 614.496094 C 382.6875 611.105469 382.5 610.957031 384.128906 618.027344 C 386.78125 629.511719 390.933594 640.394531 400.222656 648.171875 C 413.683594 659.4375 428.71875 668.289062 444.644531 675.671875 C 468.15625 686.570312 493.265625 692.101562 518.496094 696.523438 C 542.136719 700.660156 565.777344 705.054688 589.789062 707.125 C 604.257812 708.375 618.738281 709.335938 633.214844 710.269531 C 651.148438 711.429688 669.109375 709.9375 687.019531 708.964844 C 696.472656 708.449219 706.101562 707.59375 715.234375 704.773438 C 729.777344 700.28125 743.808594 694.351562 757.65625 688.039062 C 778.617188 678.484375 790.710938 661.96875 796.066406 639.808594 C 799.265625 626.570312 802.222656 613.316406 804.609375 599.894531 C 808.253906 579.371094 807.472656 526.359375 807.6875 531.804688 Z M 807.6875 531.804688 " fill-opacity="1" fill-rule="evenodd"/><path fill="#d68e32" d="M 809.507812 533.503906 C 809.914062 525.117188 809.300781 516.777344 808.320312 508.453125 C 808.324219 508.03125 808.238281 507.625 808.066406 507.238281 C 806.398438 503.253906 805.195312 499.117188 804.128906 494.941406 L 804.117188 494.902344 C 801.867188 489.226562 801.707031 483.058594 799.976562 477.261719 C 796.339844 464.984375 791.070312 453.554688 783.460938 443.152344 C 775.585938 432.386719 765.632812 423.875 755.40625 415.554688 C 735.898438 399.679688 713.976562 388.734375 689.5 382.929688 C 682.726562 381.339844 675.820312 380.429688 669.058594 378.792969 C 669.058594 378.792969 669.085938 378.785156 669.085938 378.785156 C 662.28125 379.757812 655.601562 378.007812 649.011719 377.128906 C 632.0625 374.871094 615.136719 373.054688 598.019531 373.464844 C 595.355469 376.574219 596.125 380.355469 596.085938 383.921875 C 595.839844 406.148438 584.195312 423.15625 563.507812 431.25 C 557.570312 433.570312 551.417969 435.269531 545.207031 436.621094 C 505.726562 445.195312 466.285156 443.871094 426.882812 435.953125 C 421.910156 436.730469 420.644531 440.183594 420.644531 444.554688 C 418.710938 449.121094 415.152344 452.765625 413.398438 457.460938 C 412.445312 460.003906 412.015625 461.898438 415.628906 462.140625 C 421.164062 462.507812 423.230469 466.496094 424.539062 471.046875 C 425.285156 473.644531 425.554688 476.371094 426.167969 479.007812 C 428.453125 488.824219 431.726562 498.207031 439.039062 505.554688 C 445.410156 511.957031 452.484375 517.234375 462.136719 516.746094 C 470.414062 516.324219 478.363281 517.996094 486.328125 519.777344 C 487.652344 520.074219 488.9375 520.570312 490.269531 520.777344 C 500.96875 522.453125 510.644531 526.535156 519.386719 532.90625 C 528.164062 539.300781 536.6875 546.097656 545.820312 551.9375 C 555.84375 558.351562 566.773438 562.699219 579.113281 561.878906 C 584.113281 561.546875 588.941406 560.355469 593.742188 559.070312 C 604.195312 556.265625 613.902344 557.191406 622.699219 564.089844 C 633.816406 572.804688 645.84375 573.554688 658.472656 567.730469 C 666.640625 563.964844 675.191406 563.949219 683.808594 565.230469 C 696.195312 567.078125 707.664062 565.363281 717.734375 557.355469 C 719.148438 556.230469 720.671875 555.238281 722.144531 554.1875 C 731.539062 547.46875 741.597656 544.820312 753.398438 546.425781 C 762.660156 547.6875 772.492188 548.421875 781.195312 542.878906 C 782.136719 542.28125 783.40625 542.195312 784.316406 541.566406 C 792.035156 536.25 800.273438 535.847656 808.761719 539.097656 C 809.890625 537.140625 809.421875 535.285156 809.507812 533.503906 Z M 809.507812 533.503906 " fill-opacity="1" fill-rule="evenodd"/><path fill="#d68e32" d="M 440.921875 287.429688 C 453.253906 284.054688 465.128906 284.675781 476.53125 291.859375 C 487.917969 299.035156 500.078125 300.71875 512.457031 293.46875 C 516.761719 290.949219 521.273438 288.734375 525.851562 286.753906 C 534.273438 283.113281 543.121094 280.910156 552.304688 282.285156 C 559.429688 283.355469 566.523438 284.742188 573.542969 286.597656 C 578.25 287.839844 583.238281 289.578125 588.230469 288.515625 C 596.988281 286.648438 605.5 284.128906 609.390625 274.667969 C 609.527344 274.328125 610.109375 274.167969 610.484375 273.925781 C 618.214844 265.730469 618.578125 256.101562 615.867188 245.914062 C 612.085938 231.703125 604.980469 219.101562 597.347656 206.65625 C 587.304688 190.28125 575.953125 175.085938 561.164062 162.675781 C 546.335938 150.230469 530.277344 139.601562 513.242188 130.417969 C 497.121094 121.726562 479.664062 116.777344 462.203125 111.746094 C 435.429688 104.03125 408.441406 98.691406 380.320312 101.71875 C 366.539062 103.203125 352.703125 104.222656 339.523438 108.808594 C 330.3125 112.015625 321.261719 115.695312 312.199219 119.308594 C 305.246094 122.082031 297.65625 122.941406 290.964844 126.464844 C 288.558594 129.214844 287.890625 132.355469 288.511719 135.949219 C 289.4375 141.285156 290.230469 146.648438 290.96875 152.015625 C 292.878906 165.890625 299.96875 175.71875 313.023438 181.269531 C 322.695312 185.378906 330.144531 192.097656 335.308594 201.367188 C 338.609375 207.292969 341.714844 213.554688 346.847656 218.058594 C 353.976562 224.316406 361.710938 229.890625 369.136719 235.816406 C 382.304688 246.320312 394.648438 257.605469 403.550781 272.164062 C 405.203125 274.871094 406.90625 277.574219 408.863281 280.0625 C 411.976562 284.007812 415.496094 288.152344 420.671875 288.597656 C 427.382812 289.175781 434.144531 289.285156 440.921875 287.429688 Z M 440.921875 287.429688 " fill-opacity="1" fill-rule="evenodd"/><path fill="#d68e32" d="M 369.324219 405.851562 C 346.769531 398.835938 325.585938 388.605469 304.640625 377.898438 C 289.5 370.15625 274.695312 361.75 259.699219 353.71875 C 245.507812 346.117188 231.875 337.640625 219.109375 327.828125 C 210.71875 321.378906 205.980469 313.015625 206.28125 302.132812 C 206.429688 296.679688 206.351562 291.21875 206.363281 285.765625 C 206.375 279.371094 206.363281 279.535156 200.019531 279.242188 C 192.058594 278.875 184.210938 280.085938 176.3125 280.597656 L 176.304688 280.601562 C 175.222656 281.941406 173.359375 280.832031 172.199219 281.917969 L 172.179688 281.925781 C 170.183594 283.359375 167.589844 283.429688 165.566406 284.800781 C 163.964844 285.648438 162.242188 286.328125 160.78125 287.367188 C 146.148438 297.738281 130.257812 304.894531 112.445312 308.035156 C 100.195312 310.191406 89.902344 316.347656 82.796875 326.894531 C 77.164062 335.253906 69.375 340.820312 60.644531 345.480469 C 52.542969 349.804688 45.394531 355.324219 41.160156 363.839844 C 40.988281 368.347656 39.175781 372.683594 39.824219 377.292969 C 40.105469 379.273438 40.703125 379.976562 42.914062 379.496094 C 45.660156 378.894531 47.699219 376.996094 50.335938 376.210938 C 67.351562 371.164062 83.324219 373.421875 98.703125 382.199219 C 106.4375 386.613281 113.230469 392.242188 120.421875 397.359375 C 131.515625 405.253906 142.539062 412.867188 157.050781 413.566406 C 162.289062 413.820312 167.765625 414.410156 173.082031 416.066406 C 186.425781 420.226562 197.410156 427.921875 207.816406 436.878906 C 213.128906 441.449219 218.042969 446.542969 224.027344 450.304688 C 231.046875 454.714844 239.894531 453.785156 245.855469 447.949219 C 251.054688 442.863281 256.136719 437.65625 261.292969 432.523438 C 266.328125 427.511719 272.070312 424.308594 279.519531 425.21875 C 281.539062 425.464844 283.621094 425.148438 285.652344 425.347656 C 296.207031 426.390625 304.742188 422.503906 311.726562 414.796875 C 315.882812 410.210938 320.820312 406.648438 325.980469 403.296875 C 329.238281 401.179688 332.386719 400.464844 336.261719 401.464844 C 345.457031 403.84375 354.773438 405.761719 363.988281 408.089844 C 367.074219 408.871094 369.996094 409.199219 373.148438 408.546875 C 372.628906 406.015625 370.691406 406.273438 369.324219 405.851562 Z M 369.324219 405.851562 " fill-opacity="1" fill-rule="evenodd"/><path fill="#b56e21" d="M 534.390625 440.46875 C 546.738281 438.53125 558.914062 436.121094 570.089844 430.382812 C 584.566406 422.949219 593.679688 411.34375 597.050781 395.136719 C 598.5625 387.871094 597.582031 380.675781 598.023438 373.464844 C 596.089844 373.371094 594.394531 373.507812 594.015625 376.011719 C 593.613281 378.695312 593.03125 381.355469 592.476562 384.015625 C 590.296875 394.46875 586.464844 404.03125 577.734375 410.875 C 572.695312 414.824219 566.957031 417.457031 561.105469 419.992188 C 543.195312 427.742188 524.582031 432.015625 505.039062 432.160156 C 497.09375 432.21875 489.191406 431.441406 481.277344 431.070312 C 468.085938 430.449219 455.15625 428.183594 442.195312 426.171875 C 438.117188 425.535156 434.71875 425.34375 431.402344 427.816406 C 427.332031 429.195312 425.484375 431.976562 426.054688 436.285156 C 426.382812 438.644531 428.019531 438.980469 430.015625 439.015625 C 432.941406 439.066406 435.84375 439.300781 438.777344 439.675781 C 445.28125 440.503906 451.660156 441.867188 458.101562 442.972656 C 470.210938 445.054688 482.484375 444.421875 494.703125 444.417969 C 498.78125 444.414062 502.894531 444.511719 506.929688 444.039062 C 516.097656 442.96875 525.257812 441.898438 534.390625 440.46875 Z M 534.390625 440.46875 " fill-opacity="1" fill-rule="evenodd"/><path fill="#b56e21" d="M 705.234375 627.460938 C 704.894531 627.164062 704.535156 626.851562 704.132812 626.667969 C 695.746094 622.835938 687.261719 619.601562 677.984375 623.609375 C 674.238281 625.230469 671.152344 624.796875 668.070312 621.878906 C 658.738281 613.050781 647.226562 610.300781 634.8125 611.128906 C 628.550781 611.542969 622.265625 612.070312 616.246094 614.578125 C 605.179688 619.195312 594.3125 619.828125 584.214844 611.679688 C 575.9375 605 566.589844 603.890625 556.644531 607.269531 C 552.210938 608.773438 548.6875 607.296875 545.511719 604.265625 C 543.710938 602.542969 541.984375 600.6875 539.953125 599.28125 C 538.382812 598.195312 536.421875 598.320312 535 599.910156 C 533.785156 601.269531 533.941406 602.738281 534.867188 604.28125 C 539.152344 611.429688 551.367188 616.910156 558.972656 613.984375 C 566.792969 610.976562 573.242188 612.804688 579.152344 617.640625 C 590.296875 626.765625 602.585938 627.957031 615.5625 623.015625 C 623.363281 620.046875 631.261719 619.242188 639.488281 618.949219 C 648.90625 618.613281 657.019531 621.445312 663.929688 627.421875 C 668.8125 631.648438 673.894531 632.738281 679.628906 630.339844 C 685.394531 627.929688 690.621094 628.558594 695.816406 631.832031 C 697.902344 633.140625 700.136719 634.402344 702.789062 634.273438 C 704.714844 634.300781 706.789062 633.820312 707.449219 632.09375 C 708.132812 630.300781 706.65625 628.695312 705.234375 627.460938 Z M 705.234375 627.460938 " fill-opacity="1" fill-rule="evenodd"/><path fill="#b56e21" d="M 363.351562 292.933594 C 365.375 292.992188 367.398438 292.832031 368.085938 290.839844 C 368.820312 288.730469 366.984375 287.628906 365.527344 286.546875 C 365.34375 286.410156 365.144531 286.28125 364.929688 286.222656 C 359.566406 284.75 355.625 280.746094 350.824219 278.261719 C 349.410156 277.53125 348.15625 276.570312 346.476562 276.59375 C 341.269531 276.660156 336.007812 276.296875 330.859375 276.890625 C 321.238281 278.007812 316.246094 275.664062 312.671875 266.972656 C 310.855469 262.550781 308.492188 259.648438 303.167969 260.113281 C 299.53125 260.429688 296.628906 258.796875 294.691406 255.527344 C 294.011719 254.378906 292.976562 253.425781 292.03125 252.457031 C 290.472656 250.867188 288.667969 249.863281 286.703125 251.652344 C 284.933594 253.265625 284.792969 255.636719 286.320312 257.164062 C 290.339844 261.171875 292.898438 267.238281 299.976562 267.25 C 302.085938 267.253906 303.804688 268.488281 304.972656 270.355469 C 305.933594 271.890625 306.796875 273.539062 308.007812 274.859375 C 311.78125 278.984375 314.925781 284.21875 321.289062 284.605469 C 325.78125 284.882812 330.347656 285.21875 334.804688 283.980469 C 340.632812 282.355469 345.992188 283.378906 350.90625 286.894531 C 352.929688 288.34375 354.984375 289.75 357.074219 291.105469 C 359.011719 292.359375 361.113281 293.160156 363.351562 292.933594 Z M 363.351562 292.933594 " fill-opacity="1" fill-rule="evenodd"/><path fill="#b56e21" d="M 445.710938 334.734375 C 448.277344 336.601562 450.949219 338.328125 453.617188 340.046875 C 459.957031 344.140625 466.644531 346.257812 474.257812 344.011719 C 478.75 342.691406 482.933594 343.9375 486.199219 347.09375 C 490.167969 350.933594 495.007812 351.339844 500.015625 351.546875 C 501.910156 351.625 503.589844 351.144531 504.9375 349.695312 C 506.660156 347.84375 506.214844 345.707031 503.753906 345.003906 C 502.476562 344.636719 501.050781 344.597656 499.710938 344.695312 C 496.109375 344.964844 492.894531 344.035156 490.292969 341.578125 C 485.464844 337.019531 479.722656 335.789062 473.382812 336.648438 C 465.449219 337.722656 458.914062 335.1875 452.78125 330.078125 C 446.75 325.046875 439.585938 322.195312 432.472656 322.867188 C 428.273438 322.972656 425.058594 322.59375 422.113281 324.261719 C 420.429688 325.214844 418.957031 326.292969 419.566406 328.492188 C 420.152344 330.617188 421.921875 331.066406 423.863281 331.003906 C 424.765625 330.976562 425.710938 330.96875 426.554688 330.699219 C 433.722656 328.410156 439.910156 330.523438 445.710938 334.734375 Z M 445.710938 334.734375 " fill-opacity="1" fill-rule="evenodd"/><path fill="#b56e21" d="M 405.0625 359.105469 C 404.328125 358.65625 403.320312 358.675781 402.457031 358.417969 C 394.339844 355.988281 386.054688 355.113281 378.789062 355.738281 C 373.777344 355.71875 369.980469 356.453125 366.109375 355.800781 C 363.472656 355.355469 360.9375 355.984375 360.597656 359.308594 C 360.261719 362.570312 363.191406 362.617188 365.15625 363.34375 C 368.222656 364.480469 371.464844 364.160156 374.566406 363.496094 C 382.292969 361.835938 389.828125 362.015625 397.246094 364.972656 C 399.117188 365.722656 401.109375 366.296875 403.101562 366.585938 C 405.238281 366.894531 407.324219 366.359375 407.976562 363.929688 C 408.628906 361.476562 406.820312 360.183594 405.0625 359.105469 Z M 405.0625 359.105469 " fill-opacity="1" fill-rule="evenodd"/><path fill="#b56e21" d="M 77.03125 415.761719 C 76.621094 415.816406 75.898438 415.769531 75.292969 416.015625 C 68.964844 418.574219 64.941406 423.824219 60.929688 428.910156 C 59.414062 430.835938 61.375 432.710938 63.054688 433.933594 C 64.886719 435.265625 66.207031 434.511719 67.605469 432.867188 C 71.242188 428.597656 74.898438 424.324219 79.859375 421.410156 C 81.152344 420.652344 82.429688 419.320312 81.414062 417.472656 C 80.53125 415.867188 78.917969 415.734375 77.03125 415.761719 Z M 77.03125 415.761719 " fill-opacity="1" fill-rule="evenodd"/><path fill="#b56e21" d="M 112.351562 453.953125 C 114.296875 454.113281 115.730469 452.878906 116.035156 450.570312 C 115.753906 448.273438 114.195312 447.378906 111.929688 447.121094 C 106.277344 446.484375 101.269531 447.835938 96.804688 451.445312 C 94.5 453.304688 93.6875 455.445312 95.378906 457.851562 C 97.105469 460.308594 99.625 459.410156 101.335938 457.929688 C 104.570312 455.132812 107.988281 453.59375 112.351562 453.953125 Z M 112.351562 453.953125 " fill-opacity="1" fill-rule="evenodd"/><path fill="#b56e21" d="M 310.964844 597.648438 C 306.164062 598.78125 302.789062 602.300781 298.835938 604.855469 C 297.441406 605.757812 296.160156 606.816406 296.917969 608.691406 C 297.710938 610.660156 299.480469 611.066406 302.382812 610.941406 C 305.90625 609.03125 310.597656 607.4375 314.550781 604.4375 C 316.207031 603.179688 317.675781 601.546875 316.347656 599.238281 C 315.117188 597.09375 313.078125 597.148438 310.964844 597.648438 Z M 310.964844 597.648438 " fill-opacity="1" fill-rule="evenodd"/><path fill="#b56e21" d="M 765.941406 601.867188 C 765.859375 598.371094 763.453125 596.035156 759.902344 596.003906 C 756.320312 595.96875 753.886719 598.242188 753.757812 601.738281 C 753.640625 604.855469 756.921875 608.054688 760.269531 608.085938 C 763.515625 608.117188 766.027344 605.363281 765.941406 601.867188 Z M 765.941406 601.867188 " fill-opacity="1" fill-rule="evenodd"/><path fill="#b56e21" d="M 114.261719 589.570312 C 111.3125 587.933594 108.140625 586.898438 105.621094 586.539062 C 102.601562 586.4375 100.660156 586.894531 100.144531 589.363281 C 99.703125 591.457031 101.039062 593.046875 102.691406 593.613281 C 105.8125 594.683594 108.882812 596.210938 112.332031 596.027344 C 114.03125 595.941406 115.398438 595.210938 115.945312 593.539062 C 116.515625 591.808594 115.761719 590.40625 114.261719 589.570312 Z M 114.261719 589.570312 " fill-opacity="1" fill-rule="evenodd"/><path fill="#b56e21" d="M 475.144531 395.203125 C 472.082031 395.167969 470.246094 395.15625 469.152344 397.011719 C 468.636719 397.878906 468.875 398.710938 469.375 399.53125 C 470.996094 402.1875 478.195312 405.320312 481.339844 404.769531 C 482.78125 404.515625 483.917969 403.875 484.398438 402.472656 C 484.894531 401.027344 484.398438 399.675781 483.199219 398.886719 C 480.375 397.027344 477.449219 395.308594 475.144531 395.203125 Z M 475.144531 395.203125 " fill-opacity="1" fill-rule="evenodd"/><path fill="#b56e21" d="M 449.085938 621.972656 C 445.71875 621.730469 443.023438 623.691406 442.628906 626.671875 C 442.195312 629.945312 444.773438 632.660156 448.402344 632.746094 C 451.761719 632.832031 454.34375 630.707031 454.542969 627.703125 C 454.742188 624.691406 452.378906 622.210938 449.085938 621.972656 Z M 449.085938 621.972656 " fill-opacity="1" fill-rule="evenodd"/><path fill="#b56e21" d="M 726.855469 658.769531 C 723.597656 658.835938 721.082031 661.175781 721.042969 664.167969 C 721.007812 666.945312 723.292969 669.382812 726.085938 669.539062 C 728.90625 669.703125 732.589844 666.605469 732.792969 663.898438 C 733 661.164062 730.144531 658.699219 726.855469 658.769531 Z M 726.855469 658.769531 " fill-opacity="1" fill-rule="evenodd"/><path fill="#b56e21" d="M 490.304688 556.597656 C 487.347656 556.511719 484.871094 558.886719 484.664062 562.015625 C 484.445312 565.296875 486.011719 567.058594 489.277344 567.199219 C 492.585938 567.335938 495.144531 565.347656 495.453125 562.402344 C 495.761719 559.445312 493.316406 556.6875 490.304688 556.597656 Z M 490.304688 556.597656 " fill-opacity="1" fill-rule="evenodd"/><path fill="#b56e21" d="M 768.800781 634.351562 C 765.761719 634.246094 763.152344 636.835938 763.277344 639.835938 C 763.390625 642.546875 765.792969 644.863281 768.546875 644.917969 C 771.613281 644.980469 774.230469 642.394531 774.101562 639.433594 C 773.984375 636.734375 771.597656 634.449219 768.800781 634.351562 Z M 768.800781 634.351562 " fill-opacity="1" fill-rule="evenodd"/><path fill="#b56e21" d="M 194.226562 598.699219 C 189.78125 597.953125 186.570312 599.160156 186.226562 601.703125 C 185.855469 604.425781 189.226562 606.71875 193.746094 606.820312 C 197.1875 606.898438 198.800781 606.070312 199.210938 604.015625 C 199.683594 601.652344 197.417969 599.234375 194.226562 598.699219 Z M 194.226562 598.699219 " fill-opacity="1" fill-rule="evenodd"/><path fill="#b56e21" d="M 613.445312 673.714844 C 610.105469 673.746094 607.773438 675.527344 607.75 678.058594 C 607.730469 680.960938 610.238281 683.261719 613.492188 683.316406 C 616.835938 683.375 618.519531 681.757812 618.5 678.507812 C 618.484375 675.273438 616.804688 673.6875 613.445312 673.714844 Z M 613.445312 673.714844 " fill-opacity="1" fill-rule="evenodd"/><path fill="#b56e21" d="M 510.484375 641.167969 C 507.566406 641.234375 504.957031 644.03125 505.160156 646.886719 C 505.351562 649.558594 508.042969 651.917969 510.597656 651.648438 C 513.230469 651.371094 515.753906 648.699219 515.660156 646.285156 C 515.554688 643.566406 513.066406 641.105469 510.484375 641.167969 Z M 510.484375 641.167969 " fill-opacity="1" fill-rule="evenodd"/><path fill="#b56e21" d="M 503.210938 387.34375 C 500.675781 387.5625 499.066406 389.140625 498.710938 391.632812 C 498.367188 394.03125 501.363281 396.644531 504.078125 396.550781 C 506.539062 396.464844 509.105469 394.113281 509.109375 391.933594 C 509.113281 389.835938 505.804688 387.125 503.210938 387.34375 Z M 503.210938 387.34375 " fill-opacity="1" fill-rule="evenodd"/><path fill="#b56e21" d="M 367.117188 320.878906 C 367.121094 318.273438 364.046875 316.070312 360.742188 316.21875 C 358.066406 316.339844 356.480469 317.558594 356.449219 320.332031 C 356.417969 323.140625 358.445312 324.519531 362.238281 324.390625 C 365.269531 324.289062 367.117188 322.960938 367.117188 320.878906 Z M 367.117188 320.878906 " fill-opacity="1" fill-rule="evenodd"/><path fill="#b56e21" d="M 344.367188 459.605469 C 341.84375 459.523438 339.238281 461.566406 338.984375 463.832031 C 338.714844 466.253906 340.578125 467.648438 344.15625 467.703125 C 347.722656 467.757812 349.707031 466.4375 349.574219 464.089844 C 349.453125 461.910156 346.875 459.691406 344.367188 459.605469 Z M 344.367188 459.605469 " fill-opacity="1" fill-rule="evenodd"/><path fill="#b56e21" d="M 415.734375 384.320312 C 413.511719 384.351562 411.605469 384.960938 411.265625 387.5 C 410.921875 390.019531 414.078125 392.5625 417.324219 392.558594 C 419.589844 392.550781 421.429688 391.847656 421.789062 389.355469 C 422.15625 386.804688 419.027344 384.285156 415.734375 384.320312 Z M 415.734375 384.320312 " fill-opacity="1" fill-rule="evenodd"/><path fill="#b56e21" d="M 246.347656 216.746094 C 244.34375 217.035156 243.230469 218.222656 243.132812 220.328125 C 243.011719 222.960938 246.605469 227.183594 248.863281 226.835938 C 250.777344 226.542969 252.136719 225.277344 252.300781 223.246094 C 252.5 220.695312 248.761719 216.667969 246.347656 216.746094 Z M 246.347656 216.746094 " fill-opacity="1" fill-rule="evenodd"/><path fill="#b56e21" d="M 243.4375 305.082031 C 241.085938 305.125 239.40625 306.058594 239.28125 308.570312 C 239.15625 311.15625 242.523438 313.605469 245.601562 313.441406 C 247.910156 313.320312 248.78125 312.042969 248.730469 309.894531 C 248.679688 306.773438 246.734375 305.027344 243.4375 305.082031 Z M 243.4375 305.082031 " fill-opacity="1" fill-rule="evenodd"/><path fill="#b56e21" d="M 407.402344 175.417969 C 406.324219 174.449219 404.992188 174.261719 403.632812 174.09375 C 397.160156 173.300781 391.742188 170.386719 387.058594 165.921875 C 386.261719 165.164062 385.179688 164.6875 384.191406 164.144531 C 382.171875 163.035156 380.183594 162.894531 378.910156 165.144531 C 377.792969 167.121094 378.066406 169.167969 379.910156 170.640625 C 387.238281 176.5 395.226562 180.992188 404.757812 182.148438 C 406.679688 182.46875 408.4375 182.0625 409.25 180.09375 C 410.085938 178.066406 408.804688 176.675781 407.402344 175.417969 Z M 407.402344 175.417969 " fill-opacity="1" fill-rule="evenodd"/><path fill="#8e212b" d="M 19.847656 473.136719 C 26.128906 470.542969 31.652344 473.492188 37.457031 475.273438 C 57.046875 481.289062 75.234375 490.882812 94.570312 497.480469 C 114.988281 504.445312 135.480469 511.222656 156.117188 517.511719 C 169.816406 521.691406 184.117188 523.140625 198.296875 525.066406 C 205.960938 526.109375 213.660156 526.699219 221.34375 527.183594 C 242.703125 528.53125 263.078125 525.566406 280.613281 511.84375 C 282.21875 510.585938 283.976562 509.523438 285.695312 508.421875 C 294.792969 502.59375 304.128906 502.617188 312.292969 509.425781 C 325.386719 520.339844 338.25 517.90625 351.34375 510.230469 C 356.023438 507.484375 360.3125 504.066406 364.785156 500.960938 C 370.207031 497.199219 375.710938 493.597656 382.140625 491.703125 C 385.722656 490.648438 389.308594 490.476562 392.894531 491.398438 C 395.929688 492.183594 397.4375 493.828125 396.527344 497.386719 C 393.4375 509.488281 391.128906 521.761719 389.171875 534.097656 C 388.878906 535.964844 388.445312 537.660156 386.59375 538.601562 C 382.113281 540.875 379.582031 544.914062 377.097656 549.019531 C 371.695312 557.945312 364.652344 564.730469 353.714844 565.910156 C 343.910156 566.96875 334.707031 565.128906 326.457031 559.460938 C 325.332031 558.6875 324.308594 557.765625 323.148438 557.054688 C 316.488281 552.96875 310.652344 553.960938 305.816406 560.175781 C 303.285156 563.425781 301.558594 567.160156 300.613281 571.1875 C 299.992188 573.839844 299.53125 576.527344 299.027344 579.203125 C 295.644531 597.207031 277.332031 607.480469 260.121094 600.953125 C 250.046875 597.132812 242.1875 590.359375 235.695312 581.9375 C 232.925781 578.347656 230.449219 574.53125 227.875 570.796875 C 219.578125 558.769531 210.203125 556.085938 196.648438 561.964844 C 187.902344 565.757812 179.28125 569.796875 169.804688 571.679688 C 158.964844 573.832031 149.570312 571.679688 141.652344 563.714844 C 138.128906 560.171875 134.234375 556.992188 130.785156 553.386719 C 119.035156 541.085938 99.644531 543.503906 88.203125 553.796875 C 83.136719 558.355469 78.207031 563.097656 72.398438 566.710938 C 62.171875 573.078125 50.566406 572.757812 41.714844 566.070312 C 33.214844 559.644531 30.605469 552.316406 33.59375 542.105469 C 35.054688 537.101562 37.28125 532.324219 38.808594 527.339844 C 40.96875 520.292969 38.398438 517.421875 31.082031 518.367188 C 29.960938 518.507812 28.839844 518.765625 27.761719 519.113281 C 22.222656 520.917969 16.75 521.28125 11.402344 518.472656 C 1.039062 510.5 0.0234375 492.28125 10.21875 480.605469 C 12.953125 477.480469 16.371094 475.277344 19.847656 473.136719 Z M 19.847656 473.136719 " fill-opacity="1" fill-rule="evenodd"/><path fill="#efe1e5" d="M 106.300781 528.695312 C 103.992188 527.296875 101.492188 527.601562 99.027344 528.023438 C 91.890625 529.25 85.761719 532.566406 80.488281 537.417969 C 75.984375 541.5625 71.71875 545.964844 67.234375 550.128906 C 64.011719 553.121094 60.140625 555.027344 55.78125 555.714844 C 52.078125 556.300781 50.105469 553.445312 47.800781 551.328125 C 47.632812 551.175781 47.46875 551.011719 47.28125 550.890625 C 46.097656 550.15625 44.765625 549.421875 43.5 550.320312 C 41.910156 551.445312 42.132812 553.246094 42.988281 554.613281 C 45.675781 558.894531 49.378906 561.621094 54.742188 561.398438 C 59.375 561.257812 63.570312 559.824219 67.464844 557.25 C 71.285156 554.71875 74.394531 551.421875 77.710938 548.335938 C 85.707031 540.898438 93.484375 533.078125 105.644531 533.394531 C 106.808594 533.421875 107.886719 532.730469 108.007812 531.410156 C 108.121094 530.171875 107.304688 529.308594 106.300781 528.695312 Z M 106.300781 528.695312 " fill-opacity="1" fill-rule="evenodd"/><path fill="#efe1e5" d="M 377.328125 525.523438 C 375.074219 524.179688 373.535156 525.78125 372.503906 527.773438 C 371.773438 529.179688 371.074219 530.601562 370.363281 532.015625 C 367.914062 536.898438 364.988281 541.449219 361.230469 545.441406 C 357.441406 549.464844 352.914062 551.46875 347.273438 551 C 344.085938 550.734375 341.023438 550.074219 337.941406 549.320312 C 336.15625 548.882812 334.042969 548.722656 333.394531 550.957031 C 332.757812 553.144531 334.464844 554.238281 336.304688 554.769531 C 340.21875 555.90625 344.144531 557.058594 348.300781 556.792969 C 355.34375 557.308594 361.011719 554.59375 365.894531 549.621094 C 371.222656 544.191406 374.542969 537.488281 378.183594 530.980469 C 379.238281 529.09375 379.402344 526.757812 377.328125 525.523438 Z M 377.328125 525.523438 " fill-opacity="1" fill-rule="evenodd"/><path fill="#efe1e5" d="M 281.429688 579.867188 C 274.632812 586.25 267.039062 586.921875 258.761719 583.324219 C 254.554688 581.496094 250.75 579.066406 247.480469 575.824219 C 246.351562 574.707031 245.242188 573.542969 243.980469 572.59375 C 242.851562 571.746094 241.503906 571.390625 240.238281 572.46875 C 238.648438 573.816406 238.992188 575.417969 240.160156 576.652344 C 247.859375 584.769531 256.625 590.917969 267.183594 591.460938 C 274.988281 591.398438 280.777344 589.066406 285.621094 584.550781 C 287.441406 582.855469 289.574219 580.550781 287.453125 578.109375 C 284.839844 575.101562 283.078125 578.320312 281.429688 579.867188 Z M 281.429688 579.867188 " fill-opacity="1" fill-rule="evenodd"/><path fill="#efe1e5" d="M 162.582031 558.488281 C 154.285156 556.664062 147.992188 551.390625 141.476562 546.46875 C 139.125 544.691406 136.707031 542.992188 134.257812 541.351562 C 133.136719 540.597656 131.90625 539.964844 130.652344 539.46875 C 129.460938 539.003906 128.414062 539.585938 127.679688 540.53125 C 126.894531 541.542969 126.941406 542.679688 127.765625 543.640625 C 128.5 544.496094 129.300781 545.332031 130.210938 545.988281 C 136.46875 550.5 142.71875 555.027344 149.0625 559.421875 C 152.828125 562.03125 157.113281 563.539062 160.609375 564.445312 C 163.347656 564.789062 164.886719 564.144531 165.355469 562.433594 C 165.945312 560.273438 164.550781 558.921875 162.582031 558.488281 Z M 162.582031 558.488281 " fill-opacity="1" fill-rule="evenodd"/><path fill="#efe1e5" d="M 121.089844 529.070312 C 119.148438 528.824219 118.140625 530.117188 117.890625 531.808594 C 117.621094 533.652344 118.644531 534.863281 120.496094 535.085938 C 122.375 535.3125 123.472656 534.355469 123.734375 532.445312 C 123.621094 530.722656 122.980469 529.308594 121.089844 529.070312 Z M 121.089844 529.070312 " fill-opacity="1" fill-rule="evenodd"/></svg>