<svg xmlns="http://www.w3.org/2000/svg" xmlns:xlink="http://www.w3.org/1999/xlink" width="1080" zoomAndPan="magnify" viewBox="0 0 810 809.999993" height="1080" preserveAspectRatio="xMidYMid meet" version="1.0"><defs><clipPath id="75255683e6"><path d="M 189 5.570312 L 631 5.570312 L 631 61 L 189 61 Z M 189 5.570312 " clip-rule="nonzero"/></clipPath><clipPath id="082bbae9d5"><path d="M 230 749 L 589 749 L 589 804.320312 L 230 804.320312 Z M 230 749 " clip-rule="nonzero"/></clipPath></defs><path fill="#2b4ba6" d="M 254.363281 353.890625 L 153.914062 253.457031 L 185.496094 221.878906 L 166.019531 202.40625 L 134.4375 233.984375 L 119.480469 219.027344 L 157.949219 180.5625 L 138.472656 161.089844 L 100.007812 199.554688 L 85.050781 184.597656 L 116.628906 153.019531 L 97.15625 133.546875 L 65.574219 165.125 L 50.617188 150.171875 L 61.539062 139.25 L 42.0625 119.777344 L 31.140625 130.695312 L 20.21875 119.777344 L 0.742188 139.25 L 11.664062 150.171875 L 0.742188 161.089844 L 20.21875 180.5625 L 31.140625 169.644531 L 46.097656 184.597656 L 14.515625 216.175781 L 33.992188 235.652344 L 65.574219 204.074219 L 80.53125 219.027344 L 42.0625 257.492188 L 61.539062 276.964844 L 100.007812 238.5 L 114.964844 253.457031 L 83.382812 285.035156 L 102.859375 304.507812 L 134.4375 272.929688 L 234.886719 373.367188 L 254.363281 353.890625 " fill-opacity="1" fill-rule="nonzero"/><path fill="#76caee" d="M 616.507812 487.574219 L 616.507812 446.257812 L 203.304688 446.257812 L 203.304688 487.574219 C 203.304688 555.152344 235.769531 615.148438 285.945312 652.839844 L 263.410156 776.777344 L 556.402344 776.777344 L 533.867188 652.839844 C 584.042969 615.148438 616.507812 555.152344 616.507812 487.574219 " fill-opacity="1" fill-rule="nonzero"/><path fill="#559ddb" d="M 258.398438 487.574219 L 258.398438 446.257812 L 203.304688 446.257812 L 203.304688 487.574219 C 203.304688 555.152344 235.769531 615.148438 285.945312 652.839844 L 263.410156 776.777344 L 318.503906 776.777344 L 341.039062 652.839844 C 290.863281 615.148438 258.398438 555.152344 258.398438 487.574219 " fill-opacity="1" fill-rule="nonzero"/><path fill="#76caee" d="M 492.871094 336.085938 L 326.945312 336.085938 C 266.269531 336.085938 217.078125 286.902344 217.078125 226.238281 L 217.078125 46.882812 L 602.734375 46.882812 L 602.734375 226.238281 C 602.734375 286.902344 553.546875 336.085938 492.871094 336.085938 " fill-opacity="1" fill-rule="nonzero"/><path fill="#559ddb" d="M 272.171875 253.78125 L 272.171875 74.425781 L 602.734375 74.425781 L 602.734375 46.882812 L 217.078125 46.882812 L 217.078125 226.238281 C 217.078125 280.214844 256.027344 325.066406 307.347656 334.3125 C 285.71875 314.246094 272.171875 285.597656 272.171875 253.78125 " fill-opacity="1" fill-rule="nonzero"/><g clip-path="url(#75255683e6)"><path fill="#a8e0f4" d="M 609.40625 60.65625 L 210.40625 60.65625 C 198.882812 60.65625 189.53125 51.308594 189.53125 39.78125 L 189.53125 26.441406 C 189.53125 14.914062 198.882812 5.570312 210.40625 5.570312 L 609.40625 5.570312 C 620.933594 5.570312 630.28125 14.914062 630.28125 26.441406 L 630.28125 39.78125 C 630.28125 51.308594 620.933594 60.65625 609.40625 60.65625 " fill-opacity="1" fill-rule="nonzero"/></g><path fill="#76caee" d="M 609.40625 33.113281 L 210.40625 33.113281 C 201.375 33.113281 193.710938 27.363281 190.796875 19.339844 C 189.996094 21.558594 189.53125 23.945312 189.53125 26.449219 L 189.53125 39.777344 C 189.53125 51.308594 198.882812 60.65625 210.40625 60.65625 L 609.40625 60.65625 C 620.933594 60.65625 630.28125 51.308594 630.28125 39.777344 L 630.28125 26.449219 C 630.28125 23.945312 629.816406 21.558594 629.015625 19.339844 C 626.105469 27.363281 618.4375 33.113281 609.40625 33.113281 " fill-opacity="1" fill-rule="nonzero"/><path fill="#fad331" d="M 740.46875 583.972656 L 671.601562 556.429688 L 644.054688 487.574219 L 616.507812 556.429688 L 547.640625 583.972656 L 616.507812 611.515625 L 644.054688 680.375 L 671.601562 611.515625 L 740.46875 583.972656 " fill-opacity="1" fill-rule="nonzero"/><path fill="#eca710" d="M 740.46875 583.972656 L 644.054688 583.972656 L 644.054688 487.574219 L 616.507812 556.429688 L 547.640625 583.972656 L 616.507812 611.515625 L 644.054688 680.375 L 671.601562 611.515625 L 740.46875 583.972656 " fill-opacity="1" fill-rule="nonzero"/><path fill="#fad331" d="M 230.851562 694.144531 L 161.984375 666.601562 L 134.4375 597.746094 L 106.894531 666.601562 L 38.027344 694.144531 L 106.894531 721.6875 L 134.4375 790.546875 L 161.984375 721.6875 L 230.851562 694.144531 " fill-opacity="1" fill-rule="nonzero"/><path fill="#eca710" d="M 230.851562 694.144531 L 134.4375 694.144531 L 134.4375 597.746094 L 106.894531 666.601562 L 38.027344 694.144531 L 106.894531 721.6875 L 134.4375 790.546875 L 161.984375 721.6875 L 230.851562 694.144531 " fill-opacity="1" fill-rule="nonzero"/><path fill="#a8e0f4" d="M 299.71875 418.714844 C 258.015625 377.015625 245.480469 314.339844 267.9375 259.8125 L 295.800781 192.152344 C 314.839844 145.914062 359.90625 115.742188 409.90625 115.742188 C 459.910156 115.742188 504.976562 145.914062 524.015625 192.152344 L 551.878906 259.8125 C 574.332031 314.339844 561.796875 377.015625 520.09375 418.714844 L 299.71875 418.714844 " fill-opacity="1" fill-rule="nonzero"/><path fill="#559ddb" d="M 294.011719 259.8125 L 321.871094 192.152344 C 339.246094 149.976562 378.269531 121.175781 422.941406 116.441406 C 418.644531 115.988281 414.296875 115.742188 409.90625 115.742188 C 359.90625 115.742188 314.839844 145.914062 295.800781 192.152344 L 267.9375 259.8125 C 245.480469 314.339844 258.015625 377.015625 299.71875 418.714844 L 325.792969 418.714844 C 284.089844 377.015625 271.554688 314.339844 294.011719 259.8125 " fill-opacity="1" fill-rule="nonzero"/><path fill="#76caee" d="M 451.226562 418.714844 C 500.578125 369.371094 512.808594 293.984375 481.597656 231.570312 L 469.707031 207.777344 C 458.382812 185.136719 435.234375 170.828125 409.90625 170.828125 C 384.578125 170.828125 361.429688 185.136719 350.105469 207.777344 L 338.214844 231.570312 C 307.003906 293.984375 319.238281 369.371094 368.585938 418.714844 L 451.226562 418.714844 " fill-opacity="1" fill-rule="nonzero"/><path fill="#559ddb" d="M 481.597656 231.570312 L 469.707031 207.785156 C 458.382812 185.136719 435.234375 170.828125 409.90625 170.828125 C 391.890625 170.828125 374.996094 178.097656 362.65625 190.4375 C 371.09375 186.65625 380.371094 184.597656 389.953125 184.597656 C 415.28125 184.597656 438.429688 198.910156 449.753906 221.554688 L 461.652344 245.339844 C 490.085938 302.203125 482.445312 369.820312 443.546875 418.714844 L 451.226562 418.714844 C 500.578125 369.371094 512.808594 293.984375 481.597656 231.570312 " fill-opacity="1" fill-rule="nonzero"/><g clip-path="url(#082bbae9d5)"><path fill="#559ddb" d="M 561.414062 804.320312 L 258.398438 804.320312 C 243.1875 804.320312 230.851562 791.984375 230.851562 776.777344 C 230.851562 761.566406 243.1875 749.234375 258.398438 749.234375 L 561.414062 749.234375 C 576.625 749.234375 588.960938 761.566406 588.960938 776.777344 C 588.960938 791.984375 576.625 804.320312 561.414062 804.320312 " fill-opacity="1" fill-rule="nonzero"/></g><path fill="#eca710" d="M 671.601562 170.828125 L 409.90625 432.488281 L 451.226562 473.800781 L 712.921875 212.140625 L 671.601562 170.828125 " fill-opacity="1" fill-rule="nonzero"/><path fill="#ce731e" d="M 685.375 184.597656 L 423.679688 446.257812 L 451.226562 473.800781 L 712.921875 212.140625 L 685.375 184.597656 " fill-opacity="1" fill-rule="nonzero"/><path fill="#ce731e" d="M 223.964844 384.285156 L 299.71875 460.03125 L 341.039062 418.714844 L 265.285156 342.972656 C 253.875 331.558594 235.378906 331.558594 223.964844 342.972656 C 212.554688 354.382812 212.554688 372.875 223.964844 384.285156 " fill-opacity="1" fill-rule="nonzero"/><path fill="#eca710" d="M 253.1875 370.515625 L 321.214844 438.539062 L 341.039062 418.714844 L 265.285156 342.972656 C 253.875 331.558594 235.378906 331.558594 223.964844 342.972656 C 217.316406 349.621094 214.570312 358.679688 215.675781 367.339844 C 227.078125 359.257812 242.964844 360.300781 253.1875 370.515625 " fill-opacity="1" fill-rule="nonzero"/><path fill="#67b330" d="M 699.148438 74.425781 L 809.335938 184.597656 L 790.832031 203.097656 C 776.226562 217.703125 756.40625 225.914062 735.738281 225.914062 C 692.710938 225.914062 657.828125 191.035156 657.828125 148.011719 C 657.828125 127.347656 666.039062 107.53125 680.644531 92.925781 L 699.148438 74.425781 " fill-opacity="1" fill-rule="nonzero"/><path fill="#91ce27" d="M 680.644531 148.011719 L 699.148438 129.511719 L 781.027344 211.382812 C 784.492188 208.902344 787.78125 206.152344 790.832031 203.097656 L 809.335938 184.597656 L 699.148438 74.425781 L 680.644531 92.925781 C 666.039062 107.53125 657.828125 127.347656 657.828125 148.011719 C 657.828125 157.722656 659.625 167.015625 662.871094 175.589844 C 666.738281 165.339844 672.75 155.914062 680.644531 148.011719 " fill-opacity="1" fill-rule="nonzero"/><path fill="#559ddb" d="M 465 666.601562 C 350.898438 666.601562 258.398438 574.117188 258.398438 460.03125 L 258.398438 418.714844 L 203.304688 418.714844 L 203.304688 487.574219 C 203.304688 601.660156 295.804688 694.144531 409.90625 694.144531 C 454.140625 694.144531 495.121094 680.242188 528.730469 656.570312 C 508.652344 663.074219 487.242188 666.601562 465 666.601562 " fill-opacity="1" fill-rule="nonzero"/><path fill="#a8e0f4" d="M 616.507812 418.714844 L 203.304688 418.714844 L 203.304688 473.800781 L 616.507812 473.800781 L 616.507812 418.714844 " fill-opacity="1" fill-rule="nonzero"/></svg>