<svg xmlns="http://www.w3.org/2000/svg" xmlns:xlink="http://www.w3.org/1999/xlink" width="1080" zoomAndPan="magnify" viewBox="0 0 810 809.999993" height="1080" preserveAspectRatio="xMidYMid meet" version="1.0"><defs><clipPath id="715bb3d13b"><path d="M 24 75.429688 L 622 75.429688 L 622 440 L 24 440 Z M 24 75.429688 " clip-rule="nonzero"/></clipPath><clipPath id="f0f945a3a3"><path d="M 48 75.429688 L 647 75.429688 L 647 440 L 48 440 Z M 48 75.429688 " clip-rule="nonzero"/></clipPath><clipPath id="949d8b81cf"><path d="M 5 649 L 81 649 L 81 734.679688 L 5 734.679688 Z M 5 649 " clip-rule="nonzero"/></clipPath></defs><path fill="#3c4664" d="M 372.5625 521.441406 C 410.382812 552.398438 461.226562 558.496094 508.097656 550.203125 C 520.742188 547.964844 533.167969 544.710938 545.394531 540.8125 C 557.347656 537.007812 569.152344 532.734375 581.21875 529.285156 C 592.96875 525.929688 605.011719 523.34375 617.269531 523 C 627.746094 522.710938 638.199219 523.988281 648.320312 526.703125 C 671.238281 532.847656 691.933594 546.179688 706.734375 564.757812 C 709.121094 567.75 713.308594 563.515625 710.941406 560.546875 C 697.839844 544.105469 680.140625 531.699219 660.484375 524.351562 C 639.609375 516.546875 617.359375 515.304688 595.574219 519.632812 C 570.835938 524.546875 547.601562 534.953125 523.136719 540.949219 C 498.386719 547.015625 472.539062 549.671875 447.171875 546.367188 C 421.742188 543.054688 396.71875 533.5625 376.769531 517.234375 C 373.828125 514.824219 369.59375 519.011719 372.5625 521.441406 Z M 372.5625 521.441406 " fill-opacity="1" fill-rule="nonzero"/><path fill="#2f374f" d="M 467.113281 557.398438 C 467.113281 560.046875 466.039062 562.449219 464.316406 564.183594 C 462.582031 565.90625 460.179688 566.980469 457.535156 566.980469 L 249.449219 566.980469 C 228.847656 566.980469 214.371094 546.726562 221.039062 527.246094 L 240.894531 469.226562 L 280.109375 354.589844 L 428.8125 358.527344 L 392.921875 469.226562 L 370.980469 536.894531 C 369.226562 542.289062 373.25 547.832031 378.925781 547.832031 L 457.535156 547.832031 C 462.828125 547.835938 467.113281 552.121094 467.113281 557.398438 Z M 467.113281 557.398438 " fill-opacity="1" fill-rule="nonzero"/><path fill="#555e7c" d="M 485.542969 557.398438 C 485.542969 560.046875 484.46875 562.449219 482.746094 564.183594 C 481.011719 565.90625 478.609375 566.980469 475.960938 566.980469 L 267.875 566.980469 C 247.273438 566.980469 232.796875 546.726562 239.464844 527.246094 L 259.320312 469.226562 L 298.535156 354.589844 L 447.238281 358.527344 L 411.347656 469.226562 L 389.410156 536.894531 C 387.65625 542.292969 391.675781 547.835938 397.351562 547.835938 L 475.964844 547.835938 C 481.257812 547.835938 485.542969 552.121094 485.542969 557.398438 Z M 485.542969 557.398438 " fill-opacity="1" fill-rule="nonzero"/><path fill="#2f374f" d="M 447.238281 358.527344 L 411.347656 469.226562 L 259.320312 469.226562 L 298.535156 354.589844 Z M 447.238281 358.527344 " fill-opacity="1" fill-rule="nonzero"/><g clip-path="url(#715bb3d13b)"><path fill="#2f374f" d="M 24.152344 87 L 60.960938 430.605469 C 61.53125 435.921875 66.015625 439.953125 71.359375 439.953125 L 611.4375 439.953125 C 617.773438 439.953125 622.652344 434.363281 621.800781 428.085938 L 575.175781 84.480469 C 574.46875 79.292969 570.042969 75.425781 564.8125 75.425781 L 34.550781 75.425781 C 28.332031 75.425781 23.492188 80.816406 24.152344 87 Z M 24.152344 87 " fill-opacity="1" fill-rule="nonzero"/></g><g clip-path="url(#f0f945a3a3)"><path fill="#555e7c" d="M 48.414062 87 L 85.222656 430.605469 C 85.792969 435.921875 90.277344 439.953125 95.621094 439.953125 L 635.699219 439.953125 C 642.035156 439.953125 646.914062 434.363281 646.0625 428.085938 L 599.4375 84.480469 C 598.734375 79.292969 594.308594 75.425781 589.074219 75.425781 L 58.8125 75.425781 C 52.597656 75.425781 47.753906 80.816406 48.414062 87 Z M 48.414062 87 " fill-opacity="1" fill-rule="nonzero"/></g><path fill="#85c5ff" d="M 621.070312 416.699219 C 620.605469 417.238281 619.796875 417.855469 618.535156 417.855469 L 109.09375 417.855469 C 107.382812 417.855469 105.941406 416.5625 105.746094 414.855469 L 98.308594 345.351562 L 94.496094 309.761719 L 72.15625 101.246094 C 72.035156 100 72.546875 99.132812 72.996094 98.636719 C 73.460938 98.125 74.257812 97.523438 75.503906 97.523438 L 575.976562 97.523438 C 577.65625 97.523438 579.082031 98.785156 579.308594 100.421875 L 607.71875 309.761719 L 612.535156 345.351562 L 621.867188 414.039062 C 622.046875 415.289062 621.535156 416.171875 621.070312 416.699219 Z M 621.070312 416.699219 " fill-opacity="1" fill-rule="nonzero"/><path fill="#88ddff" d="M 621.070312 416.699219 C 620.605469 417.238281 619.796875 417.855469 618.535156 417.855469 L 263.371094 417.855469 L 455.0625 97.523438 L 575.976562 97.523438 C 577.65625 97.523438 579.082031 98.785156 579.308594 100.421875 L 607.71875 309.761719 L 612.535156 345.351562 L 621.867188 414.039062 C 622.046875 415.289062 621.535156 416.171875 621.070312 416.699219 Z M 621.070312 416.699219 " fill-opacity="1" fill-rule="nonzero"/><path fill="#555e7c" d="M 621.070312 416.707031 C 620.613281 417.234375 619.796875 417.859375 618.539062 417.859375 L 109.097656 417.859375 C 107.382812 417.859375 105.9375 416.566406 105.75 414.851562 L 104.546875 403.632812 L 98.308594 345.351562 L 612.542969 345.351562 L 620.460938 403.632812 L 621.871094 414.035156 C 622.039062 415.292969 621.53125 416.175781 621.070312 416.707031 Z M 621.070312 416.707031 " fill-opacity="1" fill-rule="nonzero"/><path fill="#2f374f" d="M 621.070312 416.707031 C 620.613281 417.234375 619.796875 417.859375 618.539062 417.859375 L 109.097656 417.859375 C 107.382812 417.859375 105.9375 416.566406 105.75 414.851562 L 104.546875 403.632812 L 620.457031 403.632812 L 621.867188 414.035156 C 622.039062 415.292969 621.53125 416.175781 621.070312 416.707031 Z M 621.070312 416.707031 " fill-opacity="1" fill-rule="nonzero"/><path fill="#ffffff" d="M 372.5 375.609375 C 372.628906 376.726562 372.667969 377.84375 372.609375 378.960938 C 372.554688 380.078125 372.410156 381.175781 372.171875 382.25 C 371.933594 383.324219 371.605469 384.355469 371.195312 385.34375 C 370.785156 386.335938 370.292969 387.261719 369.726562 388.128906 C 369.15625 388.996094 368.519531 389.785156 367.8125 390.496094 C 367.109375 391.207031 366.351562 391.828125 365.535156 392.355469 C 364.722656 392.882812 363.871094 393.308594 362.980469 393.632812 C 362.089844 393.957031 361.175781 394.171875 360.242188 394.277344 C 359.308594 394.386719 358.371094 394.382812 357.429688 394.273438 C 356.488281 394.160156 355.5625 393.9375 354.652344 393.609375 C 353.738281 393.28125 352.859375 392.851562 352.011719 392.320312 C 351.160156 391.789062 350.363281 391.167969 349.609375 390.453125 C 348.859375 389.738281 348.167969 388.945312 347.542969 388.078125 C 346.917969 387.207031 346.367188 386.277344 345.890625 385.285156 C 345.414062 384.292969 345.019531 383.257812 344.710938 382.183594 C 344.402344 381.105469 344.183594 380.011719 344.054688 378.890625 C 343.925781 377.773438 343.886719 376.65625 343.945312 375.539062 C 344 374.421875 344.148438 373.324219 344.386719 372.25 C 344.621094 371.175781 344.949219 370.144531 345.359375 369.15625 C 345.769531 368.164062 346.261719 367.238281 346.832031 366.371094 C 347.398438 365.503906 348.035156 364.714844 348.742188 364.003906 C 349.445312 363.292969 350.203125 362.671875 351.019531 362.144531 C 351.832031 361.617188 352.683594 361.191406 353.574219 360.867188 C 354.464844 360.542969 355.378906 360.328125 356.3125 360.222656 C 357.246094 360.113281 358.183594 360.117188 359.125 360.226562 C 360.066406 360.339844 360.992188 360.558594 361.90625 360.886719 C 362.816406 361.21875 363.695312 361.648438 364.546875 362.179688 C 365.394531 362.710938 366.191406 363.332031 366.945312 364.046875 C 367.695312 364.761719 368.386719 365.554688 369.011719 366.421875 C 369.636719 367.292969 370.1875 368.222656 370.664062 369.214844 C 371.140625 370.207031 371.535156 371.242188 371.84375 372.316406 C 372.152344 373.390625 372.371094 374.488281 372.5 375.609375 Z M 372.5 375.609375 " fill-opacity="1" fill-rule="nonzero"/><path fill="#ffffff" d="M 155.066406 136.796875 L 159.988281 183.613281 C 160.015625 183.871094 159.828125 184.082031 159.554688 184.082031 L 109.714844 184.082031 C 109.460938 184.082031 109.226562 183.871094 109.199219 183.613281 L 102.933594 124.011719 C 102.90625 123.738281 103.09375 123.53125 103.351562 123.53125 L 141.660156 123.53125 C 141.796875 123.53125 141.921875 123.589844 142.023438 123.695312 L 142.191406 123.863281 L 154.339844 135.90625 L 154.910156 136.480469 C 154.996094 136.570312 155.054688 136.6875 155.066406 136.796875 Z M 155.066406 136.796875 " fill-opacity="1" fill-rule="nonzero"/><path fill="#eeeae7" d="M 154.339844 135.90625 L 143.65625 135.90625 C 143.382812 135.90625 143.152344 135.695312 143.121094 135.4375 L 141.953125 124.300781 C 141.933594 124.101562 142.035156 123.953125 142.191406 123.863281 Z M 154.339844 135.90625 " fill-opacity="1" fill-rule="nonzero"/><path fill="#ffcf57" d="M 223.175781 136.796875 L 228.09375 183.613281 C 228.125 183.871094 227.933594 184.082031 227.664062 184.082031 L 177.824219 184.082031 C 177.566406 184.082031 177.332031 183.871094 177.308594 183.613281 L 171.042969 124.015625 C 171.015625 123.742188 171.203125 123.53125 171.460938 123.53125 L 209.769531 123.53125 C 209.90625 123.53125 210.03125 123.589844 210.132812 123.699219 L 210.300781 123.863281 L 222.449219 135.910156 L 223.019531 136.480469 C 223.105469 136.570312 223.164062 136.6875 223.175781 136.796875 Z M 223.175781 136.796875 " fill-opacity="1" fill-rule="nonzero"/><path fill="#ff9d5a" d="M 222.449219 135.90625 L 211.765625 135.90625 C 211.492188 135.90625 211.261719 135.695312 211.230469 135.4375 L 210.0625 124.300781 C 210.042969 124.101562 210.144531 123.953125 210.304688 123.863281 Z M 222.449219 135.90625 " fill-opacity="1" fill-rule="nonzero"/><path fill="#ffffff" d="M 291.28125 136.796875 L 296.203125 183.613281 C 296.230469 183.871094 296.042969 184.082031 295.769531 184.082031 L 245.929688 184.082031 C 245.675781 184.082031 245.441406 183.871094 245.414062 183.613281 L 239.152344 124.015625 C 239.125 123.742188 239.3125 123.53125 239.566406 123.53125 L 277.878906 123.53125 C 278.011719 123.53125 278.140625 123.589844 278.242188 123.699219 L 278.410156 123.863281 L 290.554688 135.910156 L 291.128906 136.480469 C 291.214844 136.570312 291.269531 136.6875 291.28125 136.796875 Z M 291.28125 136.796875 " fill-opacity="1" fill-rule="nonzero"/><path fill="#eeeae7" d="M 290.554688 135.90625 L 279.871094 135.90625 C 279.601562 135.90625 279.367188 135.695312 279.339844 135.4375 L 278.167969 124.300781 C 278.148438 124.101562 278.253906 123.953125 278.410156 123.863281 Z M 290.554688 135.90625 " fill-opacity="1" fill-rule="nonzero"/><path fill="#ffcf57" d="M 359.390625 136.796875 L 364.3125 183.613281 C 364.339844 183.871094 364.152344 184.082031 363.878906 184.082031 L 314.039062 184.082031 C 313.78125 184.082031 313.546875 183.871094 313.523438 183.613281 L 307.257812 124.015625 C 307.230469 123.742188 307.417969 123.53125 307.675781 123.53125 L 345.984375 123.53125 C 346.121094 123.53125 346.246094 123.589844 346.347656 123.699219 L 346.515625 123.863281 L 358.664062 135.910156 L 359.234375 136.480469 C 359.320312 136.570312 359.378906 136.6875 359.390625 136.796875 Z M 359.390625 136.796875 " fill-opacity="1" fill-rule="nonzero"/><path fill="#ff9d5a" d="M 358.664062 135.90625 L 347.980469 135.90625 C 347.707031 135.90625 347.476562 135.695312 347.449219 135.4375 L 346.277344 124.300781 C 346.257812 124.101562 346.359375 123.953125 346.515625 123.863281 Z M 358.664062 135.90625 " fill-opacity="1" fill-rule="nonzero"/><path fill="#ffffff" d="M 163.480469 216.851562 L 168.402344 263.667969 C 168.429688 263.925781 168.238281 264.136719 167.96875 264.136719 L 118.128906 264.136719 C 117.871094 264.136719 117.636719 263.925781 117.613281 263.667969 L 111.347656 204.066406 C 111.320312 203.796875 111.507812 203.585938 111.765625 203.585938 L 150.074219 203.585938 C 150.210938 203.585938 150.335938 203.644531 150.4375 203.753906 L 150.605469 203.917969 L 162.753906 215.964844 L 163.324219 216.535156 C 163.410156 216.625 163.46875 216.746094 163.480469 216.851562 Z M 163.480469 216.851562 " fill-opacity="1" fill-rule="nonzero"/><path fill="#eeeae7" d="M 162.75 215.960938 L 152.066406 215.960938 C 151.796875 215.960938 151.5625 215.75 151.535156 215.496094 L 150.363281 204.355469 C 150.34375 204.160156 150.449219 204.007812 150.605469 203.917969 Z M 162.75 215.960938 " fill-opacity="1" fill-rule="nonzero"/><path fill="#ffffff" d="M 231.585938 216.851562 L 236.507812 263.667969 C 236.535156 263.925781 236.347656 264.136719 236.074219 264.136719 L 186.234375 264.136719 C 185.980469 264.136719 185.746094 263.925781 185.71875 263.667969 L 179.457031 204.066406 C 179.429688 203.796875 179.617188 203.585938 179.871094 203.585938 L 218.183594 203.585938 C 218.316406 203.585938 218.445312 203.644531 218.546875 203.753906 L 218.714844 203.917969 L 230.863281 215.964844 L 231.433594 216.535156 C 231.519531 216.625 231.574219 216.746094 231.585938 216.851562 Z M 231.585938 216.851562 " fill-opacity="1" fill-rule="nonzero"/><path fill="#eeeae7" d="M 230.863281 215.960938 L 220.175781 215.960938 C 219.90625 215.960938 219.671875 215.75 219.644531 215.496094 L 218.472656 204.355469 C 218.453125 204.160156 218.558594 204.007812 218.714844 203.917969 Z M 230.863281 215.960938 " fill-opacity="1" fill-rule="nonzero"/><path fill="#ffffff" d="M 299.695312 216.851562 L 304.617188 263.667969 C 304.644531 263.925781 304.457031 264.136719 304.183594 264.136719 L 254.34375 264.136719 C 254.089844 264.136719 253.855469 263.925781 253.828125 263.667969 L 247.5625 204.066406 C 247.535156 203.796875 247.726562 203.585938 247.980469 203.585938 L 286.289062 203.585938 C 286.425781 203.585938 286.550781 203.644531 286.652344 203.753906 L 286.824219 203.917969 L 298.96875 215.964844 L 299.539062 216.535156 C 299.625 216.625 299.683594 216.746094 299.695312 216.851562 Z M 299.695312 216.851562 " fill-opacity="1" fill-rule="nonzero"/><path fill="#eeeae7" d="M 298.96875 215.960938 L 288.285156 215.960938 C 288.011719 215.960938 287.78125 215.75 287.753906 215.496094 L 286.582031 204.355469 C 286.5625 204.160156 286.664062 204.007812 286.824219 203.917969 Z M 298.96875 215.960938 " fill-opacity="1" fill-rule="nonzero"/><path fill="#ffffff" d="M 551.925781 240.679688 L 556.847656 287.496094 C 556.875 287.753906 556.6875 287.964844 556.414062 287.964844 L 506.574219 287.964844 C 506.316406 287.964844 506.085938 287.753906 506.058594 287.496094 L 499.792969 227.894531 C 499.765625 227.625 499.957031 227.414062 500.210938 227.414062 L 538.519531 227.414062 C 538.65625 227.414062 538.78125 227.472656 538.882812 227.582031 L 539.050781 227.746094 L 551.199219 239.792969 L 551.769531 240.363281 C 551.859375 240.453125 551.914062 240.574219 551.925781 240.679688 Z M 551.925781 240.679688 " fill-opacity="1" fill-rule="nonzero"/><path fill="#eeeae7" d="M 551.199219 239.789062 L 540.515625 239.789062 C 540.242188 239.789062 540.011719 239.578125 539.984375 239.324219 L 538.8125 228.183594 C 538.792969 227.988281 538.894531 227.835938 539.050781 227.746094 Z M 551.199219 239.789062 " fill-opacity="1" fill-rule="nonzero"/><path fill="#ffffff" d="M 612.539062 345.351562 L 98.308594 345.351562 L 94.5 309.761719 L 607.714844 309.761719 Z M 612.539062 345.351562 " fill-opacity="1" fill-rule="nonzero"/><path fill="#7caffe" d="M 152.828125 326.148438 C 152.828125 326.910156 152.746094 327.664062 152.582031 328.410156 C 152.417969 329.160156 152.175781 329.886719 151.851562 330.589844 C 151.53125 331.292969 151.136719 331.960938 150.671875 332.597656 C 150.203125 333.230469 149.671875 333.816406 149.078125 334.355469 C 148.484375 334.894531 147.835938 335.375 147.136719 335.800781 C 146.441406 336.222656 145.703125 336.582031 144.925781 336.871094 C 144.148438 337.164062 143.347656 337.382812 142.523438 337.53125 C 141.699219 337.679688 140.867188 337.757812 140.027344 337.757812 C 139.1875 337.757812 138.355469 337.679688 137.53125 337.53125 C 136.707031 337.382812 135.90625 337.164062 135.128906 336.871094 C 134.351562 336.582031 133.613281 336.222656 132.917969 335.800781 C 132.21875 335.375 131.570312 334.894531 130.976562 334.355469 C 130.382812 333.816406 129.851562 333.230469 129.386719 332.597656 C 128.917969 331.960938 128.523438 331.292969 128.203125 330.589844 C 127.878906 329.886719 127.636719 329.160156 127.472656 328.410156 C 127.308594 327.664062 127.226562 326.910156 127.226562 326.148438 C 127.226562 325.382812 127.308594 324.628906 127.472656 323.882812 C 127.636719 323.132812 127.878906 322.40625 128.203125 321.703125 C 128.523438 321 128.917969 320.332031 129.386719 319.695312 C 129.851562 319.0625 130.382812 318.476562 130.976562 317.9375 C 131.570312 317.398438 132.21875 316.917969 132.917969 316.492188 C 133.613281 316.070312 134.351562 315.710938 135.128906 315.421875 C 135.90625 315.128906 136.707031 314.910156 137.53125 314.761719 C 138.355469 314.613281 139.1875 314.539062 140.027344 314.539062 C 140.867188 314.539062 141.699219 314.613281 142.523438 314.761719 C 143.347656 314.910156 144.148438 315.128906 144.925781 315.421875 C 145.703125 315.710938 146.441406 316.070312 147.136719 316.492188 C 147.835938 316.917969 148.484375 317.398438 149.078125 317.9375 C 149.671875 318.476562 150.203125 319.0625 150.671875 319.695312 C 151.136719 320.332031 151.53125 321 151.851562 321.703125 C 152.175781 322.40625 152.417969 323.132812 152.582031 323.882812 C 152.746094 324.628906 152.828125 325.382812 152.828125 326.148438 Z M 152.828125 326.148438 " fill-opacity="1" fill-rule="nonzero"/><path fill="#ffffff" d="M 437.332031 163.167969 C 422.703125 187.230469 408.078125 211.292969 393.449219 235.355469 C 391.453125 238.636719 396.601562 241.632812 398.589844 238.359375 C 413.214844 214.296875 427.84375 190.238281 442.46875 166.175781 C 444.464844 162.890625 439.320312 159.898438 437.332031 163.167969 Z M 437.332031 163.167969 " fill-opacity="1" fill-rule="nonzero"/><path fill="#ffffff" d="M 487.835938 137.292969 C 481.488281 147.734375 475.140625 158.175781 468.792969 168.617188 C 466.796875 171.898438 471.941406 174.894531 473.929688 171.621094 C 480.277344 161.179688 486.625 150.738281 492.972656 140.296875 C 494.96875 137.015625 489.824219 134.019531 487.835938 137.292969 Z M 487.835938 137.292969 " fill-opacity="1" fill-rule="nonzero"/><path fill="#3c4664" d="M 257.910156 552.0625 C 303.976562 552.0625 350.046875 552.0625 396.113281 552.0625 C 409.160156 552.0625 422.203125 552.0625 435.25 552.0625 C 439.078125 552.0625 439.085938 546.109375 435.25 546.109375 C 389.179688 546.109375 343.109375 546.109375 297.042969 546.109375 C 284 546.109375 270.953125 546.109375 257.910156 546.109375 C 254.078125 546.109375 254.074219 552.0625 257.910156 552.0625 Z M 257.910156 552.0625 " fill-opacity="1" fill-rule="nonzero"/><path fill="#3c4664" d="M 304 528.820312 C 319.152344 528.820312 334.304688 528.820312 349.453125 528.820312 C 353.285156 528.820312 353.292969 522.867188 349.453125 522.867188 C 334.304688 522.867188 319.152344 522.867188 304 522.867188 C 300.167969 522.867188 300.164062 528.820312 304 528.820312 Z M 304 528.820312 " fill-opacity="1" fill-rule="nonzero"/><path fill="#3c4664" d="M 119.128906 391.171875 C 164.183594 391.476562 209.238281 391.785156 254.289062 392.089844 C 267.117188 392.179688 279.941406 392.265625 292.765625 392.351562 C 296.597656 392.378906 296.601562 386.425781 292.765625 386.398438 C 247.710938 386.09375 202.660156 385.785156 157.605469 385.480469 C 144.78125 385.390625 131.957031 385.304688 119.128906 385.21875 C 115.300781 385.191406 115.296875 391.144531 119.128906 391.171875 Z M 119.128906 391.171875 " fill-opacity="1" fill-rule="nonzero"/><path fill="#3c4664" d="M 302.46875 392.441406 C 307.574219 392.441406 312.683594 392.441406 317.789062 392.441406 C 319.347656 392.441406 320.835938 391.070312 320.765625 389.464844 C 320.695312 387.851562 319.457031 386.488281 317.789062 386.488281 C 312.683594 386.488281 307.574219 386.488281 302.46875 386.488281 C 300.910156 386.488281 299.417969 387.855469 299.492188 389.464844 C 299.566406 391.074219 300.800781 392.441406 302.46875 392.441406 Z M 302.46875 392.441406 " fill-opacity="1" fill-rule="nonzero"/><path fill="#3c4664" d="M 420.949219 390.910156 C 468.859375 390.910156 516.765625 390.910156 564.675781 390.910156 C 578.21875 390.910156 591.765625 390.910156 605.3125 390.910156 C 609.144531 390.910156 609.152344 384.957031 605.3125 384.957031 C 557.40625 384.957031 509.5 384.957031 461.589844 384.957031 C 448.042969 384.957031 434.496094 384.957031 420.949219 384.957031 C 417.117188 384.957031 417.113281 390.910156 420.949219 390.910156 Z M 420.949219 390.910156 " fill-opacity="1" fill-rule="nonzero"/><path fill="#2f374f" d="M 101.054688 596.972656 L 607.5625 592.730469 C 620.652344 592.621094 634.203125 598.398438 640.75 606.878906 L 700.082031 683.78125 C 709.546875 696.046875 700.625 708.488281 681.886719 709.15625 L 144.300781 728.273438 C 127.53125 728.871094 110.308594 719.660156 106.78125 708.210938 L 78.523438 616.433594 C 75.226562 605.730469 85.214844 597.105469 101.054688 596.972656 Z M 101.054688 596.972656 " fill-opacity="1" fill-rule="nonzero"/><path fill="#555e7c" d="M 692.140625 696.394531 L 154.550781 715.511719 C 137.785156 716.121094 120.550781 706.902344 117.035156 695.457031 L 88.769531 603.679688 C 85.480469 592.976562 95.457031 584.351562 111.304688 584.21875 L 617.8125 579.976562 C 630.902344 579.863281 644.453125 585.644531 650.992188 594.132812 L 710.332031 671.027344 C 719.792969 683.289062 710.871094 695.730469 692.140625 696.394531 Z M 692.140625 696.394531 " fill-opacity="1" fill-rule="nonzero"/><path fill="#8891a8" d="M 567.054688 632.488281 L 556.207031 610.433594 L 506.109375 611.128906 L 517.128906 633.429688 Z M 567.054688 632.488281 " fill-opacity="1" fill-rule="nonzero"/><path fill="#8891a8" d="M 500.019531 611.214844 L 447.269531 611.945312 L 457.625 634.542969 L 511.054688 633.542969 Z M 500.019531 611.214844 " fill-opacity="1" fill-rule="nonzero"/><path fill="#8891a8" d="M 465.234375 664.507812 L 453.503906 638.894531 L 402.320312 639.855469 L 413.402344 666.011719 Z M 465.234375 664.507812 " fill-opacity="1" fill-rule="nonzero"/><path fill="#8891a8" d="M 581.140625 661.136719 L 569.136719 636.722656 L 519.222656 637.660156 L 531.539062 662.582031 Z M 581.140625 661.136719 " fill-opacity="1" fill-rule="nonzero"/><path fill="#8891a8" d="M 560.210938 606.113281 L 599.222656 605.570312 L 592.421875 594.027344 L 554.421875 594.34375 Z M 560.210938 606.113281 " fill-opacity="1" fill-rule="nonzero"/><path fill="#8891a8" d="M 631.109375 659.6875 L 617.050781 635.824219 L 575.210938 636.613281 L 587.183594 660.964844 Z M 631.109375 659.6875 " fill-opacity="1" fill-rule="nonzero"/><path fill="#8891a8" d="M 451.558594 634.660156 L 441.191406 612.03125 L 390.828125 612.730469 L 400.523438 635.613281 Z M 451.558594 634.660156 " fill-opacity="1" fill-rule="nonzero"/><path fill="#8891a8" d="M 504.011719 606.890625 L 554.121094 606.195312 L 548.320312 594.398438 L 498.046875 594.816406 Z M 504.011719 606.890625 " fill-opacity="1" fill-rule="nonzero"/><path fill="#8891a8" d="M 562.292969 610.351562 L 573.125 632.375 L 614.5625 631.597656 L 601.71875 609.804688 Z M 562.292969 610.351562 " fill-opacity="1" fill-rule="nonzero"/><path fill="#8891a8" d="M 347.542969 667.929688 L 335.234375 641.117188 L 281.15625 642.128906 L 293.066406 669.511719 Z M 347.542969 667.929688 " fill-opacity="1" fill-rule="nonzero"/><path fill="#8891a8" d="M 287.039062 669.6875 L 275.101562 642.242188 L 225.265625 643.179688 L 236.246094 671.164062 Z M 287.039062 669.6875 " fill-opacity="1" fill-rule="nonzero"/><path fill="#8891a8" d="M 261.191406 610.261719 L 255.359375 596.851562 L 207.25 597.253906 L 212.617188 610.9375 Z M 261.191406 610.261719 " fill-opacity="1" fill-rule="nonzero"/><path fill="#8891a8" d="M 620.6875 631.484375 L 658.550781 630.773438 L 641.9375 609.246094 L 607.859375 609.71875 Z M 620.6875 631.484375 " fill-opacity="1" fill-rule="nonzero"/><path fill="#8891a8" d="M 152.796875 616.03125 L 112.535156 616.589844 L 120.015625 640.882812 L 161.515625 640.101562 Z M 152.796875 616.03125 " fill-opacity="1" fill-rule="nonzero"/><path fill="#8891a8" d="M 214.28125 615.179688 L 223.601562 638.9375 L 273.257812 638.003906 L 263.035156 614.503906 Z M 214.28125 615.179688 " fill-opacity="1" fill-rule="nonzero"/><path fill="#8891a8" d="M 384.757812 612.8125 L 328.714844 613.589844 L 339.351562 636.765625 L 394.46875 635.730469 Z M 384.757812 612.8125 " fill-opacity="1" fill-rule="nonzero"/><path fill="#8891a8" d="M 445.324219 607.707031 L 497.921875 606.976562 L 491.9375 594.871094 L 439.644531 595.304688 Z M 445.324219 607.707031 " fill-opacity="1" fill-rule="nonzero"/><path fill="#8891a8" d="M 322.636719 613.675781 L 269.105469 614.417969 L 279.3125 637.890625 L 333.289062 636.878906 Z M 322.636719 613.675781 " fill-opacity="1" fill-rule="nonzero"/><path fill="#8891a8" d="M 407.371094 666.191406 L 396.265625 639.96875 L 341.296875 641 L 353.578125 667.753906 Z M 407.371094 666.191406 " fill-opacity="1" fill-rule="nonzero"/><path fill="#8891a8" d="M 525.492188 662.753906 L 513.148438 637.777344 L 459.5625 638.78125 L 471.269531 664.332031 Z M 525.492188 662.753906 " fill-opacity="1" fill-rule="nonzero"/><path fill="#8891a8" d="M 583.222656 665.367188 L 533.628906 666.808594 L 543.949219 687.6875 L 593.335938 685.933594 Z M 583.222656 665.367188 " fill-opacity="1" fill-rule="nonzero"/><path fill="#8891a8" d="M 633.59375 663.902344 L 589.265625 665.191406 L 599.359375 685.71875 L 645.480469 684.078125 Z M 633.59375 663.902344 " fill-opacity="1" fill-rule="nonzero"/><path fill="#8891a8" d="M 661.800781 634.984375 L 623.175781 635.710938 L 637.199219 659.507812 L 679.769531 658.273438 Z M 661.800781 634.984375 " fill-opacity="1" fill-rule="nonzero"/><path fill="#8891a8" d="M 683.007812 662.46875 L 639.683594 663.726562 L 651.546875 683.863281 L 686.660156 682.613281 C 689.726562 682.503906 692.125 681.5 693.234375 679.851562 C 693.914062 678.847656 694.382812 677.214844 692.777344 675.132812 Z M 683.007812 662.46875 " fill-opacity="1" fill-rule="nonzero"/><path fill="#ffffff" d="M 605.367188 605.484375 L 638.679688 605.023438 L 633.4375 598.230469 C 631.527344 595.753906 627.46875 593.96875 623.339844 593.789062 C 623.070312 593.777344 622.800781 593.773438 622.53125 593.777344 L 598.582031 593.976562 Z M 605.367188 605.484375 " fill-opacity="1" fill-rule="nonzero"/><path fill="#8891a8" d="M 174.960938 677.234375 L 131.597656 678.496094 L 136.871094 695.617188 C 137.839844 698.765625 142.753906 701.507812 147.828125 701.726562 C 148.242188 701.742188 148.664062 701.746094 149.074219 701.730469 L 183.390625 700.507812 Z M 174.960938 677.234375 " fill-opacity="1" fill-rule="nonzero"/><path fill="#8891a8" d="M 151.257812 611.789062 L 146.183594 597.765625 L 116.023438 598.015625 C 110.875 598.058594 107.617188 600.617188 108.613281 603.839844 L 111.230469 612.339844 Z M 151.257812 611.789062 " fill-opacity="1" fill-rule="nonzero"/><path fill="#8891a8" d="M 157.320312 611.703125 L 206.554688 611.019531 L 201.171875 597.304688 L 152.253906 597.714844 Z M 157.320312 611.703125 " fill-opacity="1" fill-rule="nonzero"/><path fill="#8891a8" d="M 267.261719 610.179688 L 320.691406 609.4375 L 314.683594 596.355469 L 261.441406 596.796875 Z M 267.261719 610.179688 " fill-opacity="1" fill-rule="nonzero"/><path fill="#8891a8" d="M 389.03125 608.488281 L 439.25 607.789062 L 433.554688 595.359375 L 383.644531 595.777344 Z M 389.03125 608.488281 " fill-opacity="1" fill-rule="nonzero"/><path fill="#8891a8" d="M 163.050781 644.347656 L 121.324219 645.128906 L 130.289062 674.242188 L 173.425781 672.988281 Z M 163.050781 644.347656 " fill-opacity="1" fill-rule="nonzero"/><path fill="#8891a8" d="M 326.765625 609.351562 L 382.960938 608.570312 L 377.5625 595.824219 L 320.777344 596.300781 Z M 326.765625 609.351562 " fill-opacity="1" fill-rule="nonzero"/><path fill="#8891a8" d="M 288.882812 673.925781 L 237.910156 675.40625 L 246.875 698.253906 L 298.660156 696.414062 Z M 288.882812 673.925781 " fill-opacity="1" fill-rule="nonzero"/><path fill="#8891a8" d="M 217.550781 639.050781 L 208.21875 615.265625 L 158.855469 615.949219 L 167.5625 639.988281 Z M 217.550781 639.050781 " fill-opacity="1" fill-rule="nonzero"/><path fill="#8891a8" d="M 231.882812 675.582031 L 180.988281 677.058594 L 189.40625 700.296875 L 240.863281 698.464844 Z M 231.882812 675.582031 " fill-opacity="1" fill-rule="nonzero"/><path fill="#8891a8" d="M 230.21875 671.339844 L 219.214844 643.292969 L 169.101562 644.234375 L 179.449219 672.816406 Z M 230.21875 671.339844 " fill-opacity="1" fill-rule="nonzero"/><path fill="#8891a8" d="M 298.867188 673.648438 L 524.609375 666.855469 C 526.230469 666.804688 527.917969 667.660156 528.445312 668.800781 L 535.441406 683.953125 C 536.003906 685.167969 535.035156 686.234375 533.3125 686.308594 L 307.832031 695.570312 C 306.152344 695.636719 304.402344 694.734375 303.914062 693.550781 L 296.65625 675.929688 C 296.164062 674.726562 297.160156 673.699219 298.867188 673.648438 Z M 298.867188 673.648438 " fill-opacity="1" fill-rule="nonzero"/><path fill="#555e7c" d="M 697.648438 607.257812 C 691.367188 596.371094 690.027344 583.164062 694.679688 571.484375 C 698.363281 562.234375 705.859375 553.367188 720.933594 551.703125 C 754.429688 548.003906 804.792969 576.902344 807.101562 611.898438 C 809.414062 646.898438 761.359375 667.816406 732.253906 646.496094 C 715.046875 633.894531 703.894531 618.082031 697.648438 607.257812 Z M 697.648438 607.257812 " fill-opacity="1" fill-rule="nonzero"/><path fill="#2f374f" d="M 807.101562 611.902344 C 806.542969 603.386719 803.117188 595.234375 797.800781 587.824219 C 795.460938 613.816406 757.582031 631.847656 730.878906 617.914062 C 713.53125 608.863281 701.523438 596.382812 694.609375 587.6875 C 693.640625 586.476562 692.769531 585.207031 691.980469 583.90625 C 691.546875 591.964844 693.523438 600.109375 697.648438 607.257812 C 703.890625 618.082031 715.042969 633.894531 732.25 646.5 C 761.363281 667.816406 809.414062 646.898438 807.101562 611.902344 Z M 807.101562 611.902344 " fill-opacity="1" fill-rule="nonzero"/><path fill="#8891a8" d="M 743.050781 571.871094 C 743.496094 572.183594 744.101562 572.191406 744.550781 571.886719 C 754.488281 565.136719 760.738281 562.679688 760.820312 562.652344 C 760.820312 562.648438 760.820312 562.652344 760.820312 562.652344 C 760.664062 562.558594 738.011719 549.109375 717.621094 555.585938 C 716.449219 555.957031 716.429688 557.625 717.585938 558.050781 C 724.394531 560.546875 733.015625 564.773438 743.050781 571.871094 Z M 743.050781 571.871094 " fill-opacity="1" fill-rule="nonzero"/><path fill="#8891a8" d="M 709.078125 560.214844 C 708.703125 560.121094 708.3125 560.199219 708 560.425781 C 706.59375 561.441406 705.222656 562.585938 703.898438 563.898438 C 703.898438 563.898438 694.683594 570.761719 696.726562 579.972656 C 698.5 587.957031 716.769531 596.871094 721.605469 599.101562 C 722.25 599.398438 723.003906 599.132812 723.316406 598.496094 C 725.085938 594.921875 730.984375 583.695312 738.753906 576.386719 C 739.371094 575.804688 739.3125 574.800781 738.613281 574.324219 C 725.855469 565.640625 715.6875 561.855469 709.078125 560.214844 Z M 709.078125 560.214844 " fill-opacity="1" fill-rule="nonzero"/><path fill="#ffffff" d="M 736.328125 565.375 L 723.027344 558.972656 C 721.679688 558.324219 720.070312 558.570312 718.980469 559.59375 C 717.300781 561.167969 717.496094 563.890625 719.386719 565.210938 L 731.492188 573.652344 C 733.710938 575.199219 736.765625 574.613281 738.253906 572.351562 C 739.859375 569.925781 738.949219 566.636719 736.328125 565.375 Z M 736.328125 565.375 " fill-opacity="1" fill-rule="nonzero"/><path fill="#eeeae7" d="M 8.816406 614.847656 L 6.226562 595.5 C 5.910156 593.160156 7.714844 591.074219 10.074219 591.050781 L 26.492188 590.875 C 28.324219 590.855469 29.929688 592.109375 30.355469 593.898438 L 35.117188 613.957031 Z M 8.816406 614.847656 " fill-opacity="1" fill-rule="nonzero"/><path fill="#555e7c" d="M 50.765625 658.527344 L 29.597656 660.042969 C 29.417969 660.042969 29.222656 660.070312 29.042969 660.101562 L 29.027344 660.117188 L 18.648438 662.070312 C 16.007812 662.566406 14.28125 665.039062 14.699219 667.679688 L 21.976562 713.308594 L 15.78125 713.308594 C 14.746094 713.308594 13.742188 713.171875 12.796875 712.917969 C 7.769531 711.640625 3.992188 707.171875 3.796875 701.753906 L 0.839844 620.761719 C 0.601562 613.980469 6.03125 608.339844 12.824219 608.339844 L 31.113281 608.339844 C 36.84375 608.339844 41.78125 612.40625 42.875 618.03125 L 49.027344 649.613281 Z M 50.765625 658.527344 " fill-opacity="1" fill-rule="nonzero"/><g clip-path="url(#949d8b81cf)"><path fill="#ffcf57" d="M 79.824219 711.894531 L 67.164062 659.949219 C 65.558594 653.332031 59.46875 648.863281 52.65625 649.355469 L 49.027344 649.613281 L 28.953125 651.050781 C 28.414062 651.097656 27.886719 651.15625 27.363281 651.261719 L 16.984375 653.230469 C 9.527344 654.640625 4.621094 661.601562 5.820312 669.101562 L 12.796875 712.917969 L 14.402344 722.953125 C 15.484375 729.769531 21.4375 734.6875 28.15625 734.6875 C 28.816406 734.6875 29.492188 734.644531 30.167969 734.539062 L 68.300781 728.957031 C 72.171875 728.398438 75.652344 726.210938 77.828125 722.96875 C 80.019531 719.726562 80.738281 715.691406 79.824219 711.894531 Z M 70.371094 717.929688 C 69.59375 719.097656 68.390625 719.847656 66.996094 720.058594 L 28.863281 725.640625 C 26.207031 726.03125 23.71875 724.1875 23.28125 721.546875 L 21.976562 713.308594 L 14.699219 667.679688 C 14.277344 665.039062 16.003906 662.566406 18.644531 662.070312 L 29.027344 660.117188 L 29.042969 660.101562 C 29.222656 660.070312 29.417969 660.042969 29.597656 660.042969 L 50.761719 658.527344 L 53.28125 658.34375 C 53.402344 658.328125 53.523438 658.328125 53.644531 658.328125 C 55.894531 658.328125 57.875 659.859375 58.414062 662.082031 L 71.074219 714.027344 C 71.40625 715.375 71.152344 716.773438 70.371094 717.929688 Z M 70.371094 717.929688 " fill-opacity="1" fill-rule="nonzero"/></g><path fill="#2f374f" d="M 46.878906 713.304688 L 21.976562 713.304688 L 14.699219 667.679688 C 14.28125 665.039062 16.007812 662.5625 18.648438 662.066406 L 29.027344 660.117188 L 29.042969 660.101562 C 29.222656 660.070312 29.417969 660.039062 29.597656 660.039062 L 50.765625 658.523438 L 58.640625 699.023438 C 60.082031 706.433594 54.410156 713.304688 46.878906 713.304688 Z M 46.878906 713.304688 " fill-opacity="1" fill-rule="nonzero"/><path fill="#8891a8" d="M 51.207031 659.347656 C 51.207031 660.230469 51.097656 661.105469 50.878906 661.972656 C 50.660156 662.839844 50.339844 663.683594 49.914062 664.5 C 49.484375 665.316406 48.964844 666.09375 48.34375 666.828125 C 47.722656 667.5625 47.019531 668.242188 46.230469 668.867188 C 45.445312 669.492188 44.585938 670.050781 43.660156 670.542969 C 42.730469 671.035156 41.753906 671.449219 40.722656 671.789062 C 39.691406 672.125 38.632812 672.382812 37.539062 672.554688 C 36.445312 672.726562 35.339844 672.8125 34.226562 672.8125 C 33.109375 672.8125 32.003906 672.726562 30.914062 672.554688 C 29.820312 672.382812 28.757812 672.125 27.726562 671.789062 C 26.695312 671.449219 25.71875 671.035156 24.792969 670.542969 C 23.863281 670.050781 23.007812 669.492188 22.21875 668.867188 C 21.429688 668.242188 20.726562 667.5625 20.105469 666.828125 C 19.488281 666.09375 18.964844 665.316406 18.539062 664.5 C 18.109375 663.683594 17.789062 662.839844 17.570312 661.972656 C 17.351562 661.105469 17.246094 660.230469 17.246094 659.347656 C 17.246094 658.460938 17.351562 657.585938 17.570312 656.71875 C 17.789062 655.851562 18.109375 655.007812 18.539062 654.191406 C 18.964844 653.375 19.488281 652.597656 20.105469 651.863281 C 20.726562 651.128906 21.429688 650.449219 22.21875 649.824219 C 23.007812 649.199219 23.863281 648.640625 24.792969 648.148438 C 25.71875 647.65625 26.695312 647.242188 27.726562 646.902344 C 28.757812 646.566406 29.820312 646.308594 30.914062 646.136719 C 32.003906 645.964844 33.109375 645.878906 34.226562 645.878906 C 35.339844 645.878906 36.445312 645.964844 37.539062 646.136719 C 38.632812 646.308594 39.691406 646.566406 40.722656 646.902344 C 41.753906 647.242188 42.730469 647.65625 43.660156 648.148438 C 44.585938 648.640625 45.445312 649.199219 46.230469 649.824219 C 47.019531 650.449219 47.722656 651.128906 48.34375 651.863281 C 48.964844 652.597656 49.484375 653.375 49.914062 654.191406 C 50.339844 655.007812 50.660156 655.851562 50.878906 656.71875 C 51.097656 657.585938 51.207031 658.460938 51.207031 659.347656 Z M 51.207031 659.347656 " fill-opacity="1" fill-rule="nonzero"/></svg>