<svg xmlns="http://www.w3.org/2000/svg" xmlns:xlink="http://www.w3.org/1999/xlink" width="1080" zoomAndPan="magnify" viewBox="0 0 810 809.999993" height="1080" preserveAspectRatio="xMidYMid meet" version="1.0"><path fill="#7e57c2" d="M 810 405 C 810 411.628906 809.835938 418.253906 809.511719 424.871094 C 809.1875 431.492188 808.699219 438.101562 808.050781 444.695312 C 807.398438 451.292969 806.589844 457.871094 805.617188 464.425781 C 804.644531 470.980469 803.511719 477.511719 802.21875 484.011719 C 800.925781 490.511719 799.472656 496.976562 797.863281 503.40625 C 796.253906 509.835938 794.484375 516.222656 792.5625 522.566406 C 790.636719 528.90625 788.558594 535.199219 786.324219 541.441406 C 784.09375 547.679688 781.707031 553.863281 779.171875 559.988281 C 776.632812 566.109375 773.949219 572.167969 771.117188 578.160156 C 768.28125 584.152344 765.300781 590.070312 762.179688 595.914062 C 759.054688 601.761719 755.789062 607.527344 752.378906 613.210938 C 748.972656 618.898438 745.425781 624.496094 741.746094 630.003906 C 738.0625 635.515625 734.246094 640.933594 730.300781 646.257812 C 726.351562 651.582031 722.273438 656.804688 718.070312 661.929688 C 713.863281 667.054688 709.535156 672.070312 705.085938 676.980469 C 700.632812 681.890625 696.066406 686.691406 691.378906 691.378906 C 686.691406 696.066406 681.890625 700.632812 676.980469 705.085938 C 672.070312 709.535156 667.054688 713.863281 661.929688 718.070312 C 656.804688 722.273438 651.582031 726.351562 646.257812 730.300781 C 640.933594 734.246094 635.515625 738.0625 630.003906 741.746094 C 624.496094 745.425781 618.898438 748.972656 613.210938 752.378906 C 607.527344 755.789062 601.761719 759.054688 595.914062 762.179688 C 590.070312 765.300781 584.152344 768.28125 578.160156 771.117188 C 572.167969 773.949219 566.109375 776.632812 559.988281 779.171875 C 553.863281 781.707031 547.679688 784.09375 541.441406 786.324219 C 535.199219 788.558594 528.90625 790.636719 522.566406 792.5625 C 516.222656 794.484375 509.835938 796.253906 503.40625 797.863281 C 496.976562 799.472656 490.511719 800.925781 484.011719 802.21875 C 477.511719 803.511719 470.980469 804.644531 464.425781 805.617188 C 457.871094 806.589844 451.292969 807.398438 444.695312 808.050781 C 438.101562 808.699219 431.492188 809.1875 424.871094 809.511719 C 418.253906 809.835938 411.628906 810 405 810 C 398.371094 810 391.746094 809.835938 385.128906 809.511719 C 378.507812 809.1875 371.898438 808.699219 365.304688 808.050781 C 358.707031 807.398438 352.128906 806.589844 345.574219 805.617188 C 339.019531 804.644531 332.488281 803.511719 325.988281 802.21875 C 319.488281 800.925781 313.023438 799.472656 306.59375 797.863281 C 300.164062 796.253906 293.777344 794.484375 287.433594 792.5625 C 281.09375 790.636719 274.800781 788.558594 268.558594 786.324219 C 262.320312 784.09375 256.136719 781.707031 250.011719 779.171875 C 243.890625 776.632812 237.832031 773.949219 231.839844 771.117188 C 225.847656 768.28125 219.929688 765.300781 214.085938 762.179688 C 208.238281 759.054688 202.472656 755.789062 196.789062 752.378906 C 191.101562 748.972656 185.503906 745.425781 179.992188 741.746094 C 174.484375 738.0625 169.066406 734.246094 163.742188 730.300781 C 158.417969 726.351562 153.195312 722.273438 148.070312 718.070312 C 142.945312 713.863281 137.929688 709.535156 133.019531 705.085938 C 128.109375 700.632812 123.308594 696.066406 118.621094 691.378906 C 113.933594 686.691406 109.367188 681.890625 104.914062 676.980469 C 100.464844 672.070312 96.136719 667.054688 91.929688 661.929688 C 87.726562 656.804688 83.648438 651.582031 79.699219 646.257812 C 75.753906 640.933594 71.9375 635.515625 68.253906 630.003906 C 64.574219 624.496094 61.027344 618.898438 57.621094 613.210938 C 54.210938 607.527344 50.945312 601.761719 47.820312 595.914062 C 44.699219 590.070312 41.71875 584.152344 38.882812 578.160156 C 36.050781 572.167969 33.367188 566.109375 30.828125 559.988281 C 28.292969 553.863281 25.90625 547.679688 23.675781 541.441406 C 21.441406 535.199219 19.363281 528.90625 17.4375 522.566406 C 15.515625 516.222656 13.746094 509.835938 12.136719 503.40625 C 10.527344 496.976562 9.074219 490.511719 7.78125 484.011719 C 6.488281 477.511719 5.355469 470.980469 4.382812 464.425781 C 3.410156 457.871094 2.601562 451.292969 1.949219 444.695312 C 1.300781 438.101562 0.8125 431.492188 0.488281 424.871094 C 0.164062 418.253906 0 411.628906 0 405 C 0 398.371094 0.164062 391.746094 0.488281 385.128906 C 0.8125 378.507812 1.300781 371.898438 1.949219 365.304688 C 2.601562 358.707031 3.410156 352.128906 4.382812 345.574219 C 5.355469 339.019531 6.488281 332.488281 7.78125 325.988281 C 9.074219 319.488281 10.527344 313.023438 12.136719 306.59375 C 13.746094 300.164062 15.515625 293.777344 17.4375 287.433594 C 19.363281 281.09375 21.441406 274.800781 23.675781 268.558594 C 25.90625 262.320312 28.292969 256.136719 30.828125 250.011719 C 33.367188 243.890625 36.050781 237.832031 38.882812 231.839844 C 41.71875 225.847656 44.699219 219.929688 47.820312 214.085938 C 50.945312 208.238281 54.210938 202.472656 57.621094 196.789062 C 61.027344 191.101562 64.574219 185.503906 68.253906 179.992188 C 71.9375 174.484375 75.753906 169.066406 79.699219 163.742188 C 83.648438 158.417969 87.726562 153.195312 91.929688 148.070312 C 96.136719 142.945312 100.464844 137.929688 104.914062 133.019531 C 109.367188 128.109375 113.933594 123.308594 118.621094 118.621094 C 123.308594 113.933594 128.109375 109.367188 133.019531 104.914062 C 137.929688 100.464844 142.945312 96.136719 148.070312 91.929688 C 153.195312 87.726562 158.417969 83.648438 163.742188 79.699219 C 169.066406 75.753906 174.484375 71.9375 179.992188 68.253906 C 185.503906 64.574219 191.101562 61.027344 196.789062 57.621094 C 202.472656 54.210938 208.238281 50.945312 214.085938 47.820312 C 219.929688 44.699219 225.847656 41.71875 231.839844 38.882812 C 237.832031 36.050781 243.890625 33.367188 250.011719 30.828125 C 256.136719 28.292969 262.320312 25.90625 268.558594 23.675781 C 274.800781 21.441406 281.09375 19.363281 287.433594 17.4375 C 293.777344 15.515625 300.164062 13.746094 306.59375 12.136719 C 313.023438 10.527344 319.488281 9.074219 325.988281 7.78125 C 332.488281 6.488281 339.019531 5.355469 345.574219 4.382812 C 352.128906 3.410156 358.707031 2.601562 365.304688 1.949219 C 371.898438 1.300781 378.507812 0.8125 385.128906 0.488281 C 391.746094 0.164062 398.371094 0 405 0 C 411.628906 0 418.253906 0.164062 424.871094 0.488281 C 431.492188 0.8125 438.101562 1.300781 444.695312 1.949219 C 451.292969 2.601562 457.871094 3.410156 464.425781 4.382812 C 470.980469 5.355469 477.511719 6.488281 484.011719 7.78125 C 490.511719 9.074219 496.976562 10.527344 503.40625 12.136719 C 509.835938 13.746094 516.222656 15.515625 522.566406 17.4375 C 528.90625 19.363281 535.199219 21.441406 541.441406 23.675781 C 547.679688 25.90625 553.863281 28.292969 559.988281 30.828125 C 566.109375 33.367188 572.167969 36.050781 578.160156 38.882812 C 584.152344 41.71875 590.070312 44.699219 595.914062 47.820312 C 601.761719 50.945312 607.527344 54.210938 613.210938 57.621094 C 618.898438 61.027344 624.496094 64.574219 630.003906 68.253906 C 635.515625 71.9375 640.933594 75.753906 646.257812 79.699219 C 651.582031 83.648438 656.804688 87.726562 661.929688 91.929688 C 667.054688 96.136719 672.070312 100.464844 676.980469 104.914062 C 681.890625 109.367188 686.691406 113.933594 691.378906 118.621094 C 696.066406 123.308594 700.632812 128.109375 705.085938 133.019531 C 709.535156 137.929688 713.863281 142.945312 718.070312 148.070312 C 722.273438 153.195312 726.351562 158.417969 730.300781 163.742188 C 734.246094 169.066406 738.0625 174.484375 741.746094 179.992188 C 745.425781 185.503906 748.972656 191.101562 752.378906 196.789062 C 755.789062 202.472656 759.054688 208.238281 762.179688 214.085938 C 765.300781 219.929688 768.28125 225.847656 771.117188 231.839844 C 773.949219 237.832031 776.632812 243.890625 779.171875 250.011719 C 781.707031 256.136719 784.09375 262.320312 786.324219 268.558594 C 788.558594 274.800781 790.636719 281.09375 792.5625 287.433594 C 794.484375 293.777344 796.253906 300.164062 797.863281 306.59375 C 799.472656 313.023438 800.925781 319.488281 802.21875 325.988281 C 803.511719 332.488281 804.644531 339.019531 805.617188 345.574219 C 806.589844 352.128906 807.398438 358.707031 808.050781 365.304688 C 808.699219 371.898438 809.1875 378.507812 809.511719 385.128906 C 809.835938 391.746094 810 398.371094 810 405 Z M 810 405 " fill-opacity="1" fill-rule="nonzero"/><path fill="#ffffff" d="M 390.105469 158.4375 C 390.105469 165.457031 384.378906 171.070312 377.46875 171.070312 L 272.492188 171.070312 C 248.191406 171.070312 225.082031 175.933594 203.804688 185.4375 L 190.195312 166.96875 C 213.632812 156.707031 243.765625 150.121094 284.265625 146.449219 C 289.125 146.015625 294.199219 145.800781 299.167969 145.800781 L 377.46875 145.800781 C 384.378906 145.800781 390.105469 151.523438 390.105469 158.4375 Z M 390.105469 158.4375 " fill-opacity="1" fill-rule="nonzero"/><path fill="#ffffff" d="M 337.617188 183.925781 L 365.589844 183.925781 L 365.589844 211.246094 L 337.617188 211.246094 Z M 337.617188 183.925781 " fill-opacity="1" fill-rule="nonzero"/><path fill="#ffffff" d="M 403.820312 260.171875 L 403.820312 287.929688 C 403.820312 288.035156 403.710938 288.144531 403.605469 288.144531 L 299.601562 288.144531 C 299.492188 288.144531 299.382812 288.035156 299.382812 287.929688 L 299.382812 260.171875 C 299.382812 260.0625 299.492188 259.957031 299.601562 259.957031 L 403.605469 259.957031 C 403.710938 259.957031 403.820312 260.0625 403.820312 260.171875 Z M 403.820312 260.171875 " fill-opacity="1" fill-rule="nonzero"/><path fill="#ffffff" d="M 324.441406 223.992188 L 378.65625 223.992188 L 378.65625 247.210938 L 324.441406 247.210938 Z M 324.441406 223.992188 " fill-opacity="1" fill-rule="nonzero"/><path fill="#ffffff" d="M 389.78125 300.996094 L 389.78125 336.421875 C 377.46875 332.855469 364.722656 331.019531 351.546875 331.019531 C 338.265625 331.019531 325.414062 332.964844 313.316406 336.527344 L 313.316406 301.105469 L 389.78125 301.105469 Z M 389.78125 300.996094 " fill-opacity="1" fill-rule="nonzero"/><path fill="#ffffff" d="M 192.03125 329.507812 C 187.605469 336.097656 180.476562 339.875 172.484375 339.875 C 164.492188 339.875 157.363281 336.097656 152.9375 329.507812 C 148.507812 322.921875 147.644531 314.820312 150.558594 307.476562 L 172.484375 252.71875 L 194.410156 307.476562 C 197.324219 314.820312 196.460938 322.921875 192.03125 329.507812 Z M 192.03125 329.507812 " fill-opacity="1" fill-rule="nonzero"/><path fill="#ffffff" d="M 369.261719 576.828125 C 363.753906 579.097656 357.8125 580.175781 351.546875 580.175781 C 334.59375 580.175781 319.472656 571.429688 311.046875 556.632812 C 302.625 541.945312 302.839844 524.449219 311.480469 509.867188 L 351.546875 442.476562 L 366.777344 468.179688 C 361.269531 484.164062 358.351562 501.335938 358.351562 519.15625 C 358.351562 539.460938 362.242188 558.898438 369.261719 576.828125 Z M 369.261719 576.828125 " fill-opacity="1" fill-rule="nonzero"/><path fill="#ffffff" d="M 516.140625 374.113281 C 436.113281 374.113281 371.097656 439.234375 371.097656 519.15625 C 371.097656 599.074219 436.21875 664.199219 516.140625 664.199219 C 596.058594 664.199219 661.183594 599.074219 661.183594 519.15625 C 661.183594 439.234375 596.167969 374.113281 516.140625 374.113281 Z M 516.140625 644.867188 C 446.804688 644.867188 390.429688 588.492188 390.429688 519.15625 C 390.429688 514.945312 390.644531 510.839844 391.078125 506.734375 C 391.078125 506.628906 391.078125 506.628906 391.078125 506.519531 C 397.449219 443.125 451.125 393.445312 516.140625 393.445312 C 585.476562 393.445312 641.851562 449.820312 641.851562 519.15625 C 641.851562 588.492188 585.476562 644.867188 516.140625 644.867188 Z M 516.140625 644.867188 " fill-opacity="1" fill-rule="nonzero"/><path fill="#ffffff" d="M 374.445312 588.492188 C 367.316406 591.515625 359.648438 593.027344 351.65625 593.027344 C 330.054688 593.027344 310.832031 581.796875 300.140625 563.003906 C 289.449219 544.210938 289.664062 521.964844 300.679688 503.386719 L 346.148438 426.816406 C 347.335938 424.871094 349.386719 423.683594 351.65625 423.683594 C 353.925781 423.683594 355.976562 424.871094 357.164062 426.816406 L 372.933594 453.277344 C 387.082031 422.605469 410.730469 397.332031 440.109375 381.023438 C 439.785156 380.59375 439.351562 380.269531 439.027344 379.835938 C 415.699219 356.507812 384.703125 343.65625 351.765625 343.65625 C 283.722656 343.65625 228.320312 399.058594 228.320312 467.101562 L 228.320312 603.9375 L 307.375 603.9375 C 310.941406 603.9375 313.75 606.742188 313.75 610.308594 C 313.75 613.871094 310.941406 616.679688 307.375 616.679688 L 228.320312 616.679688 L 228.320312 626.183594 C 228.320312 647.136719 245.382812 664.199219 266.335938 664.199219 L 437.191406 664.199219 C 441.511719 664.199219 445.722656 663.550781 449.613281 662.148438 C 416.78125 646.8125 390.210938 620.785156 374.445312 588.492188 Z M 257.265625 452.628906 L 257.265625 471.851562 C 257.265625 475.414062 254.457031 478.222656 250.890625 478.222656 C 247.328125 478.222656 244.519531 475.414062 244.519531 471.851562 L 244.519531 452.628906 C 244.519531 451.441406 244.519531 450.253906 244.628906 449.0625 C 244.738281 445.5 247.761719 442.800781 251.214844 442.90625 C 254.78125 443.015625 257.480469 446.039062 257.371094 449.496094 C 257.265625 450.574219 257.265625 451.546875 257.265625 452.628906 Z M 261.261719 427.464844 C 260.394531 430.164062 257.914062 431.785156 255.210938 431.785156 C 254.5625 431.785156 253.917969 431.675781 253.160156 431.460938 C 249.8125 430.378906 247.976562 426.707031 249.164062 423.359375 C 257.371094 398.734375 275.625 378.648438 299.277344 367.957031 C 302.515625 366.550781 306.296875 367.957031 307.699219 371.195312 C 309.105469 374.4375 307.699219 378.214844 304.460938 379.621094 C 284.046875 388.90625 268.28125 406.296875 261.261719 427.464844 Z M 357.488281 642.925781 L 259.207031 642.925781 C 255.644531 642.925781 252.835938 640.117188 252.835938 636.550781 C 252.835938 632.988281 255.644531 630.179688 259.207031 630.179688 L 357.488281 630.179688 C 361.050781 630.179688 363.859375 632.988281 363.859375 636.550781 C 363.859375 640.007812 361.050781 642.925781 357.488281 642.925781 Z M 357.488281 642.925781 " fill-opacity="1" fill-rule="nonzero"/><path fill="#ffffff" d="M 516.140625 406.1875 C 457.605469 406.1875 409.4375 450.898438 403.710938 507.925781 C 403.386719 511.597656 403.171875 515.375 403.171875 519.15625 C 403.171875 581.472656 453.824219 632.125 516.140625 632.125 C 578.457031 632.125 629.109375 581.472656 629.109375 519.15625 C 629.109375 456.839844 578.457031 406.1875 516.140625 406.1875 Z M 577.050781 525.527344 C 559.988281 526.933594 548.648438 530.929688 540.441406 538.488281 C 531.152344 547.128906 525.210938 561.277344 522.40625 581.902344 C 521.972656 585.035156 519.273438 587.410156 516.140625 587.410156 C 512.898438 587.410156 510.199219 585.035156 509.769531 581.902344 C 506.960938 561.382812 501.128906 547.128906 491.730469 538.488281 C 483.523438 530.929688 472.183594 526.933594 455.121094 525.527344 C 451.773438 525.3125 449.289062 522.503906 449.289062 519.15625 C 449.289062 515.808594 451.878906 513.109375 455.121094 512.785156 C 472.183594 511.378906 483.417969 507.382812 491.730469 499.824219 C 501.019531 491.183594 506.960938 477.035156 509.769531 456.40625 C 510.199219 453.277344 512.898438 450.898438 516.140625 450.898438 C 519.378906 450.898438 521.972656 453.277344 522.40625 456.40625 C 525.210938 476.929688 531.042969 491.183594 540.441406 499.824219 C 548.648438 507.382812 559.988281 511.378906 577.050781 512.785156 C 580.398438 513 582.882812 515.808594 582.882812 519.15625 C 582.882812 522.503906 580.402344 525.203125 577.050781 525.527344 Z M 577.050781 525.527344 " fill-opacity="1" fill-rule="nonzero"/><path fill="#ffffff" d="M 547.460938 519.15625 C 532.554688 525.527344 522.40625 536.542969 516.140625 553.285156 C 509.875 536.4375 499.832031 525.421875 484.820312 519.15625 C 499.832031 512.785156 509.875 501.769531 516.140625 485.027344 C 522.40625 501.769531 532.554688 512.785156 547.460938 519.15625 Z M 547.460938 519.15625 " fill-opacity="1" fill-rule="nonzero"/></svg>