<svg xmlns="http://www.w3.org/2000/svg" xmlns:xlink="http://www.w3.org/1999/xlink" width="1080" zoomAndPan="magnify" viewBox="0 0 810 809.999993" height="1080" preserveAspectRatio="xMidYMid meet" version="1.0"><defs><clipPath id="d83b199538"><path d="M 145 160 L 665.289062 160 L 665.289062 810 L 145 810 Z M 145 160 " clip-rule="nonzero"/></clipPath></defs><g clip-path="url(#d83b199538)"><path fill="#d4f6ff" d="M 541.722656 809.664062 C 591.667969 790.859375 636.300781 753.144531 654.273438 702.902344 C 663.289062 677.671875 665.351562 650.488281 665.089844 623.675781 C 664.652344 578.5 657.410156 532.40625 635.816406 492.714844 C 613.875 452.28125 578.085938 420.3125 558.070312 378.933594 C 541.351562 344.335938 536.65625 305.261719 534.308594 266.910156 C 532.96875 244.96875 532.003906 222.128906 520.636719 203.4375 C 509.90625 185.773438 490.878906 174.234375 470.890625 169.035156 C 450.898438 163.835938 420.179688 160.808594 399.859375 160.808594 C 379.386719 160.300781 359.417969 163.769531 339.40625 168.992188 C 319.390625 174.210938 300.367188 185.730469 289.636719 203.394531 C 278.269531 222.085938 277.304688 245.078125 275.964844 266.867188 C 273.617188 305.214844 268.921875 344.292969 252.199219 378.890625 C 232.1875 420.359375 196.355469 452.28125 174.410156 492.714844 C 152.820312 532.40625 145.597656 578.5 145.136719 623.675781 C 144.875 650.488281 146.9375 677.671875 155.980469 702.902344 C 173.949219 753.144531 218.5625 790.859375 268.503906 809.664062 Z M 541.722656 809.664062 " fill-opacity="1" fill-rule="nonzero"/></g><path fill="#ff6e99" d="M 306.796875 698.667969 C 261.550781 624.246094 253.210938 540.832031 293.628906 463.710938 C 304.382812 443.21875 317.921875 424.351562 331.660156 405.746094 C 339.121094 395.609375 347.019531 385.253906 357.992188 379.109375 C 370.785156 371.957031 386.101562 371.433594 400.738281 371.433594 C 412.542969 371.433594 424.480469 371.671875 435.847656 374.613281 C 455.179688 379.617188 471.988281 392.164062 484.582031 407.71875 C 497.179688 423.277344 505.933594 441.53125 513.109375 460.199219 C 518.382812 474.113281 522.804688 488.289062 526.371094 502.730469 C 529.941406 517.171875 532.632812 531.777344 534.449219 546.542969 C 536.265625 561.308594 537.191406 576.128906 537.226562 591.003906 C 537.257812 605.882812 536.402344 620.707031 534.65625 635.480469 C 531.476562 662.269531 524.277344 690.570312 503.9375 708.363281 C 486.777344 723.4375 463.164062 728.394531 440.609375 732.015625 C 424.632812 734.582031 402.339844 737.609375 384.609375 736.164062 C 358.539062 734.058594 320.445312 721.089844 306.796875 698.667969 Z M 306.796875 698.667969 " fill-opacity="1" fill-rule="nonzero"/><path fill="#ffeded" d="M 401.308594 564.722656 C 370.214844 563.386719 347.414062 534.601562 351.671875 504.082031 C 356.324219 470.84375 387.679688 449.230469 420.265625 451.929688 C 451.644531 454.476562 478.988281 480.5625 479.515625 512.617188 C 479.953125 545.746094 450.988281 573.695312 417.371094 567.179688 C 404.949219 564.765625 399.640625 583.789062 412.125 586.203125 C 444.800781 592.542969 478.65625 576.328125 492.460938 545.570312 C 493.285156 543.671875 494.039062 541.746094 494.714844 539.789062 C 495.390625 537.832031 495.988281 535.851562 496.511719 533.847656 C 497.03125 531.84375 497.476562 529.824219 497.839844 527.785156 C 498.203125 525.75 498.488281 523.699219 498.691406 521.640625 C 498.898438 519.582031 499.023438 517.515625 499.066406 515.445312 C 499.109375 513.375 499.074219 511.308594 498.953125 509.242188 C 498.835938 507.175781 498.640625 505.117188 498.363281 503.066406 C 498.085938 501.011719 497.726562 498.976562 497.289062 496.953125 C 496.855469 494.929688 496.339844 492.925781 495.746094 490.941406 C 495.152344 488.957031 494.484375 487 493.738281 485.070312 C 492.996094 483.140625 492.175781 481.238281 491.28125 479.371094 C 490.386719 477.503906 489.425781 475.675781 488.386719 473.882812 C 487.351562 472.089844 486.25 470.339844 485.078125 468.632812 C 483.902344 466.929688 482.667969 465.269531 481.367188 463.660156 C 480.066406 462.050781 478.703125 460.492188 477.28125 458.988281 C 475.855469 457.484375 474.378906 456.039062 472.84375 454.648438 C 471.3125 453.269531 469.734375 451.949219 468.113281 450.679688 C 466.488281 449.414062 464.820312 448.203125 463.113281 447.054688 C 461.402344 445.902344 459.65625 444.816406 457.871094 443.789062 C 456.082031 442.761719 454.265625 441.800781 452.410156 440.902344 C 450.554688 440.003906 448.671875 439.175781 446.757812 438.410156 C 444.847656 437.644531 442.910156 436.949219 440.945312 436.320312 C 438.984375 435.695312 437.003906 435.136719 435 434.648438 C 433 434.160156 430.984375 433.746094 428.953125 433.398438 C 426.921875 433.054688 424.878906 432.78125 422.832031 432.582031 C 420.78125 432.378906 418.726562 432.253906 416.664062 432.195312 C 414.605469 432.140625 412.546875 432.15625 410.488281 432.246094 C 408.433594 432.339844 406.378906 432.5 404.332031 432.734375 C 402.285156 432.96875 400.25 433.277344 398.226562 433.65625 C 396.199219 434.035156 394.191406 434.484375 392.199219 435.007812 C 390.203125 435.527344 388.234375 436.117188 386.28125 436.777344 C 384.332031 437.4375 382.40625 438.167969 380.503906 438.964844 C 349.585938 452.128906 329.089844 483.699219 331.660156 517.53125 C 331.84375 519.722656 332.125 521.902344 332.503906 524.066406 C 332.886719 526.234375 333.363281 528.378906 333.9375 530.503906 C 334.511719 532.625 335.179688 534.71875 335.945312 536.78125 C 336.707031 538.84375 337.5625 540.871094 338.507812 542.855469 C 339.453125 544.839844 340.488281 546.78125 341.609375 548.671875 C 342.730469 550.566406 343.933594 552.40625 345.21875 554.1875 C 346.507812 555.972656 347.871094 557.695312 349.3125 559.355469 C 350.753906 561.015625 352.269531 562.609375 353.855469 564.132812 C 355.441406 565.660156 357.09375 567.109375 358.808594 568.484375 C 360.527344 569.859375 362.300781 571.15625 364.136719 572.371094 C 365.96875 573.585938 367.855469 574.714844 369.789062 575.761719 C 371.726562 576.804688 373.703125 577.761719 375.726562 578.628906 C 377.75 579.492188 379.804688 580.269531 381.898438 580.949219 C 383.988281 581.628906 386.109375 582.214844 388.253906 582.703125 C 390.398438 583.195312 392.558594 583.585938 394.742188 583.882812 C 396.921875 584.175781 399.109375 584.371094 401.308594 584.46875 C 414.011719 585.019531 413.992188 565.273438 401.308594 564.722656 Z M 401.308594 564.722656 " fill-opacity="1" fill-rule="nonzero"/><path fill="#ffeded" d="M 396.609375 575.472656 L 397.09375 678.285156 C 397.09375 690.988281 416.84375 691.011719 416.84375 678.285156 L 416.359375 575.472656 C 416.359375 562.769531 396.609375 562.75 396.609375 575.472656 Z M 396.609375 575.472656 " fill-opacity="1" fill-rule="nonzero"/><path fill="#ffeded" d="M 369.402344 642.609375 C 396.832031 642.933594 424.230469 643.992188 451.601562 645.792969 C 464.285156 646.625 464.242188 626.878906 451.601562 626.046875 C 424.214844 624.246094 396.816406 623.1875 369.402344 622.863281 C 356.675781 622.734375 356.675781 642.480469 369.402344 642.609375 Z M 369.402344 642.609375 " fill-opacity="1" fill-rule="nonzero"/><path fill="#55d3c5" d="M 326.722656 177.480469 C 332.488281 180.078125 338.34375 182.453125 344.289062 184.605469 C 350.234375 186.761719 356.253906 188.691406 362.34375 190.390625 C 368.4375 192.089844 374.582031 193.558594 380.785156 194.796875 C 386.984375 196.035156 393.226562 197.039062 399.503906 197.804688 C 405.78125 198.570312 412.078125 199.101562 418.394531 199.394531 C 424.710938 199.683594 431.03125 199.738281 437.351562 199.554688 C 443.675781 199.371094 449.980469 198.949219 456.269531 198.289062 C 462.558594 197.628906 468.816406 196.734375 475.039062 195.605469 C 482.671875 194.199219 491.054688 191.875 495.070312 185.226562 C 497.988281 180.445312 497.902344 174.476562 497.703125 168.859375 L 496.386719 127.765625 C 496.125 119.539062 495.554688 110.519531 489.9375 104.507812 C 484.320312 98.496094 475.628906 97.335938 467.554688 96.5 C 431.960938 92.800781 396.273438 90.34375 360.492188 89.128906 C 354.347656 88.910156 347.546875 88.976562 342.9375 93.101562 C 338.832031 96.785156 337.757812 102.730469 336.925781 108.195312 L 327.621094 169.121094 " fill-opacity="1" fill-rule="nonzero"/><path fill="#008d9f" d="M 405.519531 57.863281 C 406.769531 65.652344 404.578125 73.550781 402.625 81.207031 C 400.671875 88.867188 398.960938 96.984375 401.152344 104.574219 C 403.347656 112.167969 410.808594 118.8125 418.578125 117.34375 C 427.902344 115.589844 431.742188 104.554688 433.738281 95.402344 L 438.304688 74.691406 C 439.402344 69.710938 440.5 64.554688 439.335938 59.597656 C 439.140625 58.757812 438.886719 57.9375 438.570312 57.136719 C 438.25 56.332031 437.875 55.5625 437.441406 54.816406 C 437.003906 54.070312 436.519531 53.363281 435.976562 52.691406 C 435.433594 52.023438 434.847656 51.394531 434.210938 50.8125 C 433.574219 50.230469 432.898438 49.699219 432.179688 49.21875 C 431.464844 48.742188 430.714844 48.316406 429.9375 47.949219 C 429.15625 47.585938 428.351562 47.277344 427.523438 47.03125 C 426.699219 46.789062 425.859375 46.605469 425.003906 46.488281 C 424.148438 46.371094 423.292969 46.316406 422.429688 46.328125 C 421.566406 46.339844 420.710938 46.414062 419.859375 46.554688 C 419.007812 46.695312 418.175781 46.898438 417.355469 47.167969 C 416.535156 47.433594 415.738281 47.761719 414.96875 48.148438 C 414.199219 48.535156 413.460938 48.980469 412.757812 49.476562 C 412.054688 49.976562 411.394531 50.523438 410.773438 51.121094 C 410.152344 51.722656 409.578125 52.363281 409.054688 53.046875 C 408.53125 53.734375 408.0625 54.453125 407.648438 55.210938 " fill-opacity="1" fill-rule="nonzero"/><path fill="#55d3c5" d="M 411.597656 63.589844 C 376.488281 55.035156 337.5625 60.5625 306.074219 42.96875 C 303.003906 41.417969 300.1875 39.492188 297.628906 37.199219 C 295.066406 34.902344 292.851562 32.3125 290.976562 29.429688 C 287.550781 23.507812 286.761719 15.695312 290.40625 9.902344 C 296.109375 0.886719 308.859375 0.449219 319.5 1.128906 C 373.066406 4.527344 426.671875 10.011719 478.941406 22.210938 C 485.878906 23.835938 493.644531 26.25 496.671875 32.699219 C 500.953125 41.761719 492.855469 51.898438 484.296875 57.117188 C 466.261719 68.089844 439.621094 67.804688 411.597656 63.699219 " fill-opacity="1" fill-rule="nonzero"/><path fill="#008d9f" d="M 343.96875 109.160156 C 346.558594 110.992188 349.214844 112.730469 351.9375 114.363281 C 354.65625 116 357.433594 117.535156 360.269531 118.964844 C 363.101562 120.398438 365.984375 121.722656 368.917969 122.9375 C 371.847656 124.15625 374.820312 125.265625 377.835938 126.261719 C 380.847656 127.257812 383.894531 128.144531 386.976562 128.914062 C 390.054688 129.6875 393.160156 130.34375 396.289062 130.886719 C 399.414062 131.429688 402.558594 131.855469 405.71875 132.164062 C 408.878906 132.472656 412.046875 132.664062 415.21875 132.738281 C 418.394531 132.8125 421.566406 132.769531 424.738281 132.609375 C 427.90625 132.449219 431.066406 132.171875 434.21875 131.777344 C 437.367188 131.386719 440.5 130.875 443.613281 130.25 C 446.722656 129.621094 449.808594 128.882812 452.867188 128.027344 C 455.925781 127.171875 458.945312 126.207031 461.933594 125.128906 C 464.917969 124.050781 467.859375 122.863281 470.757812 121.566406 C 473.65625 120.273438 476.503906 118.871094 479.296875 117.363281 C 482.089844 115.855469 484.824219 114.25 487.5 112.539062 C 489.871094 111.023438 487.675781 107.230469 485.308594 108.765625 C 482.714844 110.425781 480.066406 111.988281 477.359375 113.453125 C 474.652344 114.917969 471.894531 116.28125 469.085938 117.539062 C 466.277344 118.796875 463.425781 119.953125 460.53125 121 C 457.640625 122.046875 454.710938 122.988281 451.746094 123.816406 C 448.78125 124.648438 445.792969 125.367188 442.773438 125.972656 C 439.757812 126.582031 436.722656 127.078125 433.667969 127.460938 C 430.613281 127.84375 427.550781 128.113281 424.476562 128.265625 C 421.402344 128.421875 418.328125 128.464844 415.25 128.390625 C 412.171875 128.316406 409.101562 128.128906 406.039062 127.828125 C 402.976562 127.527344 399.929688 127.113281 396.898438 126.585938 C 393.863281 126.058594 390.855469 125.417969 387.871094 124.667969 C 384.886719 123.914062 381.933594 123.054688 379.011719 122.085938 C 376.089844 121.113281 373.210938 120.035156 370.371094 118.851562 C 367.527344 117.667969 364.734375 116.378906 361.992188 114.988281 C 359.246094 113.597656 356.554688 112.105469 353.921875 110.511719 C 351.289062 108.921875 348.714844 107.234375 346.207031 105.453125 C 343.902344 103.808594 341.707031 107.648438 344.011719 109.226562 Z M 343.96875 109.160156 " fill-opacity="1" fill-rule="nonzero"/><path fill="#ffffff" d="M 339.097656 245.605469 L 339.097656 245.078125 C 339.691406 241.109375 338.789062 235.84375 334.554688 233.933594 C 319.765625 227.351562 309.914062 246.988281 312.171875 259.382812 C 312.285156 260.113281 312.4375 260.835938 312.632812 261.546875 C 312.824219 262.261719 313.058594 262.960938 313.332031 263.648438 C 313.601562 264.335938 313.910156 265.003906 314.257812 265.65625 C 314.605469 266.308594 314.988281 266.9375 315.40625 267.546875 C 315.824219 268.15625 316.277344 268.742188 316.757812 269.300781 C 317.242188 269.859375 317.757812 270.386719 318.300781 270.886719 C 318.84375 271.390625 319.414062 271.859375 320.007812 272.296875 C 320.605469 272.734375 321.222656 273.136719 321.863281 273.503906 C 322.503906 273.871094 323.164062 274.199219 323.839844 274.496094 C 324.519531 274.789062 325.210938 275.042969 325.917969 275.257812 C 326.625 275.476562 327.339844 275.652344 328.066406 275.785156 C 328.792969 275.921875 329.523438 276.015625 330.261719 276.070312 C 331 276.125 331.734375 276.136719 332.472656 276.105469 C 333.210938 276.078125 333.945312 276.007812 334.675781 275.894531 C 335.40625 275.78125 336.128906 275.628906 336.84375 275.4375 C 337.554688 275.246094 338.257812 275.011719 338.945312 274.742188 C 349.785156 270.355469 355.53125 257.804688 349.476562 247.230469 C 344.035156 237.730469 330.121094 233.933594 320.949219 240.207031 C 320.402344 240.546875 319.890625 240.9375 319.417969 241.371094 C 318.945312 241.808594 318.515625 242.285156 318.132812 242.804688 C 317.753906 243.324219 317.421875 243.871094 317.144531 244.453125 C 316.867188 245.035156 316.644531 245.636719 316.484375 246.261719 C 316.320312 246.882812 316.21875 247.515625 316.175781 248.160156 C 316.132812 248.800781 316.152344 249.441406 316.230469 250.082031 C 316.3125 250.71875 316.453125 251.347656 316.652344 251.957031 C 316.851562 252.570312 317.105469 253.160156 317.417969 253.722656 C 319.960938 258.113281 326.5 260.304688 330.914062 257.277344 C 332.449219 256.203125 330.035156 257.410156 331.261719 256.773438 C 330.957031 256.925781 332.578125 256.773438 332.03125 256.882812 C 334.621094 256.335938 331.703125 258.375 332.339844 256.882812 L 332.492188 255.480469 C 332.492188 256.203125 331.8125 256.574219 332.339844 256.027344 C 333.171875 255.148438 331.242188 256.664062 331.964844 256.335938 C 332.691406 256.003906 330.496094 257.035156 331.328125 256.597656 C 332.800781 255.828125 330.648438 257.191406 331 256.597656 C 331.351562 256.003906 331.988281 257.144531 331.855469 256.597656 C 331.328125 254.820312 331.855469 251.375 333.128906 250.671875 L 328.148438 252.011719 L 329.003906 252.011719 L 324.023438 250.671875 L 324.59375 250.914062 L 320.117188 239.792969 L 320.117188 240.316406 C 319.324219 245.582031 321.433594 250.914062 327.007812 252.449219 C 331.660156 253.722656 338.375 250.871094 339.164062 245.5625 Z M 339.097656 245.605469 " fill-opacity="1" fill-rule="nonzero"/><path fill="#ffffff" d="M 304.734375 313.269531 C 303 347.339844 284.699219 376.785156 265.234375 403.660156 C 245.773438 430.539062 225.738281 456.316406 211.320312 486.308594 C 204.46875 500.511719 198.652344 515.128906 193.875 530.15625 C 189.097656 545.183594 185.402344 560.472656 182.792969 576.023438 C 180.351562 590.757812 178.890625 605.589844 178.40625 620.515625 C 178.011719 632.957031 178.183594 645.464844 189.660156 652.878906 C 193.875 655.578125 200.964844 654.019531 203.179688 649.324219 C 216.960938 620.054688 205.8125 588.332031 211.824219 557.679688 C 218.035156 525.933594 234.910156 497.695312 253.078125 471.414062 C 288.429688 420.292969 332.582031 370.488281 334.488281 305.019531 C 334.488281 304.160156 334.375 303.3125 334.152344 302.480469 C 333.929688 301.648438 333.601562 300.859375 333.171875 300.113281 C 332.742188 299.367188 332.226562 298.6875 331.621094 298.078125 C 331.011719 297.464844 330.339844 296.941406 329.597656 296.507812 C 329.09375 296.191406 328.578125 295.910156 328.042969 295.65625 C 327.507812 295.40625 326.960938 295.183594 326.398438 295 C 325.835938 294.8125 325.265625 294.65625 324.6875 294.539062 C 324.109375 294.421875 323.523438 294.335938 322.9375 294.285156 C 322.347656 294.238281 321.757812 294.222656 321.164062 294.242188 C 320.574219 294.265625 319.988281 294.320312 319.402344 294.410156 C 318.816406 294.503906 318.242188 294.628906 317.671875 294.789062 C 317.101562 294.949219 316.546875 295.140625 316 295.367188 C 315.453125 295.59375 314.921875 295.851562 314.40625 296.140625 C 313.890625 296.429688 313.394531 296.75 312.917969 297.097656 C 312.4375 297.449219 311.984375 297.824219 311.550781 298.226562 C 311.117188 298.628906 310.710938 299.054688 310.328125 299.507812 C 309.949219 299.960938 309.59375 300.433594 309.269531 300.925781 C 308.945312 301.417969 308.648438 301.929688 308.386719 302.460938 C 308.121094 302.988281 307.886719 303.53125 307.6875 304.089844 C 307.488281 304.644531 307.324219 305.210938 307.191406 305.789062 C 304.164062 318.140625 323.210938 323.339844 326.238281 311.03125 L 319.65625 313.554688 L 314.761719 305.019531 C 312.898438 368.820312 265.34375 417.660156 231.773438 467.726562 C 215.402344 492.101562 200.742188 518.429688 193.875 547.0625 C 190.648438 561.207031 189.382812 575.527344 190.078125 590.019531 C 190.757812 606.429688 193.328125 623.960938 186.085938 639.363281 L 199.582031 635.832031 C 195.675781 633.285156 198.089844 620.472656 198.242188 616.699219 C 198.527344 609.679688 199.074219 602.679688 199.84375 595.703125 C 201.546875 580.710938 204.332031 565.921875 208.203125 551.339844 C 212 536.921875 216.804688 522.847656 222.613281 509.117188 C 228.417969 495.386719 235.175781 482.136719 242.875 469.371094 C 273.464844 418.691406 321.277344 376.105469 324.484375 313.289062 C 325.121094 300.585938 305.371094 300.609375 304.734375 313.289062 Z M 304.734375 313.269531 " fill-opacity="1" fill-rule="nonzero"/></svg>