<svg xmlns="http://www.w3.org/2000/svg" xmlns:xlink="http://www.w3.org/1999/xlink" width="1080" zoomAndPan="magnify" viewBox="0 0 810 809.999993" height="1080" preserveAspectRatio="xMidYMid meet" version="1.0"><defs><clipPath id="386cda57f5"><path d="M 9.113281 68 L 801.113281 68 L 801.113281 810 L 9.113281 810 Z M 9.113281 68 " clip-rule="nonzero"/></clipPath><clipPath id="9d9891f06a"><path d="M 9.113281 0 L 745 0 L 745 366 L 9.113281 366 Z M 9.113281 0 " clip-rule="nonzero"/></clipPath></defs><g clip-path="url(#386cda57f5)"><path fill="#2fb45f" d="M 783.101562 278.441406 C 773.832031 248.175781 759.941406 217.332031 741.421875 185.914062 C 716.441406 193.234375 691.160156 197.273438 665.574219 198.03125 C 664.625 198.050781 663.703125 197.671875 663.035156 196.980469 C 647.144531 180.484375 633.914062 162.207031 617.210938 149.738281 C 594.644531 132.863281 579.496094 122.058594 571.765625 117.332031 C 545.246094 101.117188 514.792969 88.503906 480.40625 79.492188 C 446.488281 70.59375 413.75 67.179688 382.1875 69.242188 C 346.402344 71.578125 312.425781 78.984375 280.257812 91.460938 C 260.730469 99.035156 241.445312 109.222656 222.402344 122.03125 C 147.710938 172.308594 99.792969 241.070312 78.648438 328.3125 C 76 339.210938 73.886719 350.257812 72.3125 361.449219 C 72.171875 362.328125 71.460938 363 70.589844 363.085938 C 50.628906 365.183594 31.429688 362.667969 11.695312 361.066406 C 8.183594 392.777344 7.429688 433.257812 16.066406 478.847656 C 38.179688 595.613281 107.738281 671.261719 140.753906 702.796875 C 140.753906 702.785156 140.757812 702.777344 140.757812 702.769531 C 189.359375 742.203125 229.914062 766.339844 247.605469 774.390625 C 257.5 778.890625 272.957031 783.785156 284.351562 788.527344 C 390.457031 832.683594 531.722656 805.234375 622.847656 738.214844 C 650.765625 717.679688 676.535156 694.730469 700.15625 669.367188 C 730.761719 633.046875 755.089844 592.792969 773.140625 548.605469 C 780.910156 524.101562 785.71875 508.226562 787.570312 500.984375 C 806.863281 425.34375 805.375 351.164062 783.101562 278.441406 Z M 783.101562 278.441406 " fill-opacity="1" fill-rule="nonzero"/></g><g clip-path="url(#9d9891f06a)"><path fill="#51c656" d="M 573.851562 36.5625 C 573.675781 39.171875 576.257812 41.089844 581.589844 42.316406 C 582.5 42.507812 583.378906 42.832031 584.191406 43.277344 C 611.898438 57.835938 636.859375 73.839844 659.074219 91.277344 C 686.121094 112.496094 709.914062 138.042969 730.457031 167.921875 L 744.679688 187.542969 C 719.699219 194.863281 694.414062 198.902344 668.832031 199.660156 C 667.878906 199.679688 666.960938 199.296875 666.289062 198.609375 C 650.402344 182.113281 637.171875 163.835938 620.464844 151.367188 C 597.898438 134.492188 582.75 123.6875 575.019531 118.957031 C 548.5 102.742188 518.046875 90.128906 483.664062 81.117188 C 449.746094 72.222656 417.003906 68.804688 385.445312 70.871094 C 349.65625 73.207031 315.679688 80.613281 283.515625 93.089844 C 263.984375 100.660156 244.699219 110.851562 225.65625 123.660156 C 150.96875 173.9375 103.050781 242.695312 81.90625 329.9375 C 79.257812 340.839844 77.144531 351.886719 75.566406 363.078125 C 75.425781 363.957031 74.71875 364.628906 73.84375 364.714844 C 53.457031 366.855469 32.46875 365.714844 10.875 361.296875 C 10.03125 361.109375 9.464844 360.316406 9.5625 359.457031 C 12.675781 335.339844 17.503906 310.144531 24.046875 283.863281 C 28.195312 267.195312 32.898438 256.476562 39.148438 237.5 C 43.078125 225.566406 48.101562 214.5 54.21875 204.300781 C 74.542969 170.414062 97.976562 140.429688 124.515625 114.34375 C 139.820312 99.335938 161.519531 84.300781 178.839844 71.101562 C 192.625 60.613281 213.128906 48.863281 240.347656 35.863281 C 265.796875 25.253906 282.386719 18.820312 290.113281 16.5625 C 365.757812 -5.570312 440.886719 -5.519531 515.5 16.707031 C 519.199219 17.816406 528.824219 21.398438 544.382812 27.453125 C 554.195312 31.269531 564.019531 34.304688 573.851562 36.5625 Z M 573.851562 36.5625 " fill-opacity="1" fill-rule="nonzero"/></g><path fill="#fef9e2" d="M 396.347656 73.554688 C 509.316406 70.664062 617.523438 128.679688 678.796875 223.164062 C 750.0625 333.121094 749.359375 478.144531 676.167969 586.703125 C 616.5 675.199219 520.152344 730.0625 413.226562 732.804688 C 306.304688 735.550781 207.238281 685.679688 143.128906 600.367188 C 64.476562 495.664062 56.359375 350.875 121.925781 237.410156 C 178.265625 139.921875 283.347656 76.445312 396.347656 73.554688 Z M 396.347656 73.554688 " fill-opacity="1" fill-rule="nonzero"/><path fill="#31ae2a" d="M 536.183594 285.148438 C 526.878906 301.949219 525.523438 318.164062 532.125 333.792969 C 533.058594 336.003906 535.035156 337.621094 537.410156 338.113281 C 549.191406 340.507812 560.484375 344.429688 571.289062 349.878906 C 573.191406 350.863281 575.542969 350.140625 576.605469 348.246094 C 584.179688 334.660156 590.761719 323.535156 596.347656 314.871094 C 602.328125 305.570312 610.113281 299.972656 619.714844 298.085938 C 630.539062 302.503906 638.621094 308.652344 643.957031 316.539062 C 652.570312 329.265625 643.398438 348.101562 632.59375 356.246094 C 621.75 364.441406 612.570312 371.300781 605.054688 376.828125 C 604.351562 377.355469 604.304688 378.40625 604.90625 379.984375 L 594.800781 370.027344 C 572.585938 349.628906 546.496094 340.382812 516.527344 342.289062 C 501.515625 343.222656 487.742188 347.769531 475.203125 355.925781 C 458.378906 366.816406 442.695312 379.605469 433.351562 396.421875 L 407.09375 397.472656 C 406.835938 397.480469 406.632812 397.699219 406.644531 397.957031 C 406.648438 398.144531 406.769531 398.3125 406.949219 398.378906 C 412.398438 400.519531 417.394531 403.984375 421.929688 408.773438 C 423.917969 410.894531 426.3125 411.691406 429.113281 411.167969 C 437.097656 409.6875 443.183594 411.808594 447.367188 417.53125 C 452.011719 423.835938 449.09375 431.515625 441.148438 432.101562 C 435.988281 432.453125 431.101562 431.769531 426.488281 430.058594 C 425.667969 429.761719 424.765625 430.1875 424.46875 431.007812 C 424.320312 431.425781 424.351562 431.886719 424.558594 432.277344 C 427.460938 437.765625 429.261719 442.960938 429.960938 447.867188 C 430.109375 448.945312 429.789062 450.03125 429.085938 450.84375 C 401.574219 483.285156 367.929688 497.269531 326.894531 507.402344 C 323.699219 504.015625 322.027344 501.191406 321.871094 498.933594 C 318.851562 477.289062 322.699219 457.199219 333.40625 438.671875 C 338.019531 430.710938 343.640625 423.050781 350.257812 415.691406 C 356.605469 408.625 363.226562 404.140625 370.117188 402.230469 C 381.742188 398.992188 386.648438 395.867188 398.039062 393.441406 C 399.539062 393.136719 400.722656 392 401.078125 390.523438 C 405.867188 371.195312 406.597656 351.136719 399.089844 332.976562 C 397.183594 328.402344 395.664062 324.15625 394.535156 320.246094 C 395.003906 310.863281 397.445312 304.984375 401.867188 302.609375 C 402.53125 302.246094 402.773438 301.410156 402.410156 300.746094 C 402.335938 300.613281 402.242188 300.492188 402.128906 300.390625 C 388.03125 287.542969 382.140625 271.425781 384.460938 252.039062 C 385.6875 242.082031 397.425781 231.574219 405.664062 224.769531 C 407.726562 228.117188 409.617188 230.84375 411.328125 232.945312 C 418.863281 242.171875 423.671875 248.332031 425.757812 251.425781 C 431.753906 260.398438 439.621094 267.105469 449.355469 271.542969 C 450.886719 272.246094 452.003906 273.613281 452.390625 275.253906 L 469.59375 348.1875 C 470.074219 350.226562 472.101562 351.5 474.128906 351.027344 C 474.175781 351.015625 474.222656 351.003906 474.269531 350.988281 C 479.855469 349.472656 482.902344 347.894531 483.410156 346.261719 C 484.636719 342.144531 484.957031 335.691406 484.519531 329.996094 C 483.117188 310.765625 481.421875 291.386719 479.4375 271.863281 C 477.128906 249.089844 467.695312 219.777344 462.554688 198.609375 C 461.117188 192.652344 459.625 188.554688 458.085938 186.316406 C 455.050781 181.859375 449.558594 173.246094 441.617188 160.476562 C 435.25 150.226562 420.585938 136.503906 407.035156 136.214844 C 400.863281 136.097656 394.660156 137.585938 388.429688 140.679688 C 376.925781 146.402344 382.503906 168.652344 386.824219 177.734375 C 393.152344 191.027344 399.664062 204.585938 406.363281 218.40625 C 394.816406 202.695312 386.152344 185.617188 380.371094 167.164062 C 378.480469 161.089844 377.9375 155.339844 378.734375 149.90625 C 381.160156 133.644531 401.835938 130.8125 414.949219 134.695312 C 437.90625 141.5 446.929688 161.175781 459.257812 181.964844 C 460.460938 184.003906 462.894531 184.972656 465.183594 184.332031 C 500.816406 174.199219 521.875 197.703125 515.128906 232.332031 C 514.664062 234.6875 515.238281 237.125 516.703125 239.019531 C 519.859375 243.105469 525.117188 247.105469 527.363281 250.695312 C 532.953125 259.652344 535.894531 271.136719 536.183594 285.148438 Z M 536.183594 285.148438 " fill-opacity="1" fill-rule="nonzero"/><path fill="#64cb2e" d="M 405.664062 224.769531 C 406.34375 224.417969 406.578125 222.296875 406.363281 218.40625 C 399.664062 204.585938 393.152344 191.027344 386.824219 177.730469 C 382.503906 168.652344 376.925781 146.402344 388.429688 140.679688 C 394.660156 137.585938 400.863281 136.097656 407.035156 136.214844 C 420.585938 136.503906 435.25 150.226562 441.617188 160.476562 C 449.558594 173.246094 455.050781 181.859375 458.085938 186.316406 C 459.625 188.554688 461.117188 192.652344 462.554688 198.609375 C 467.695312 219.777344 477.128906 249.089844 479.4375 271.863281 C 481.421875 291.386719 483.117188 310.765625 484.519531 329.996094 C 484.957031 335.691406 484.636719 342.144531 483.410156 346.261719 C 482.902344 347.894531 479.855469 349.472656 474.269531 350.988281 C 472.261719 351.539062 470.183594 350.347656 469.628906 348.328125 C 469.617188 348.28125 469.605469 348.234375 469.59375 348.1875 L 452.390625 275.25 C 452.003906 273.613281 450.886719 272.246094 449.355469 271.542969 C 439.621094 267.105469 431.753906 260.398438 425.757812 251.425781 C 423.671875 248.332031 418.863281 242.171875 411.328125 232.945312 C 409.617188 230.84375 407.726562 228.117188 405.664062 224.769531 Z M 405.664062 224.769531 " fill-opacity="1" fill-rule="nonzero"/><path fill="#994b1a" d="M 283.988281 286.902344 L 280.308594 302.464844 C 274 302.523438 269.183594 300.710938 265.851562 297.03125 C 265.296875 296.417969 264.894531 295.679688 264.683594 294.871094 L 261.589844 282.960938 C 262.054688 276.449219 263.429688 267.953125 263.019531 263.046875 C 262.144531 252.398438 261.890625 241.519531 262.261719 230.40625 C 262.457031 224.3125 267.554688 219.53125 273.648438 219.726562 C 274.847656 219.765625 276.03125 220 277.15625 220.417969 L 277.273438 220.449219 C 285.507812 223.515625 290.929688 231.4375 290.824219 240.246094 C 290.667969 251.222656 289.453125 260.953125 287.171875 269.441406 C 285.734375 274.832031 284.671875 280.652344 283.988281 286.902344 Z M 283.988281 286.902344 " fill-opacity="1" fill-rule="nonzero"/><path fill="#64cb2e" d="M 619.714844 298.085938 C 610.117188 299.972656 602.328125 305.570312 596.347656 314.871094 C 590.761719 323.535156 584.179688 334.660156 576.605469 348.246094 C 575.542969 350.140625 573.191406 350.863281 571.289062 349.878906 C 560.484375 344.429688 549.191406 340.507812 537.410156 338.113281 C 535.035156 337.621094 533.058594 336.003906 532.125 333.792969 C 525.523438 318.164062 526.878906 301.949219 536.183594 285.148438 C 540.917969 279.058594 547.019531 277.421875 554.496094 280.246094 C 559.726562 282.257812 563.929688 287.863281 567.492188 291.28125 C 568.226562 291.960938 569.371094 291.921875 570.054688 291.1875 C 570.25 290.972656 570.394531 290.714844 570.472656 290.433594 C 575.640625 271.542969 589.222656 232.945312 616.210938 240.652344 C 639.660156 247.339844 628.886719 282.40625 619.714844 298.085938 Z M 619.714844 298.085938 " fill-opacity="1" fill-rule="nonzero"/><path fill="#64cb2e" d="M 339.859375 285.703125 C 335.910156 286.601562 333.328125 287.574219 332.121094 288.625 C 320.089844 298.84375 309.222656 305.714844 299.527344 309.238281 C 291.15625 312.273438 284.75 310.015625 280.308594 302.464844 L 283.988281 286.902344 C 294.523438 270.316406 305.464844 258.734375 316.816406 252.15625 C 325.492188 247.132812 358.785156 232.273438 361.738281 249.03125 C 364.015625 261.820312 348.945312 277.5 339.453125 284.1875 C 339.269531 284.316406 339.152344 284.519531 339.132812 284.742188 C 339.09375 285.460938 339.335938 285.78125 339.859375 285.703125 Z M 339.859375 285.703125 " fill-opacity="1" fill-rule="nonzero"/><path fill="#ed403e" d="M 261.589844 282.960938 L 264.683594 294.871094 C 264.894531 295.679688 265.296875 296.417969 265.851562 297.03125 C 269.183594 300.710938 274 302.523438 280.308594 302.464844 C 284.75 310.015625 291.15625 312.273438 299.527344 309.238281 C 309.222656 305.714844 320.089844 298.84375 332.121094 288.625 C 333.328125 287.574219 335.910156 286.601562 339.859375 285.703125 C 363.695312 286.8125 381.011719 301.238281 394.535156 320.246094 C 395.664062 324.15625 397.183594 328.402344 399.089844 332.976562 C 406.597656 351.136719 405.867188 371.195312 401.078125 390.523438 C 400.722656 392 399.539062 393.136719 398.039062 393.441406 C 386.648438 395.867188 381.742188 398.992188 370.117188 402.230469 C 363.226562 404.140625 356.605469 408.625 350.257812 415.691406 C 343.636719 423.050781 338.019531 430.707031 333.40625 438.671875 C 322.699219 457.199219 318.851562 477.289062 321.871094 498.933594 C 270.585938 527.460938 212.816406 517.53125 178.554688 469.53125 L 212.085938 478.234375 C 212.890625 478.445312 213.742188 478.453125 214.566406 478.261719 C 219.125 477.113281 226.152344 475.417969 235.652344 473.179688 C 267.226562 465.765625 296.109375 437.5625 314.714844 410.667969 C 317.34375 406.875 319.144531 403.546875 320.117188 400.683594 C 328.703125 375.632812 341.144531 347.691406 333.378906 320.683594 C 333.078125 319.636719 332.359375 318.75 331.390625 318.230469 C 319.039062 311.660156 310.890625 314.230469 298.945312 314.347656 C 277.15625 314.601562 262.144531 305.34375 253.90625 286.582031 C 253.578125 285.808594 253.101562 285.125 252.503906 284.566406 C 241.175781 273.617188 221.402344 273.851562 207.675781 277.296875 C 190.617188 281.617188 173.796875 290.640625 165.53125 306.871094 C 158.832031 319.992188 154.878906 329.460938 153.671875 335.28125 C 146.109375 371.894531 148.445312 412.128906 168.65625 444.742188 C 169.828125 446.625 170.558594 448.742188 170.789062 450.933594 L 171.75 460.011719 C 170.367188 458.007812 168.9375 456.644531 167.457031 455.925781 C 154.0625 432.449219 146.933594 407.378906 146.078125 380.714844 C 144.941406 344.449219 152.300781 298.699219 188.632812 280.476562 C 205.046875 272.226562 221.5 269.636719 237.992188 272.710938 C 244.492188 273.917969 252.359375 277.335938 261.589844 282.960938 Z M 261.589844 282.960938 " fill-opacity="1" fill-rule="nonzero"/><path fill="#fb533c" d="M 178.554688 469.53125 L 171.75 460.011719 L 170.789062 450.933594 C 170.558594 448.742188 169.828125 446.625 168.65625 444.742188 C 148.445312 412.128906 146.109375 371.894531 153.671875 335.28125 C 154.878906 329.460938 158.832031 319.992188 165.53125 306.871094 C 173.796875 290.640625 190.617188 281.617188 207.675781 277.296875 C 221.402344 273.851562 241.175781 273.617188 252.503906 284.566406 C 253.101562 285.125 253.582031 285.808594 253.90625 286.582031 C 262.144531 305.34375 277.15625 314.601562 298.945312 314.347656 C 310.890625 314.230469 319.039062 311.660156 331.390625 318.230469 C 332.359375 318.75 333.078125 319.636719 333.378906 320.683594 C 341.144531 347.691406 328.703125 375.632812 320.117188 400.683594 C 319.144531 403.546875 317.34375 406.875 314.714844 410.667969 C 296.109375 437.5625 267.226562 465.765625 235.652344 473.179688 C 226.152344 475.417969 219.125 477.113281 214.566406 478.261719 C 213.742188 478.453125 212.890625 478.445312 212.085938 478.234375 Z M 178.554688 469.53125 " fill-opacity="1" fill-rule="nonzero"/><path fill="#ffa16e" d="M 176.101562 323.222656 C 175.8125 321.898438 176.132812 320.292969 177.066406 318.40625 C 182.148438 307.980469 199.816406 286.171875 213.515625 294.144531 C 224.671875 300.652344 214.773438 319.222656 206.214844 323.601562 C 198.894531 327.339844 191.171875 329.113281 183.054688 328.917969 C 179.691406 328.828125 176.824219 326.480469 176.101562 323.222656 Z M 176.101562 323.222656 " fill-opacity="1" fill-rule="nonzero"/><path fill="#ffb808" d="M 594.800781 370.027344 C 584.910156 370.726562 575.46875 372.78125 566.472656 376.1875 C 565.5625 376.542969 565.050781 377.5 565.273438 378.4375 L 572.957031 410.992188 C 573.554688 413.539062 572.820312 416.222656 571 418.113281 C 548.714844 441.386719 519.332031 415.253906 489.6875 426.289062 C 476.136719 407.15625 457.359375 397.199219 433.351562 396.421875 C 442.695312 379.605469 458.378906 366.816406 475.203125 355.925781 C 487.742188 347.769531 501.515625 343.222656 516.527344 342.289062 C 546.496094 340.382812 572.585938 349.628906 594.800781 370.027344 Z M 594.800781 370.027344 " fill-opacity="1" fill-rule="nonzero"/><path fill="#ff990a" d="M 594.800781 370.027344 L 604.90625 379.984375 C 618.167969 396.683594 626.394531 415.761719 629.585938 437.210938 C 630.832031 450.210938 630.1875 462.523438 627.660156 474.144531 C 618.410156 500.949219 602.21875 520.441406 579.089844 532.628906 C 567.445312 538.777344 556.015625 542.574219 544.800781 544.015625 C 551.945312 509.132812 542.835938 483.625 517.464844 467.488281 C 513.726562 465.125 507.882812 462.960938 503.210938 459.691406 C 500.269531 447.992188 495.761719 436.859375 489.6875 426.289062 C 519.332031 415.253906 548.714844 441.386719 571 418.113281 C 572.820312 416.222656 573.554688 413.539062 572.957031 410.992188 L 565.273438 378.4375 C 565.050781 377.5 565.5625 376.542969 566.472656 376.1875 C 575.46875 372.78125 584.910156 370.726562 594.800781 370.027344 Z M 594.800781 370.027344 " fill-opacity="1" fill-rule="nonzero"/><path fill="#077f3a" d="M 433.351562 396.421875 C 457.359375 397.199219 476.136719 407.15625 489.6875 426.289062 C 495.761719 436.859375 500.269531 447.992188 503.210938 459.691406 C 503.855469 460.257812 503.855469 460.761719 503.210938 461.210938 C 502.472656 461.753906 501.585938 461.980469 500.554688 461.882812 C 474.578125 454.816406 451.875 460.21875 432.445312 478.085938 C 425.492188 484.472656 420.695312 490.582031 418.046875 496.421875 C 408.953125 516.335938 409.703125 536.035156 420.292969 555.519531 L 430.226562 569.5625 C 422.941406 574.71875 413.664062 577.5625 402.390625 578.089844 C 394.738281 576.785156 387.027344 574.855469 379.261719 572.308594 C 368.824219 568.882812 359.878906 564.179688 352.421875 558.203125 C 340.707031 548.539062 338.519531 538.46875 331.742188 526.613281 L 326.894531 507.402344 C 367.929688 497.269531 401.574219 483.285156 429.085938 450.84375 C 429.789062 450.03125 430.109375 448.945312 429.960938 447.867188 C 429.261719 442.960938 427.460938 437.765625 424.558594 432.277344 C 424.152344 431.503906 424.449219 430.550781 425.21875 430.144531 C 425.609375 429.941406 426.070312 429.90625 426.488281 430.058594 C 431.101562 431.769531 435.988281 432.449219 441.148438 432.101562 C 449.09375 431.515625 452.011719 423.835938 447.367188 417.53125 C 443.183594 411.808594 437.097656 409.6875 429.113281 411.167969 C 426.3125 411.691406 423.917969 410.894531 421.929688 408.773438 C 417.394531 403.984375 412.398438 400.519531 406.949219 398.378906 C 406.707031 398.289062 406.582031 398.019531 406.671875 397.777344 C 406.738281 397.597656 406.902344 397.480469 407.09375 397.472656 Z M 433.351562 396.421875 " fill-opacity="1" fill-rule="nonzero"/><path fill="#c3e5d6" d="M 246.34375 607.257812 L 266.523438 618 C 310.449219 644.707031 358.476562 656.414062 410.597656 653.125 C 457.269531 650.207031 499.09375 636.667969 536.066406 612.511719 C 561.828125 595.695312 582.222656 576.023438 597.253906 553.503906 C 612.949219 529.96875 623.082031 503.519531 627.660156 474.144531 C 630.1875 462.523438 630.832031 450.210938 629.585938 437.210938 L 634.84375 437.707031 C 635.851562 437.800781 636.777344 438.296875 637.414062 439.078125 C 644.929688 448.363281 650.992188 459.820312 655.609375 473.445312 C 675.148438 531.226562 624.5625 597.328125 581.660156 629.445312 C 525.835938 671.257812 462.59375 689.300781 391.9375 683.578125 C 376.671875 682.351562 361.296875 679.664062 345.820312 675.519531 C 330.476562 671.433594 316.117188 665.484375 302.742188 657.679688 C 280.484375 644.695312 261.6875 627.890625 246.34375 607.257812 Z M 246.34375 607.257812 " fill-opacity="1" fill-rule="nonzero"/><path fill="#64cb2e" d="M 171.75 460.011719 L 178.554688 469.53125 C 212.816406 517.53125 270.585938 527.460938 321.871094 498.933594 C 322.027344 501.191406 323.699219 504.015625 326.894531 507.402344 L 331.742188 526.613281 C 313.136719 542.554688 283.699219 535.957031 277.066406 562.4375 C 276.519531 564.628906 276.746094 566.941406 277.710938 568.976562 C 286.609375 587.957031 301.40625 598.4375 322.105469 600.425781 L 347.921875 605.765625 C 363.75 620.949219 384.136719 615.664062 403.035156 613.824219 C 405.824219 613.554688 408.632812 613.664062 411.386719 614.148438 C 414.910156 614.769531 429.144531 615.363281 454.085938 615.929688 C 466.664062 616.199219 479.105469 620.578125 491.410156 629.066406 C 491.945312 629.429688 492.085938 630.15625 491.722656 630.6875 C 491.597656 630.875 491.417969 631.023438 491.207031 631.109375 C 450.027344 649.214844 414.074219 651.605469 371.054688 649.007812 C 358.574219 648.25 348.796875 646.886719 341.730469 644.921875 C 318.617188 638.535156 293.550781 629.5625 266.523438 618 L 246.34375 607.257812 C 236.957031 597.523438 227.136719 587.226562 216.875 576.367188 C 195.28125 553.53125 180.203125 527.003906 171.632812 496.773438 C 167.933594 483.691406 166.542969 470.078125 167.457031 455.925781 C 168.9375 456.644531 170.367188 458.007812 171.75 460.011719 Z M 171.75 460.011719 " fill-opacity="1" fill-rule="nonzero"/><path fill="#fb533c" d="M 500.554688 461.882812 C 504.503906 467.332031 506.628906 472.21875 506.921875 476.539062 C 508.644531 502 499.09375 535.023438 474.996094 549.621094 C 474.210938 550.101562 473.320312 550.398438 472.398438 550.496094 L 420.292969 555.519531 C 409.703125 536.035156 408.953125 516.335938 418.046875 496.421875 C 420.695312 490.582031 425.492188 484.472656 432.445312 478.085938 C 451.875 460.21875 474.578125 454.816406 500.554688 461.882812 Z M 500.554688 461.882812 " fill-opacity="1" fill-rule="nonzero"/><path fill="#e63923" d="M 544.800781 544.015625 C 543.496094 545.84375 541.0625 550.332031 537.5 557.472656 C 527.101562 578.410156 503.09375 591.082031 480.050781 593.125 C 464.015625 594.527344 448.59375 588.714844 437.148438 576.804688 C 434.480469 574.019531 432.171875 571.605469 430.226562 569.5625 L 420.292969 555.519531 L 472.398438 550.496094 C 473.320312 550.398438 474.210938 550.101562 474.996094 549.621094 C 499.09375 535.023438 508.644531 502 506.921875 476.539062 C 506.628906 472.21875 504.503906 467.332031 500.554688 461.882812 C 501.585938 461.980469 502.472656 461.753906 503.210938 461.210938 C 503.855469 460.761719 503.855469 460.257812 503.210938 459.691406 C 507.882812 462.960938 513.726562 465.125 517.464844 467.488281 C 542.835938 483.625 551.945312 509.132812 544.800781 544.015625 Z M 544.800781 544.015625 " fill-opacity="1" fill-rule="nonzero"/><path fill="#31ae2a" d="M 627.660156 474.144531 C 623.082031 503.519531 612.949219 529.96875 597.253906 553.503906 C 582.222656 576.023438 561.828125 595.695312 536.066406 612.511719 C 499.09375 636.667969 457.269531 650.207031 410.597656 653.125 C 358.476562 656.414062 310.449219 644.707031 266.523438 618 C 293.550781 629.5625 318.617188 638.535156 341.730469 644.921875 C 348.796875 646.886719 358.574219 648.25 371.054688 649.007812 C 414.074219 651.605469 450.027344 649.214844 491.207031 631.109375 C 491.800781 630.863281 492.082031 630.175781 491.832031 629.582031 C 491.746094 629.375 491.597656 629.195312 491.410156 629.066406 C 479.105469 620.582031 466.664062 616.199219 454.085938 615.929688 C 429.144531 615.363281 414.910156 614.769531 411.386719 614.148438 C 408.632812 613.664062 405.824219 613.554688 403.035156 613.824219 C 384.136719 615.664062 363.75 620.949219 347.921875 605.765625 C 367.546875 607.34375 387.496094 601.5625 405.722656 595.140625 C 406.921875 594.714844 407.550781 593.394531 407.125 592.195312 C 407.078125 592.0625 407.019531 591.933594 406.949219 591.8125 C 404.707031 587.9375 403.191406 583.363281 402.390625 578.089844 C 413.664062 577.5625 422.941406 574.71875 430.226562 569.5625 C 432.171875 571.605469 434.480469 574.019531 437.148438 576.804688 C 448.59375 588.714844 464.015625 594.527344 480.050781 593.125 C 503.09375 591.082031 527.101562 578.410156 537.5 557.472656 C 541.0625 550.332031 543.496094 545.84375 544.800781 544.015625 C 556.015625 542.574219 567.445312 538.777344 579.089844 532.628906 C 602.21875 520.441406 618.410156 500.949219 627.660156 474.144531 Z M 627.660156 474.144531 " fill-opacity="1" fill-rule="nonzero"/><path fill="#ffe403" d="M 352.421875 558.203125 C 339.589844 562.914062 330.464844 570.625 325.054688 581.328125 C 322.171875 587.011719 322.328125 592.570312 325.519531 598 C 325.945312 598.726562 325.699219 599.65625 324.972656 600.078125 C 324.898438 600.121094 324.816406 600.160156 324.734375 600.191406 C 324.226562 600.386719 323.351562 600.464844 322.105469 600.425781 C 301.40625 598.4375 286.609375 587.957031 277.710938 568.976562 C 276.746094 566.941406 276.519531 564.628906 277.066406 562.4375 C 283.699219 535.957031 313.136719 542.554688 331.742188 526.613281 C 338.519531 538.46875 340.707031 548.539062 352.421875 558.203125 Z M 352.421875 558.203125 " fill-opacity="1" fill-rule="nonzero"/><path fill="#ffd00e" d="M 402.390625 578.089844 C 403.191406 583.363281 404.707031 587.9375 406.949219 591.8125 C 407.585938 592.914062 407.207031 594.324219 406.105469 594.960938 C 405.984375 595.03125 405.855469 595.09375 405.722656 595.140625 C 387.496094 601.5625 367.546875 607.34375 347.921875 605.765625 L 322.105469 600.425781 C 323.351562 600.464844 324.226562 600.386719 324.734375 600.191406 C 325.519531 599.902344 325.921875 599.027344 325.632812 598.242188 C 325.605469 598.160156 325.566406 598.078125 325.519531 598 C 322.328125 592.570312 322.171875 587.011719 325.054688 581.328125 C 330.464844 570.625 339.589844 562.914062 352.421875 558.203125 C 359.878906 564.179688 368.824219 568.882812 379.261719 572.308594 C 387.027344 574.855469 394.738281 576.785156 402.390625 578.085938 Z M 402.390625 578.089844 " fill-opacity="1" fill-rule="nonzero"/></svg>