<svg xmlns="http://www.w3.org/2000/svg" xmlns:xlink="http://www.w3.org/1999/xlink" width="1080" zoomAndPan="magnify" viewBox="0 0 810 809.999993" height="1080" preserveAspectRatio="xMidYMid meet" version="1.0"><defs><clipPath id="83be5cc1be"><path d="M 11 24.804688 L 810 24.804688 L 810 773 L 11 773 Z M 11 24.804688 " clip-rule="nonzero"/></clipPath><clipPath id="d5c4ffec81"><path d="M 11 24.804688 L 810 24.804688 L 810 773 L 11 773 Z M 11 24.804688 " clip-rule="nonzero"/></clipPath><clipPath id="01fbd360c9"><path d="M 57.125 271.328125 C 57.957031 264.582031 55.972656 257.785156 51.617188 252.550781 C 47.261719 247.328125 40.957031 244.160156 34.144531 243.769531 C 33.859375 246.296875 33.910156 248.820312 34.367188 251.261719 L 34.367188 251.296875 C 35.144531 255.398438 36.941406 259.277344 39.671875 262.550781 C 44.007812 267.769531 50.328125 270.9375 57.125 271.328125 M 103.304688 283.769531 C 117.808594 272.480469 119.777344 251.210938 107.523438 237.5 C 100.558594 242.90625 96.152344 250.9375 95.355469 259.683594 C 94.578125 268.480469 97.441406 277.191406 103.304688 283.769531 Z M 152.144531 293.292969 C 158.886719 294.125 165.648438 292.140625 170.902344 287.785156 C 176.121094 283.429688 179.308594 277.125 179.679688 270.328125 C 172.96875 269.5 166.175781 271.480469 160.921875 275.835938 C 155.71875 280.175781 152.515625 286.464844 152.144531 293.292969 Z M 130.6875 336.414062 C 153.820312 328.058594 177.242188 323.109375 190.171875 302.429688 C 195.8125 293.398438 197.425781 282.921875 194.710938 272.398438 C 180.714844 306.3125 126.417969 297.957031 102.878906 332.769531 C 103.609375 324.957031 111.964844 311.9375 116.148438 308.175781 C 127.488281 298.023438 142.6875 290.601562 148.007812 270.398438 C 150.074219 262.601562 149.464844 254.601562 146.3125 247.617188 C 124.132812 262.347656 110.046875 279.515625 101.015625 308.34375 C 97.390625 278.464844 86.644531 259.058594 67.511719 240.582031 C 63.15625 246.921875 61.089844 254.632812 61.699219 262.71875 C 63.125 281.363281 74.257812 291.464844 83.257812 302.007812 C 91.101562 311.242188 95.964844 319.683594 94.832031 332.058594 C 77.984375 293.53125 21.621094 283.160156 15.4375 256.039062 C 0.015625 289.277344 32.011719 311.125 56.988281 325.023438 C 72.597656 333.734375 85.816406 341.363281 96.796875 354.582031 C 107.523438 345.90625 117.386719 341.191406 130.6875 336.414062 Z M 247.839844 77.789062 C 244.246094 72.007812 243.230469 64.992188 244.957031 58.449219 C 246.738281 51.890625 251.144531 46.367188 257.144531 43.128906 C 260.734375 48.875 261.785156 55.925781 260.023438 62.46875 C 258.246094 69.058594 253.871094 74.601562 247.839844 77.789062 Z M 211.117188 108.433594 C 193.222656 104.296875 182.527344 85.804688 187.898438 68.230469 C 196.476562 70.210938 203.863281 75.652344 208.234375 83.28125 C 212.640625 90.90625 213.691406 100.007812 211.117188 108.433594 Z M 166.226562 124.921875 C 160.445312 128.515625 153.464844 129.566406 146.875 127.804688 C 140.316406 126.058594 134.757812 121.652344 131.585938 115.636719 C 137.332031 112.042969 144.347656 111.007812 150.90625 112.789062 C 157.5 114.5 163.039062 118.90625 166.226562 124.921875 Z M 210.574219 167.535156 C 185.273438 169.464844 161.109375 175.566406 140.078125 161.789062 C 131.179688 155.921875 125.300781 147.109375 123.367188 136.414062 C 163.9375 127.820312 196.070312 130.992188 232.046875 152.71875 C 226.589844 143.230469 218.914062 138.667969 208.589844 135.652344 C 194.289062 131.484375 177.902344 130.738281 164.9375 115.042969 C 159.769531 108.789062 157.023438 101.3125 156.90625 93.617188 C 183.222656 97.703125 203.21875 107.382812 223.46875 129.753906 C 214.25 101.078125 215.894531 78.992188 225.503906 54.195312 C 232.113281 58.128906 237.214844 64.28125 240.042969 71.855469 C 246.550781 89.363281 240.722656 103.179688 236.976562 116.515625 C 233.621094 128.484375 232.894531 138.078125 239.011719 148.6875 C 238.164062 106.667969 251.484375 77.261719 279.242188 46.398438 C 287.441406 53.367188 292.238281 62.789062 292.832031 73.570312 C 294.070312 95.363281 280.902344 112.128906 268.75 128.789062 C 259.378906 141.652344 250.804688 154.363281 246.636719 169.972656 C 233.6875 166.738281 223.285156 166.566406 210.574219 167.535156 Z M 180.171875 670.730469 C 178.476562 669.136719 178.410156 666.511719 179.988281 664.851562 C 181.578125 663.15625 184.207031 663.070312 185.867188 664.628906 C 219.183594 696.019531 258.378906 721.171875 301.59375 738.308594 C 343.246094 754.796875 388.648438 763.882812 436.199219 763.882812 C 537.046875 763.882812 628.402344 722.984375 694.476562 656.882812 C 760.601562 590.765625 801.476562 499.429688 801.476562 398.53125 C 801.476562 297.632812 760.585938 206.277344 694.476562 140.179688 C 628.386719 74.078125 537.046875 33.179688 436.199219 33.179688 C 394.476562 33.179688 353.179688 40.160156 313.894531 54.144531 C 311.710938 54.890625 309.335938 53.773438 308.542969 51.585938 C 307.796875 49.398438 308.914062 47.007812 311.101562 46.230469 C 351.28125 32.007812 393.59375 24.804688 436.199219 24.804688 C 539.367188 24.804688 632.808594 66.636719 700.390625 134.28125 C 768.007812 201.90625 809.847656 295.34375 809.847656 398.546875 C 809.847656 501.75 768.007812 595.15625 700.390625 662.816406 C 632.792969 730.425781 539.351562 772.289062 436.199219 772.289062 C 387.597656 772.289062 341.179688 763 298.542969 746.070312 C 254.296875 728.527344 214.21875 702.78125 180.171875 670.730469 Z M 179.359375 439.785156 C 212.640625 429.410156 248.566406 439.496094 271.617188 464.765625 C 283.191406 427.902344 290.898438 393.886719 293.222656 360.566406 C 248.464844 371.820312 236.25 325.71875 198.898438 325.632812 C 233.402344 314.855469 270.71875 326.058594 293.628906 353.414062 C 293.714844 351.667969 293.765625 349.921875 293.816406 348.191406 C 294.679688 318.277344 290.949219 288.667969 281.546875 257.753906 C 241.144531 267.753906 230.046875 226.09375 196.222656 225.992188 C 225.503906 216.855469 256.992188 225.175781 277.953125 246.601562 C 271.480469 227.820312 262.9375 208.53125 252.023438 188.296875 C 246.058594 177.195312 235.789062 180.042969 226.65625 183.601562 C 217.640625 187.09375 197.425781 188.414062 192.1875 176.71875 C 215.167969 169.226562 232.0625 168.074219 249.839844 175.464844 C 252.3125 156.363281 261.769531 142.332031 279.75 126.160156 C 287.238281 136.535156 276.039062 153.398438 268.464844 159.484375 C 259.195312 166.90625 254.175781 172.328125 260.160156 183.347656 C 263.464844 189.464844 266.566406 195.5 269.445312 201.449219 C 274.953125 176.789062 294.238281 157.109375 319.386719 151.464844 C 295.695312 165.226562 304.507812 198.789062 272.800781 208.601562 C 285.714844 236.5 294.1875 262.921875 298.882812 288.886719 C 307.238281 257.175781 332.65625 232.109375 365.429688 224.71875 C 333.078125 243.53125 345.652344 289.71875 300.984375 302.261719 C 303.015625 317.71875 303.746094 333.058594 303.320312 348.480469 C 302.457031 379.140625 296.984375 410.074219 288.003906 442.851562 C 313.828125 398.597656 346.417969 357.34375 380.851562 319.515625 C 418.472656 278.191406 546.265625 139.839844 457.449219 99.804688 C 433.773438 89.144531 403.644531 89.839844 384.242188 102.773438 C 427.980469 70.179688 490.496094 91.617188 505.863281 143.160156 C 514.253906 175.058594 514.40625 203.296875 511.269531 236.074219 C 510.574219 242.09375 510.269531 247.683594 510.371094 252.90625 C 518.964844 261.667969 534.605469 262.3125 549.230469 261.769531 C 537.0625 265.023438 523.269531 268.855469 511.609375 265.90625 L 511.980469 267.785156 C 515.574219 284.601562 544.402344 313.414062 569.175781 335.957031 C 593.832031 358.363281 610.152344 372.515625 568.957031 386.175781 C 557.566406 389.902344 548.265625 394.257812 556.890625 407.71875 C 567.886719 424.9375 583.34375 426.359375 556.789062 443.972656 C 548.535156 449.429688 538.792969 454.039062 531.859375 455.582031 C 540.011719 453.988281 558.703125 460.988281 558.789062 468.9375 C 558.941406 484.953125 526.980469 480.816406 542.453125 535.242188 C 546.671875 550.070312 550.839844 564.613281 533.878906 574.257812 C 510.695312 586.78125 486.730469 582.648438 460.820312 578.15625 C 399.050781 567.496094 359.261719 571.578125 336.894531 583.800781 C 253.550781 629.34375 406.625 785.273438 576.582031 710.085938 C 695.15625 656.207031 777.667969 536.699219 777.667969 397.921875 C 777.667969 208.617188 624.234375 55.195312 434.996094 55.195312 C 395.1875 55.195312 356.972656 61.976562 321.4375 74.464844 L 321.472656 74.433594 C 320.046875 74.925781 318.523438 74.601562 317.351562 73.621094 C 316.167969 72.601562 315.609375 71.042969 315.914062 69.484375 C 316.199219 68.027344 317.234375 66.855469 318.574219 66.3125 C 355.007812 53.519531 394.207031 46.535156 435.011719 46.535156 C 629.03125 46.535156 786.34375 203.839844 786.34375 397.921875 C 786.34375 537.242188 705.289062 657.597656 587.75 714.425781 L 587.9375 714.339844 C 541.722656 736.730469 489.816406 749.289062 435.011719 749.289062 C 337.707031 749.289062 249.636719 709.714844 186.019531 645.78125 L 185.984375 645.78125 C 145.839844 667.917969 122.132812 626.730469 86.105469 636.273438 C 112.507812 619.597656 145.179688 618.1875 172.429688 631.324219 C 164.3125 622.527344 156.734375 613.273438 149.667969 603.597656 C 127.128906 572.699219 110.046875 537.546875 99.574219 500.039062 C 57.871094 510.460938 46.449219 467.53125 11.675781 467.410156 C 42.332031 457.851562 75.410156 466.902344 96.914062 489.867188 C 87.867188 452.871094 85.207031 413.800781 90.019531 374.328125 C 91.679688 360.683594 85.644531 357.34375 72.632812 354.125 C 63.242188 351.785156 45.976562 341.210938 48.449219 328.632812 C 71.546875 335.75 86 344.566406 96.269531 360.851562 C 109.304688 346.71875 125.132812 340.648438 149.109375 337.820312 C 149.261719 350.632812 130.382812 357.921875 120.707031 358.53125 C 106.898438 359.363281 101.101562 361.75 99.421875 375.464844 C 97.710938 389.597656 96.984375 403.683594 97.167969 417.597656 C 111.40625 390.835938 139.910156 374.125 170.835938 375.363281 C 138.570312 384.125 138.652344 426.734375 97.472656 427.496094 C 99.695312 476.191406 113.269531 522.9375 135.890625 564.207031 C 134.621094 530.292969 152.871094 498.15625 183.527344 482.039062 C 157.109375 508.582031 181.242188 549.96875 141.296875 573.648438 C 146.261719 582.003906 151.617188 590.140625 157.328125 597.984375 C 188.867188 641.222656 231.351562 675.902344 281.425781 696.644531 C 274.902344 691.105469 268.972656 684.796875 263.753906 677.644531 C 260.582031 672.105469 257.277344 666.679688 253.804688 661.308594 C 242.960938 639.648438 237.636719 612.460938 240.027344 579.730469 C 242.042969 551.988281 249.804688 524.425781 260.277344 498.632812 C 262.988281 490.917969 265.597656 483.378906 268.039062 475.902344 C 227.808594 482.105469 215.097656 439.886719 179.359375 439.785156 Z M 179.359375 439.785156 " clip-rule="nonzero"/></clipPath></defs><g clip-path="url(#83be5cc1be)"><path fill="#9e005d" d="M 57.125 271.328125 C 57.957031 264.582031 55.972656 257.785156 51.617188 252.550781 C 47.261719 247.328125 40.957031 244.160156 34.144531 243.769531 C 33.859375 246.296875 33.910156 248.820312 34.367188 251.261719 L 34.367188 251.296875 C 35.144531 255.398438 36.941406 259.277344 39.671875 262.550781 C 44.007812 267.769531 50.328125 270.9375 57.125 271.328125 M 103.304688 283.769531 C 117.808594 272.480469 119.777344 251.210938 107.523438 237.5 C 100.558594 242.90625 96.152344 250.9375 95.355469 259.683594 C 94.578125 268.480469 97.441406 277.191406 103.304688 283.769531 Z M 152.144531 293.292969 C 158.886719 294.125 165.648438 292.140625 170.902344 287.785156 C 176.121094 283.429688 179.308594 277.125 179.679688 270.328125 C 172.96875 269.5 166.175781 271.480469 160.921875 275.835938 C 155.71875 280.175781 152.515625 286.464844 152.144531 293.292969 Z M 130.6875 336.414062 C 153.820312 328.058594 177.242188 323.109375 190.171875 302.429688 C 195.8125 293.394531 197.425781 282.921875 194.710938 272.398438 C 180.714844 306.3125 126.417969 297.957031 102.878906 332.769531 C 103.609375 324.957031 111.964844 311.9375 116.148438 308.175781 C 127.488281 298.023438 142.6875 290.601562 148.007812 270.398438 C 150.074219 262.601562 149.464844 254.601562 146.3125 247.617188 C 124.132812 262.347656 110.046875 279.515625 101.015625 308.34375 C 97.390625 278.464844 86.644531 259.058594 67.511719 240.582031 C 63.15625 246.921875 61.089844 254.632812 61.699219 262.71875 C 63.125 281.363281 74.257812 291.464844 83.257812 302.007812 C 91.101562 311.242188 95.964844 319.683594 94.832031 332.058594 C 77.984375 293.53125 21.621094 283.160156 15.4375 256.039062 C 0.015625 289.277344 32.011719 311.125 56.988281 325.023438 C 72.597656 333.734375 85.816406 341.363281 96.796875 354.582031 C 107.523438 345.90625 117.386719 341.191406 130.6875 336.414062 Z M 247.839844 77.789062 C 244.246094 72.007812 243.230469 64.992188 244.957031 58.449219 C 246.738281 51.890625 251.144531 46.367188 257.144531 43.128906 C 260.734375 48.875 261.785156 55.925781 260.023438 62.46875 C 258.246094 69.058594 253.871094 74.601562 247.839844 77.789062 Z M 211.117188 108.433594 C 193.222656 104.296875 182.527344 85.804688 187.898438 68.230469 C 196.476562 70.210938 203.863281 75.652344 208.234375 83.28125 C 212.640625 90.90625 213.691406 100.007812 211.117188 108.433594 Z M 166.226562 124.921875 C 160.445312 128.515625 153.464844 129.566406 146.875 127.804688 C 140.316406 126.058594 134.757812 121.652344 131.585938 115.636719 C 137.332031 112.042969 144.347656 111.007812 150.90625 112.789062 C 157.5 114.5 163.039062 118.90625 166.226562 124.921875 Z M 210.574219 167.535156 C 185.273438 169.464844 161.109375 175.566406 140.078125 161.789062 C 131.179688 155.921875 125.300781 147.109375 123.367188 136.414062 C 163.9375 127.820312 196.070312 130.992188 232.046875 152.71875 C 226.589844 143.230469 218.914062 138.667969 208.589844 135.652344 C 194.289062 131.484375 177.902344 130.738281 164.9375 115.042969 C 159.769531 108.789062 157.023438 101.3125 156.90625 93.617188 C 183.222656 97.703125 203.21875 107.382812 223.46875 129.753906 C 214.25 101.078125 215.894531 78.992188 225.503906 54.195312 C 232.113281 58.128906 237.214844 64.28125 240.042969 71.855469 C 246.550781 89.363281 240.722656 103.179688 236.976562 116.515625 C 233.621094 128.484375 232.894531 138.078125 239.011719 148.6875 C 238.164062 106.667969 251.484375 77.261719 279.242188 46.398438 C 287.441406 53.367188 292.238281 62.789062 292.832031 73.570312 C 294.070312 95.363281 280.902344 112.128906 268.75 128.789062 C 259.378906 141.652344 250.804688 154.363281 246.636719 169.972656 C 233.6875 166.738281 223.285156 166.566406 210.574219 167.535156 Z M 180.171875 670.730469 C 178.476562 669.136719 178.410156 666.511719 179.988281 664.851562 C 181.578125 663.15625 184.207031 663.070312 185.867188 664.628906 C 219.183594 696.019531 258.378906 721.171875 301.59375 738.308594 C 343.246094 754.796875 388.648438 763.882812 436.199219 763.882812 C 537.046875 763.882812 628.402344 722.984375 694.476562 656.882812 C 760.601562 590.765625 801.476562 499.429688 801.476562 398.53125 C 801.476562 297.632812 760.585938 206.277344 694.476562 140.179688 C 628.386719 74.078125 537.046875 33.179688 436.199219 33.179688 C 394.476562 33.179688 353.179688 40.160156 313.894531 54.144531 C 311.710938 54.890625 309.335938 53.773438 308.542969 51.585938 C 307.796875 49.398438 308.914062 47.007812 311.101562 46.230469 C 351.28125 32.007812 393.59375 24.804688 436.199219 24.804688 C 539.367188 24.804688 632.808594 66.636719 700.390625 134.28125 C 768.007812 201.90625 809.847656 295.34375 809.847656 398.546875 C 809.847656 501.75 768.007812 595.15625 700.390625 662.816406 C 632.792969 730.425781 539.351562 772.289062 436.199219 772.289062 C 387.597656 772.289062 341.179688 763 298.542969 746.070312 C 254.296875 728.527344 214.21875 702.78125 180.171875 670.730469 Z M 179.359375 439.785156 C 212.640625 429.410156 248.566406 439.496094 271.617188 464.765625 C 283.191406 427.902344 290.898438 393.886719 293.222656 360.566406 C 248.464844 371.820312 236.25 325.71875 198.898438 325.632812 C 233.402344 314.855469 270.71875 326.058594 293.628906 353.414062 C 293.714844 351.667969 293.765625 349.921875 293.816406 348.191406 C 294.679688 318.277344 290.949219 288.667969 281.546875 257.753906 C 241.144531 267.753906 230.046875 226.09375 196.222656 225.992188 C 225.503906 216.855469 256.992188 225.175781 277.953125 246.601562 C 271.480469 227.820312 262.9375 208.53125 252.023438 188.296875 C 246.058594 177.195312 235.789062 180.042969 226.65625 183.601562 C 217.640625 187.09375 197.425781 188.414062 192.1875 176.71875 C 215.167969 169.226562 232.0625 168.074219 249.839844 175.464844 C 252.3125 156.363281 261.769531 142.332031 279.75 126.160156 C 287.238281 136.535156 276.039062 153.398438 268.464844 159.484375 C 259.195312 166.90625 254.175781 172.328125 260.160156 183.347656 C 263.464844 189.464844 266.566406 195.5 269.445312 201.449219 C 274.953125 176.789062 294.238281 157.109375 319.386719 151.464844 C 295.695312 165.226562 304.507812 198.789062 272.800781 208.601562 C 285.714844 236.5 294.1875 262.921875 298.882812 288.886719 C 307.238281 257.175781 332.65625 232.109375 365.429688 224.71875 C 333.078125 243.53125 345.652344 289.71875 300.984375 302.261719 C 303.015625 317.71875 303.746094 333.058594 303.320312 348.480469 C 302.457031 379.140625 296.984375 410.074219 288.003906 442.851562 C 313.828125 398.597656 346.417969 357.34375 380.851562 319.515625 C 418.472656 278.191406 546.265625 139.839844 457.449219 99.804688 C 433.773438 89.144531 403.644531 89.839844 384.242188 102.773438 C 427.980469 70.179688 490.496094 91.617188 505.863281 143.160156 C 514.253906 175.058594 514.40625 203.296875 511.269531 236.074219 C 510.574219 242.09375 510.269531 247.683594 510.371094 252.90625 C 518.964844 261.667969 534.605469 262.3125 549.230469 261.769531 C 537.0625 265.023438 523.269531 268.855469 511.609375 265.90625 L 511.980469 267.785156 C 515.574219 284.601562 544.402344 313.414062 569.175781 335.957031 C 593.832031 358.363281 610.152344 372.515625 568.957031 386.175781 C 557.566406 389.902344 548.265625 394.261719 556.890625 407.71875 C 567.886719 424.9375 583.34375 426.359375 556.789062 443.972656 C 548.535156 449.429688 538.792969 454.039062 531.859375 455.582031 C 540.011719 453.988281 558.703125 460.988281 558.789062 468.9375 C 558.941406 484.953125 526.980469 480.816406 542.453125 535.242188 C 546.671875 550.070312 550.839844 564.613281 533.878906 574.257812 C 510.695312 586.78125 486.730469 582.648438 460.820312 578.15625 C 399.050781 567.496094 359.261719 571.578125 336.894531 583.800781 C 253.550781 629.339844 406.625 785.273438 576.582031 710.085938 C 695.15625 656.207031 777.667969 536.699219 777.667969 397.921875 C 777.667969 208.617188 624.234375 55.195312 434.996094 55.195312 C 395.1875 55.195312 356.972656 61.976562 321.4375 74.464844 L 321.472656 74.433594 C 320.046875 74.925781 318.523438 74.601562 317.351562 73.621094 C 316.167969 72.601562 315.609375 71.042969 315.914062 69.484375 C 316.199219 68.027344 317.234375 66.855469 318.574219 66.3125 C 355.007812 53.519531 394.207031 46.535156 435.011719 46.535156 C 629.03125 46.535156 786.34375 203.839844 786.34375 397.921875 C 786.34375 537.242188 705.289062 657.597656 587.75 714.425781 L 587.9375 714.339844 C 541.722656 736.730469 489.816406 749.289062 435.011719 749.289062 C 337.707031 749.289062 249.636719 709.714844 186.019531 645.78125 L 185.984375 645.78125 C 145.839844 667.917969 122.132812 626.730469 86.105469 636.273438 C 112.507812 619.597656 145.179688 618.191406 172.429688 631.324219 C 164.3125 622.527344 156.734375 613.273438 149.667969 603.597656 C 127.128906 572.699219 110.046875 537.546875 99.574219 500.039062 C 57.871094 510.460938 46.449219 467.53125 11.675781 467.410156 C 42.332031 457.851562 75.410156 466.902344 96.914062 489.867188 C 87.867188 452.871094 85.207031 413.800781 90.019531 374.328125 C 91.679688 360.683594 85.644531 357.34375 72.632812 354.125 C 63.242188 351.785156 45.976562 341.210938 48.449219 328.632812 C 71.546875 335.75 86 344.566406 96.269531 360.851562 C 109.304688 346.71875 125.132812 340.648438 149.109375 337.820312 C 149.261719 350.632812 130.382812 357.921875 120.707031 358.53125 C 106.898438 359.363281 101.101562 361.75 99.421875 375.464844 C 97.710938 389.597656 96.984375 403.683594 97.167969 417.597656 C 111.40625 390.835938 139.910156 374.125 170.835938 375.363281 C 138.570312 384.125 138.652344 426.734375 97.472656 427.496094 C 99.695312 476.191406 113.269531 522.9375 135.890625 564.207031 C 134.621094 530.292969 152.871094 498.15625 183.527344 482.039062 C 157.109375 508.582031 181.242188 549.96875 141.296875 573.648438 C 146.261719 582.003906 151.617188 590.140625 157.328125 597.984375 C 188.867188 641.222656 231.351562 675.902344 281.425781 696.644531 C 274.902344 691.105469 268.972656 684.796875 263.753906 677.644531 C 260.582031 672.105469 257.277344 666.679688 253.804688 661.308594 C 242.960938 639.648438 237.636719 612.460938 240.027344 579.730469 C 242.042969 551.988281 249.804688 524.425781 260.277344 498.632812 C 262.988281 490.917969 265.597656 483.378906 268.039062 475.902344 C 227.808594 482.105469 215.097656 439.886719 179.359375 439.785156 Z M 179.359375 439.785156 " fill-opacity="1" fill-rule="evenodd"/></g><g clip-path="url(#d5c4ffec81)"><g clip-path="url(#01fbd360c9)"><path fill="#9e005d" d="M 0.03125 24.804688 L 809.847656 24.804688 L 809.847656 785.253906 L 0.03125 785.253906 Z M 0.03125 24.804688 " fill-opacity="1" fill-rule="nonzero"/></g></g></svg>