<svg xmlns="http://www.w3.org/2000/svg" xmlns:xlink="http://www.w3.org/1999/xlink" width="1080" zoomAndPan="magnify" viewBox="0 0 810 809.999993" height="1080" preserveAspectRatio="xMidYMid meet" version="1.0"><path fill="#f9d1c5" d="M 810 405 C 810 411.628906 809.835938 418.253906 809.511719 424.871094 C 809.1875 431.492188 808.699219 438.101562 808.050781 444.695312 C 807.398438 451.292969 806.589844 457.871094 805.617188 464.425781 C 804.644531 470.980469 803.511719 477.511719 802.21875 484.011719 C 800.925781 490.511719 799.472656 496.976562 797.863281 503.40625 C 796.253906 509.835938 794.484375 516.222656 792.5625 522.566406 C 790.636719 528.90625 788.558594 535.199219 786.324219 541.441406 C 784.09375 547.679688 781.707031 553.863281 779.171875 559.988281 C 776.632812 566.109375 773.949219 572.167969 771.117188 578.160156 C 768.28125 584.152344 765.300781 590.070312 762.179688 595.914062 C 759.054688 601.761719 755.789062 607.527344 752.378906 613.210938 C 748.972656 618.898438 745.425781 624.496094 741.746094 630.003906 C 738.0625 635.515625 734.246094 640.933594 730.300781 646.257812 C 726.351562 651.582031 722.273438 656.804688 718.070312 661.929688 C 713.863281 667.054688 709.535156 672.070312 705.085938 676.980469 C 700.632812 681.890625 696.066406 686.691406 691.378906 691.378906 C 686.691406 696.066406 681.890625 700.632812 676.980469 705.085938 C 672.070312 709.535156 667.054688 713.863281 661.929688 718.070312 C 656.804688 722.273438 651.582031 726.351562 646.257812 730.300781 C 640.933594 734.246094 635.515625 738.0625 630.007812 741.746094 C 624.496094 745.425781 618.898438 748.972656 613.210938 752.378906 C 607.527344 755.789062 601.761719 759.054688 595.914062 762.179688 C 590.070312 765.300781 584.152344 768.28125 578.160156 771.117188 C 572.167969 773.949219 566.109375 776.632812 559.988281 779.171875 C 553.863281 781.707031 547.679688 784.09375 541.441406 786.324219 C 535.199219 788.558594 528.90625 790.636719 522.566406 792.5625 C 516.222656 794.484375 509.835938 796.253906 503.40625 797.863281 C 496.976562 799.472656 490.511719 800.925781 484.011719 802.21875 C 477.511719 803.511719 470.980469 804.644531 464.425781 805.617188 C 457.871094 806.589844 451.292969 807.398438 444.695312 808.050781 C 438.101562 808.699219 431.492188 809.1875 424.871094 809.511719 C 418.253906 809.835938 411.628906 810 405 810 C 398.371094 810 391.746094 809.835938 385.128906 809.511719 C 378.507812 809.1875 371.898438 808.699219 365.304688 808.050781 C 358.707031 807.398438 352.128906 806.589844 345.574219 805.617188 C 339.019531 804.644531 332.488281 803.511719 325.988281 802.21875 C 319.488281 800.925781 313.023438 799.472656 306.59375 797.863281 C 300.164062 796.253906 293.777344 794.484375 287.433594 792.5625 C 281.09375 790.636719 274.800781 788.558594 268.558594 786.324219 C 262.320312 784.09375 256.136719 781.707031 250.011719 779.171875 C 243.890625 776.632812 237.832031 773.949219 231.839844 771.117188 C 225.847656 768.28125 219.929688 765.300781 214.085938 762.179688 C 208.238281 759.054688 202.472656 755.789062 196.789062 752.378906 C 191.101562 748.972656 185.503906 745.425781 179.992188 741.746094 C 174.484375 738.0625 169.066406 734.246094 163.742188 730.300781 C 158.417969 726.351562 153.195312 722.273438 148.070312 718.070312 C 142.945312 713.863281 137.929688 709.535156 133.019531 705.085938 C 128.109375 700.632812 123.308594 696.066406 118.621094 691.378906 C 113.933594 686.691406 109.367188 681.890625 104.914062 676.980469 C 100.464844 672.070312 96.136719 667.054688 91.929688 661.929688 C 87.726562 656.804688 83.648438 651.582031 79.699219 646.257812 C 75.753906 640.933594 71.9375 635.515625 68.253906 630.007812 C 64.574219 624.496094 61.027344 618.898438 57.621094 613.210938 C 54.210938 607.527344 50.945312 601.761719 47.820312 595.914062 C 44.699219 590.070312 41.71875 584.152344 38.882812 578.160156 C 36.050781 572.167969 33.367188 566.109375 30.828125 559.988281 C 28.292969 553.863281 25.90625 547.679688 23.675781 541.441406 C 21.441406 535.199219 19.363281 528.90625 17.4375 522.566406 C 15.515625 516.222656 13.746094 509.835938 12.136719 503.40625 C 10.527344 496.976562 9.074219 490.511719 7.78125 484.011719 C 6.488281 477.511719 5.355469 470.980469 4.382812 464.425781 C 3.410156 457.871094 2.601562 451.292969 1.949219 444.695312 C 1.300781 438.101562 0.8125 431.492188 0.488281 424.871094 C 0.164062 418.253906 0 411.628906 0 405 C 0 398.371094 0.164062 391.746094 0.488281 385.128906 C 0.8125 378.507812 1.300781 371.898438 1.949219 365.304688 C 2.601562 358.707031 3.410156 352.128906 4.382812 345.574219 C 5.355469 339.019531 6.488281 332.488281 7.78125 325.988281 C 9.074219 319.488281 10.527344 313.023438 12.136719 306.59375 C 13.746094 300.164062 15.515625 293.777344 17.4375 287.433594 C 19.363281 281.09375 21.441406 274.800781 23.675781 268.558594 C 25.90625 262.320312 28.292969 256.136719 30.828125 250.011719 C 33.367188 243.890625 36.050781 237.832031 38.882812 231.839844 C 41.71875 225.847656 44.699219 219.929688 47.820312 214.085938 C 50.945312 208.238281 54.210938 202.472656 57.621094 196.789062 C 61.027344 191.101562 64.574219 185.503906 68.253906 179.992188 C 71.9375 174.484375 75.753906 169.066406 79.699219 163.742188 C 83.648438 158.417969 87.726562 153.195312 91.929688 148.070312 C 96.136719 142.945312 100.464844 137.929688 104.914062 133.019531 C 109.367188 128.109375 113.933594 123.308594 118.621094 118.621094 C 123.308594 113.933594 128.109375 109.367188 133.019531 104.914062 C 137.929688 100.464844 142.945312 96.136719 148.070312 91.929688 C 153.195312 87.726562 158.417969 83.648438 163.742188 79.699219 C 169.066406 75.753906 174.484375 71.9375 179.992188 68.253906 C 185.503906 64.574219 191.101562 61.027344 196.789062 57.621094 C 202.472656 54.210938 208.238281 50.945312 214.085938 47.820312 C 219.929688 44.699219 225.847656 41.71875 231.839844 38.882812 C 237.832031 36.050781 243.890625 33.367188 250.011719 30.828125 C 256.136719 28.292969 262.320312 25.90625 268.558594 23.675781 C 274.800781 21.441406 281.09375 19.363281 287.433594 17.4375 C 293.777344 15.515625 300.164062 13.746094 306.59375 12.136719 C 313.023438 10.527344 319.488281 9.074219 325.988281 7.78125 C 332.488281 6.488281 339.019531 5.355469 345.574219 4.382812 C 352.128906 3.410156 358.707031 2.601562 365.304688 1.949219 C 371.898438 1.300781 378.507812 0.8125 385.128906 0.488281 C 391.746094 0.164062 398.371094 0 405 0 C 411.628906 0 418.253906 0.164062 424.871094 0.488281 C 431.492188 0.8125 438.101562 1.300781 444.695312 1.949219 C 451.292969 2.601562 457.871094 3.410156 464.425781 4.382812 C 470.980469 5.355469 477.511719 6.488281 484.011719 7.78125 C 490.511719 9.074219 496.976562 10.527344 503.40625 12.136719 C 509.835938 13.746094 516.222656 15.515625 522.566406 17.4375 C 528.90625 19.363281 535.199219 21.441406 541.441406 23.675781 C 547.679688 25.90625 553.863281 28.292969 559.988281 30.828125 C 566.109375 33.367188 572.167969 36.050781 578.160156 38.882812 C 584.152344 41.71875 590.070312 44.699219 595.914062 47.820312 C 601.761719 50.945312 607.527344 54.210938 613.210938 57.621094 C 618.898438 61.027344 624.496094 64.574219 630.003906 68.253906 C 635.515625 71.9375 640.933594 75.753906 646.257812 79.699219 C 651.582031 83.648438 656.804688 87.726562 661.929688 91.929688 C 667.054688 96.136719 672.070312 100.464844 676.980469 104.914062 C 681.890625 109.367188 686.691406 113.933594 691.378906 118.621094 C 696.066406 123.308594 700.632812 128.109375 705.085938 133.019531 C 709.535156 137.929688 713.863281 142.945312 718.070312 148.070312 C 722.273438 153.195312 726.351562 158.417969 730.300781 163.742188 C 734.246094 169.066406 738.0625 174.484375 741.746094 179.992188 C 745.425781 185.503906 748.972656 191.101562 752.378906 196.789062 C 755.789062 202.472656 759.054688 208.238281 762.179688 214.085938 C 765.300781 219.929688 768.28125 225.847656 771.117188 231.839844 C 773.949219 237.832031 776.632812 243.890625 779.171875 250.011719 C 781.707031 256.136719 784.09375 262.320312 786.324219 268.558594 C 788.558594 274.800781 790.636719 281.09375 792.5625 287.433594 C 794.484375 293.777344 796.253906 300.164062 797.863281 306.59375 C 799.472656 313.023438 800.925781 319.488281 802.21875 325.988281 C 803.511719 332.488281 804.644531 339.019531 805.617188 345.574219 C 806.589844 352.128906 807.398438 358.707031 808.050781 365.304688 C 808.699219 371.898438 809.1875 378.507812 809.511719 385.128906 C 809.835938 391.746094 810 398.371094 810 405 Z M 810 405 " fill-opacity="1" fill-rule="nonzero"/><path fill="#000000" d="M 496.753906 655.960938 L 285.898438 655.960938 C 251.566406 655.960938 223.617188 628.007812 223.617188 593.980469 L 223.617188 521.0625 C 200.222656 518.023438 181.992188 497.667969 181.992188 473.359375 L 181.992188 415.332031 C 181.992188 406.214844 184.421875 397.707031 188.980469 390.417969 C 186.246094 389.808594 183.207031 388.59375 180.777344 387.074219 L 168.925781 380.390625 C 155.558594 372.792969 150.699219 355.476562 158.597656 341.804688 L 173.789062 315.371094 C 174.09375 315.066406 174.09375 314.765625 174.394531 314.460938 C 174.394531 314.15625 174.699219 313.851562 174.699219 313.546875 L 190.195312 287.417969 C 195.054688 278.609375 204.476562 273.140625 214.804688 273.140625 C 218.753906 273.140625 223.007812 274.050781 226.652344 275.875 C 234.25 252.480469 255.214844 235.464844 279.824219 233.035156 L 279.824219 207.511719 L 277.089844 207.511719 C 266.457031 207.511719 257.644531 198.703125 257.644531 188.066406 L 257.644531 171.359375 C 257.644531 160.722656 266.457031 151.914062 277.089844 151.914062 L 516.808594 151.914062 C 527.441406 151.914062 536.253906 160.722656 536.253906 171.359375 L 536.253906 188.066406 C 536.253906 198.703125 527.441406 207.511719 516.808594 207.511719 L 514.074219 207.511719 L 514.074219 233.035156 C 545.367188 236.074219 570.28125 262.808594 570.28125 295.015625 L 570.28125 367.933594 C 593.675781 370.972656 611.90625 391.023438 611.90625 415.332031 L 611.90625 473.359375 C 611.90625 497.667969 593.675781 518.023438 570.28125 521.0625 L 570.28125 550.53125 L 581.523438 544.152344 C 585.777344 541.722656 590.636719 540.507812 595.5 540.507812 C 605.828125 540.507812 615.246094 545.976562 620.109375 554.785156 L 635.300781 580.914062 C 635.605469 581.21875 635.605469 581.523438 635.90625 581.828125 C 636.210938 582.128906 636.210938 582.433594 636.210938 582.738281 L 651.707031 609.171875 C 655.351562 615.550781 656.566406 623.449219 654.441406 630.742188 C 652.617188 638.035156 647.757812 644.109375 641.375 647.757812 L 629.527344 654.441406 C 624.96875 656.871094 620.109375 658.390625 615.246094 658.390625 C 605.222656 658.390625 595.800781 652.921875 590.636719 644.414062 L 575.75 617.980469 C 575.445312 617.679688 575.140625 617.375 574.839844 617.070312 C 574.839844 616.765625 574.535156 616.160156 574.535156 615.855469 L 569.066406 606.132812 C 564.203125 629.527344 545.976562 648.667969 522.277344 654.441406 C 518.023438 656.871094 513.160156 658.390625 507.996094 658.390625 C 504.046875 658.390625 500.402344 657.480469 496.753906 655.960938 Z M 221.183594 348.792969 L 181.6875 326.003906 L 168.925781 347.878906 C 164.671875 355.78125 167.40625 365.503906 175.003906 370.058594 L 186.851562 376.746094 C 189.285156 377.960938 192.019531 378.871094 194.753906 378.871094 C 200.523438 378.871094 205.691406 375.527344 208.726562 370.667969 Z M 188.066406 315.371094 L 227.261719 338.460938 L 240.328125 316.28125 C 241.542969 314.15625 242.148438 311.421875 242.453125 308.992188 C 242.453125 308.382812 242.453125 308.078125 242.453125 307.472656 C 242.148438 306.257812 242.148438 305.042969 241.84375 304.128906 C 240.628906 299.875 237.894531 296.230469 234.25 294.105469 L 222.703125 287.417969 C 220.273438 286.203125 217.539062 285.292969 214.804688 285.292969 C 208.726562 285.292969 203.5625 288.632812 200.523438 293.496094 Z M 235.769531 348.183594 L 235.769531 367.628906 L 257.949219 367.628906 L 257.949219 342.714844 L 248.53125 326.308594 Z M 248.226562 290.457031 C 250.65625 287.722656 253.390625 285.597656 256.429688 283.773438 L 262.503906 280.429688 C 267.671875 272.226562 276.179688 267.0625 285.898438 267.0625 L 507.996094 267.0625 C 523.1875 267.0625 535.949219 279.519531 535.949219 295.015625 L 535.949219 367.628906 L 558.128906 367.628906 L 558.128906 295.015625 C 558.128906 267.367188 535.644531 244.882812 507.996094 244.882812 L 285.898438 244.882812 C 263.113281 244.882812 243.363281 260.378906 237.59375 281.949219 L 240.328125 283.773438 C 243.363281 285.597656 246.097656 288.027344 248.226562 290.457031 Z M 254.605469 307.472656 C 254.605469 307.777344 254.605469 308.382812 254.605469 308.6875 C 254.605469 311.421875 255.519531 313.851562 256.734375 316.28125 L 269.492188 338.160156 L 308.992188 315.371094 L 296.535156 293.496094 C 293.496094 288.632812 288.027344 285.292969 282.253906 285.292969 C 279.519531 285.292969 276.785156 286.203125 274.355469 287.417969 L 270.707031 289.546875 C 270.101562 290.152344 269.492188 290.457031 268.582031 290.761719 L 262.503906 294.105469 C 258.859375 296.230469 256.125 299.875 254.910156 304.128906 C 254.605469 305.042969 254.605469 306.257812 254.605469 307.472656 Z M 213.589844 383.730469 C 211.460938 385.554688 209.03125 387.074219 206.601562 388.289062 C 198.703125 394.972656 194.144531 404.695312 194.144531 415.332031 L 194.144531 473.359375 C 194.144531 493.109375 209.945312 509.210938 229.691406 509.210938 L 564.203125 509.210938 C 583.648438 509.210938 599.753906 493.109375 599.753906 473.359375 L 599.753906 415.332031 C 599.753906 396.1875 583.347656 379.78125 564.203125 379.78125 L 329.347656 379.78125 C 328.738281 380.085938 328.4375 380.390625 328.132812 380.390625 L 316.28125 387.074219 C 312.027344 389.503906 307.167969 391.023438 302.308594 391.023438 C 293.191406 391.023438 284.988281 386.769531 279.519531 379.78125 L 229.691406 379.78125 C 223.917969 379.78125 218.449219 380.996094 213.589844 383.730469 Z M 321.75 313.246094 C 322.054688 313.546875 322.359375 313.851562 322.664062 314.460938 C 322.96875 315.066406 323.269531 315.371094 323.269531 315.980469 L 338.160156 341.804688 C 342.109375 348.183594 343.019531 355.78125 341.195312 363.070312 C 340.894531 364.589844 340.285156 366.109375 339.675781 367.628906 L 523.796875 367.628906 L 523.796875 295.015625 C 523.796875 286.203125 516.503906 279.214844 507.996094 279.214844 L 299.875 279.214844 C 302.609375 281.34375 305.042969 284.382812 306.863281 287.417969 Z M 315.066406 326.003906 L 275.570312 348.792969 L 288.027344 370.667969 C 291.066406 375.527344 296.230469 378.871094 302.308594 378.871094 C 305.042969 378.871094 307.777344 377.960938 310.207031 376.746094 L 322.054688 370.058594 C 325.703125 367.933594 328.4375 364.289062 329.347656 360.035156 C 330.5625 355.78125 329.953125 351.527344 327.828125 347.878906 Z M 270.101562 363.679688 L 270.101562 367.628906 L 272.226562 367.628906 Z M 432.039062 494.324219 C 419.886719 494.324219 408.039062 492.199219 396.796875 487.640625 C 385.554688 492.199219 373.707031 494.324219 361.554688 494.324219 C 344.539062 494.324219 327.21875 489.765625 312.027344 480.957031 C 285.292969 465.460938 267.367188 439.027344 263.417969 408.644531 C 263.113281 405.910156 264.632812 403.175781 267.0625 401.960938 C 279.519531 397.101562 292.28125 394.671875 305.34375 394.671875 C 322.359375 394.671875 339.375 398.921875 354.566406 407.734375 C 374.007812 419.28125 388.898438 436.597656 396.796875 456.953125 C 404.695312 436.597656 419.582031 419.28125 439.332031 407.734375 C 454.21875 398.921875 471.234375 394.671875 488.550781 394.671875 C 501.617188 394.671875 514.378906 397.101562 526.53125 401.960938 C 529.265625 403.175781 530.785156 405.910156 530.480469 408.644531 C 526.226562 439.027344 508.605469 465.460938 481.867188 480.957031 C 466.675781 489.765625 449.359375 494.324219 432.039062 494.324219 Z M 403.480469 477.3125 C 412.59375 480.652344 422.316406 482.171875 432.039062 482.171875 C 447.230469 482.171875 462.421875 478.222656 475.792969 470.625 C 497.972656 457.867188 512.859375 436.597656 517.414062 411.683594 C 508.300781 408.34375 498.273438 406.824219 488.550781 406.824219 C 473.359375 406.824219 458.472656 410.773438 445.410156 418.066406 C 423.230469 431.128906 408.039062 452.699219 403.480469 477.3125 Z M 276.179688 411.683594 C 281.039062 436.597656 295.925781 457.867188 318.105469 470.625 C 331.472656 478.222656 346.664062 482.171875 361.554688 482.171875 C 371.273438 482.171875 380.996094 480.652344 390.113281 477.3125 C 385.25 452.398438 370.363281 431.128906 348.488281 418.066406 C 335.425781 410.773438 320.234375 406.824219 305.34375 406.824219 C 295.320312 406.824219 285.597656 408.34375 276.179688 411.683594 Z M 524.101562 185.636719 L 269.796875 185.636719 L 269.796875 188.066406 C 269.796875 192.019531 273.140625 195.359375 277.089844 195.359375 L 516.808594 195.359375 C 520.757812 195.359375 524.101562 192.019531 524.101562 188.066406 Z M 269.796875 173.484375 L 524.101562 173.484375 L 524.101562 171.359375 C 524.101562 167.40625 520.757812 164.066406 516.808594 164.066406 L 277.089844 164.066406 C 272.835938 164.066406 269.796875 167.40625 269.796875 171.359375 Z M 582.433594 605.523438 L 622.234375 582.738281 L 609.476562 560.863281 C 606.742188 555.699219 601.273438 552.660156 595.5 552.660156 C 592.765625 552.660156 590.03125 553.570312 587.597656 554.785156 L 575.75 561.46875 C 573.320312 562.988281 571.191406 565.117188 569.976562 567.242188 C 569.671875 568.15625 569.371094 568.761719 569.066406 569.371094 C 567.242188 573.625 567.546875 579.09375 569.976562 583.648438 Z M 628.3125 593.066406 L 588.511719 616.160156 L 601.273438 638.339844 C 604.007812 643.199219 609.476562 646.238281 615.246094 646.238281 C 617.980469 646.238281 621.019531 645.328125 623.449219 643.808594 L 635.300781 637.121094 C 638.945312 634.996094 641.679688 631.652344 642.59375 627.402344 C 643.808594 623.148438 643.199219 618.894531 641.074219 615.246094 Z M 534.429688 616.160156 L 494.933594 593.066406 L 482.171875 615.246094 C 481.867188 615.855469 481.5625 616.460938 481.261719 617.070312 C 481.261719 617.375 480.957031 617.679688 480.957031 618.285156 C 480.046875 621.019531 479.742188 624.363281 480.652344 627.402344 C 481.867188 631.652344 484.296875 634.996094 488.25 637.121094 L 500.097656 643.808594 L 500.402344 644.109375 C 500.707031 644.414062 501.007812 644.414062 501.3125 644.71875 C 503.441406 645.628906 505.871094 646.238281 507.996094 646.238281 C 513.769531 646.238281 518.933594 643.199219 521.972656 638.339844 Z M 487.03125 582.738281 C 487.03125 582.433594 487.335938 582.128906 487.335938 581.828125 C 487.640625 581.523438 487.945312 581.21875 487.945312 580.914062 L 503.136719 554.785156 C 507.691406 547.191406 515.289062 542.027344 523.796875 540.808594 L 523.796875 521.367188 L 270.101562 521.367188 L 270.101562 593.980469 C 270.101562 602.488281 277.394531 609.476562 285.898438 609.476562 L 471.539062 609.476562 L 471.539062 609.171875 Z M 501.007812 582.738281 L 540.507812 605.523438 L 553.265625 583.648438 C 557.824219 575.75 555.089844 566.027344 547.496094 561.46875 L 535.949219 554.785156 C 534.125 553.875 532.304688 553.265625 530.175781 552.964844 C 530.175781 552.964844 529.871094 552.964844 529.871094 552.964844 C 529.265625 552.964844 528.65625 552.964844 528.351562 552.660156 L 527.746094 552.660156 C 521.972656 552.660156 516.503906 555.699219 513.769531 560.863281 Z M 558.128906 554.179688 L 558.128906 521.367188 L 535.949219 521.367188 L 535.949219 541.722656 C 538.074219 542.328125 539.898438 543.242188 542.027344 544.457031 L 553.570312 551.140625 C 555.089844 552.050781 556.609375 552.964844 558.128906 554.179688 Z M 467.890625 621.628906 L 285.898438 621.628906 C 270.40625 621.628906 257.949219 609.171875 257.949219 593.980469 L 257.949219 521.367188 L 235.769531 521.367188 L 235.769531 593.980469 C 235.769531 621.324219 258.253906 643.808594 285.898438 643.808594 L 476.703125 643.808594 C 473.058594 640.160156 470.324219 635.605469 468.804688 630.742188 C 468.195312 627.703125 467.890625 624.667969 467.890625 621.628906 Z M 557.519531 600.664062 L 538.683594 633.171875 C 549.011719 625.273438 555.699219 613.425781 557.519531 600.664062 Z M 501.921875 207.511719 L 291.976562 207.511719 L 291.976562 232.730469 L 501.921875 232.730469 Z M 564.203125 509.210938 Z M 564.203125 509.210938 " fill-opacity="1" fill-rule="evenodd"/><path fill="#a2e82d" d="M 403.480469 477.3125 C 452.699219 494.628906 507.691406 464.246094 517.414062 411.683594 C 467.589844 394.0625 413.507812 424.75 403.480469 477.3125 Z M 403.480469 477.3125 " fill-opacity="1" fill-rule="evenodd"/><path fill="#fcf1f2" d="M 339.675781 367.628906 L 523.796875 367.628906 L 523.796875 295.015625 C 523.796875 286.203125 516.503906 279.214844 507.996094 279.214844 L 299.875 279.214844 C 302.609375 281.34375 305.042969 284.382812 306.863281 287.417969 L 321.75 313.246094 L 338.160156 341.804688 C 343.019531 349.703125 343.324219 359.121094 339.675781 367.628906 Z M 339.675781 367.628906 " fill-opacity="1" fill-rule="evenodd"/><path fill="#a2e82d" d="M 390.113281 477.3125 C 380.085938 424.445312 326.308594 394.0625 276.179688 411.683594 C 286.203125 464.246094 341.195312 494.628906 390.113281 477.3125 Z M 390.113281 477.3125 " fill-opacity="1" fill-rule="evenodd"/><path fill="#fcf1f2" d="M 523.796875 521.367188 L 270.101562 521.367188 L 270.101562 593.980469 C 270.101562 602.488281 277.394531 609.476562 285.898438 609.476562 L 471.539062 609.476562 L 487.03125 582.738281 L 503.136719 554.785156 C 507.691406 547.191406 515.289062 542.027344 523.796875 540.808594 Z M 523.796875 521.367188 " fill-opacity="1" fill-rule="evenodd"/><path fill="#ffe077" d="M 467.890625 621.628906 L 285.898438 621.628906 C 270.40625 621.628906 257.949219 609.171875 257.949219 593.980469 L 257.949219 521.367188 L 235.769531 521.367188 L 235.769531 593.980469 C 235.769531 621.324219 258.253906 643.808594 285.898438 643.808594 L 476.703125 643.808594 C 470.625 638.035156 467.589844 629.832031 467.890625 621.628906 Z M 467.890625 621.628906 " fill-opacity="1" fill-rule="evenodd"/><path fill="#fffdd3" d="M 480.957031 618.285156 C 478.527344 624.363281 481.261719 633.476562 488.25 637.121094 L 501.3125 644.71875 C 507.691406 648.0625 517.414062 645.628906 521.972656 638.339844 L 534.429688 616.160156 L 494.933594 593.066406 Z M 480.957031 618.285156 " fill-opacity="1" fill-rule="evenodd"/><path fill="#f94a46" d="M 501.007812 582.738281 L 540.507812 605.523438 L 553.265625 583.648438 C 557.824219 575.75 555.089844 566.027344 547.496094 561.46875 C 543.847656 559.34375 533.820312 552.964844 530.175781 552.964844 L 527.746094 552.660156 C 521.972656 552.660156 516.503906 555.699219 513.769531 560.863281 Z M 501.007812 582.738281 " fill-opacity="1" fill-rule="evenodd"/><path fill="#f94a46" d="M 588.511719 616.160156 L 601.273438 638.339844 C 605.523438 645.628906 615.550781 648.363281 623.449219 643.808594 L 635.300781 637.121094 C 642.894531 632.871094 645.628906 622.84375 641.074219 615.246094 L 628.3125 593.066406 Z M 588.511719 616.160156 " fill-opacity="1" fill-rule="evenodd"/><path fill="#fffdd3" d="M 582.433594 605.523438 L 622.234375 582.738281 L 609.476562 560.863281 C 605.222656 552.964844 595.195312 550.53125 587.597656 554.785156 L 575.75 561.46875 C 568.457031 565.722656 565.421875 575.75 569.976562 583.648438 Z M 582.433594 605.523438 " fill-opacity="1" fill-rule="evenodd"/><path fill="#ffe077" d="M 538.683594 633.171875 C 549.011719 625.273438 555.699219 613.425781 557.519531 600.664062 Z M 538.683594 633.171875 " fill-opacity="1" fill-rule="evenodd"/><path fill="#ffe077" d="M 535.949219 541.722656 L 558.128906 554.179688 L 558.128906 521.367188 L 535.949219 521.367188 Z M 535.949219 541.722656 " fill-opacity="1" fill-rule="evenodd"/><path fill="#f4e5e0" d="M 529.871094 509.210938 L 564.203125 509.210938 C 583.648438 509.210938 599.753906 493.109375 599.753906 473.359375 L 599.753906 415.332031 C 599.753906 396.1875 583.347656 379.78125 564.203125 379.78125 L 329.347656 379.78125 L 316.28125 387.074219 C 303.824219 394.367188 288.027344 391.023438 279.519531 379.78125 L 229.691406 379.78125 C 223.617188 379.78125 218.753906 380.996094 213.589844 383.730469 C 211.460938 385.554688 209.03125 387.074219 206.601562 388.289062 C 198.703125 394.972656 194.144531 404.695312 194.144531 415.332031 L 194.144531 473.359375 C 194.144531 493.109375 209.945312 508.910156 229.691406 509.210938 Z M 530.480469 408.644531 C 523.796875 458.472656 481.261719 494.324219 432.039062 494.324219 C 419.886719 494.324219 408.039062 492.199219 396.796875 487.640625 C 385.554688 492.199219 373.707031 494.324219 361.554688 494.324219 C 312.636719 494.324219 270.101562 458.167969 263.417969 408.644531 C 263.113281 405.910156 264.632812 403.175781 267.0625 401.960938 C 318.105469 380.996094 376.441406 405.304688 396.796875 456.953125 C 417.152344 405.304688 475.488281 380.996094 526.53125 401.960938 C 529.265625 403.175781 530.785156 405.910156 530.480469 408.644531 Z M 530.480469 408.644531 " fill-opacity="1" fill-rule="evenodd"/><path fill="#f94a46" d="M 227.261719 338.460938 L 240.328125 316.28125 C 244.578125 308.6875 242.148438 298.660156 234.25 294.105469 L 222.703125 287.417969 C 215.109375 283.164062 205.082031 285.597656 200.523438 293.496094 L 188.066406 315.371094 Z M 227.261719 338.460938 " fill-opacity="1" fill-rule="evenodd"/><path fill="#fffdd3" d="M 221.183594 348.792969 L 181.6875 326.003906 L 168.925781 347.878906 C 164.671875 355.78125 167.40625 365.503906 175.003906 370.058594 L 186.851562 376.746094 C 194.144531 380.996094 204.171875 378.261719 208.726562 370.667969 Z M 221.183594 348.792969 " fill-opacity="1" fill-rule="evenodd"/><path fill="#ffe077" d="M 235.769531 348.183594 L 235.769531 367.628906 L 257.949219 367.628906 L 257.949219 342.714844 L 248.53125 326.308594 Z M 235.769531 348.183594 " fill-opacity="1" fill-rule="evenodd"/><path fill="#f94a46" d="M 275.570312 348.792969 L 288.027344 370.667969 C 292.585938 378.261719 302.308594 380.996094 310.207031 376.746094 L 322.054688 370.058594 C 329.347656 365.804688 332.386719 355.78125 327.828125 347.878906 L 315.066406 326.003906 Z M 275.570312 348.792969 " fill-opacity="1" fill-rule="evenodd"/><path fill="#fcf1f2" d="M 272.226562 367.628906 L 270.101562 363.679688 L 270.101562 367.628906 Z M 272.226562 367.628906 " fill-opacity="1" fill-rule="evenodd"/><path fill="#fffdd3" d="M 269.492188 338.160156 L 308.992188 315.371094 L 296.535156 293.496094 C 291.976562 285.898438 281.949219 283.164062 274.355469 287.417969 L 262.503906 294.105469 C 257.644531 296.839844 254.605469 302.003906 254.605469 307.472656 L 256.734375 316.28125 Z M 269.492188 338.160156 " fill-opacity="1" fill-rule="evenodd"/><path fill="#ffe077" d="M 262.503906 280.429688 C 267.671875 272.226562 276.179688 267.0625 285.898438 267.0625 L 507.996094 267.0625 C 523.1875 267.0625 535.949219 279.519531 535.949219 295.015625 L 535.949219 367.628906 L 558.128906 367.628906 L 558.128906 295.015625 C 558.128906 267.367188 535.644531 244.882812 507.996094 244.882812 L 285.898438 244.882812 C 263.113281 244.882812 243.363281 260.378906 237.59375 281.949219 C 242.148438 284.683594 244.882812 286.203125 248.226562 290.457031 C 253.695312 283.773438 261.289062 281.34375 262.503906 280.429688 Z M 262.503906 280.429688 " fill-opacity="1" fill-rule="evenodd"/><path fill="#ffc263" d="M 291.976562 207.511719 L 501.921875 207.511719 L 501.921875 232.730469 L 291.976562 232.730469 Z M 291.976562 207.511719 " fill-opacity="1" fill-rule="evenodd"/><path fill="#736572" d="M 277.089844 195.359375 L 516.808594 195.359375 C 520.757812 195.359375 524.101562 192.019531 524.101562 188.066406 L 524.101562 185.636719 L 269.796875 185.636719 L 269.796875 188.066406 C 269.796875 192.019531 273.140625 195.359375 277.089844 195.359375 Z M 277.089844 195.359375 " fill-opacity="1" fill-rule="evenodd"/><path fill="#736572" d="M 269.796875 173.484375 L 524.101562 173.484375 L 524.101562 171.359375 C 524.101562 167.40625 520.757812 164.066406 516.808594 164.066406 L 277.089844 164.066406 C 272.835938 164.066406 269.796875 167.40625 269.796875 171.359375 Z M 269.796875 173.484375 " fill-opacity="1" fill-rule="evenodd"/></svg>