<svg xmlns="http://www.w3.org/2000/svg" xmlns:xlink="http://www.w3.org/1999/xlink" width="1080" zoomAndPan="magnify" viewBox="0 0 810 809.999993" height="1080" preserveAspectRatio="xMidYMid meet" version="1.0"><path fill="#ffffff" d="M 66.273438 7.363281 L 66.273438 802.636719 L 7.363281 802.636719 L 7.363281 7.363281 Z M 66.273438 7.363281 " fill-opacity="1" fill-rule="nonzero"/><path fill="#ffffff" d="M 743.726562 7.363281 L 743.726562 802.636719 L 66.273438 802.636719 L 66.273438 7.363281 Z M 743.726562 7.363281 " fill-opacity="1" fill-rule="nonzero"/><path fill="#ffffff" d="M 802.636719 7.363281 L 802.636719 802.636719 L 743.726562 802.636719 L 743.726562 7.363281 Z M 802.636719 7.363281 " fill-opacity="1" fill-rule="nonzero"/><path fill="#ffffff" d="M 7.363281 743.726562 L 802.636719 743.726562 L 802.636719 802.636719 L 7.363281 802.636719 Z M 7.363281 743.726562 " fill-opacity="1" fill-rule="nonzero"/><path fill="#ffffff" d="M 7.363281 375.546875 L 802.636719 375.546875 L 802.636719 434.453125 L 7.363281 434.453125 Z M 7.363281 375.546875 " fill-opacity="1" fill-rule="nonzero"/><path fill="#ffffff" d="M 7.363281 7.363281 L 802.636719 7.363281 L 802.636719 66.273438 L 7.363281 66.273438 Z M 7.363281 7.363281 " fill-opacity="1" fill-rule="nonzero"/><path fill="#ffffff" d="M 111.042969 202.941406 L 246.535156 202.941406 L 246.535156 375.546875 L 111.042969 375.546875 Z M 111.042969 202.941406 " fill-opacity="1" fill-rule="nonzero"/><path fill="#fece6f" d="M 140.5 232.394531 L 246.535156 232.394531 L 246.535156 375.546875 L 140.5 375.546875 Z M 140.5 232.394531 " fill-opacity="1" fill-rule="nonzero"/><path fill="#fece6f" d="M 131.367188 95.726562 L 267.003906 95.726562 L 267.003906 129.453125 L 131.367188 129.453125 Z M 131.367188 95.726562 " fill-opacity="1" fill-rule="nonzero"/><path fill="#ffffff" d="M 246.535156 202.941406 L 111.042969 202.941406 L 131.367188 129.453125 L 267.003906 129.453125 Z M 246.535156 202.941406 " fill-opacity="1" fill-rule="nonzero"/><path fill="#fece6f" d="M 267.003906 129.453125 L 287.476562 202.941406 L 287.476562 375.546875 L 246.535156 375.546875 L 246.535156 202.941406 Z M 267.003906 129.453125 " fill-opacity="1" fill-rule="nonzero"/><path fill="#72dee0" d="M 205.59375 166.125 C 205.59375 166.667969 205.566406 167.210938 205.511719 167.753906 C 205.460938 168.296875 205.378906 168.835938 205.273438 169.371094 C 205.167969 169.90625 205.035156 170.433594 204.875 170.953125 C 204.71875 171.476562 204.535156 171.988281 204.324219 172.492188 C 204.117188 172.996094 203.882812 173.488281 203.628906 173.96875 C 203.371094 174.449219 203.089844 174.917969 202.789062 175.371094 C 202.484375 175.824219 202.160156 176.257812 201.816406 176.679688 C 201.46875 177.101562 201.105469 177.503906 200.71875 177.890625 C 200.332031 178.277344 199.929688 178.640625 199.507812 178.988281 C 199.085938 179.332031 198.648438 179.65625 198.195312 179.960938 C 197.742188 180.261719 197.277344 180.542969 196.796875 180.800781 C 196.316406 181.058594 195.824219 181.289062 195.320312 181.5 C 194.816406 181.707031 194.304688 181.890625 193.78125 182.050781 C 193.261719 182.207031 192.730469 182.339844 192.199219 182.445312 C 191.664062 182.550781 191.125 182.632812 190.582031 182.683594 C 190.039062 182.738281 189.496094 182.765625 188.949219 182.765625 C 188.40625 182.765625 187.863281 182.738281 187.320312 182.683594 C 186.777344 182.632812 186.238281 182.550781 185.703125 182.445312 C 185.167969 182.339844 184.640625 182.207031 184.121094 182.050781 C 183.597656 181.890625 183.085938 181.707031 182.582031 181.5 C 182.078125 181.289062 181.585938 181.058594 181.105469 180.800781 C 180.625 180.542969 180.160156 180.261719 179.707031 179.960938 C 179.253906 179.65625 178.816406 179.332031 178.394531 178.988281 C 177.972656 178.640625 177.570312 178.277344 177.183594 177.890625 C 176.796875 177.503906 176.433594 177.101562 176.085938 176.679688 C 175.742188 176.257812 175.417969 175.824219 175.113281 175.371094 C 174.8125 174.917969 174.53125 174.449219 174.273438 173.96875 C 174.015625 173.488281 173.785156 172.996094 173.574219 172.492188 C 173.367188 171.988281 173.183594 171.476562 173.027344 170.953125 C 172.867188 170.433594 172.734375 169.90625 172.628906 169.371094 C 172.523438 168.835938 172.441406 168.296875 172.390625 167.753906 C 172.335938 167.210938 172.308594 166.667969 172.308594 166.125 C 172.308594 165.578125 172.335938 165.035156 172.390625 164.492188 C 172.441406 163.949219 172.523438 163.410156 172.628906 162.875 C 172.734375 162.34375 172.867188 161.8125 173.027344 161.292969 C 173.183594 160.769531 173.367188 160.257812 173.574219 159.753906 C 173.785156 159.25 174.015625 158.757812 174.273438 158.277344 C 174.53125 157.796875 174.8125 157.332031 175.113281 156.878906 C 175.417969 156.425781 175.742188 155.988281 176.085938 155.566406 C 176.433594 155.144531 176.796875 154.742188 177.183594 154.355469 C 177.570312 153.96875 177.972656 153.605469 178.394531 153.257812 C 178.816406 152.914062 179.253906 152.589844 179.707031 152.285156 C 180.160156 151.984375 180.625 151.703125 181.105469 151.445312 C 181.585938 151.191406 182.078125 150.957031 182.582031 150.75 C 183.085938 150.539062 183.597656 150.355469 184.121094 150.199219 C 184.640625 150.039062 185.167969 149.90625 185.703125 149.800781 C 186.238281 149.695312 186.777344 149.617188 187.320312 149.5625 C 187.863281 149.507812 188.40625 149.480469 188.949219 149.480469 C 189.496094 149.480469 190.039062 149.507812 190.582031 149.5625 C 191.125 149.617188 191.664062 149.695312 192.199219 149.800781 C 192.730469 149.90625 193.261719 150.039062 193.78125 150.199219 C 194.304688 150.355469 194.816406 150.539062 195.320312 150.75 C 195.824219 150.957031 196.316406 151.191406 196.796875 151.445312 C 197.277344 151.703125 197.742188 151.984375 198.195312 152.285156 C 198.648438 152.589844 199.085938 152.914062 199.507812 153.257812 C 199.929688 153.605469 200.332031 153.96875 200.71875 154.355469 C 201.105469 154.742188 201.46875 155.144531 201.816406 155.566406 C 202.160156 155.988281 202.484375 156.425781 202.789062 156.878906 C 203.089844 157.332031 203.371094 157.796875 203.628906 158.277344 C 203.882812 158.757812 204.117188 159.25 204.324219 159.753906 C 204.535156 160.257812 204.71875 160.769531 204.875 161.292969 C 205.035156 161.8125 205.167969 162.34375 205.273438 162.875 C 205.378906 163.410156 205.460938 163.949219 205.511719 164.492188 C 205.566406 165.035156 205.59375 165.578125 205.59375 166.125 Z M 205.59375 166.125 " fill-opacity="1" fill-rule="nonzero"/><path fill="#ffffff" d="M 316.929688 202.941406 L 452.570312 202.941406 L 452.570312 375.546875 L 316.929688 375.546875 Z M 316.929688 202.941406 " fill-opacity="1" fill-rule="nonzero"/><path fill="#fece6f" d="M 346.386719 232.394531 L 452.570312 232.394531 L 452.570312 375.546875 L 346.386719 375.546875 Z M 346.386719 232.394531 " fill-opacity="1" fill-rule="nonzero"/><path fill="#fece6f" d="M 337.253906 95.726562 L 472.894531 95.726562 L 472.894531 129.453125 L 337.253906 129.453125 Z M 337.253906 95.726562 " fill-opacity="1" fill-rule="nonzero"/><path fill="#ffffff" d="M 452.570312 202.941406 L 316.929688 202.941406 L 337.253906 129.453125 L 472.894531 129.453125 Z M 452.570312 202.941406 " fill-opacity="1" fill-rule="nonzero"/><path fill="#fece6f" d="M 472.894531 129.453125 L 493.363281 202.941406 L 493.363281 375.546875 L 452.570312 375.546875 L 452.570312 202.941406 Z M 472.894531 129.453125 " fill-opacity="1" fill-rule="nonzero"/><path fill="#72dee0" d="M 411.480469 166.125 C 411.480469 166.667969 411.453125 167.210938 411.398438 167.753906 C 411.347656 168.296875 411.265625 168.835938 411.160156 169.371094 C 411.054688 169.90625 410.921875 170.433594 410.761719 170.953125 C 410.605469 171.476562 410.421875 171.988281 410.214844 172.492188 C 410.003906 172.996094 409.773438 173.488281 409.515625 173.96875 C 409.257812 174.449219 408.976562 174.917969 408.675781 175.371094 C 408.371094 175.824219 408.046875 176.257812 407.703125 176.679688 C 407.355469 177.101562 406.992188 177.503906 406.605469 177.890625 C 406.21875 178.277344 405.816406 178.640625 405.394531 178.988281 C 404.972656 179.332031 404.535156 179.65625 404.082031 179.960938 C 403.628906 180.261719 403.164062 180.542969 402.683594 180.800781 C 402.203125 181.058594 401.710938 181.289062 401.207031 181.5 C 400.703125 181.707031 400.191406 181.890625 399.667969 182.050781 C 399.148438 182.207031 398.621094 182.339844 398.085938 182.445312 C 397.550781 182.550781 397.011719 182.632812 396.46875 182.683594 C 395.925781 182.738281 395.382812 182.765625 394.839844 182.765625 C 394.292969 182.765625 393.75 182.738281 393.207031 182.683594 C 392.664062 182.632812 392.125 182.550781 391.589844 182.445312 C 391.058594 182.339844 390.527344 182.207031 390.007812 182.050781 C 389.484375 181.890625 388.972656 181.707031 388.46875 181.5 C 387.964844 181.289062 387.472656 181.058594 386.992188 180.800781 C 386.511719 180.542969 386.046875 180.261719 385.59375 179.960938 C 385.140625 179.65625 384.703125 179.332031 384.28125 178.988281 C 383.859375 178.640625 383.457031 178.277344 383.070312 177.890625 C 382.683594 177.503906 382.320312 177.101562 381.972656 176.679688 C 381.628906 176.257812 381.304688 175.824219 381 175.371094 C 380.699219 174.917969 380.417969 174.449219 380.160156 173.96875 C 379.90625 173.488281 379.671875 172.996094 379.464844 172.492188 C 379.253906 171.988281 379.070312 171.476562 378.914062 170.953125 C 378.753906 170.433594 378.621094 169.90625 378.515625 169.371094 C 378.410156 168.835938 378.328125 168.296875 378.277344 167.753906 C 378.222656 167.210938 378.195312 166.667969 378.195312 166.125 C 378.195312 165.578125 378.222656 165.035156 378.277344 164.492188 C 378.328125 163.949219 378.410156 163.410156 378.515625 162.875 C 378.621094 162.34375 378.753906 161.8125 378.914062 161.292969 C 379.070312 160.769531 379.253906 160.257812 379.464844 159.753906 C 379.671875 159.25 379.90625 158.757812 380.160156 158.277344 C 380.417969 157.796875 380.699219 157.332031 381 156.878906 C 381.304688 156.425781 381.628906 155.988281 381.972656 155.566406 C 382.320312 155.144531 382.683594 154.742188 383.070312 154.355469 C 383.457031 153.96875 383.859375 153.605469 384.28125 153.257812 C 384.703125 152.914062 385.140625 152.589844 385.59375 152.285156 C 386.046875 151.984375 386.511719 151.703125 386.992188 151.445312 C 387.472656 151.191406 387.964844 150.957031 388.46875 150.75 C 388.972656 150.539062 389.484375 150.355469 390.007812 150.199219 C 390.527344 150.039062 391.058594 149.90625 391.589844 149.800781 C 392.125 149.695312 392.664062 149.617188 393.207031 149.5625 C 393.75 149.507812 394.292969 149.480469 394.839844 149.480469 C 395.382812 149.480469 395.925781 149.507812 396.46875 149.5625 C 397.011719 149.617188 397.550781 149.695312 398.085938 149.800781 C 398.621094 149.90625 399.148438 150.039062 399.667969 150.199219 C 400.191406 150.355469 400.703125 150.539062 401.207031 150.75 C 401.710938 150.957031 402.203125 151.191406 402.683594 151.445312 C 403.164062 151.703125 403.628906 151.984375 404.082031 152.285156 C 404.535156 152.589844 404.972656 152.914062 405.394531 153.257812 C 405.816406 153.605469 406.21875 153.96875 406.605469 154.355469 C 406.992188 154.742188 407.355469 155.144531 407.703125 155.566406 C 408.046875 155.988281 408.371094 156.425781 408.675781 156.878906 C 408.976562 157.332031 409.257812 157.796875 409.515625 158.277344 C 409.773438 158.757812 410.003906 159.25 410.214844 159.753906 C 410.421875 160.257812 410.605469 160.769531 410.761719 161.292969 C 410.921875 161.8125 411.054688 162.34375 411.160156 162.875 C 411.265625 163.410156 411.347656 163.949219 411.398438 164.492188 C 411.453125 165.035156 411.480469 165.578125 411.480469 166.125 Z M 411.480469 166.125 " fill-opacity="1" fill-rule="nonzero"/><path fill="#ffffff" d="M 552.273438 252.425781 L 651.09375 252.425781 L 651.09375 375.546875 L 552.273438 375.546875 Z M 552.273438 252.425781 " fill-opacity="1" fill-rule="nonzero"/><path fill="#ffffff" d="M 95.726562 603.816406 L 208.097656 603.816406 L 208.097656 743.726562 L 95.726562 743.726562 Z M 95.726562 603.816406 " fill-opacity="1" fill-rule="nonzero"/><path fill="#95cf6a" d="M 125.183594 633.273438 L 208.097656 633.273438 L 208.097656 743.726562 L 125.183594 743.726562 Z M 125.183594 633.273438 " fill-opacity="1" fill-rule="nonzero"/><path fill="#ffffff" d="M 208.097656 603.816406 L 320.613281 603.816406 L 320.613281 743.726562 L 208.097656 743.726562 Z M 208.097656 603.816406 " fill-opacity="1" fill-rule="nonzero"/><path fill="#95cf6a" d="M 237.550781 633.273438 L 320.613281 633.273438 L 320.613281 743.726562 L 237.550781 743.726562 Z M 237.550781 633.273438 " fill-opacity="1" fill-rule="nonzero"/><path fill="#ffffff" d="M 95.726562 463.910156 L 208.097656 463.910156 L 208.097656 603.816406 L 95.726562 603.816406 Z M 95.726562 463.910156 " fill-opacity="1" fill-rule="nonzero"/><path fill="#95cf6a" d="M 125.183594 493.363281 L 208.097656 493.363281 L 208.097656 603.816406 L 125.183594 603.816406 Z M 125.183594 493.363281 " fill-opacity="1" fill-rule="nonzero"/><path fill="#ffffff" d="M 208.097656 463.910156 L 320.613281 463.910156 L 320.613281 603.816406 L 208.097656 603.816406 Z M 208.097656 463.910156 " fill-opacity="1" fill-rule="nonzero"/><path fill="#95cf6a" d="M 237.550781 493.363281 L 320.613281 493.363281 L 320.613281 603.816406 L 237.550781 603.816406 Z M 237.550781 493.363281 " fill-opacity="1" fill-rule="nonzero"/><path fill="#ffffff" d="M 423.703125 671.417969 L 534.746094 671.417969 L 534.746094 743.726562 L 423.703125 743.726562 Z M 423.703125 671.417969 " fill-opacity="1" fill-rule="nonzero"/><path fill="#7ef5f7" d="M 453.15625 671.417969 L 534.746094 671.417969 L 534.746094 743.726562 L 453.15625 743.726562 Z M 453.15625 671.417969 " fill-opacity="1" fill-rule="nonzero"/><path fill="#007d80" d="M 423.703125 603.816406 L 534.746094 603.816406 L 534.746094 671.417969 L 423.703125 671.417969 Z M 423.703125 603.816406 " fill-opacity="1" fill-rule="nonzero"/><path fill="#ffffff" d="M 534.746094 554.1875 L 534.746094 603.816406 L 423.703125 603.816406 L 423.703125 554.1875 C 423.703125 550.945312 424.734375 547.855469 426.5 545.203125 L 454.1875 506.175781 C 455.367188 504.410156 456.105469 502.347656 456.105469 500.136719 L 456.105469 494.984375 L 502.347656 494.984375 L 502.347656 500.136719 C 502.347656 502.347656 503.082031 504.410156 504.261719 506.175781 L 531.949219 545.203125 C 533.714844 547.855469 534.746094 550.945312 534.746094 554.1875 Z M 534.746094 554.1875 " fill-opacity="1" fill-rule="nonzero"/><path fill="#7ef5f7" d="M 534.746094 554.1875 L 534.746094 603.816406 L 453.15625 603.816406 L 453.15625 554.1875 C 453.15625 550.945312 454.1875 547.855469 455.957031 545.203125 L 483.644531 506.175781 C 484.820312 504.410156 485.558594 502.347656 485.558594 500.136719 L 485.558594 494.984375 L 502.347656 494.984375 L 502.347656 500.136719 C 502.347656 502.347656 503.082031 504.410156 504.261719 506.175781 L 531.949219 545.203125 C 533.714844 547.855469 534.746094 550.945312 534.746094 554.1875 Z M 534.746094 554.1875 " fill-opacity="1" fill-rule="nonzero"/><path fill="#ff775b" d="M 460.078125 463.910156 L 498.222656 463.910156 C 503.96875 463.910156 508.53125 468.621094 508.53125 474.21875 L 508.53125 494.984375 L 449.625 494.984375 L 449.625 474.21875 C 449.625 468.472656 454.335938 463.910156 459.933594 463.910156 Z M 460.078125 463.910156 " fill-opacity="1" fill-rule="nonzero"/><path fill="#ffffff" d="M 564.203125 671.417969 L 675.246094 671.417969 L 675.246094 743.726562 L 564.203125 743.726562 Z M 564.203125 671.417969 " fill-opacity="1" fill-rule="nonzero"/><path fill="#7ef5f7" d="M 593.65625 671.417969 L 675.246094 671.417969 L 675.246094 743.726562 L 593.65625 743.726562 Z M 593.65625 671.417969 " fill-opacity="1" fill-rule="nonzero"/><path fill="#007d80" d="M 564.203125 603.816406 L 675.246094 603.816406 L 675.246094 671.417969 L 564.203125 671.417969 Z M 564.203125 603.816406 " fill-opacity="1" fill-rule="nonzero"/><path fill="#ffffff" d="M 675.246094 554.1875 L 675.246094 603.816406 L 564.203125 603.816406 L 564.203125 554.1875 C 564.203125 550.945312 565.234375 547.855469 567.148438 545.203125 L 594.6875 506.175781 C 595.867188 504.410156 596.601562 502.347656 596.601562 500.136719 L 596.601562 494.984375 L 642.84375 494.984375 L 642.84375 500.136719 C 642.84375 502.347656 643.582031 504.410156 644.761719 506.175781 L 672.445312 545.203125 C 674.214844 547.855469 675.246094 550.945312 675.246094 554.1875 Z M 675.246094 554.1875 " fill-opacity="1" fill-rule="nonzero"/><path fill="#7ef5f7" d="M 675.246094 554.1875 L 675.246094 603.816406 L 593.65625 603.816406 L 593.65625 554.1875 C 593.65625 550.945312 594.6875 547.855469 596.601562 545.203125 L 624.140625 506.175781 C 625.320312 504.410156 626.054688 502.347656 626.054688 500.136719 L 626.054688 494.984375 L 642.84375 494.984375 L 642.84375 500.136719 C 642.84375 502.347656 643.582031 504.410156 644.761719 506.175781 L 672.445312 545.203125 C 674.214844 547.855469 675.246094 550.945312 675.246094 554.1875 Z M 675.246094 554.1875 " fill-opacity="1" fill-rule="nonzero"/><path fill="#ff775b" d="M 600.726562 463.910156 L 638.867188 463.910156 C 644.613281 463.910156 649.179688 468.621094 649.179688 474.21875 L 649.179688 494.984375 L 590.269531 494.984375 L 590.269531 474.21875 C 590.269531 468.472656 594.980469 463.910156 600.578125 463.910156 Z M 600.726562 463.910156 " fill-opacity="1" fill-rule="nonzero"/><path fill="#9cc6ec" d="M 801.898438 196.019531 C 801.898438 198.132812 801.847656 200.246094 801.746094 202.359375 C 801.640625 204.46875 801.484375 206.574219 801.277344 208.679688 C 801.070312 210.785156 800.8125 212.878906 800.503906 214.972656 C 800.191406 217.0625 799.832031 219.144531 799.417969 221.21875 C 799.003906 223.289062 798.542969 225.351562 798.027344 227.402344 C 797.515625 229.453125 796.953125 231.488281 796.339844 233.511719 C 795.726562 235.535156 795.0625 237.542969 794.351562 239.53125 C 793.636719 241.523438 792.878906 243.492188 792.066406 245.445312 C 791.257812 247.398438 790.402344 249.332031 789.5 251.242188 C 788.59375 253.152344 787.644531 255.039062 786.648438 256.90625 C 785.652344 258.769531 784.609375 260.609375 783.523438 262.421875 C 782.4375 264.234375 781.308594 266.019531 780.132812 267.777344 C 778.957031 269.535156 777.742188 271.261719 776.484375 272.960938 C 775.222656 274.65625 773.921875 276.324219 772.582031 277.957031 C 771.242188 279.589844 769.859375 281.191406 768.441406 282.757812 C 767.023438 284.324219 765.566406 285.855469 764.070312 287.347656 C 762.574219 288.84375 761.046875 290.300781 759.480469 291.71875 C 757.914062 293.140625 756.3125 294.519531 754.679688 295.859375 C 753.042969 297.203125 751.378906 298.5 749.679688 299.761719 C 747.984375 301.019531 746.253906 302.238281 744.5 303.410156 C 742.742188 304.585938 740.957031 305.714844 739.140625 306.800781 C 737.328125 307.890625 735.492188 308.929688 733.625 309.925781 C 731.761719 310.921875 729.875 311.875 727.964844 312.777344 C 726.054688 313.679688 724.121094 314.539062 722.167969 315.347656 C 720.214844 316.15625 718.242188 316.914062 716.253906 317.628906 C 714.265625 318.339844 712.257812 319.003906 710.234375 319.617188 C 708.210938 320.230469 706.175781 320.792969 704.125 321.308594 C 702.074219 321.820312 700.011719 322.285156 697.9375 322.695312 C 695.867188 323.109375 693.785156 323.46875 691.691406 323.78125 C 689.601562 324.089844 687.503906 324.347656 685.402344 324.554688 C 683.296875 324.761719 681.191406 324.917969 679.078125 325.023438 C 676.96875 325.125 674.855469 325.179688 672.742188 325.179688 C 670.628906 325.179688 668.515625 325.125 666.402344 325.023438 C 664.292969 324.917969 662.1875 324.761719 660.082031 324.554688 C 657.976562 324.347656 655.882812 324.089844 653.789062 323.78125 C 651.699219 323.46875 649.617188 323.109375 647.542969 322.695312 C 645.472656 322.285156 643.410156 321.820312 641.359375 321.308594 C 639.308594 320.792969 637.273438 320.230469 635.25 319.617188 C 633.226562 319.003906 631.21875 318.339844 629.230469 317.628906 C 627.238281 316.914062 625.269531 316.15625 623.316406 315.347656 C 621.363281 314.539062 619.429688 313.679688 617.519531 312.777344 C 615.609375 311.875 613.722656 310.921875 611.855469 309.925781 C 609.992188 308.929688 608.152344 307.890625 606.339844 306.800781 C 604.527344 305.714844 602.742188 304.585938 600.984375 303.410156 C 599.226562 302.238281 597.5 301.019531 595.800781 299.761719 C 594.105469 298.5 592.4375 297.203125 590.804688 295.859375 C 589.171875 294.519531 587.570312 293.140625 586.003906 291.71875 C 584.4375 290.300781 582.90625 288.84375 581.414062 287.347656 C 579.917969 285.855469 578.460938 284.324219 577.042969 282.757812 C 575.621094 281.191406 574.242188 279.589844 572.902344 277.957031 C 571.558594 276.324219 570.261719 274.65625 569 272.960938 C 567.742188 271.261719 566.523438 269.535156 565.351562 267.777344 C 564.175781 266.019531 563.046875 264.234375 561.960938 262.421875 C 560.871094 260.609375 559.832031 258.769531 558.835938 256.90625 C 557.839844 255.039062 556.886719 253.152344 555.984375 251.242188 C 555.082031 249.332031 554.222656 247.398438 553.414062 245.445312 C 552.605469 243.492188 551.84375 241.523438 551.132812 239.53125 C 550.421875 237.542969 549.757812 235.535156 549.144531 233.511719 C 548.53125 231.488281 547.96875 229.453125 547.453125 227.402344 C 546.941406 225.351562 546.476562 223.289062 546.066406 221.21875 C 545.652344 219.144531 545.292969 217.0625 544.980469 214.972656 C 544.671875 212.878906 544.414062 210.785156 544.207031 208.679688 C 544 206.574219 543.84375 204.46875 543.738281 202.359375 C 543.636719 200.246094 543.582031 198.132812 543.582031 196.019531 C 543.582031 193.90625 543.636719 191.792969 543.738281 189.683594 C 543.84375 187.570312 544 185.464844 544.207031 183.359375 C 544.414062 181.257812 544.671875 179.160156 544.980469 177.070312 C 545.292969 174.976562 545.652344 172.894531 546.066406 170.824219 C 546.476562 168.75 546.941406 166.6875 547.453125 164.636719 C 547.96875 162.585938 548.53125 160.550781 549.144531 158.527344 C 549.757812 156.503906 550.421875 154.5 551.132812 152.507812 C 551.84375 150.519531 552.605469 148.546875 553.414062 146.59375 C 554.222656 144.640625 555.082031 142.707031 555.984375 140.796875 C 556.886719 138.886719 557.839844 137 558.835938 135.136719 C 559.832031 133.269531 560.871094 131.433594 561.960938 129.621094 C 563.046875 127.804688 564.175781 126.019531 565.351562 124.261719 C 566.523438 122.507812 567.742188 120.777344 569 119.082031 C 570.261719 117.382812 571.558594 115.71875 572.902344 114.082031 C 574.242188 112.449219 575.621094 110.847656 577.042969 109.28125 C 578.460938 107.714844 579.917969 106.1875 581.414062 104.691406 C 582.90625 103.195312 584.4375 101.738281 586.003906 100.320312 C 587.570312 98.902344 589.171875 97.519531 590.804688 96.179688 C 592.4375 94.839844 594.105469 93.539062 595.800781 92.277344 C 597.5 91.019531 599.226562 89.804688 600.984375 88.628906 C 602.742188 87.453125 604.527344 86.324219 606.339844 85.238281 C 608.152344 84.152344 609.992188 83.109375 611.855469 82.113281 C 613.722656 81.117188 615.609375 80.167969 617.519531 79.261719 C 619.429688 78.359375 621.363281 77.503906 623.316406 76.695312 C 625.269531 75.882812 627.238281 75.125 629.230469 74.410156 C 631.21875 73.699219 633.226562 73.035156 635.25 72.421875 C 637.273438 71.808594 639.308594 71.246094 641.359375 70.734375 C 643.410156 70.21875 645.472656 69.757812 647.542969 69.34375 C 649.617188 68.929688 651.699219 68.570312 653.789062 68.257812 C 655.882812 67.949219 657.976562 67.691406 660.082031 67.484375 C 662.1875 67.277344 664.292969 67.121094 666.402344 67.015625 C 668.515625 66.914062 670.628906 66.863281 672.742188 66.863281 C 674.855469 66.863281 676.96875 66.914062 679.078125 67.015625 C 681.191406 67.121094 683.296875 67.277344 685.402344 67.484375 C 687.503906 67.691406 689.601562 67.949219 691.691406 68.257812 C 693.785156 68.570312 695.867188 68.929688 697.9375 69.34375 C 700.011719 69.757812 702.074219 70.21875 704.125 70.734375 C 706.175781 71.246094 708.210938 71.808594 710.234375 72.421875 C 712.257812 73.035156 714.265625 73.699219 716.253906 74.410156 C 718.242188 75.125 720.214844 75.882812 722.167969 76.695312 C 724.121094 77.503906 726.054688 78.359375 727.964844 79.261719 C 729.875 80.167969 731.761719 81.117188 733.625 82.113281 C 735.492188 83.109375 737.328125 84.152344 739.140625 85.238281 C 740.957031 86.324219 742.742188 87.453125 744.5 88.628906 C 746.253906 89.804688 747.984375 91.019531 749.679688 92.277344 C 751.378906 93.539062 753.042969 94.839844 754.679688 96.179688 C 756.3125 97.519531 757.914062 98.902344 759.480469 100.320312 C 761.046875 101.738281 762.574219 103.195312 764.070312 104.691406 C 765.566406 106.1875 767.023438 107.714844 768.441406 109.28125 C 769.859375 110.847656 771.242188 112.449219 772.582031 114.082031 C 773.921875 115.71875 775.222656 117.382812 776.484375 119.082031 C 777.742188 120.777344 778.957031 122.507812 780.132812 124.261719 C 781.308594 126.019531 782.4375 127.804688 783.523438 129.621094 C 784.609375 131.433594 785.652344 133.269531 786.648438 135.136719 C 787.644531 137 788.59375 138.886719 789.5 140.796875 C 790.402344 142.707031 791.257812 144.640625 792.066406 146.59375 C 792.878906 148.546875 793.636719 150.519531 794.351562 152.507812 C 795.0625 154.5 795.726562 156.503906 796.339844 158.527344 C 796.953125 160.550781 797.515625 162.585938 798.027344 164.636719 C 798.542969 166.6875 799.003906 168.75 799.417969 170.824219 C 799.832031 172.894531 800.191406 174.976562 800.5 177.070312 C 800.8125 179.160156 801.070312 181.257812 801.277344 183.359375 C 801.484375 185.464844 801.640625 187.570312 801.746094 189.683594 C 801.847656 191.792969 801.898438 193.90625 801.898438 196.019531 Z M 801.898438 196.019531 " fill-opacity="1" fill-rule="nonzero"/><path fill="#66c7c9" d="M 801.898438 167.742188 C 801.898438 239.171875 744.023438 296.902344 672.742188 296.902344 C 601.460938 296.902344 543.582031 239.023438 543.582031 167.742188 L 543.582031 137.109375 L 802.046875 137.109375 L 802.046875 167.742188 Z M 801.898438 167.742188 " fill-opacity="1" fill-rule="nonzero"/><path fill="#72dee0" d="M 801.898438 137.109375 C 801.898438 139.226562 801.847656 141.335938 801.746094 143.449219 C 801.640625 145.558594 801.484375 147.667969 801.277344 149.769531 C 801.070312 151.875 800.8125 153.972656 800.503906 156.0625 C 800.191406 158.152344 799.832031 160.234375 799.417969 162.308594 C 799.003906 164.382812 798.542969 166.441406 798.027344 168.492188 C 797.515625 170.542969 796.953125 172.582031 796.339844 174.605469 C 795.726562 176.625 795.0625 178.632812 794.351562 180.621094 C 793.636719 182.613281 792.878906 184.585938 792.066406 186.539062 C 791.257812 188.492188 790.402344 190.421875 789.5 192.332031 C 788.59375 194.242188 787.644531 196.132812 786.648438 197.996094 C 785.652344 199.859375 784.609375 201.699219 783.523438 203.511719 C 782.4375 205.324219 781.308594 207.109375 780.132812 208.867188 C 778.957031 210.625 777.742188 212.351562 776.484375 214.050781 C 775.222656 215.75 773.921875 217.414062 772.582031 219.046875 C 771.242188 220.683594 769.859375 222.28125 768.441406 223.847656 C 767.023438 225.414062 765.566406 226.945312 764.070312 228.441406 C 762.574219 229.933594 761.046875 231.390625 759.480469 232.8125 C 757.914062 234.230469 756.3125 235.609375 754.679688 236.953125 C 753.042969 238.292969 751.378906 239.59375 749.679688 240.851562 C 747.984375 242.109375 746.253906 243.328125 744.5 244.503906 C 742.742188 245.675781 740.957031 246.808594 739.140625 247.894531 C 737.328125 248.980469 735.492188 250.023438 733.625 251.019531 C 731.761719 252.015625 729.875 252.964844 727.964844 253.867188 C 726.054688 254.773438 724.121094 255.628906 722.167969 256.4375 C 720.214844 257.246094 718.242188 258.007812 716.253906 258.71875 C 714.265625 259.429688 712.257812 260.09375 710.234375 260.707031 C 708.210938 261.320312 706.175781 261.886719 704.125 262.398438 C 702.074219 262.910156 700.011719 263.375 697.9375 263.789062 C 695.867188 264.199219 693.785156 264.5625 691.691406 264.871094 C 689.601562 265.179688 687.503906 265.441406 685.402344 265.648438 C 683.296875 265.855469 681.191406 266.011719 679.078125 266.113281 C 676.96875 266.21875 674.855469 266.269531 672.742188 266.269531 C 670.628906 266.269531 668.515625 266.21875 666.402344 266.113281 C 664.292969 266.011719 662.1875 265.855469 660.082031 265.648438 C 657.976562 265.441406 655.882812 265.179688 653.789062 264.871094 C 651.699219 264.5625 649.617188 264.199219 647.542969 263.789062 C 645.472656 263.375 643.410156 262.910156 641.359375 262.398438 C 639.308594 261.886719 637.273438 261.320312 635.25 260.707031 C 633.226562 260.09375 631.21875 259.429688 629.230469 258.71875 C 627.238281 258.007812 625.269531 257.246094 623.316406 256.4375 C 621.363281 255.628906 619.429688 254.773438 617.519531 253.867188 C 615.609375 252.964844 613.722656 252.015625 611.855469 251.019531 C 609.992188 250.023438 608.152344 248.980469 606.339844 247.894531 C 604.527344 246.808594 602.742188 245.675781 600.984375 244.503906 C 599.226562 243.328125 597.5 242.109375 595.800781 240.851562 C 594.105469 239.59375 592.4375 238.292969 590.804688 236.953125 C 589.171875 235.609375 587.570312 234.230469 586.003906 232.8125 C 584.4375 231.390625 582.90625 229.933594 581.414062 228.441406 C 579.917969 226.945312 578.460938 225.414062 577.042969 223.847656 C 575.621094 222.28125 574.242188 220.683594 572.902344 219.046875 C 571.558594 217.414062 570.261719 215.75 569 214.050781 C 567.742188 212.351562 566.523438 210.625 565.351562 208.867188 C 564.175781 207.109375 563.046875 205.324219 561.960938 203.511719 C 560.871094 201.699219 559.832031 199.859375 558.835938 197.996094 C 557.839844 196.132812 556.886719 194.242188 555.984375 192.332031 C 555.082031 190.421875 554.222656 188.492188 553.414062 186.539062 C 552.605469 184.585938 551.84375 182.613281 551.132812 180.621094 C 550.421875 178.632812 549.757812 176.625 549.144531 174.605469 C 548.53125 172.582031 547.96875 170.542969 547.453125 168.492188 C 546.941406 166.445312 546.476562 164.382812 546.066406 162.308594 C 545.652344 160.234375 545.292969 158.152344 544.980469 156.0625 C 544.671875 153.972656 544.414062 151.875 544.207031 149.769531 C 544 147.667969 543.84375 145.558594 543.738281 143.449219 C 543.636719 141.335938 543.582031 139.226562 543.582031 137.109375 C 543.582031 134.996094 543.636719 132.882812 543.738281 130.773438 C 543.84375 128.664062 544 126.554688 544.207031 124.453125 C 544.414062 122.347656 544.671875 120.25 544.980469 118.160156 C 545.292969 116.070312 545.652344 113.988281 546.066406 111.914062 C 546.476562 109.839844 546.941406 107.777344 547.453125 105.726562 C 547.96875 103.675781 548.53125 101.640625 549.144531 99.617188 C 549.757812 97.59375 550.421875 95.589844 551.132812 93.597656 C 551.84375 91.609375 552.605469 89.636719 553.414062 87.683594 C 554.222656 85.730469 555.082031 83.800781 555.984375 81.886719 C 556.886719 79.976562 557.839844 78.089844 558.835938 76.226562 C 559.832031 74.363281 560.871094 72.523438 561.960938 70.710938 C 563.046875 68.898438 564.175781 67.113281 565.351562 65.355469 C 566.523438 63.597656 567.742188 61.871094 569 60.171875 C 570.261719 58.472656 571.558594 56.808594 572.902344 55.175781 C 574.242188 53.539062 575.621094 51.941406 577.042969 50.375 C 578.460938 48.808594 579.917969 47.277344 581.414062 45.78125 C 582.90625 44.289062 584.4375 42.832031 586.003906 41.410156 C 587.570312 39.992188 589.171875 38.609375 590.804688 37.269531 C 592.4375 35.929688 594.105469 34.628906 595.800781 33.371094 C 597.5 32.109375 599.226562 30.894531 600.984375 29.71875 C 602.742188 28.546875 604.527344 27.414062 606.339844 26.328125 C 608.152344 25.242188 609.992188 24.199219 611.855469 23.203125 C 613.722656 22.207031 615.609375 21.257812 617.519531 20.351562 C 619.429688 19.449219 621.363281 18.59375 623.316406 17.785156 C 625.269531 16.976562 627.238281 16.214844 629.230469 15.503906 C 631.21875 14.789062 633.226562 14.128906 635.25 13.515625 C 637.273438 12.902344 639.308594 12.335938 641.359375 11.824219 C 643.410156 11.308594 645.472656 10.847656 647.542969 10.433594 C 649.617188 10.023438 651.699219 9.660156 653.789062 9.351562 C 655.882812 9.039062 657.976562 8.78125 660.082031 8.574219 C 662.1875 8.367188 664.292969 8.210938 666.402344 8.109375 C 668.515625 8.003906 670.628906 7.953125 672.742188 7.953125 C 674.855469 7.953125 676.96875 8.003906 679.078125 8.109375 C 681.191406 8.210938 683.296875 8.367188 685.402344 8.574219 C 687.503906 8.78125 689.601562 9.039062 691.691406 9.351562 C 693.785156 9.660156 695.867188 10.023438 697.9375 10.433594 C 700.011719 10.847656 702.074219 11.308594 704.125 11.824219 C 706.175781 12.335938 708.210938 12.902344 710.234375 13.515625 C 712.257812 14.128906 714.265625 14.789062 716.253906 15.503906 C 718.242188 16.214844 720.214844 16.976562 722.167969 17.785156 C 724.121094 18.59375 726.054688 19.449219 727.964844 20.351562 C 729.875 21.257812 731.761719 22.207031 733.625 23.203125 C 735.492188 24.199219 737.328125 25.242188 739.140625 26.328125 C 740.957031 27.414062 742.742188 28.546875 744.5 29.71875 C 746.253906 30.894531 747.984375 32.109375 749.679688 33.371094 C 751.378906 34.628906 753.042969 35.929688 754.679688 37.269531 C 756.3125 38.609375 757.914062 39.992188 759.480469 41.410156 C 761.046875 42.832031 762.574219 44.289062 764.070312 45.78125 C 765.566406 47.277344 767.023438 48.808594 768.441406 50.375 C 769.859375 51.941406 771.242188 53.539062 772.582031 55.175781 C 773.921875 56.808594 775.222656 58.472656 776.484375 60.171875 C 777.742188 61.871094 778.957031 63.597656 780.132812 65.355469 C 781.308594 67.113281 782.4375 68.898438 783.523438 70.710938 C 784.609375 72.523438 785.652344 74.363281 786.648438 76.226562 C 787.644531 78.089844 788.59375 79.976562 789.5 81.886719 C 790.402344 83.800781 791.257812 85.730469 792.066406 87.683594 C 792.878906 89.636719 793.636719 91.609375 794.351562 93.597656 C 795.0625 95.589844 795.726562 97.59375 796.339844 99.617188 C 796.953125 101.640625 797.515625 103.675781 798.027344 105.726562 C 798.542969 107.777344 799.003906 109.839844 799.417969 111.914062 C 799.832031 113.988281 800.191406 116.070312 800.5 118.160156 C 800.8125 120.25 801.070312 122.347656 801.277344 124.453125 C 801.484375 126.554688 801.640625 128.664062 801.746094 130.773438 C 801.847656 132.882812 801.898438 134.996094 801.898438 137.109375 Z M 801.898438 137.109375 " fill-opacity="1" fill-rule="nonzero"/><path fill="#fece6f" d="M 746.378906 127.390625 L 746.378906 142.117188 C 746.378906 147.273438 745.789062 152.132812 744.464844 156.84375 C 738.128906 182.324219 715.15625 201.027344 688.207031 201.027344 L 657.425781 201.027344 C 630.328125 201.027344 607.5 182.324219 601.167969 156.84375 C 599.839844 152.132812 599.253906 147.273438 599.253906 142.117188 L 599.253906 127.390625 L 746.527344 127.390625 Z M 746.378906 127.390625 " fill-opacity="1" fill-rule="nonzero"/><path fill="#ff775b" d="M 746.378906 127.390625 L 746.378906 142.117188 C 746.378906 147.273438 745.789062 152.132812 744.464844 156.84375 L 601.019531 156.84375 C 599.695312 152.132812 599.105469 147.273438 599.105469 142.117188 L 599.105469 127.390625 Z M 746.378906 127.390625 " fill-opacity="1" fill-rule="nonzero"/><path fill="#95cf6a" d="M 734.890625 117.230469 C 734.890625 120.761719 734.449219 124.152344 733.859375 127.390625 L 610.886719 127.390625 C 613.242188 105.59375 629.445312 88.65625 649.324219 88.65625 C 654.773438 88.65625 659.78125 89.835938 664.347656 92.191406 C 671.269531 80.707031 682.902344 73.195312 696.15625 73.195312 C 717.511719 73.195312 734.890625 92.929688 734.890625 117.230469 Z M 734.890625 117.230469 " fill-opacity="1" fill-rule="nonzero"/><path fill="#3a287a" d="M 66.273438 382.910156 C 62.148438 382.910156 58.910156 379.667969 58.910156 375.546875 L 58.910156 66.273438 C 58.910156 62.148438 62.148438 58.910156 66.273438 58.910156 C 70.394531 58.910156 73.636719 62.148438 73.636719 66.273438 L 73.636719 375.546875 C 73.636719 379.667969 70.394531 382.910156 66.273438 382.910156 Z M 66.273438 382.910156 " fill-opacity="1" fill-rule="nonzero"/><path fill="#3a287a" d="M 7.363281 751.089844 C 3.238281 751.089844 0 747.851562 0 743.726562 L 0 434.453125 C 0 430.332031 3.238281 427.089844 7.363281 427.089844 C 11.488281 427.089844 14.726562 430.332031 14.726562 434.453125 L 14.726562 743.726562 C 14.726562 747.851562 11.488281 751.089844 7.363281 751.089844 Z M 7.363281 751.089844 " fill-opacity="1" fill-rule="nonzero"/><path fill="#3a287a" d="M 7.363281 382.910156 C 3.238281 382.910156 0 379.667969 0 375.546875 L 0 66.273438 C 0 62.148438 3.238281 58.910156 7.363281 58.910156 C 11.488281 58.910156 14.726562 62.148438 14.726562 66.273438 L 14.726562 375.546875 C 14.726562 379.667969 11.488281 382.910156 7.363281 382.910156 Z M 7.363281 382.910156 " fill-opacity="1" fill-rule="nonzero"/><path fill="#3a287a" d="M 66.273438 751.089844 C 62.148438 751.089844 58.910156 747.851562 58.910156 743.726562 L 58.910156 434.453125 C 58.910156 430.332031 62.148438 427.089844 66.273438 427.089844 C 70.394531 427.089844 73.636719 430.332031 73.636719 434.453125 L 73.636719 743.726562 C 73.636719 747.851562 70.394531 751.089844 66.273438 751.089844 Z M 66.273438 751.089844 " fill-opacity="1" fill-rule="nonzero"/><path fill="#3a287a" d="M 743.726562 751.089844 C 739.605469 751.089844 736.363281 747.851562 736.363281 743.726562 L 736.363281 434.453125 C 736.363281 430.332031 739.605469 427.089844 743.726562 427.089844 C 747.851562 427.089844 751.089844 430.332031 751.089844 434.453125 L 751.089844 743.726562 C 751.089844 747.851562 747.851562 751.089844 743.726562 751.089844 Z M 743.726562 751.089844 " fill-opacity="1" fill-rule="nonzero"/><path fill="#3a287a" d="M 802.636719 382.910156 C 798.511719 382.910156 795.273438 379.667969 795.273438 375.546875 L 795.273438 258.609375 C 795.273438 254.488281 798.511719 251.246094 802.636719 251.246094 C 806.761719 251.246094 810 254.488281 810 258.609375 L 810 375.546875 C 810 379.667969 806.761719 382.910156 802.636719 382.910156 Z M 802.636719 382.910156 " fill-opacity="1" fill-rule="nonzero"/><path fill="#3a287a" d="M 802.636719 751.089844 C 798.511719 751.089844 795.273438 747.851562 795.273438 743.726562 L 795.273438 434.453125 C 795.273438 430.332031 798.511719 427.089844 802.636719 427.089844 C 806.761719 427.089844 810 430.332031 810 434.453125 L 810 743.726562 C 810 747.851562 806.761719 751.089844 802.636719 751.089844 Z M 802.636719 751.089844 " fill-opacity="1" fill-rule="nonzero"/><path fill="#3a287a" d="M 743.726562 382.910156 C 739.605469 382.910156 736.363281 379.667969 736.363281 375.546875 L 736.363281 309.566406 C 736.363281 305.445312 739.605469 302.203125 743.726562 302.203125 C 747.851562 302.203125 751.089844 305.445312 751.089844 309.566406 L 751.089844 375.546875 C 751.089844 379.667969 747.851562 382.910156 743.726562 382.910156 Z M 743.726562 382.910156 " fill-opacity="1" fill-rule="nonzero"/><path fill="#3a287a" d="M 802.636719 810 L 694.980469 810 C 690.855469 810 687.617188 806.761719 687.617188 802.636719 C 687.617188 798.511719 690.855469 795.273438 694.980469 795.273438 L 795.273438 795.273438 L 795.273438 751.089844 L 14.726562 751.089844 L 14.726562 795.273438 L 571.566406 795.273438 C 575.6875 795.273438 578.929688 798.511719 578.929688 802.636719 C 578.929688 806.761719 575.6875 810 571.566406 810 L 7.363281 810 C 3.238281 810 0 806.761719 0 802.636719 L 0 743.726562 C 0 739.605469 3.238281 736.363281 7.363281 736.363281 L 802.636719 736.363281 C 806.761719 736.363281 810 739.605469 810 743.726562 L 810 802.636719 C 810 806.761719 806.761719 810 802.636719 810 Z M 802.636719 810 " fill-opacity="1" fill-rule="nonzero"/><path fill="#3a287a" d="M 644.171875 810 L 622.226562 810 C 618.105469 810 614.863281 806.761719 614.863281 802.636719 C 614.863281 798.511719 618.105469 795.273438 622.226562 795.273438 L 644.171875 795.273438 C 648.292969 795.273438 651.535156 798.511719 651.535156 802.636719 C 651.535156 806.761719 648.292969 810 644.171875 810 Z M 644.171875 810 " fill-opacity="1" fill-rule="nonzero"/><path fill="#3a287a" d="M 802.636719 441.816406 L 7.363281 441.816406 C 3.238281 441.816406 0 438.578125 0 434.453125 L 0 375.546875 C 0 371.421875 3.238281 368.183594 7.363281 368.183594 L 802.636719 368.183594 C 806.761719 368.183594 810 371.421875 810 375.546875 L 810 434.453125 C 810 438.578125 806.761719 441.816406 802.636719 441.816406 Z M 14.726562 427.089844 L 795.273438 427.089844 L 795.273438 382.910156 L 14.726562 382.910156 Z M 14.726562 427.089844 " fill-opacity="1" fill-rule="nonzero"/><path fill="#3a287a" d="M 530.769531 73.636719 L 7.363281 73.636719 C 3.238281 73.636719 0 70.394531 0 66.273438 L 0 7.363281 C 0 3.238281 3.238281 0 7.363281 0 L 581.578125 0 C 585.703125 0 588.945312 3.238281 588.945312 7.363281 C 588.945312 11.488281 585.703125 14.726562 581.578125 14.726562 L 14.726562 14.726562 L 14.726562 58.910156 L 530.769531 58.910156 C 534.894531 58.910156 538.132812 62.148438 538.132812 66.273438 C 538.132812 70.394531 534.894531 73.636719 530.769531 73.636719 Z M 530.769531 73.636719 " fill-opacity="1" fill-rule="nonzero"/><path fill="#3a287a" d="M 246.535156 382.910156 C 242.410156 382.910156 239.171875 379.667969 239.171875 375.546875 L 239.171875 210.304688 L 118.261719 210.304688 L 118.261719 375.546875 C 118.261719 379.667969 115.019531 382.910156 110.894531 382.910156 C 106.773438 382.910156 103.53125 379.667969 103.53125 375.546875 L 103.53125 202.941406 C 103.53125 198.816406 106.773438 195.578125 110.894531 195.578125 L 246.535156 195.578125 C 250.65625 195.578125 253.898438 198.816406 253.898438 202.941406 L 253.898438 375.546875 C 253.898438 379.667969 250.65625 382.910156 246.535156 382.910156 Z M 246.535156 382.910156 " fill-opacity="1" fill-rule="nonzero"/><path fill="#3a287a" d="M 267.003906 136.816406 L 131.367188 136.816406 C 127.242188 136.816406 124.003906 133.578125 124.003906 129.453125 L 124.003906 95.726562 C 124.003906 91.605469 127.242188 88.363281 131.367188 88.363281 L 267.003906 88.363281 C 271.128906 88.363281 274.367188 91.605469 274.367188 95.726562 L 274.367188 129.453125 C 274.367188 133.578125 271.128906 136.816406 267.003906 136.816406 Z M 138.730469 122.089844 L 259.640625 122.089844 L 259.640625 103.089844 L 138.730469 103.089844 Z M 138.730469 122.089844 " fill-opacity="1" fill-rule="nonzero"/><path fill="#3a287a" d="M 246.535156 210.304688 C 246.535156 210.304688 245.210938 210.304688 244.621094 210.011719 C 240.644531 208.980469 238.433594 204.855469 239.464844 200.878906 L 259.9375 127.390625 C 260.96875 123.414062 265.089844 121.207031 269.066406 122.238281 C 273.042969 123.265625 275.253906 127.390625 274.222656 131.367188 L 253.75 204.855469 C 252.867188 208.097656 249.921875 210.304688 246.683594 210.304688 Z M 246.535156 210.304688 " fill-opacity="1" fill-rule="nonzero"/><path fill="#3a287a" d="M 111.042969 210.304688 C 111.042969 210.304688 109.71875 210.304688 109.128906 210.011719 C 105.152344 208.980469 102.945312 204.855469 103.972656 200.878906 L 124.445312 127.390625 C 125.476562 123.414062 129.601562 121.207031 133.578125 122.238281 C 137.550781 123.265625 139.761719 127.390625 138.730469 131.367188 L 118.261719 204.855469 C 117.375 208.097656 114.429688 210.304688 111.191406 210.304688 Z M 111.042969 210.304688 " fill-opacity="1" fill-rule="nonzero"/><path fill="#3a287a" d="M 287.476562 382.910156 C 283.351562 382.910156 280.113281 379.667969 280.113281 375.546875 L 280.113281 203.972656 L 259.9375 131.515625 C 258.90625 127.539062 261.113281 123.5625 265.089844 122.382812 C 269.066406 121.351562 273.042969 123.5625 274.222656 127.539062 L 294.691406 201.027344 C 294.691406 201.027344 294.988281 202.351562 294.988281 202.941406 L 294.988281 375.546875 C 294.988281 379.667969 291.746094 382.910156 287.625 382.910156 Z M 287.476562 382.910156 " fill-opacity="1" fill-rule="nonzero"/><path fill="#3a287a" d="M 188.949219 190.277344 C 175.695312 190.277344 164.945312 179.527344 164.945312 166.269531 C 164.945312 153.015625 175.695312 142.265625 188.949219 142.265625 C 202.207031 142.265625 212.957031 153.015625 212.957031 166.269531 C 212.957031 179.527344 202.207031 190.277344 188.949219 190.277344 Z M 188.949219 156.84375 C 183.796875 156.84375 179.671875 160.96875 179.671875 166.125 C 179.671875 171.277344 183.796875 175.402344 188.949219 175.402344 C 194.105469 175.402344 198.230469 171.277344 198.230469 166.125 C 198.230469 160.96875 194.105469 156.84375 188.949219 156.84375 Z M 188.949219 156.84375 " fill-opacity="1" fill-rule="nonzero"/><path fill="#3a287a" d="M 452.570312 382.910156 C 448.445312 382.910156 445.207031 379.667969 445.207031 375.546875 L 445.207031 210.304688 L 324.292969 210.304688 L 324.292969 375.546875 C 324.292969 379.667969 321.054688 382.910156 316.929688 382.910156 C 312.808594 382.910156 309.566406 379.667969 309.566406 375.546875 L 309.566406 202.941406 C 309.566406 198.816406 312.808594 195.578125 316.929688 195.578125 L 452.570312 195.578125 C 456.691406 195.578125 459.933594 198.816406 459.933594 202.941406 L 459.933594 375.546875 C 459.933594 379.667969 456.691406 382.910156 452.570312 382.910156 Z M 452.570312 382.910156 " fill-opacity="1" fill-rule="nonzero"/><path fill="#3a287a" d="M 472.894531 136.816406 L 337.253906 136.816406 C 333.132812 136.816406 329.890625 133.578125 329.890625 129.453125 L 329.890625 95.726562 C 329.890625 91.605469 333.132812 88.363281 337.253906 88.363281 L 472.894531 88.363281 C 477.015625 88.363281 480.257812 91.605469 480.257812 95.726562 L 480.257812 129.453125 C 480.257812 133.578125 477.015625 136.816406 472.894531 136.816406 Z M 344.617188 122.089844 L 465.527344 122.089844 L 465.527344 103.089844 L 344.617188 103.089844 Z M 344.617188 122.089844 " fill-opacity="1" fill-rule="nonzero"/><path fill="#3a287a" d="M 452.570312 210.304688 C 452.570312 210.304688 451.242188 210.304688 450.65625 210.011719 C 446.679688 208.980469 444.46875 204.855469 445.5 200.878906 L 465.972656 127.390625 C 467 123.414062 471.125 121.207031 475.101562 122.238281 C 479.078125 123.265625 481.289062 127.390625 480.257812 131.367188 L 459.785156 204.855469 C 458.902344 208.097656 455.957031 210.304688 452.714844 210.304688 Z M 452.570312 210.304688 " fill-opacity="1" fill-rule="nonzero"/><path fill="#3a287a" d="M 316.929688 210.304688 C 316.929688 210.304688 315.605469 210.304688 315.015625 210.011719 C 311.039062 208.980469 308.832031 204.855469 309.863281 200.878906 L 330.332031 127.390625 C 331.363281 123.414062 335.339844 121.207031 339.464844 122.238281 C 343.441406 123.265625 345.648438 127.390625 344.617188 131.367188 L 324.148438 204.855469 C 323.261719 208.097656 320.316406 210.304688 317.078125 210.304688 Z M 316.929688 210.304688 " fill-opacity="1" fill-rule="nonzero"/><path fill="#3a287a" d="M 493.363281 382.910156 C 489.238281 382.910156 486 379.667969 486 375.546875 L 486 203.972656 L 465.824219 131.515625 C 464.792969 127.539062 467 123.5625 470.976562 122.382812 C 474.953125 121.351562 478.929688 123.5625 480.109375 127.539062 L 500.578125 201.027344 C 500.578125 201.027344 500.875 202.351562 500.875 202.941406 L 500.875 375.546875 C 500.875 379.667969 497.632812 382.910156 493.511719 382.910156 Z M 493.363281 382.910156 " fill-opacity="1" fill-rule="nonzero"/><path fill="#3a287a" d="M 394.984375 190.277344 C 381.730469 190.277344 370.980469 179.527344 370.980469 166.269531 C 370.980469 153.015625 381.730469 142.265625 394.984375 142.265625 C 408.238281 142.265625 418.992188 153.015625 418.992188 166.269531 C 418.992188 179.527344 408.238281 190.277344 394.984375 190.277344 Z M 394.984375 156.84375 C 389.832031 156.84375 385.707031 160.96875 385.707031 166.125 C 385.707031 171.277344 389.832031 175.402344 394.984375 175.402344 C 400.140625 175.402344 404.261719 171.277344 404.261719 166.125 C 404.261719 160.96875 400.140625 156.84375 394.984375 156.84375 Z M 394.984375 156.84375 " fill-opacity="1" fill-rule="nonzero"/><path fill="#3a287a" d="M 651.09375 382.910156 C 646.96875 382.910156 643.730469 379.667969 643.730469 375.546875 L 643.730469 324.882812 C 643.730469 320.761719 646.96875 317.519531 651.09375 317.519531 C 655.214844 317.519531 658.457031 320.761719 658.457031 324.882812 L 658.457031 375.546875 C 658.457031 379.667969 655.214844 382.910156 651.09375 382.910156 Z M 651.09375 382.910156 " fill-opacity="1" fill-rule="nonzero"/><path fill="#3a287a" d="M 552.273438 382.910156 C 548.148438 382.910156 544.910156 379.667969 544.910156 375.546875 L 544.910156 270.835938 C 544.910156 266.710938 548.148438 263.472656 552.273438 263.472656 C 556.394531 263.472656 559.636719 266.710938 559.636719 270.835938 L 559.636719 375.546875 C 559.636719 379.667969 556.394531 382.910156 552.273438 382.910156 Z M 552.273438 382.910156 " fill-opacity="1" fill-rule="nonzero"/><path fill="#3a287a" d="M 616.484375 351.835938 L 587.027344 351.835938 C 582.90625 351.835938 579.664062 348.59375 579.664062 344.472656 C 579.664062 340.347656 582.90625 337.105469 587.027344 337.105469 L 616.484375 337.105469 C 620.605469 337.105469 623.847656 340.347656 623.847656 344.472656 C 623.847656 348.59375 620.605469 351.835938 616.484375 351.835938 Z M 616.484375 351.835938 " fill-opacity="1" fill-rule="nonzero"/><path fill="#3a287a" d="M 208.097656 751.089844 C 203.972656 751.089844 200.734375 747.851562 200.734375 743.726562 L 200.734375 611.183594 L 103.089844 611.183594 L 103.089844 743.726562 C 103.089844 747.851562 99.851562 751.089844 95.726562 751.089844 C 91.605469 751.089844 88.363281 747.851562 88.363281 743.726562 L 88.363281 603.816406 C 88.363281 599.695312 91.605469 596.453125 95.726562 596.453125 L 208.097656 596.453125 C 212.21875 596.453125 215.460938 599.695312 215.460938 603.816406 L 215.460938 743.726562 C 215.460938 747.851562 212.21875 751.089844 208.097656 751.089844 Z M 208.097656 751.089844 " fill-opacity="1" fill-rule="nonzero"/><path fill="#3a287a" d="M 168.628906 715.746094 L 135.195312 715.746094 C 131.074219 715.746094 127.832031 712.503906 127.832031 708.382812 C 127.832031 704.257812 131.074219 701.019531 135.195312 701.019531 L 168.628906 701.019531 C 172.75 701.019531 175.992188 704.257812 175.992188 708.382812 C 175.992188 712.503906 172.75 715.746094 168.628906 715.746094 Z M 168.628906 715.746094 " fill-opacity="1" fill-rule="nonzero"/><path fill="#3a287a" d="M 320.613281 751.089844 C 316.488281 751.089844 313.25 747.851562 313.25 743.726562 L 313.25 611.183594 L 208.242188 611.183594 C 204.121094 611.183594 200.878906 607.941406 200.878906 603.816406 C 200.878906 599.695312 204.121094 596.453125 208.242188 596.453125 L 320.613281 596.453125 C 324.738281 596.453125 327.976562 599.695312 327.976562 603.816406 L 327.976562 743.726562 C 327.976562 747.851562 324.738281 751.089844 320.613281 751.089844 Z M 320.613281 751.089844 " fill-opacity="1" fill-rule="nonzero"/><path fill="#3a287a" d="M 281.144531 715.746094 L 247.710938 715.746094 C 243.589844 715.746094 240.347656 712.503906 240.347656 708.382812 C 240.347656 704.257812 243.589844 701.019531 247.710938 701.019531 L 281.144531 701.019531 C 285.265625 701.019531 288.507812 704.257812 288.507812 708.382812 C 288.507812 712.503906 285.265625 715.746094 281.144531 715.746094 Z M 281.144531 715.746094 " fill-opacity="1" fill-rule="nonzero"/><path fill="#3a287a" d="M 208.097656 611.183594 C 203.972656 611.183594 200.734375 607.941406 200.734375 603.816406 L 200.734375 471.273438 L 103.089844 471.273438 L 103.089844 603.816406 C 103.089844 607.941406 99.851562 611.183594 95.726562 611.183594 C 91.605469 611.183594 88.363281 607.941406 88.363281 603.816406 L 88.363281 463.910156 C 88.363281 459.785156 91.605469 456.546875 95.726562 456.546875 L 208.097656 456.546875 C 212.21875 456.546875 215.460938 459.785156 215.460938 463.910156 L 215.460938 603.816406 C 215.460938 607.941406 212.21875 611.183594 208.097656 611.183594 Z M 208.097656 611.183594 " fill-opacity="1" fill-rule="nonzero"/><path fill="#3a287a" d="M 168.628906 575.835938 L 135.195312 575.835938 C 131.074219 575.835938 127.832031 572.597656 127.832031 568.472656 C 127.832031 564.347656 131.074219 561.109375 135.195312 561.109375 L 168.628906 561.109375 C 172.75 561.109375 175.992188 564.347656 175.992188 568.472656 C 175.992188 572.597656 172.75 575.835938 168.628906 575.835938 Z M 168.628906 575.835938 " fill-opacity="1" fill-rule="nonzero"/><path fill="#3a287a" d="M 320.613281 611.183594 C 316.488281 611.183594 313.25 607.941406 313.25 603.816406 L 313.25 471.273438 L 208.242188 471.273438 C 204.121094 471.273438 200.878906 468.03125 200.878906 463.910156 C 200.878906 459.785156 204.121094 456.546875 208.242188 456.546875 L 320.613281 456.546875 C 324.738281 456.546875 327.976562 459.785156 327.976562 463.910156 L 327.976562 603.816406 C 327.976562 607.941406 324.738281 611.183594 320.613281 611.183594 Z M 320.613281 611.183594 " fill-opacity="1" fill-rule="nonzero"/><path fill="#3a287a" d="M 281.144531 575.835938 L 247.710938 575.835938 C 243.589844 575.835938 240.347656 572.597656 240.347656 568.472656 C 240.347656 564.347656 243.589844 561.109375 247.710938 561.109375 L 281.144531 561.109375 C 285.265625 561.109375 288.507812 564.347656 288.507812 568.472656 C 288.507812 572.597656 285.265625 575.835938 281.144531 575.835938 Z M 281.144531 575.835938 " fill-opacity="1" fill-rule="nonzero"/><path fill="#3a287a" d="M 534.746094 751.089844 C 530.625 751.089844 527.382812 747.851562 527.382812 743.726562 L 527.382812 678.78125 L 431.066406 678.78125 L 431.066406 743.726562 C 431.066406 747.851562 427.828125 751.089844 423.703125 751.089844 C 419.578125 751.089844 416.339844 747.851562 416.339844 743.726562 L 416.339844 671.417969 C 416.339844 667.292969 419.578125 664.050781 423.703125 664.050781 L 534.746094 664.050781 C 538.871094 664.050781 542.109375 667.292969 542.109375 671.417969 L 542.109375 743.726562 C 542.109375 747.851562 538.871094 751.089844 534.746094 751.089844 Z M 534.746094 751.089844 " fill-opacity="1" fill-rule="nonzero"/><path fill="#3a287a" d="M 534.746094 678.78125 C 530.625 678.78125 527.382812 675.539062 527.382812 671.417969 L 527.382812 603.816406 C 527.382812 599.695312 530.625 596.453125 534.746094 596.453125 C 538.871094 596.453125 542.109375 599.695312 542.109375 603.816406 L 542.109375 671.417969 C 542.109375 675.539062 538.871094 678.78125 534.746094 678.78125 Z M 534.746094 678.78125 " fill-opacity="1" fill-rule="nonzero"/><path fill="#3a287a" d="M 423.703125 678.78125 C 419.578125 678.78125 416.339844 675.539062 416.339844 671.417969 L 416.339844 603.816406 C 416.339844 599.695312 419.578125 596.453125 423.703125 596.453125 C 427.828125 596.453125 431.066406 599.695312 431.066406 603.816406 L 431.066406 671.417969 C 431.066406 675.539062 427.828125 678.78125 423.703125 678.78125 Z M 423.703125 678.78125 " fill-opacity="1" fill-rule="nonzero"/><path fill="#3a287a" d="M 534.746094 611.183594 L 423.703125 611.183594 C 419.578125 611.183594 416.339844 607.941406 416.339844 603.816406 L 416.339844 554.1875 C 416.339844 549.472656 417.8125 544.910156 420.609375 540.933594 L 448.296875 501.90625 C 448.296875 501.90625 448.886719 500.726562 448.886719 500.136719 L 448.886719 494.984375 C 448.886719 490.859375 452.128906 487.621094 456.25 487.621094 C 460.375 487.621094 463.613281 490.859375 463.613281 494.984375 L 463.613281 500.136719 C 463.613281 503.820312 462.4375 507.355469 460.375 510.445312 L 432.6875 549.472656 C 431.65625 550.800781 431.214844 552.566406 431.214844 554.1875 L 431.214844 596.453125 L 527.53125 596.453125 L 527.53125 554.1875 C 527.53125 552.421875 526.941406 550.800781 526.058594 549.472656 L 498.371094 510.445312 C 496.160156 507.355469 495.132812 503.820312 495.132812 500.136719 L 495.132812 494.984375 C 495.132812 490.859375 498.371094 487.621094 502.496094 487.621094 C 506.617188 487.621094 509.859375 490.859375 509.859375 494.984375 L 509.859375 500.136719 C 509.859375 500.136719 510.003906 501.316406 510.449219 501.90625 L 538.132812 540.933594 C 540.933594 544.761719 542.40625 549.328125 542.40625 554.1875 L 542.40625 603.816406 C 542.40625 607.941406 539.164062 611.183594 535.042969 611.183594 Z M 534.746094 611.183594 " fill-opacity="1" fill-rule="nonzero"/><path fill="#3a287a" d="M 508.679688 502.347656 L 449.769531 502.347656 C 445.648438 502.347656 442.40625 499.105469 442.40625 494.984375 L 442.40625 474.21875 C 442.40625 464.5 450.359375 456.546875 460.078125 456.546875 L 498.222656 456.546875 C 507.945312 456.546875 515.894531 464.5 515.894531 474.21875 L 515.894531 494.984375 C 515.894531 499.105469 512.65625 502.347656 508.53125 502.347656 Z M 457.132812 487.621094 L 501.316406 487.621094 L 501.316406 474.21875 C 501.316406 472.597656 499.992188 471.273438 498.371094 471.273438 L 460.226562 471.273438 C 458.605469 471.273438 457.28125 472.597656 457.28125 474.21875 L 457.28125 487.621094 Z M 457.132812 487.621094 " fill-opacity="1" fill-rule="nonzero"/><path fill="#3a287a" d="M 675.246094 751.089844 C 671.121094 751.089844 667.882812 747.851562 667.882812 743.726562 L 667.882812 678.78125 L 571.566406 678.78125 L 571.566406 743.726562 C 571.566406 747.851562 568.324219 751.089844 564.203125 751.089844 C 560.078125 751.089844 556.839844 747.851562 556.839844 743.726562 L 556.839844 671.417969 C 556.839844 667.292969 560.078125 664.050781 564.203125 664.050781 L 675.246094 664.050781 C 679.367188 664.050781 682.609375 667.292969 682.609375 671.417969 L 682.609375 743.726562 C 682.609375 747.851562 679.367188 751.089844 675.246094 751.089844 Z M 675.246094 751.089844 " fill-opacity="1" fill-rule="nonzero"/><path fill="#3a287a" d="M 675.246094 678.78125 C 671.121094 678.78125 667.882812 675.539062 667.882812 671.417969 L 667.882812 603.816406 C 667.882812 599.695312 671.121094 596.453125 675.246094 596.453125 C 679.367188 596.453125 682.609375 599.695312 682.609375 603.816406 L 682.609375 671.417969 C 682.609375 675.539062 679.367188 678.78125 675.246094 678.78125 Z M 675.246094 678.78125 " fill-opacity="1" fill-rule="nonzero"/><path fill="#3a287a" d="M 564.203125 678.78125 C 560.078125 678.78125 556.839844 675.539062 556.839844 671.417969 L 556.839844 603.816406 C 556.839844 599.695312 560.078125 596.453125 564.203125 596.453125 C 568.324219 596.453125 571.566406 599.695312 571.566406 603.816406 L 571.566406 671.417969 C 571.566406 675.539062 568.324219 678.78125 564.203125 678.78125 Z M 564.203125 678.78125 " fill-opacity="1" fill-rule="nonzero"/><path fill="#3a287a" d="M 675.246094 611.183594 L 564.203125 611.183594 C 560.078125 611.183594 556.839844 607.941406 556.839844 603.816406 L 556.839844 554.1875 C 556.839844 549.472656 558.3125 544.910156 561.109375 540.933594 L 588.796875 501.90625 C 588.796875 501.90625 589.386719 500.726562 589.386719 500.136719 L 589.386719 494.984375 C 589.386719 490.859375 592.625 487.621094 596.75 487.621094 C 600.871094 487.621094 604.113281 490.859375 604.113281 494.984375 L 604.113281 500.136719 C 604.113281 503.820312 602.933594 507.355469 600.871094 510.445312 L 573.332031 549.472656 C 572.300781 550.800781 571.859375 552.566406 571.859375 554.1875 L 571.859375 596.453125 L 668.175781 596.453125 L 668.175781 554.1875 C 668.175781 552.421875 667.585938 550.800781 666.703125 549.472656 L 639.015625 510.445312 C 636.953125 507.5 635.777344 503.820312 635.777344 500.136719 L 635.777344 494.984375 C 635.777344 490.859375 639.015625 487.621094 643.140625 487.621094 C 647.261719 487.621094 650.503906 490.859375 650.503906 494.984375 L 650.503906 500.136719 C 650.503906 500.136719 650.652344 501.316406 651.09375 501.90625 L 678.78125 540.933594 C 681.578125 544.910156 683.050781 549.472656 683.050781 554.1875 L 683.050781 603.816406 C 683.050781 607.941406 679.8125 611.183594 675.6875 611.183594 Z M 675.246094 611.183594 " fill-opacity="1" fill-rule="nonzero"/><path fill="#3a287a" d="M 649.179688 502.347656 L 590.269531 502.347656 C 586.144531 502.347656 582.90625 499.105469 582.90625 494.984375 L 582.90625 474.21875 C 582.90625 464.5 590.859375 456.546875 600.578125 456.546875 L 638.722656 456.546875 C 648.441406 456.546875 656.394531 464.5 656.394531 474.21875 L 656.394531 494.984375 C 656.394531 499.105469 653.15625 502.347656 649.03125 502.347656 Z M 597.632812 487.621094 L 641.816406 487.621094 L 641.816406 474.21875 C 641.816406 472.597656 640.488281 471.273438 638.867188 471.273438 L 600.726562 471.273438 C 599.105469 471.273438 597.78125 472.597656 597.78125 474.21875 L 597.78125 487.621094 Z M 597.632812 487.621094 " fill-opacity="1" fill-rule="nonzero"/><path fill="#3a287a" d="M 672.742188 304.265625 C 597.484375 304.265625 536.21875 243 536.21875 167.742188 L 536.21875 137.109375 C 536.21875 132.988281 539.460938 129.746094 543.582031 129.746094 C 547.707031 129.746094 550.945312 132.988281 550.945312 137.109375 L 550.945312 167.742188 C 550.945312 234.898438 605.585938 289.539062 672.742188 289.539062 C 739.898438 289.539062 794.535156 234.898438 794.535156 167.742188 L 794.535156 137.109375 C 794.535156 132.988281 797.777344 129.746094 801.898438 129.746094 C 806.023438 129.746094 809.261719 132.988281 809.261719 137.109375 L 809.261719 167.742188 C 809.261719 243 748 304.265625 672.742188 304.265625 Z M 672.742188 304.265625 " fill-opacity="1" fill-rule="nonzero"/><path fill="#3a287a" d="M 672.742188 273.632812 C 597.484375 273.632812 536.21875 212.367188 536.21875 137.109375 C 536.21875 61.855469 597.484375 0.589844 672.742188 0.589844 C 748 0.589844 809.261719 61.855469 809.261719 137.109375 C 809.261719 212.367188 748 273.632812 672.742188 273.632812 Z M 672.742188 15.316406 C 605.585938 15.316406 550.945312 69.953125 550.945312 137.109375 C 550.945312 204.265625 605.585938 258.90625 672.742188 258.90625 C 739.898438 258.90625 794.535156 204.265625 794.535156 137.109375 C 794.535156 69.953125 739.898438 15.316406 672.742188 15.316406 Z M 672.742188 15.316406 " fill-opacity="1" fill-rule="nonzero"/><path fill="#3a287a" d="M 688.058594 208.390625 L 657.277344 208.390625 C 627.234375 208.390625 601.167969 187.921875 593.804688 158.613281 C 592.476562 153.605469 591.742188 148.15625 591.742188 142.117188 L 591.742188 127.390625 C 591.742188 123.265625 594.980469 120.027344 599.105469 120.027344 L 746.378906 120.027344 C 750.5 120.027344 753.742188 123.265625 753.742188 127.390625 L 753.742188 142.117188 C 753.742188 148.15625 753.003906 153.605469 751.53125 158.761719 C 744.167969 187.921875 718.101562 208.390625 688.058594 208.390625 Z M 606.46875 134.753906 L 606.46875 142.117188 C 606.46875 146.832031 607.058594 150.953125 608.089844 154.929688 C 613.832031 177.90625 634.007812 193.664062 657.277344 193.664062 L 688.058594 193.664062 C 711.328125 193.664062 731.503906 177.757812 737.246094 155.078125 C 738.425781 150.953125 738.867188 146.832031 738.867188 142.117188 L 738.867188 134.753906 L 606.320312 134.753906 Z M 606.46875 134.753906 " fill-opacity="1" fill-rule="nonzero"/><path fill="#3a287a" d="M 744.464844 164.210938 L 601.019531 164.210938 C 596.894531 164.210938 593.65625 160.96875 593.65625 156.84375 C 593.65625 152.722656 596.894531 149.480469 601.019531 149.480469 L 744.464844 149.480469 C 748.585938 149.480469 751.828125 152.722656 751.828125 156.84375 C 751.828125 160.96875 748.585938 164.210938 744.464844 164.210938 Z M 744.464844 164.210938 " fill-opacity="1" fill-rule="nonzero"/><path fill="#3a287a" d="M 733.859375 134.753906 C 733.859375 134.753906 732.976562 134.753906 732.535156 134.753906 C 728.558594 134.019531 725.90625 130.1875 726.644531 126.210938 C 727.234375 123.414062 727.527344 120.46875 727.527344 117.375 C 727.527344 97.199219 713.535156 80.707031 696.15625 80.707031 C 685.996094 80.707031 676.421875 86.449219 670.53125 96.167969 C 668.472656 99.554688 664.347656 100.734375 660.8125 98.820312 C 657.425781 97.054688 653.449219 96.167969 649.179688 96.167969 C 633.421875 96.167969 620.019531 110.011719 618.105469 128.273438 C 617.660156 132.25 613.832031 135.195312 610.003906 134.753906 C 605.878906 134.3125 603.082031 130.632812 603.523438 126.65625 C 606.320312 100.882812 625.910156 81.292969 649.324219 81.292969 C 653.597656 81.292969 657.71875 81.882812 661.695312 83.210938 C 670.386719 72.3125 682.902344 65.832031 696.15625 65.832031 C 721.488281 65.832031 742.253906 88.953125 742.253906 117.230469 C 742.253906 120.761719 741.960938 124.445312 741.078125 128.714844 C 740.488281 132.25 737.394531 134.753906 733.859375 134.753906 Z M 733.859375 134.753906 " fill-opacity="1" fill-rule="nonzero"/></svg>