<svg xmlns="http://www.w3.org/2000/svg" xmlns:xlink="http://www.w3.org/1999/xlink" width="1080" zoomAndPan="magnify" viewBox="0 0 810 809.999993" height="1080" preserveAspectRatio="xMidYMid meet" version="1.0"><defs><clipPath id="b1197ad58d"><path d="M 810 405 C 810 411.628906 809.835938 418.253906 809.511719 424.871094 C 809.1875 431.492188 808.699219 438.101562 808.050781 444.695312 C 807.398438 451.292969 806.589844 457.871094 805.617188 464.425781 C 804.644531 470.980469 803.511719 477.511719 802.21875 484.011719 C 800.925781 490.511719 799.472656 496.976562 797.863281 503.40625 C 796.253906 509.835938 794.484375 516.222656 792.5625 522.566406 C 790.636719 528.90625 788.558594 535.199219 786.324219 541.441406 C 784.09375 547.679688 781.707031 553.863281 779.171875 559.988281 C 776.632812 566.109375 773.949219 572.167969 771.117188 578.160156 C 768.28125 584.152344 765.300781 590.070312 762.179688 595.914062 C 759.054688 601.761719 755.789062 607.527344 752.378906 613.210938 C 748.972656 618.898438 745.425781 624.496094 741.746094 630.003906 C 738.0625 635.515625 734.246094 640.933594 730.300781 646.257812 C 726.351562 651.582031 722.273438 656.804688 718.070312 661.929688 C 713.863281 667.054688 709.535156 672.070312 705.085938 676.980469 C 700.632812 681.890625 696.066406 686.691406 691.378906 691.378906 C 686.691406 696.066406 681.890625 700.632812 676.980469 705.085938 C 672.070312 709.535156 667.054688 713.863281 661.929688 718.070312 C 656.804688 722.273438 651.582031 726.351562 646.257812 730.300781 C 640.933594 734.246094 635.515625 738.0625 630.003906 741.746094 C 624.496094 745.425781 618.898438 748.972656 613.210938 752.378906 C 607.527344 755.789062 601.761719 759.054688 595.914062 762.179688 C 590.070312 765.300781 584.152344 768.28125 578.160156 771.117188 C 572.167969 773.949219 566.109375 776.632812 559.988281 779.171875 C 553.863281 781.707031 547.679688 784.09375 541.441406 786.324219 C 535.199219 788.558594 528.90625 790.636719 522.566406 792.5625 C 516.222656 794.484375 509.835938 796.253906 503.40625 797.863281 C 496.976562 799.472656 490.511719 800.925781 484.011719 802.21875 C 477.511719 803.511719 470.980469 804.644531 464.425781 805.617188 C 457.871094 806.589844 451.292969 807.398438 444.695312 808.050781 C 438.101562 808.699219 431.492188 809.1875 424.871094 809.511719 C 418.253906 809.835938 411.628906 810 405 810 C 398.371094 810 391.746094 809.835938 385.128906 809.511719 C 378.507812 809.1875 371.898438 808.699219 365.304688 808.050781 C 358.707031 807.398438 352.128906 806.589844 345.574219 805.617188 C 339.019531 804.644531 332.488281 803.511719 325.988281 802.21875 C 319.488281 800.925781 313.023438 799.472656 306.59375 797.863281 C 300.164062 796.253906 293.777344 794.484375 287.433594 792.5625 C 281.09375 790.636719 274.800781 788.558594 268.558594 786.324219 C 262.320312 784.09375 256.136719 781.707031 250.011719 779.171875 C 243.890625 776.632812 237.832031 773.949219 231.839844 771.117188 C 225.847656 768.28125 219.929688 765.300781 214.085938 762.179688 C 208.238281 759.054688 202.472656 755.789062 196.789062 752.378906 C 191.101562 748.972656 185.503906 745.425781 179.992188 741.746094 C 174.484375 738.0625 169.066406 734.246094 163.742188 730.300781 C 158.417969 726.351562 153.195312 722.273438 148.070312 718.070312 C 142.945312 713.863281 137.929688 709.535156 133.019531 705.085938 C 128.109375 700.632812 123.308594 696.066406 118.621094 691.378906 C 113.933594 686.691406 109.367188 681.890625 104.914062 676.980469 C 100.464844 672.070312 96.136719 667.054688 91.929688 661.929688 C 87.726562 656.804688 83.648438 651.582031 79.699219 646.257812 C 75.753906 640.933594 71.9375 635.515625 68.253906 630.003906 C 64.574219 624.496094 61.027344 618.898438 57.621094 613.210938 C 54.210938 607.527344 50.945312 601.761719 47.820312 595.914062 C 44.699219 590.070312 41.71875 584.152344 38.882812 578.160156 C 36.050781 572.167969 33.367188 566.109375 30.828125 559.988281 C 28.292969 553.863281 25.90625 547.679688 23.675781 541.441406 C 21.441406 535.199219 19.363281 528.90625 17.4375 522.566406 C 15.515625 516.222656 13.746094 509.835938 12.136719 503.40625 C 10.527344 496.976562 9.074219 490.511719 7.78125 484.011719 C 6.488281 477.511719 5.355469 470.980469 4.382812 464.425781 C 3.410156 457.871094 2.601562 451.292969 1.949219 444.695312 C 1.300781 438.101562 0.8125 431.492188 0.488281 424.871094 C 0.164062 418.253906 0 411.628906 0 405 C 0 398.371094 0.164062 391.746094 0.488281 385.128906 C 0.8125 378.507812 1.300781 371.898438 1.949219 365.304688 C 2.601562 358.707031 3.410156 352.128906 4.382812 345.574219 C 5.355469 339.019531 6.488281 332.488281 7.78125 325.988281 C 9.074219 319.488281 10.527344 313.023438 12.136719 306.59375 C 13.746094 300.164062 15.515625 293.777344 17.4375 287.433594 C 19.363281 281.09375 21.441406 274.800781 23.675781 268.558594 C 25.90625 262.320312 28.292969 256.136719 30.828125 250.011719 C 33.367188 243.890625 36.050781 237.832031 38.882812 231.839844 C 41.71875 225.847656 44.699219 219.929688 47.820312 214.085938 C 50.945312 208.238281 54.210938 202.472656 57.621094 196.789062 C 61.027344 191.101562 64.574219 185.503906 68.253906 179.992188 C 71.9375 174.484375 75.753906 169.066406 79.699219 163.742188 C 83.648438 158.417969 87.726562 153.195312 91.929688 148.070312 C 96.136719 142.945312 100.464844 137.929688 104.914062 133.019531 C 109.367188 128.109375 113.933594 123.308594 118.621094 118.621094 C 123.308594 113.933594 128.109375 109.367188 133.019531 104.914062 C 137.929688 100.464844 142.945312 96.136719 148.070312 91.929688 C 153.195312 87.726562 158.417969 83.648438 163.742188 79.699219 C 169.066406 75.753906 174.484375 71.9375 179.992188 68.253906 C 185.503906 64.574219 191.101562 61.027344 196.789062 57.621094 C 202.472656 54.210938 208.238281 50.945312 214.085938 47.820312 C 219.929688 44.699219 225.847656 41.71875 231.839844 38.882812 C 237.832031 36.050781 243.890625 33.367188 250.011719 30.828125 C 256.136719 28.292969 262.320312 25.90625 268.558594 23.675781 C 274.800781 21.441406 281.09375 19.363281 287.433594 17.4375 C 293.777344 15.515625 300.164062 13.746094 306.59375 12.136719 C 313.023438 10.527344 319.488281 9.074219 325.988281 7.78125 C 332.488281 6.488281 339.019531 5.355469 345.574219 4.382812 C 352.128906 3.410156 358.707031 2.601562 365.304688 1.949219 C 371.898438 1.300781 378.507812 0.8125 385.128906 0.488281 C 391.746094 0.164062 398.371094 0 405 0 C 411.628906 0 418.253906 0.164062 424.871094 0.488281 C 431.492188 0.8125 438.101562 1.300781 444.695312 1.949219 C 451.292969 2.601562 457.871094 3.410156 464.425781 4.382812 C 470.980469 5.355469 477.511719 6.488281 484.011719 7.78125 C 490.511719 9.074219 496.976562 10.527344 503.40625 12.136719 C 509.835938 13.746094 516.222656 15.515625 522.566406 17.4375 C 528.90625 19.363281 535.199219 21.441406 541.441406 23.675781 C 547.679688 25.90625 553.863281 28.292969 559.988281 30.828125 C 566.109375 33.367188 572.167969 36.050781 578.160156 38.882812 C 584.152344 41.71875 590.070312 44.699219 595.914062 47.820312 C 601.761719 50.945312 607.527344 54.210938 613.210938 57.621094 C 618.898438 61.027344 624.496094 64.574219 630.003906 68.253906 C 635.515625 71.9375 640.933594 75.753906 646.257812 79.699219 C 651.582031 83.648438 656.804688 87.726562 661.929688 91.929688 C 667.054688 96.136719 672.070312 100.464844 676.980469 104.914062 C 681.890625 109.367188 686.691406 113.933594 691.378906 118.621094 C 696.066406 123.308594 700.632812 128.109375 705.085938 133.019531 C 709.535156 137.929688 713.863281 142.945312 718.070312 148.070312 C 722.273438 153.195312 726.351562 158.417969 730.300781 163.742188 C 734.246094 169.066406 738.0625 174.484375 741.746094 179.992188 C 745.425781 185.503906 748.972656 191.101562 752.378906 196.789062 C 755.789062 202.472656 759.054688 208.238281 762.179688 214.085938 C 765.300781 219.929688 768.28125 225.847656 771.117188 231.839844 C 773.949219 237.832031 776.632812 243.890625 779.171875 250.011719 C 781.707031 256.136719 784.09375 262.320312 786.324219 268.558594 C 788.558594 274.800781 790.636719 281.09375 792.5625 287.433594 C 794.484375 293.777344 796.253906 300.164062 797.863281 306.59375 C 799.472656 313.023438 800.925781 319.488281 802.21875 325.988281 C 803.511719 332.488281 804.644531 339.019531 805.617188 345.574219 C 806.589844 352.128906 807.398438 358.707031 808.050781 365.304688 C 808.699219 371.898438 809.1875 378.507812 809.511719 385.128906 C 809.835938 391.746094 810 398.371094 810 405 Z M 810 405 " clip-rule="nonzero"/></clipPath><linearGradient x1="275" gradientTransform="matrix(1.6875, 0, 0, 1.6875, -59.062496, -4115.812364)" y1="2438.999953" x2="275" gradientUnits="userSpaceOnUse" y2="2918.999933" id="6ebb12cca0"><stop stop-opacity="1" stop-color="rgb(7.058716%, 41.958618%, 100%)" offset="0"/><stop stop-opacity="1" stop-color="rgb(7.3349%, 41.836548%, 100%)" offset="0.00390625"/><stop stop-opacity="1" stop-color="rgb(7.611084%, 41.714478%, 100%)" offset="0.0078125"/><stop stop-opacity="1" stop-color="rgb(7.885742%, 41.590881%, 100%)" offset="0.0117188"/><stop stop-opacity="1" stop-color="rgb(8.161926%, 41.468811%, 100%)" offset="0.015625"/><stop stop-opacity="1" stop-color="rgb(8.43811%, 41.346741%, 100%)" offset="0.0195312"/><stop stop-opacity="1" stop-color="rgb(8.714294%, 41.22467%, 100%)" offset="0.0234375"/><stop stop-opacity="1" stop-color="rgb(8.988953%, 41.101074%, 100%)" offset="0.0273438"/><stop stop-opacity="1" stop-color="rgb(9.265137%, 40.979004%, 100%)" offset="0.03125"/><stop stop-opacity="1" stop-color="rgb(9.539795%, 40.855408%, 100%)" offset="0.0351562"/><stop stop-opacity="1" stop-color="rgb(9.815979%, 40.733337%, 100%)" offset="0.0390625"/><stop stop-opacity="1" stop-color="rgb(10.092163%, 40.611267%, 100%)" offset="0.0429688"/><stop stop-opacity="1" stop-color="rgb(10.368347%, 40.489197%, 100%)" offset="0.046875"/><stop stop-opacity="1" stop-color="rgb(10.643005%, 40.365601%, 100%)" offset="0.0507812"/><stop stop-opacity="1" stop-color="rgb(10.919189%, 40.24353%, 100%)" offset="0.0546875"/><stop stop-opacity="1" stop-color="rgb(11.195374%, 40.119934%, 100%)" offset="0.0585938"/><stop stop-opacity="1" stop-color="rgb(11.471558%, 39.997864%, 100%)" offset="0.0625"/><stop stop-opacity="1" stop-color="rgb(11.746216%, 39.875793%, 100%)" offset="0.0664063"/><stop stop-opacity="1" stop-color="rgb(12.0224%, 39.753723%, 100%)" offset="0.0703125"/><stop stop-opacity="1" stop-color="rgb(12.298584%, 39.630127%, 100%)" offset="0.0742188"/><stop stop-opacity="1" stop-color="rgb(12.574768%, 39.508057%, 100%)" offset="0.078125"/><stop stop-opacity="1" stop-color="rgb(12.849426%, 39.385986%, 100%)" offset="0.0820313"/><stop stop-opacity="1" stop-color="rgb(13.12561%, 39.263916%, 100%)" offset="0.0859375"/><stop stop-opacity="1" stop-color="rgb(13.400269%, 39.14032%, 100%)" offset="0.0898438"/><stop stop-opacity="1" stop-color="rgb(13.676453%, 39.01825%, 100%)" offset="0.09375"/><stop stop-opacity="1" stop-color="rgb(13.952637%, 38.894653%, 100%)" offset="0.0976563"/><stop stop-opacity="1" stop-color="rgb(14.228821%, 38.772583%, 100%)" offset="0.101563"/><stop stop-opacity="1" stop-color="rgb(14.503479%, 38.650513%, 100%)" offset="0.105469"/><stop stop-opacity="1" stop-color="rgb(14.779663%, 38.528442%, 100%)" offset="0.109375"/><stop stop-opacity="1" stop-color="rgb(15.055847%, 38.404846%, 100%)" offset="0.113281"/><stop stop-opacity="1" stop-color="rgb(15.332031%, 38.282776%, 100%)" offset="0.117188"/><stop stop-opacity="1" stop-color="rgb(15.606689%, 38.160706%, 100%)" offset="0.121094"/><stop stop-opacity="1" stop-color="rgb(15.882874%, 38.038635%, 100%)" offset="0.125"/><stop stop-opacity="1" stop-color="rgb(16.157532%, 37.915039%, 100%)" offset="0.128906"/><stop stop-opacity="1" stop-color="rgb(16.433716%, 37.792969%, 100%)" offset="0.132813"/><stop stop-opacity="1" stop-color="rgb(16.7099%, 37.669373%, 100%)" offset="0.136719"/><stop stop-opacity="1" stop-color="rgb(16.986084%, 37.547302%, 100%)" offset="0.140625"/><stop stop-opacity="1" stop-color="rgb(17.260742%, 37.425232%, 100%)" offset="0.144531"/><stop stop-opacity="1" stop-color="rgb(17.536926%, 37.303162%, 100%)" offset="0.148438"/><stop stop-opacity="1" stop-color="rgb(17.81311%, 37.179565%, 100%)" offset="0.152344"/><stop stop-opacity="1" stop-color="rgb(18.089294%, 37.057495%, 100%)" offset="0.15625"/><stop stop-opacity="1" stop-color="rgb(18.363953%, 36.935425%, 100%)" offset="0.160156"/><stop stop-opacity="1" stop-color="rgb(18.640137%, 36.813354%, 100%)" offset="0.164063"/><stop stop-opacity="1" stop-color="rgb(18.916321%, 36.689758%, 100%)" offset="0.167969"/><stop stop-opacity="1" stop-color="rgb(19.192505%, 36.567688%, 100%)" offset="0.171875"/><stop stop-opacity="1" stop-color="rgb(19.467163%, 36.444092%, 100%)" offset="0.175781"/><stop stop-opacity="1" stop-color="rgb(19.743347%, 36.322021%, 100%)" offset="0.179688"/><stop stop-opacity="1" stop-color="rgb(20.018005%, 36.199951%, 100%)" offset="0.183594"/><stop stop-opacity="1" stop-color="rgb(20.294189%, 36.077881%, 100%)" offset="0.1875"/><stop stop-opacity="1" stop-color="rgb(20.570374%, 35.954285%, 100%)" offset="0.191406"/><stop stop-opacity="1" stop-color="rgb(20.846558%, 35.832214%, 100%)" offset="0.195313"/><stop stop-opacity="1" stop-color="rgb(21.121216%, 35.708618%, 100%)" offset="0.199219"/><stop stop-opacity="1" stop-color="rgb(21.3974%, 35.586548%, 100%)" offset="0.203125"/><stop stop-opacity="1" stop-color="rgb(21.673584%, 35.464478%, 100%)" offset="0.207031"/><stop stop-opacity="1" stop-color="rgb(21.949768%, 35.342407%, 100%)" offset="0.210938"/><stop stop-opacity="1" stop-color="rgb(22.224426%, 35.218811%, 100%)" offset="0.214844"/><stop stop-opacity="1" stop-color="rgb(22.50061%, 35.096741%, 100%)" offset="0.21875"/><stop stop-opacity="1" stop-color="rgb(22.776794%, 34.97467%, 100%)" offset="0.222656"/><stop stop-opacity="1" stop-color="rgb(23.052979%, 34.8526%, 100%)" offset="0.226563"/><stop stop-opacity="1" stop-color="rgb(23.327637%, 34.729004%, 100%)" offset="0.230469"/><stop stop-opacity="1" stop-color="rgb(23.603821%, 34.606934%, 100%)" offset="0.234375"/><stop stop-opacity="1" stop-color="rgb(23.878479%, 34.483337%, 100%)" offset="0.238281"/><stop stop-opacity="1" stop-color="rgb(24.154663%, 34.361267%, 100%)" offset="0.242188"/><stop stop-opacity="1" stop-color="rgb(24.430847%, 34.239197%, 100%)" offset="0.246094"/><stop stop-opacity="1" stop-color="rgb(24.707031%, 34.117126%, 100%)" offset="0.25"/><stop stop-opacity="1" stop-color="rgb(24.981689%, 33.99353%, 100%)" offset="0.253906"/><stop stop-opacity="1" stop-color="rgb(25.257874%, 33.87146%, 100%)" offset="0.257812"/><stop stop-opacity="1" stop-color="rgb(25.534058%, 33.74939%, 100%)" offset="0.261719"/><stop stop-opacity="1" stop-color="rgb(25.810242%, 33.627319%, 100%)" offset="0.265625"/><stop stop-opacity="1" stop-color="rgb(26.0849%, 33.503723%, 100%)" offset="0.269531"/><stop stop-opacity="1" stop-color="rgb(26.361084%, 33.381653%, 100%)" offset="0.273438"/><stop stop-opacity="1" stop-color="rgb(26.635742%, 33.258057%, 100%)" offset="0.277344"/><stop stop-opacity="1" stop-color="rgb(26.911926%, 33.135986%, 100%)" offset="0.28125"/><stop stop-opacity="1" stop-color="rgb(27.18811%, 33.013916%, 100%)" offset="0.285156"/><stop stop-opacity="1" stop-color="rgb(27.464294%, 32.891846%, 100%)" offset="0.289062"/><stop stop-opacity="1" stop-color="rgb(27.738953%, 32.76825%, 100%)" offset="0.292969"/><stop stop-opacity="1" stop-color="rgb(28.015137%, 32.646179%, 100%)" offset="0.296875"/><stop stop-opacity="1" stop-color="rgb(28.291321%, 32.522583%, 100%)" offset="0.300781"/><stop stop-opacity="1" stop-color="rgb(28.567505%, 32.400513%, 100%)" offset="0.304688"/><stop stop-opacity="1" stop-color="rgb(28.842163%, 32.278442%, 100%)" offset="0.308594"/><stop stop-opacity="1" stop-color="rgb(29.118347%, 32.156372%, 100%)" offset="0.3125"/><stop stop-opacity="1" stop-color="rgb(29.394531%, 32.032776%, 100%)" offset="0.316406"/><stop stop-opacity="1" stop-color="rgb(29.670715%, 31.910706%, 100%)" offset="0.320312"/><stop stop-opacity="1" stop-color="rgb(29.945374%, 31.788635%, 100%)" offset="0.324219"/><stop stop-opacity="1" stop-color="rgb(30.221558%, 31.666565%, 100%)" offset="0.328125"/><stop stop-opacity="1" stop-color="rgb(30.496216%, 31.542969%, 100%)" offset="0.332031"/><stop stop-opacity="1" stop-color="rgb(30.7724%, 31.420898%, 100%)" offset="0.335938"/><stop stop-opacity="1" stop-color="rgb(31.048584%, 31.297302%, 100%)" offset="0.339844"/><stop stop-opacity="1" stop-color="rgb(31.324768%, 31.175232%, 100%)" offset="0.34375"/><stop stop-opacity="1" stop-color="rgb(31.599426%, 31.053162%, 100%)" offset="0.347656"/><stop stop-opacity="1" stop-color="rgb(31.87561%, 30.931091%, 100%)" offset="0.351562"/><stop stop-opacity="1" stop-color="rgb(32.151794%, 30.807495%, 100%)" offset="0.355469"/><stop stop-opacity="1" stop-color="rgb(32.427979%, 30.685425%, 100%)" offset="0.359375"/><stop stop-opacity="1" stop-color="rgb(32.702637%, 30.563354%, 100%)" offset="0.363281"/><stop stop-opacity="1" stop-color="rgb(32.978821%, 30.441284%, 100%)" offset="0.367188"/><stop stop-opacity="1" stop-color="rgb(33.255005%, 30.317688%, 100%)" offset="0.371094"/><stop stop-opacity="1" stop-color="rgb(33.531189%, 30.195618%, 100%)" offset="0.375"/><stop stop-opacity="1" stop-color="rgb(33.805847%, 30.072021%, 100%)" offset="0.378906"/><stop stop-opacity="1" stop-color="rgb(34.082031%, 29.949951%, 100%)" offset="0.382812"/><stop stop-opacity="1" stop-color="rgb(34.356689%, 29.827881%, 100%)" offset="0.386719"/><stop stop-opacity="1" stop-color="rgb(34.632874%, 29.705811%, 100%)" offset="0.390625"/><stop stop-opacity="1" stop-color="rgb(34.909058%, 29.582214%, 100%)" offset="0.394531"/><stop stop-opacity="1" stop-color="rgb(35.185242%, 29.460144%, 100%)" offset="0.398438"/><stop stop-opacity="1" stop-color="rgb(35.4599%, 29.336548%, 100%)" offset="0.402344"/><stop stop-opacity="1" stop-color="rgb(35.736084%, 29.214478%, 100%)" offset="0.40625"/><stop stop-opacity="1" stop-color="rgb(36.012268%, 29.092407%, 100%)" offset="0.410156"/><stop stop-opacity="1" stop-color="rgb(36.288452%, 28.970337%, 100%)" offset="0.414062"/><stop stop-opacity="1" stop-color="rgb(36.56311%, 28.846741%, 100%)" offset="0.417969"/><stop stop-opacity="1" stop-color="rgb(36.839294%, 28.72467%, 100%)" offset="0.421875"/><stop stop-opacity="1" stop-color="rgb(37.113953%, 28.6026%, 100%)" offset="0.425781"/><stop stop-opacity="1" stop-color="rgb(37.390137%, 28.48053%, 100%)" offset="0.429688"/><stop stop-opacity="1" stop-color="rgb(37.666321%, 28.356934%, 100%)" offset="0.433594"/><stop stop-opacity="1" stop-color="rgb(37.942505%, 28.234863%, 100%)" offset="0.4375"/><stop stop-opacity="1" stop-color="rgb(38.217163%, 28.111267%, 100%)" offset="0.441406"/><stop stop-opacity="1" stop-color="rgb(38.493347%, 27.989197%, 100%)" offset="0.445312"/><stop stop-opacity="1" stop-color="rgb(38.769531%, 27.867126%, 100%)" offset="0.449219"/><stop stop-opacity="1" stop-color="rgb(39.045715%, 27.745056%, 100%)" offset="0.453125"/><stop stop-opacity="1" stop-color="rgb(39.320374%, 27.62146%, 100%)" offset="0.457031"/><stop stop-opacity="1" stop-color="rgb(39.596558%, 27.49939%, 100%)" offset="0.460938"/><stop stop-opacity="1" stop-color="rgb(39.872742%, 27.377319%, 100%)" offset="0.464844"/><stop stop-opacity="1" stop-color="rgb(40.148926%, 27.255249%, 100%)" offset="0.46875"/><stop stop-opacity="1" stop-color="rgb(40.423584%, 27.131653%, 100%)" offset="0.472656"/><stop stop-opacity="1" stop-color="rgb(40.699768%, 27.009583%, 100%)" offset="0.476562"/><stop stop-opacity="1" stop-color="rgb(40.974426%, 26.885986%, 100%)" offset="0.480469"/><stop stop-opacity="1" stop-color="rgb(41.25061%, 26.763916%, 100%)" offset="0.484375"/><stop stop-opacity="1" stop-color="rgb(41.526794%, 26.641846%, 100%)" offset="0.488281"/><stop stop-opacity="1" stop-color="rgb(41.802979%, 26.519775%, 100%)" offset="0.492188"/><stop stop-opacity="1" stop-color="rgb(42.077637%, 26.396179%, 100%)" offset="0.496094"/><stop stop-opacity="1" stop-color="rgb(42.353821%, 26.274109%, 100%)" offset="0.5"/><stop stop-opacity="1" stop-color="rgb(42.630005%, 26.150513%, 100%)" offset="0.503906"/><stop stop-opacity="1" stop-color="rgb(42.906189%, 26.028442%, 100%)" offset="0.507812"/><stop stop-opacity="1" stop-color="rgb(43.180847%, 25.906372%, 100%)" offset="0.511719"/><stop stop-opacity="1" stop-color="rgb(43.457031%, 25.784302%, 100%)" offset="0.515625"/><stop stop-opacity="1" stop-color="rgb(43.733215%, 25.660706%, 100%)" offset="0.519531"/><stop stop-opacity="1" stop-color="rgb(44.009399%, 25.538635%, 100%)" offset="0.523438"/><stop stop-opacity="1" stop-color="rgb(44.284058%, 25.416565%, 100%)" offset="0.527344"/><stop stop-opacity="1" stop-color="rgb(44.560242%, 25.294495%, 100%)" offset="0.53125"/><stop stop-opacity="1" stop-color="rgb(44.8349%, 25.170898%, 100%)" offset="0.535156"/><stop stop-opacity="1" stop-color="rgb(45.111084%, 25.048828%, 100%)" offset="0.539062"/><stop stop-opacity="1" stop-color="rgb(45.387268%, 24.925232%, 100%)" offset="0.542969"/><stop stop-opacity="1" stop-color="rgb(45.663452%, 24.803162%, 100%)" offset="0.546875"/><stop stop-opacity="1" stop-color="rgb(45.93811%, 24.681091%, 100%)" offset="0.550781"/><stop stop-opacity="1" stop-color="rgb(46.214294%, 24.559021%, 100%)" offset="0.554688"/><stop stop-opacity="1" stop-color="rgb(46.490479%, 24.435425%, 100%)" offset="0.558594"/><stop stop-opacity="1" stop-color="rgb(46.766663%, 24.313354%, 100%)" offset="0.5625"/><stop stop-opacity="1" stop-color="rgb(47.041321%, 24.191284%, 100%)" offset="0.566406"/><stop stop-opacity="1" stop-color="rgb(47.317505%, 24.069214%, 100%)" offset="0.570312"/><stop stop-opacity="1" stop-color="rgb(47.592163%, 23.945618%, 100%)" offset="0.574219"/><stop stop-opacity="1" stop-color="rgb(47.868347%, 23.823547%, 100%)" offset="0.578125"/><stop stop-opacity="1" stop-color="rgb(48.144531%, 23.699951%, 100%)" offset="0.582031"/><stop stop-opacity="1" stop-color="rgb(48.420715%, 23.577881%, 100%)" offset="0.585938"/><stop stop-opacity="1" stop-color="rgb(48.695374%, 23.455811%, 100%)" offset="0.589844"/><stop stop-opacity="1" stop-color="rgb(48.971558%, 23.33374%, 100%)" offset="0.59375"/><stop stop-opacity="1" stop-color="rgb(49.247742%, 23.210144%, 100%)" offset="0.597656"/><stop stop-opacity="1" stop-color="rgb(49.523926%, 23.088074%, 100%)" offset="0.601562"/><stop stop-opacity="1" stop-color="rgb(49.798584%, 22.964478%, 100%)" offset="0.605469"/><stop stop-opacity="1" stop-color="rgb(50.074768%, 22.842407%, 100%)" offset="0.609375"/><stop stop-opacity="1" stop-color="rgb(50.350952%, 22.720337%, 100%)" offset="0.613281"/><stop stop-opacity="1" stop-color="rgb(50.627136%, 22.598267%, 100%)" offset="0.617188"/><stop stop-opacity="1" stop-color="rgb(50.901794%, 22.47467%, 100%)" offset="0.621094"/><stop stop-opacity="1" stop-color="rgb(51.177979%, 22.3526%, 100%)" offset="0.625"/><stop stop-opacity="1" stop-color="rgb(51.452637%, 22.23053%, 100%)" offset="0.628906"/><stop stop-opacity="1" stop-color="rgb(51.728821%, 22.108459%, 100%)" offset="0.632812"/><stop stop-opacity="1" stop-color="rgb(52.005005%, 21.984863%, 100%)" offset="0.636719"/><stop stop-opacity="1" stop-color="rgb(52.281189%, 21.862793%, 100%)" offset="0.640625"/><stop stop-opacity="1" stop-color="rgb(52.555847%, 21.739197%, 100%)" offset="0.644531"/><stop stop-opacity="1" stop-color="rgb(52.832031%, 21.617126%, 100%)" offset="0.648438"/><stop stop-opacity="1" stop-color="rgb(53.108215%, 21.495056%, 100%)" offset="0.652344"/><stop stop-opacity="1" stop-color="rgb(53.384399%, 21.372986%, 100%)" offset="0.65625"/><stop stop-opacity="1" stop-color="rgb(53.659058%, 21.24939%, 100%)" offset="0.660156"/><stop stop-opacity="1" stop-color="rgb(53.935242%, 21.127319%, 100%)" offset="0.664062"/><stop stop-opacity="1" stop-color="rgb(54.211426%, 21.005249%, 100%)" offset="0.667969"/><stop stop-opacity="1" stop-color="rgb(54.48761%, 20.883179%, 100%)" offset="0.671875"/><stop stop-opacity="1" stop-color="rgb(54.762268%, 20.759583%, 100%)" offset="0.675781"/><stop stop-opacity="1" stop-color="rgb(55.038452%, 20.637512%, 100%)" offset="0.679688"/><stop stop-opacity="1" stop-color="rgb(55.31311%, 20.513916%, 100%)" offset="0.683594"/><stop stop-opacity="1" stop-color="rgb(55.589294%, 20.391846%, 100%)" offset="0.6875"/><stop stop-opacity="1" stop-color="rgb(55.865479%, 20.269775%, 100%)" offset="0.691406"/><stop stop-opacity="1" stop-color="rgb(56.141663%, 20.147705%, 100%)" offset="0.695312"/><stop stop-opacity="1" stop-color="rgb(56.416321%, 20.024109%, 100%)" offset="0.699219"/><stop stop-opacity="1" stop-color="rgb(56.692505%, 19.902039%, 100%)" offset="0.703125"/><stop stop-opacity="1" stop-color="rgb(56.968689%, 19.778442%, 100%)" offset="0.707031"/><stop stop-opacity="1" stop-color="rgb(57.244873%, 19.656372%, 100%)" offset="0.710938"/><stop stop-opacity="1" stop-color="rgb(57.519531%, 19.534302%, 100%)" offset="0.714844"/><stop stop-opacity="1" stop-color="rgb(57.795715%, 19.412231%, 100%)" offset="0.71875"/><stop stop-opacity="1" stop-color="rgb(58.070374%, 19.288635%, 100%)" offset="0.722656"/><stop stop-opacity="1" stop-color="rgb(58.346558%, 19.166565%, 100%)" offset="0.726562"/><stop stop-opacity="1" stop-color="rgb(58.622742%, 19.044495%, 100%)" offset="0.730469"/><stop stop-opacity="1" stop-color="rgb(58.898926%, 18.922424%, 100%)" offset="0.734375"/><stop stop-opacity="1" stop-color="rgb(59.173584%, 18.798828%, 100%)" offset="0.738281"/><stop stop-opacity="1" stop-color="rgb(59.449768%, 18.676758%, 100%)" offset="0.742188"/><stop stop-opacity="1" stop-color="rgb(59.725952%, 18.553162%, 100%)" offset="0.746094"/><stop stop-opacity="1" stop-color="rgb(60.002136%, 18.431091%, 100%)" offset="0.75"/><stop stop-opacity="1" stop-color="rgb(60.276794%, 18.309021%, 100%)" offset="0.753906"/><stop stop-opacity="1" stop-color="rgb(60.552979%, 18.186951%, 100%)" offset="0.757812"/><stop stop-opacity="1" stop-color="rgb(60.829163%, 18.063354%, 100%)" offset="0.761719"/><stop stop-opacity="1" stop-color="rgb(61.105347%, 17.941284%, 100%)" offset="0.765625"/><stop stop-opacity="1" stop-color="rgb(61.380005%, 17.819214%, 100%)" offset="0.769531"/><stop stop-opacity="1" stop-color="rgb(61.656189%, 17.697144%, 100%)" offset="0.773438"/><stop stop-opacity="1" stop-color="rgb(61.930847%, 17.573547%, 100%)" offset="0.777344"/><stop stop-opacity="1" stop-color="rgb(62.207031%, 17.451477%, 100%)" offset="0.78125"/><stop stop-opacity="1" stop-color="rgb(62.483215%, 17.327881%, 100%)" offset="0.785156"/><stop stop-opacity="1" stop-color="rgb(62.759399%, 17.205811%, 100%)" offset="0.789062"/><stop stop-opacity="1" stop-color="rgb(63.034058%, 17.08374%, 100%)" offset="0.792969"/><stop stop-opacity="1" stop-color="rgb(63.310242%, 16.96167%, 100%)" offset="0.796875"/><stop stop-opacity="1" stop-color="rgb(63.586426%, 16.838074%, 100%)" offset="0.800781"/><stop stop-opacity="1" stop-color="rgb(63.86261%, 16.716003%, 100%)" offset="0.804688"/><stop stop-opacity="1" stop-color="rgb(64.137268%, 16.593933%, 100%)" offset="0.808594"/><stop stop-opacity="1" stop-color="rgb(64.413452%, 16.471863%, 100%)" offset="0.8125"/><stop stop-opacity="1" stop-color="rgb(64.689636%, 16.348267%, 100%)" offset="0.816406"/><stop stop-opacity="1" stop-color="rgb(64.96582%, 16.226196%, 100%)" offset="0.820312"/><stop stop-opacity="1" stop-color="rgb(65.240479%, 16.1026%, 100%)" offset="0.824219"/><stop stop-opacity="1" stop-color="rgb(65.516663%, 15.98053%, 100%)" offset="0.828125"/><stop stop-opacity="1" stop-color="rgb(65.791321%, 15.858459%, 100%)" offset="0.832031"/><stop stop-opacity="1" stop-color="rgb(66.067505%, 15.736389%, 100%)" offset="0.835938"/><stop stop-opacity="1" stop-color="rgb(66.343689%, 15.612793%, 100%)" offset="0.839844"/><stop stop-opacity="1" stop-color="rgb(66.619873%, 15.490723%, 100%)" offset="0.84375"/><stop stop-opacity="1" stop-color="rgb(66.894531%, 15.367126%, 100%)" offset="0.847656"/><stop stop-opacity="1" stop-color="rgb(67.170715%, 15.245056%, 100%)" offset="0.851562"/><stop stop-opacity="1" stop-color="rgb(67.446899%, 15.122986%, 100%)" offset="0.855469"/><stop stop-opacity="1" stop-color="rgb(67.723083%, 15.000916%, 100%)" offset="0.859375"/><stop stop-opacity="1" stop-color="rgb(67.997742%, 14.877319%, 100%)" offset="0.863281"/><stop stop-opacity="1" stop-color="rgb(68.273926%, 14.755249%, 100%)" offset="0.867188"/><stop stop-opacity="1" stop-color="rgb(68.548584%, 14.633179%, 100%)" offset="0.871094"/><stop stop-opacity="1" stop-color="rgb(68.824768%, 14.511108%, 100%)" offset="0.875"/><stop stop-opacity="1" stop-color="rgb(69.100952%, 14.387512%, 100%)" offset="0.878906"/><stop stop-opacity="1" stop-color="rgb(69.377136%, 14.265442%, 100%)" offset="0.882812"/><stop stop-opacity="1" stop-color="rgb(69.651794%, 14.141846%, 100%)" offset="0.886719"/><stop stop-opacity="1" stop-color="rgb(69.927979%, 14.019775%, 100%)" offset="0.890625"/><stop stop-opacity="1" stop-color="rgb(70.204163%, 13.897705%, 100%)" offset="0.894531"/><stop stop-opacity="1" stop-color="rgb(70.480347%, 13.775635%, 100%)" offset="0.898438"/><stop stop-opacity="1" stop-color="rgb(70.755005%, 13.652039%, 100%)" offset="0.902344"/><stop stop-opacity="1" stop-color="rgb(71.031189%, 13.529968%, 100%)" offset="0.90625"/><stop stop-opacity="1" stop-color="rgb(71.307373%, 13.407898%, 100%)" offset="0.910156"/><stop stop-opacity="1" stop-color="rgb(71.583557%, 13.285828%, 100%)" offset="0.914062"/><stop stop-opacity="1" stop-color="rgb(71.858215%, 13.162231%, 100%)" offset="0.917969"/><stop stop-opacity="1" stop-color="rgb(72.134399%, 13.040161%, 100%)" offset="0.921875"/><stop stop-opacity="1" stop-color="rgb(72.409058%, 12.916565%, 100%)" offset="0.925781"/><stop stop-opacity="1" stop-color="rgb(72.685242%, 12.794495%, 100%)" offset="0.929688"/><stop stop-opacity="1" stop-color="rgb(72.961426%, 12.672424%, 100%)" offset="0.933594"/><stop stop-opacity="1" stop-color="rgb(73.23761%, 12.550354%, 100%)" offset="0.9375"/><stop stop-opacity="1" stop-color="rgb(73.512268%, 12.426758%, 100%)" offset="0.941406"/><stop stop-opacity="1" stop-color="rgb(73.788452%, 12.304688%, 100%)" offset="0.945312"/><stop stop-opacity="1" stop-color="rgb(74.064636%, 12.181091%, 100%)" offset="0.949219"/><stop stop-opacity="1" stop-color="rgb(74.34082%, 12.059021%, 100%)" offset="0.953125"/><stop stop-opacity="1" stop-color="rgb(74.615479%, 11.936951%, 100%)" offset="0.957031"/><stop stop-opacity="1" stop-color="rgb(74.891663%, 11.81488%, 100%)" offset="0.960938"/><stop stop-opacity="1" stop-color="rgb(75.167847%, 11.691284%, 100%)" offset="0.964844"/><stop stop-opacity="1" stop-color="rgb(75.444031%, 11.569214%, 100%)" offset="0.96875"/><stop stop-opacity="1" stop-color="rgb(75.718689%, 11.447144%, 100%)" offset="0.972656"/><stop stop-opacity="1" stop-color="rgb(75.994873%, 11.325073%, 100%)" offset="0.976562"/><stop stop-opacity="1" stop-color="rgb(76.269531%, 11.201477%, 100%)" offset="0.980469"/><stop stop-opacity="1" stop-color="rgb(76.545715%, 11.079407%, 100%)" offset="0.984375"/><stop stop-opacity="1" stop-color="rgb(76.821899%, 10.955811%, 100%)" offset="0.988281"/><stop stop-opacity="1" stop-color="rgb(77.098083%, 10.83374%, 100%)" offset="0.992188"/><stop stop-opacity="1" stop-color="rgb(77.372742%, 10.71167%, 100%)" offset="0.996094"/><stop stop-opacity="1" stop-color="rgb(77.648926%, 10.5896%, 100%)" offset="1"/></linearGradient></defs><g clip-path="url(#b1197ad58d)"><rect x="-81" fill="url(#6ebb12cca0)" width="972" y="-80.999999" height="971.999992"/></g><path fill="#ffffff" d="M 442.460938 284.511719 L 173.8125 284.511719 C 158.289062 284.511719 145.800781 271.855469 145.800781 256.5 L 145.800781 216 C 145.800781 200.476562 158.289062 187.988281 173.8125 187.988281 L 442.460938 187.988281 C 457.988281 187.988281 470.476562 200.476562 470.476562 216 L 470.476562 256.5 C 470.476562 271.855469 457.988281 284.511719 442.460938 284.511719 Z M 173.8125 200.136719 C 165.039062 200.136719 157.949219 207.226562 157.949219 216 L 157.949219 256.5 C 157.949219 265.273438 165.039062 272.363281 173.8125 272.363281 L 442.460938 272.363281 C 451.238281 272.363281 458.324219 265.273438 458.324219 256.5 L 458.324219 216 C 458.324219 207.226562 451.238281 200.136719 442.460938 200.136719 C 442.460938 200.136719 173.8125 200.136719 173.8125 200.136719 Z M 173.8125 200.136719 " fill-opacity="1" fill-rule="nonzero"/><path fill="#ffffff" d="M 464.398438 219.542969 L 151.875 219.542969 C 148.5 219.542969 145.800781 216.84375 145.800781 213.46875 C 145.800781 210.09375 148.5 207.394531 151.875 207.394531 L 464.398438 207.394531 C 467.773438 207.394531 470.476562 210.09375 470.476562 213.46875 C 470.476562 216.84375 467.773438 219.542969 464.398438 219.542969 Z M 464.398438 219.542969 " fill-opacity="1" fill-rule="nonzero"/><path fill="#ffffff" d="M 464.398438 237.601562 L 151.875 237.601562 C 148.5 237.601562 145.800781 234.898438 145.800781 231.523438 C 145.800781 228.148438 148.5 225.449219 151.875 225.449219 L 464.398438 225.449219 C 467.773438 225.449219 470.476562 228.148438 470.476562 231.523438 C 470.476562 234.730469 467.773438 237.601562 464.398438 237.601562 Z M 464.398438 237.601562 " fill-opacity="1" fill-rule="nonzero"/><path fill="#ffffff" d="M 383.90625 311.007812 L 232.367188 311.007812 C 228.992188 311.007812 226.292969 308.304688 226.292969 304.929688 L 226.292969 278.4375 C 226.292969 275.0625 228.992188 272.363281 232.367188 272.363281 L 383.90625 272.363281 C 387.28125 272.363281 389.980469 275.0625 389.980469 278.4375 L 389.980469 304.929688 C 389.980469 308.304688 387.449219 311.007812 383.90625 311.007812 Z M 238.445312 298.855469 L 377.832031 298.855469 L 377.832031 284.511719 L 238.445312 284.511719 Z M 238.445312 298.855469 " fill-opacity="1" fill-rule="nonzero"/><path fill="#ffffff" d="M 308.8125 365.679688 L 307.632812 365.679688 C 280.292969 365.679688 258.019531 343.40625 258.019531 316.070312 L 258.019531 304.929688 C 258.019531 301.554688 260.71875 298.855469 264.09375 298.855469 L 352.351562 298.855469 C 355.726562 298.855469 358.425781 301.554688 358.425781 304.929688 L 358.425781 316.070312 C 358.425781 343.40625 336.148438 365.679688 308.8125 365.679688 Z M 270.167969 311.007812 L 270.167969 316.070312 C 270.167969 336.65625 287.042969 353.53125 307.632812 353.53125 L 308.8125 353.53125 C 329.398438 353.53125 346.273438 336.65625 346.273438 316.070312 L 346.273438 311.007812 Z M 270.167969 311.007812 " fill-opacity="1" fill-rule="nonzero"/><path fill="#ffffff" d="M 308.136719 622.011719 C 292.105469 622.011719 278.945312 609.019531 278.945312 592.820312 L 278.945312 353.195312 C 278.945312 349.820312 281.644531 347.117188 285.019531 347.117188 C 288.394531 347.117188 291.09375 349.820312 291.09375 353.195312 L 291.09375 592.988281 C 291.09375 602.269531 298.6875 610.03125 308.136719 610.03125 C 317.585938 610.03125 325.179688 602.4375 325.179688 592.988281 L 325.179688 353.195312 C 325.179688 349.820312 327.882812 347.117188 331.257812 347.117188 C 334.632812 347.117188 337.332031 349.820312 337.332031 353.195312 L 337.332031 592.988281 C 337.332031 609.019531 324.167969 622.011719 308.136719 622.011719 Z M 308.136719 622.011719 " fill-opacity="1" fill-rule="nonzero"/><path fill="#ffffff" d="M 331.257812 403.988281 C 330.582031 403.988281 329.90625 403.820312 329.230469 403.648438 L 283.164062 387.617188 C 279.957031 386.4375 278.269531 383.0625 279.449219 379.855469 C 280.632812 376.648438 284.007812 374.960938 287.210938 376.144531 L 333.28125 392.175781 C 336.488281 393.355469 338.175781 396.730469 336.992188 399.9375 C 335.980469 402.300781 333.789062 403.988281 331.257812 403.988281 Z M 331.257812 403.988281 " fill-opacity="1" fill-rule="nonzero"/><path fill="#ffffff" d="M 331.257812 444.65625 C 330.582031 444.65625 329.90625 444.488281 329.230469 444.320312 L 283.164062 428.289062 C 279.957031 427.105469 278.269531 423.730469 279.449219 420.523438 C 280.632812 417.320312 284.007812 415.632812 287.210938 416.8125 L 333.28125 432.84375 C 336.488281 434.023438 338.175781 437.398438 336.992188 440.605469 C 335.980469 442.96875 333.789062 444.65625 331.257812 444.65625 Z M 331.257812 444.65625 " fill-opacity="1" fill-rule="nonzero"/><path fill="#ffffff" d="M 331.257812 485.15625 C 330.582031 485.15625 329.90625 484.988281 329.230469 484.820312 L 283.164062 468.789062 C 279.957031 467.605469 278.269531 464.230469 279.449219 461.023438 C 280.632812 457.820312 284.007812 456.132812 287.210938 457.3125 L 333.28125 473.34375 C 336.488281 474.523438 338.175781 477.898438 336.992188 481.105469 C 335.980469 483.636719 333.789062 485.15625 331.257812 485.15625 Z M 331.257812 485.15625 " fill-opacity="1" fill-rule="nonzero"/><path fill="#ffffff" d="M 331.257812 525.824219 C 330.582031 525.824219 329.90625 525.65625 329.230469 525.488281 L 283.164062 509.457031 C 279.957031 508.273438 278.269531 504.898438 279.449219 501.695312 C 280.632812 498.488281 284.007812 496.800781 287.210938 497.980469 L 333.28125 514.011719 C 336.488281 515.195312 338.175781 518.570312 336.992188 521.773438 C 335.980469 524.304688 333.789062 525.824219 331.257812 525.824219 Z M 331.257812 525.824219 " fill-opacity="1" fill-rule="nonzero"/><path fill="#ffffff" d="M 331.257812 566.492188 C 330.582031 566.492188 329.90625 566.324219 329.230469 566.15625 L 283.164062 550.125 C 279.957031 548.945312 278.269531 545.570312 279.449219 542.363281 C 280.632812 539.15625 284.007812 537.46875 287.210938 538.648438 L 333.28125 554.679688 C 336.488281 555.863281 338.175781 559.238281 336.992188 562.445312 C 335.980469 564.976562 333.789062 566.492188 331.257812 566.492188 Z M 331.257812 566.492188 " fill-opacity="1" fill-rule="nonzero"/><path fill="#ffffff" d="M 459.335938 606.65625 C 455.960938 606.65625 453.261719 603.957031 453.261719 600.582031 C 453.261719 597.207031 455.960938 594.507812 459.335938 594.507812 C 462.710938 594.507812 465.414062 597.207031 465.414062 600.582031 C 465.414062 603.789062 462.542969 606.65625 459.335938 606.65625 Z M 459.335938 606.65625 " fill-opacity="1" fill-rule="nonzero"/><path fill="#ffffff" d="M 380.53125 454.445312 C 377.492188 454.445312 374.792969 452.082031 374.457031 449.042969 C 372.09375 426.261719 382.050781 409.386719 387.449219 401.960938 C 377.832031 387.28125 382.554688 371.925781 386.773438 365.34375 C 387.789062 363.65625 389.476562 362.644531 391.5 362.476562 C 393.355469 362.304688 395.210938 363.148438 396.394531 364.5 C 396.730469 364.835938 399.429688 367.199219 403.820312 367.199219 C 409.726562 366.863281 416.644531 362.304688 423.730469 353.699219 C 423.898438 353.363281 424.238281 353.195312 424.574219 352.855469 C 425.417969 352.179688 443.8125 336.824219 469.800781 327.207031 C 505.070312 314.210938 536.960938 318.09375 562.445312 338.851562 C 562.613281 339.019531 562.613281 339.019531 562.78125 339.1875 C 563.457031 339.863281 578.980469 354.542969 581.34375 371.25 C 582.1875 377.664062 581.175781 383.570312 578.304688 388.800781 C 573.242188 397.914062 562.949219 403.480469 551.304688 403.3125 C 544.386719 403.144531 537.300781 402.132812 530.382812 399.769531 C 527.175781 398.757812 525.488281 395.382812 526.5 392.175781 C 527.511719 388.96875 530.886719 387.28125 534.09375 388.292969 C 540 390.148438 545.90625 391.164062 551.476562 391.164062 L 551.644531 391.164062 C 558.5625 391.164062 564.976562 387.789062 567.84375 382.726562 C 569.53125 379.855469 570.039062 376.648438 569.53125 372.9375 C 567.84375 361.125 556.199219 349.3125 554.679688 347.960938 C 503.71875 306.617188 438.582031 357.242188 433.011719 361.800781 C 423.5625 373.273438 413.945312 379.179688 404.324219 379.351562 C 400.613281 379.519531 397.574219 378.675781 395.042969 377.664062 C 393.695312 382.726562 393.355469 390.488281 400.105469 398.25 C 402.132812 400.613281 401.960938 404.15625 399.9375 406.351562 C 399.769531 406.519531 384.414062 423.394531 386.945312 447.863281 C 387.28125 451.238281 384.917969 454.105469 381.542969 454.613281 C 380.867188 454.445312 380.699219 454.445312 380.53125 454.445312 Z M 380.53125 454.445312 " fill-opacity="1" fill-rule="nonzero"/><path fill="#ffffff" d="M 625.554688 453.261719 C 622.179688 453.09375 619.480469 450.394531 619.480469 447.019531 C 619.648438 439.59375 618.976562 433.6875 618.976562 433.6875 C 618.804688 432.335938 619.144531 430.988281 619.820312 429.804688 C 621.507812 427.105469 622.855469 422.550781 623.53125 416.980469 C 624.710938 406.351562 620.832031 396.054688 612.898438 388.460938 C 597.710938 374.117188 576.617188 377.832031 576.28125 377.832031 C 573.074219 378.507812 569.867188 376.144531 569.195312 372.9375 C 568.519531 369.5625 570.710938 366.523438 574.085938 365.851562 C 575.269531 365.679688 601.425781 360.957031 621.167969 379.519531 C 631.800781 389.476562 637.03125 403.648438 635.511719 418.164062 C 634.835938 424.742188 633.320312 430.144531 631.125 434.195312 C 631.292969 436.726562 631.632812 441.449219 631.460938 447.1875 C 631.460938 450.5625 628.929688 453.261719 625.554688 453.261719 Z M 625.554688 453.261719 " fill-opacity="1" fill-rule="nonzero"/><path fill="#ffffff" d="M 505.914062 622.011719 C 498.824219 622.011719 491.0625 620.664062 482.792969 618.132812 C 473.175781 615.261719 464.230469 610.875 455.960938 605.476562 C 455.792969 605.304688 455.792969 605.304688 455.625 605.304688 C 437.570312 593.324219 424.238281 575.945312 417.992188 556.367188 C 413.605469 542.53125 410.0625 528.355469 408.039062 518.738281 C 407.699219 517.21875 407.363281 515.699219 407.023438 514.351562 L 406.855469 513.507812 C 405.675781 507.9375 404.492188 503.382812 403.144531 499.164062 C 398.925781 485.832031 399.09375 469.125 403.480469 449.382812 C 409.050781 424.742188 419.34375 403.988281 419.851562 403.144531 C 420.695312 401.457031 422.210938 400.273438 423.898438 399.9375 C 425.757812 399.601562 427.613281 399.9375 428.960938 401.117188 C 451.40625 418.5 480.9375 403.820312 482.960938 402.804688 C 501.523438 391.5 529.875 387.957031 531.226562 387.957031 C 534.601562 387.617188 537.636719 389.980469 537.976562 393.1875 C 538.3125 396.394531 535.949219 399.601562 532.742188 399.9375 C 532.40625 399.9375 505.574219 403.3125 489.375 413.269531 C 489.207031 413.269531 489.207031 413.4375 489.039062 413.4375 C 488.023438 413.945312 473.175781 421.875 454.949219 421.875 C 446.34375 421.875 437.0625 420.1875 427.949219 414.957031 C 424.574219 422.71875 419.007812 436.726562 415.460938 452.082031 C 411.582031 469.800781 411.242188 484.3125 414.789062 495.617188 C 416.136719 500.175781 417.488281 505.070312 418.667969 510.976562 L 418.835938 511.820312 C 419.175781 513.167969 419.511719 514.519531 419.679688 516.039062 C 421.875 525.320312 425.082031 539.15625 429.46875 552.65625 C 434.867188 569.699219 446.511719 584.886719 462.542969 595.351562 C 462.710938 595.519531 462.710938 595.519531 462.710938 595.519531 C 469.96875 600.242188 477.730469 603.957031 486.167969 606.488281 C 494.4375 609.019531 502.03125 610.199219 508.445312 609.695312 C 514.179688 609.355469 519.917969 608.34375 525.65625 606.824219 C 533.757812 604.632812 541.519531 601.425781 548.4375 597.207031 C 563.792969 587.925781 575.605469 573.917969 581.511719 558.054688 C 586.742188 544.050781 590.792969 530.382812 593.324219 517.386719 C 596.023438 504.226562 597.207031 491.398438 597.039062 479.585938 C 596.363281 430.648438 572.0625 408.882812 571.726562 408.710938 C 570.542969 407.867188 569.867188 406.519531 569.699219 405 L 566.832031 386.4375 C 566.324219 383.0625 568.519531 380.023438 571.894531 379.519531 C 575.269531 379.011719 578.304688 381.207031 578.8125 384.582031 L 581.511719 401.117188 C 587.757812 407.363281 608.679688 431.832031 609.355469 479.417969 C 609.523438 492.242188 608.175781 505.742188 605.476562 519.75 C 602.773438 533.25 598.726562 547.761719 593.15625 562.273438 C 586.238281 580.835938 572.738281 596.867188 555.019531 607.667969 C 547.085938 612.5625 538.3125 616.273438 529.03125 618.636719 C 522.617188 620.324219 516.039062 621.507812 509.457031 621.84375 C 508.273438 622.011719 507.09375 622.011719 505.914062 622.011719 Z M 505.914062 622.011719 " fill-opacity="1" fill-rule="nonzero"/><path fill="#ffffff" d="M 603.28125 485.664062 L 603.113281 479.585938 L 603.113281 473.511719 L 603.28125 473.511719 C 606.65625 473.511719 609.355469 476.210938 609.523438 479.417969 C 609.523438 482.792969 606.824219 485.492188 603.617188 485.664062 Z M 603.28125 485.664062 " fill-opacity="1" fill-rule="nonzero"/><path fill="#ffffff" d="M 392.175781 530.210938 C 367.539062 530.210938 347.289062 510.132812 347.289062 485.324219 C 347.289062 465.75 359.773438 448.539062 378.675781 442.632812 C 383.0625 441.28125 387.617188 440.4375 392.175781 440.4375 C 399.09375 440.4375 406.179688 442.125 412.257812 445.164062 C 415.292969 446.679688 416.476562 450.394531 414.957031 453.429688 C 413.4375 456.46875 409.726562 457.648438 406.6875 456.132812 C 402.132812 453.769531 397.238281 452.757812 392.007812 452.757812 C 388.632812 452.757812 385.257812 453.261719 382.21875 454.273438 C 368.550781 458.664062 359.269531 471.148438 359.269531 485.492188 C 359.269531 503.550781 373.949219 518.230469 392.007812 518.230469 C 398.585938 518.230469 405 516.375 410.398438 512.492188 C 413.101562 510.636719 416.980469 511.3125 418.835938 514.179688 C 420.695312 516.882812 420.019531 520.761719 417.148438 522.617188 C 409.894531 527.679688 401.289062 530.210938 392.175781 530.210938 Z M 392.175781 530.210938 " fill-opacity="1" fill-rule="nonzero"/><path fill="#ffffff" d="M 619.3125 530.210938 C 611.042969 530.210938 603.113281 528.019531 596.195312 523.800781 C 593.324219 522.113281 592.480469 518.398438 594.167969 515.53125 C 595.855469 512.664062 599.570312 511.820312 602.4375 513.507812 C 607.5 516.542969 613.238281 518.230469 619.3125 518.230469 C 637.367188 518.230469 652.050781 503.550781 652.050781 485.492188 C 652.050781 469.292969 640.574219 455.792969 624.542969 453.261719 C 622.855469 452.925781 621 452.925781 619.3125 452.925781 C 613.574219 452.925781 608.007812 454.445312 603.113281 457.144531 C 600.242188 458.832031 596.53125 457.820312 594.84375 454.949219 C 593.15625 452.082031 594.167969 448.367188 597.039062 446.679688 C 603.789062 442.800781 611.382812 440.773438 619.3125 440.773438 C 621.675781 440.773438 624.039062 440.945312 626.398438 441.449219 C 648.335938 444.824219 664.199219 463.554688 664.199219 485.664062 C 664.199219 510.132812 644.117188 530.210938 619.3125 530.210938 Z M 619.3125 530.210938 " fill-opacity="1" fill-rule="nonzero"/></svg>