<svg xmlns="http://www.w3.org/2000/svg" xmlns:xlink="http://www.w3.org/1999/xlink" width="1080" zoomAndPan="magnify" viewBox="0 0 810 809.999993" height="1080" preserveAspectRatio="xMidYMid meet" version="1.0"><defs><clipPath id="71ff3df2ab"><path d="M 1 265.273438 L 809 265.273438 L 809 541 L 1 541 Z M 1 265.273438 " clip-rule="nonzero"/></clipPath></defs><g clip-path="url(#71ff3df2ab)"><path fill="#000000" d="M 802.117188 345.761719 C 795.480469 350.449219 786.992188 360.121094 785.824219 379.65625 C 786.113281 388.054688 785.824219 396.457031 785.335938 404.660156 C 780.75 476.945312 765.332031 522.558594 634.585938 538.578125 C 628.828125 539.261719 623.171875 539.652344 617.707031 539.945312 C 477.886719 545.023438 425.78125 411.402344 437.199219 346.347656 C 437.296875 346.152344 437.199219 345.957031 437.296875 345.859375 C 429.394531 343.027344 419.34375 340.78125 406.953125 340.78125 C 397 340.78125 385.679688 342.246094 372.996094 346.054688 C 372.996094 346.152344 372.996094 346.347656 372.996094 346.445312 C 384.316406 411.304688 332.308594 544.925781 192.292969 539.75 C 186.828125 539.554688 181.171875 539.066406 175.414062 538.382812 C 44.667969 522.460938 29.347656 476.847656 24.664062 404.464844 C 24.082031 396.261719 23.886719 387.859375 24.175781 379.460938 C 23.105469 359.925781 14.519531 350.253906 7.882812 345.566406 C 3.199219 342.246094 0.664062 336.578125 1.054688 330.816406 C 1.832031 320.367188 2.710938 309.914062 3.492188 299.460938 C 4.175781 291.355469 10.617188 284.8125 18.714844 284.125 C 18.8125 284.125 18.910156 284.125 19.007812 284.125 C 65.742188 280.21875 111.308594 269.476562 157.753906 266.640625 C 175.804688 265.46875 193.953125 265.273438 212.101562 265.957031 C 240.6875 267.03125 269.179688 270.550781 297.085938 276.800781 C 305.085938 278.65625 312.792969 281.097656 320.113281 284.125 C 320.113281 284.125 357.09375 289.5 407.925781 289.5 C 432.515625 289.5 460.421875 288.230469 488.8125 284.515625 C 496.328125 281.292969 504.328125 278.753906 512.621094 276.898438 C 540.527344 270.550781 569.019531 267.132812 597.605469 266.054688 C 615.753906 265.371094 633.902344 265.566406 651.953125 266.738281 C 698.59375 269.671875 744.160156 280.414062 790.894531 284.320312 C 790.992188 284.320312 791.089844 284.320312 791.1875 284.320312 C 799.289062 285.007812 805.824219 291.453125 806.410156 299.65625 C 807.191406 310.109375 808.070312 320.5625 808.847656 331.011719 C 809.335938 336.773438 806.800781 342.441406 802.117188 345.761719 Z M 802.117188 345.761719 " fill-opacity="1" fill-rule="nonzero"/></g><path fill="#ffffff" d="M 148.777344 508.199219 C 31.886719 488.664062 58.035156 354.457031 58.035156 354.457031 C 64.671875 473.914062 148.777344 508.199219 148.777344 508.199219 Z M 486.765625 349.570312 C 486.765625 349.570312 460.519531 483.78125 577.507812 503.316406 C 577.507812 503.316406 493.496094 469.03125 486.765625 349.570312 Z M 486.765625 349.570312 " fill-opacity="1" fill-rule="nonzero"/></svg>