<svg xmlns="http://www.w3.org/2000/svg" xmlns:xlink="http://www.w3.org/1999/xlink" width="1080" zoomAndPan="magnify" viewBox="0 0 810 809.999993" height="1080" preserveAspectRatio="xMidYMid meet" version="1.0"><defs><clipPath id="0cf2b0e770"><path d="M 796.105469 300.183594 C 738.226562 84.210938 516.273438 -43.984375 300.183594 13.894531 C 84.210938 71.773438 -43.984375 293.84375 13.894531 509.816406 C 71.773438 725.789062 293.84375 853.984375 509.816406 796.105469 C 725.789062 738.226562 853.984375 516.273438 796.105469 300.183594 Z M 796.105469 300.183594 " clip-rule="evenodd"/></clipPath><linearGradient x1="7392.981828" gradientTransform="matrix(0.119585, 0, 0, 0.119585, 0.0239206, 0.02394)" y1="5699.702355" x2="-620.040449" gradientUnits="userSpaceOnUse" y2="1073.399157" id="3e1ded6d91"><stop stop-opacity="1" stop-color="rgb(73.728943%, 59.999084%, 98.429871%)" offset="0"/><stop stop-opacity="1" stop-color="rgb(73.728943%, 59.999084%, 98.429871%)" offset="0.125"/><stop stop-opacity="1" stop-color="rgb(73.779297%, 60.050964%, 98.376465%)" offset="0.132812"/><stop stop-opacity="1" stop-color="rgb(73.968506%, 60.244751%, 98.175049%)" offset="0.140625"/><stop stop-opacity="1" stop-color="rgb(74.246216%, 60.53009%, 97.88208%)" offset="0.148437"/><stop stop-opacity="1" stop-color="rgb(74.5224%, 60.816956%, 97.587585%)" offset="0.15625"/><stop stop-opacity="1" stop-color="rgb(74.80011%, 61.102295%, 97.293091%)" offset="0.164062"/><stop stop-opacity="1" stop-color="rgb(75.07782%, 61.387634%, 97.000122%)" offset="0.171875"/><stop stop-opacity="1" stop-color="rgb(75.35553%, 61.672974%, 96.705627%)" offset="0.179687"/><stop stop-opacity="1" stop-color="rgb(75.631714%, 61.959839%, 96.411133%)" offset="0.1875"/><stop stop-opacity="1" stop-color="rgb(75.909424%, 62.245178%, 96.118164%)" offset="0.195312"/><stop stop-opacity="1" stop-color="rgb(76.187134%, 62.530518%, 95.823669%)" offset="0.203125"/><stop stop-opacity="1" stop-color="rgb(76.464844%, 62.815857%, 95.530701%)" offset="0.210938"/><stop stop-opacity="1" stop-color="rgb(76.741028%, 63.101196%, 95.236206%)" offset="0.21875"/><stop stop-opacity="1" stop-color="rgb(77.018738%, 63.388062%, 94.941711%)" offset="0.226562"/><stop stop-opacity="1" stop-color="rgb(77.296448%, 63.673401%, 94.648743%)" offset="0.234375"/><stop stop-opacity="1" stop-color="rgb(77.574158%, 63.95874%, 94.354248%)" offset="0.242187"/><stop stop-opacity="1" stop-color="rgb(77.851868%, 64.24408%, 94.059753%)" offset="0.25"/><stop stop-opacity="1" stop-color="rgb(78.128052%, 64.530945%, 93.766785%)" offset="0.257812"/><stop stop-opacity="1" stop-color="rgb(78.405762%, 64.816284%, 93.47229%)" offset="0.265625"/><stop stop-opacity="1" stop-color="rgb(78.683472%, 65.101624%, 93.179321%)" offset="0.273438"/><stop stop-opacity="1" stop-color="rgb(78.961182%, 65.386963%, 92.884827%)" offset="0.28125"/><stop stop-opacity="1" stop-color="rgb(79.237366%, 65.673828%, 92.590332%)" offset="0.289062"/><stop stop-opacity="1" stop-color="rgb(79.515076%, 65.959167%, 92.297363%)" offset="0.296875"/><stop stop-opacity="1" stop-color="rgb(79.792786%, 66.244507%, 92.002869%)" offset="0.304687"/><stop stop-opacity="1" stop-color="rgb(80.070496%, 66.529846%, 91.708374%)" offset="0.3125"/><stop stop-opacity="1" stop-color="rgb(80.34668%, 66.815186%, 91.415405%)" offset="0.320312"/><stop stop-opacity="1" stop-color="rgb(80.62439%, 67.102051%, 91.120911%)" offset="0.328125"/><stop stop-opacity="1" stop-color="rgb(80.9021%, 67.38739%, 90.827942%)" offset="0.335937"/><stop stop-opacity="1" stop-color="rgb(81.17981%, 67.672729%, 90.533447%)" offset="0.34375"/><stop stop-opacity="1" stop-color="rgb(81.455994%, 67.958069%, 90.238953%)" offset="0.351562"/><stop stop-opacity="1" stop-color="rgb(81.733704%, 68.244934%, 89.945984%)" offset="0.359375"/><stop stop-opacity="1" stop-color="rgb(82.011414%, 68.530273%, 89.651489%)" offset="0.366025"/><stop stop-opacity="1" stop-color="rgb(82.150269%, 68.673706%, 89.505005%)" offset="0.367188"/><stop stop-opacity="1" stop-color="rgb(82.289124%, 68.815613%, 89.356995%)" offset="0.375"/><stop stop-opacity="1" stop-color="rgb(82.565308%, 69.100952%, 89.064026%)" offset="0.382812"/><stop stop-opacity="1" stop-color="rgb(82.843018%, 69.386292%, 88.769531%)" offset="0.390625"/><stop stop-opacity="1" stop-color="rgb(83.120728%, 69.673157%, 88.476562%)" offset="0.398438"/><stop stop-opacity="1" stop-color="rgb(83.398438%, 69.958496%, 88.182068%)" offset="0.40625"/><stop stop-opacity="1" stop-color="rgb(83.676147%, 70.243835%, 87.887573%)" offset="0.414062"/><stop stop-opacity="1" stop-color="rgb(83.952332%, 70.529175%, 87.594604%)" offset="0.421875"/><stop stop-opacity="1" stop-color="rgb(84.230042%, 70.81604%, 87.30011%)" offset="0.429687"/><stop stop-opacity="1" stop-color="rgb(84.507751%, 71.101379%, 87.005615%)" offset="0.4375"/><stop stop-opacity="1" stop-color="rgb(84.785461%, 71.386719%, 86.712646%)" offset="0.445312"/><stop stop-opacity="1" stop-color="rgb(85.061646%, 71.672058%, 86.418152%)" offset="0.453125"/><stop stop-opacity="1" stop-color="rgb(85.339355%, 71.958923%, 86.125183%)" offset="0.460938"/><stop stop-opacity="1" stop-color="rgb(85.617065%, 72.244263%, 85.830688%)" offset="0.46875"/><stop stop-opacity="1" stop-color="rgb(85.894775%, 72.529602%, 85.536194%)" offset="0.476562"/><stop stop-opacity="1" stop-color="rgb(86.170959%, 72.814941%, 85.243225%)" offset="0.484375"/><stop stop-opacity="1" stop-color="rgb(86.448669%, 73.100281%, 84.94873%)" offset="0.492188"/><stop stop-opacity="1" stop-color="rgb(86.726379%, 73.387146%, 84.654236%)" offset="0.5"/><stop stop-opacity="1" stop-color="rgb(87.004089%, 73.672485%, 84.361267%)" offset="0.507813"/><stop stop-opacity="1" stop-color="rgb(87.280273%, 73.957825%, 84.066772%)" offset="0.515625"/><stop stop-opacity="1" stop-color="rgb(87.557983%, 74.243164%, 83.773804%)" offset="0.523438"/><stop stop-opacity="1" stop-color="rgb(87.835693%, 74.530029%, 83.479309%)" offset="0.53125"/><stop stop-opacity="1" stop-color="rgb(88.113403%, 74.815369%, 83.184814%)" offset="0.539062"/><stop stop-opacity="1" stop-color="rgb(88.389587%, 75.100708%, 82.891846%)" offset="0.546875"/><stop stop-opacity="1" stop-color="rgb(88.667297%, 75.386047%, 82.597351%)" offset="0.554688"/><stop stop-opacity="1" stop-color="rgb(88.945007%, 75.672913%, 82.302856%)" offset="0.5625"/><stop stop-opacity="1" stop-color="rgb(89.222717%, 75.958252%, 82.009888%)" offset="0.570312"/><stop stop-opacity="1" stop-color="rgb(89.500427%, 76.243591%, 81.715393%)" offset="0.578125"/><stop stop-opacity="1" stop-color="rgb(89.776611%, 76.528931%, 81.422424%)" offset="0.585937"/><stop stop-opacity="1" stop-color="rgb(90.054321%, 76.81427%, 81.12793%)" offset="0.59375"/><stop stop-opacity="1" stop-color="rgb(90.332031%, 77.101135%, 80.833435%)" offset="0.601563"/><stop stop-opacity="1" stop-color="rgb(90.609741%, 77.386475%, 80.540466%)" offset="0.609375"/><stop stop-opacity="1" stop-color="rgb(90.885925%, 77.671814%, 80.245972%)" offset="0.617188"/><stop stop-opacity="1" stop-color="rgb(91.163635%, 77.957153%, 79.951477%)" offset="0.625"/><stop stop-opacity="1" stop-color="rgb(91.441345%, 78.244019%, 79.658508%)" offset="0.632812"/><stop stop-opacity="1" stop-color="rgb(91.719055%, 78.529358%, 79.364014%)" offset="0.633975"/><stop stop-opacity="1" stop-color="rgb(91.85791%, 78.672791%, 79.217529%)" offset="0.640625"/><stop stop-opacity="1" stop-color="rgb(91.995239%, 78.814697%, 79.071045%)" offset="0.648438"/><stop stop-opacity="1" stop-color="rgb(92.272949%, 79.100037%, 78.77655%)" offset="0.65625"/><stop stop-opacity="1" stop-color="rgb(92.550659%, 79.385376%, 78.482056%)" offset="0.664062"/><stop stop-opacity="1" stop-color="rgb(92.828369%, 79.672241%, 78.189087%)" offset="0.671875"/><stop stop-opacity="1" stop-color="rgb(93.104553%, 79.957581%, 77.894592%)" offset="0.679687"/><stop stop-opacity="1" stop-color="rgb(93.382263%, 80.24292%, 77.600098%)" offset="0.6875"/><stop stop-opacity="1" stop-color="rgb(93.659973%, 80.528259%, 77.307129%)" offset="0.695313"/><stop stop-opacity="1" stop-color="rgb(93.937683%, 80.815125%, 77.012634%)" offset="0.703125"/><stop stop-opacity="1" stop-color="rgb(94.213867%, 81.100464%, 76.719666%)" offset="0.710938"/><stop stop-opacity="1" stop-color="rgb(94.491577%, 81.385803%, 76.425171%)" offset="0.71875"/><stop stop-opacity="1" stop-color="rgb(94.769287%, 81.671143%, 76.130676%)" offset="0.726562"/><stop stop-opacity="1" stop-color="rgb(95.046997%, 81.958008%, 75.837708%)" offset="0.734375"/><stop stop-opacity="1" stop-color="rgb(95.324707%, 82.243347%, 75.543213%)" offset="0.742188"/><stop stop-opacity="1" stop-color="rgb(95.600891%, 82.528687%, 75.248718%)" offset="0.75"/><stop stop-opacity="1" stop-color="rgb(95.878601%, 82.814026%, 74.95575%)" offset="0.757812"/><stop stop-opacity="1" stop-color="rgb(96.156311%, 83.099365%, 74.661255%)" offset="0.765625"/><stop stop-opacity="1" stop-color="rgb(96.434021%, 83.38623%, 74.368286%)" offset="0.773437"/><stop stop-opacity="1" stop-color="rgb(96.710205%, 83.67157%, 74.073792%)" offset="0.78125"/><stop stop-opacity="1" stop-color="rgb(96.987915%, 83.956909%, 73.779297%)" offset="0.789062"/><stop stop-opacity="1" stop-color="rgb(97.265625%, 84.242249%, 73.486328%)" offset="0.796875"/><stop stop-opacity="1" stop-color="rgb(97.543335%, 84.529114%, 73.191833%)" offset="0.804688"/><stop stop-opacity="1" stop-color="rgb(97.819519%, 84.814453%, 72.897339%)" offset="0.8125"/><stop stop-opacity="1" stop-color="rgb(98.097229%, 85.099792%, 72.60437%)" offset="0.820312"/><stop stop-opacity="1" stop-color="rgb(98.374939%, 85.385132%, 72.309875%)" offset="0.828125"/><stop stop-opacity="1" stop-color="rgb(98.652649%, 85.671997%, 72.016907%)" offset="0.835938"/><stop stop-opacity="1" stop-color="rgb(98.928833%, 85.957336%, 71.722412%)" offset="0.84375"/><stop stop-opacity="1" stop-color="rgb(99.206543%, 86.242676%, 71.427917%)" offset="0.851563"/><stop stop-opacity="1" stop-color="rgb(99.484253%, 86.528015%, 71.134949%)" offset="0.859375"/><stop stop-opacity="1" stop-color="rgb(99.761963%, 86.813354%, 70.840454%)" offset="0.867188"/><stop stop-opacity="1" stop-color="rgb(99.949646%, 87.007141%, 70.640564%)" offset="0.875"/><stop stop-opacity="1" stop-color="rgb(100%, 87.059021%, 70.588684%)" offset="1"/></linearGradient></defs><g clip-path="url(#0cf2b0e770)"><rect x="-81" fill="url(#3e1ded6d91)" width="972" y="-80.999999" height="971.999992"/></g><path fill="#fefefe" d="M 379.46875 414.984375 L 556.453125 414.984375 C 567.457031 414.984375 576.304688 406.136719 576.304688 395.253906 C 576.304688 384.25 567.457031 375.402344 556.453125 375.402344 L 391.546875 375.402344 C 389.632812 375.402344 387.960938 374.566406 386.644531 373.128906 L 197.9375 152.855469 C 194.109375 148.429688 188.609375 145.917969 182.75 145.917969 C 178.085938 145.917969 173.542969 147.59375 169.953125 150.703125 C 161.582031 157.875 160.628906 170.3125 167.800781 178.683594 L 364.402344 408.050781 C 368.347656 412.714844 373.488281 414.984375 379.46875 414.984375 Z M 379.46875 414.984375 " fill-opacity="1" fill-rule="evenodd"/><path fill="#fefefe" d="M 556.453125 427.78125 L 379.46875 427.78125 C 379.230469 427.78125 379.109375 427.78125 378.871094 427.78125 L 370.738281 427.78125 C 355.3125 427.78125 342.875 440.335938 342.875 455.644531 L 342.875 483.507812 L 604.050781 483.507812 L 604.050781 455.644531 C 604.050781 440.335938 591.492188 427.78125 576.1875 427.78125 L 556.933594 427.78125 C 556.8125 427.78125 556.695312 427.78125 556.453125 427.78125 Z M 556.453125 427.78125 " fill-opacity="1" fill-rule="evenodd"/><path fill="#fefefe" d="M 524.765625 598.667969 C 518.785156 598.667969 513.285156 600.460938 508.621094 603.929688 C 506.945312 605.125 504.914062 605.484375 502.878906 604.886719 C 500.96875 604.289062 499.414062 602.855469 498.816406 600.941406 C 494.988281 590.296875 484.703125 583.121094 473.460938 583.121094 L 471.191406 583.242188 C 468.558594 583.363281 465.929688 581.925781 464.851562 579.414062 C 460.546875 569.488281 450.859375 563.152344 440.097656 563.152344 C 429.457031 563.152344 419.769531 569.371094 415.464844 579.054688 C 414.746094 580.730469 413.3125 581.925781 411.636719 582.523438 C 409.960938 583.121094 408.050781 582.882812 406.496094 582.046875 C 399.558594 578.101562 390.710938 577.621094 383.296875 580.609375 C 380.1875 581.925781 376.71875 580.609375 375.164062 577.742188 C 373.847656 575.230469 372.171875 572.957031 370.261719 571.042969 C 370.140625 570.925781 370.019531 570.6875 369.902344 570.566406 C 364.878906 565.902344 358.300781 563.152344 351.246094 563.152344 C 336.417969 563.152344 324.339844 575.230469 324.339844 590.058594 C 324.339844 594.125 325.175781 597.949219 326.851562 601.539062 C 327.6875 603.332031 327.6875 605.484375 326.730469 607.277344 C 325.894531 609.074219 324.101562 610.269531 322.1875 610.628906 C 309.273438 612.78125 299.824219 624.019531 299.824219 637.175781 C 299.824219 652.003906 311.902344 664.082031 326.730469 664.082031 C 375.164062 664.082031 423.714844 663.960938 472.507812 663.84375 C 521.535156 663.722656 570.804688 663.601562 620.074219 663.601562 C 634.902344 663.601562 646.980469 651.523438 646.980469 636.695312 C 646.980469 624.859375 639.445312 614.574219 628.207031 610.984375 C 624.976562 610.027344 623.183594 606.679688 624.019531 603.332031 C 624.5 601.179688 624.738281 598.90625 624.738281 596.753906 C 624.738281 581.808594 612.660156 569.730469 597.832031 569.730469 C 593.765625 569.730469 589.9375 570.6875 586.351562 572.359375 C 583.601562 573.675781 580.492188 572.957031 578.578125 570.6875 C 573.4375 564.46875 565.902344 560.878906 557.890625 560.878906 C 543.0625 560.878906 530.984375 572.957031 530.984375 587.785156 C 530.984375 589.101562 530.984375 590.296875 531.222656 591.375 C 531.460938 593.289062 530.863281 595.082031 529.546875 596.515625 C 528.351562 597.832031 526.679688 598.667969 524.765625 598.667969 Z M 478.246094 642.316406 C 477.289062 642.914062 476.09375 643.273438 475.015625 643.273438 C 472.863281 643.273438 470.710938 642.078125 469.515625 640.046875 C 467.722656 636.9375 468.796875 633.109375 471.90625 631.316406 C 474.898438 629.523438 477.167969 626.652344 478.125 623.183594 C 479.082031 619.714844 478.605469 616.007812 476.8125 612.898438 C 475.015625 609.910156 472.027344 607.636719 468.558594 606.679688 C 465.089844 605.722656 461.503906 606.203125 458.394531 607.996094 C 452.058594 611.703125 449.785156 619.953125 453.492188 626.414062 C 455.285156 629.402344 454.210938 633.347656 451.21875 635.140625 C 448.109375 636.816406 444.164062 635.859375 442.488281 632.75 C 438.902344 626.769531 438.066406 619.597656 439.859375 612.898438 C 441.652344 606.082031 445.957031 600.460938 452.058594 596.996094 C 458.15625 593.527344 465.210938 592.570312 471.90625 594.363281 C 478.722656 596.15625 484.34375 600.460938 487.8125 606.5625 C 491.402344 612.660156 492.238281 619.714844 490.445312 626.414062 C 488.648438 633.230469 484.34375 638.847656 478.246094 642.316406 Z M 379.109375 635.140625 C 378.152344 635.738281 377.078125 635.980469 376 635.980469 C 373.726562 635.980469 371.574219 634.785156 370.378906 632.75 C 368.707031 629.761719 369.664062 625.816406 372.773438 624.019531 C 375.882812 622.226562 378.152344 619.355469 378.988281 615.890625 C 379.945312 612.421875 379.46875 608.832031 377.675781 605.722656 C 373.96875 599.265625 365.714844 597.113281 359.378906 600.820312 C 352.921875 604.527344 350.769531 612.660156 354.476562 619.117188 C 356.148438 622.226562 355.191406 626.054688 352.082031 627.847656 C 349.09375 629.640625 345.148438 628.566406 343.355469 625.574219 C 336.179688 613.019531 340.484375 596.996094 352.921875 589.699219 C 365.476562 582.523438 381.5 586.828125 388.796875 599.265625 C 392.265625 605.367188 393.222656 612.421875 391.425781 619.238281 C 389.515625 625.933594 385.207031 631.554688 379.109375 635.140625 Z M 570.328125 632.988281 C 555.855469 632.988281 544.136719 621.269531 544.136719 606.800781 C 544.136719 592.332031 555.855469 580.609375 570.328125 580.609375 C 584.796875 580.609375 596.515625 592.332031 596.515625 606.800781 C 596.515625 610.269531 593.644531 613.136719 590.179688 613.136719 C 586.589844 613.136719 583.71875 610.269531 583.71875 606.800781 C 583.71875 599.386719 577.742188 593.40625 570.328125 593.40625 C 562.914062 593.40625 556.933594 599.386719 556.933594 606.800781 C 556.933594 614.214844 562.914062 620.195312 570.328125 620.195312 C 573.914062 620.195312 576.785156 623.0625 576.785156 626.652344 C 576.785156 630.121094 573.914062 632.988281 570.328125 632.988281 Z M 570.328125 632.988281 " fill-opacity="1" fill-rule="evenodd"/><path fill="#fefefe" d="M 507.542969 589.699219 C 510.414062 588.265625 513.402344 587.308594 516.511719 586.710938 L 516.511719 535.527344 C 516.511719 532.058594 519.382812 529.191406 522.972656 529.191406 C 526.4375 529.191406 529.308594 532.058594 529.308594 535.527344 L 529.308594 560.28125 C 536.484375 552.746094 546.648438 548.082031 557.890625 548.082031 C 559.804688 548.082031 561.835938 548.203125 563.75 548.5625 L 562.316406 536.363281 L 562.195312 535.527344 C 562.195312 532.417969 564.585938 529.667969 567.816406 529.191406 C 571.285156 528.832031 574.511719 531.34375 574.992188 534.808594 L 577.144531 553.105469 C 580.132812 554.660156 582.765625 556.695312 585.273438 559.085938 C 589.339844 557.652344 593.527344 556.933594 597.832031 556.933594 C 603.453125 556.933594 608.832031 558.128906 613.617188 560.28125 L 604.886719 496.304688 L 342.039062 496.304688 L 334.027344 554.183594 C 339.289062 551.671875 345.027344 550.355469 351.246094 550.355469 C 357.703125 550.355469 363.921875 551.910156 369.542969 554.78125 L 371.933594 534.808594 C 372.292969 531.34375 375.523438 528.832031 378.988281 529.191406 C 382.21875 529.667969 384.609375 532.417969 384.609375 535.527344 L 384.609375 536.363281 L 381.261719 563.988281 C 382.097656 565.066406 382.9375 566.023438 383.652344 567.097656 C 391.308594 565.183594 399.558594 565.542969 406.855469 568.175781 C 409.722656 563.871094 413.429688 560.28125 417.617188 557.292969 L 417.617188 535.527344 C 417.617188 532.058594 420.484375 529.191406 423.953125 529.191406 C 427.421875 529.191406 430.292969 532.058594 430.292969 535.527344 L 430.292969 551.550781 C 433.519531 550.714844 436.75 550.355469 440.097656 550.355469 C 450.261719 550.355469 459.828125 554.183594 467.003906 560.878906 L 467.003906 535.527344 C 467.003906 532.058594 469.875 529.191406 473.460938 529.191406 C 476.929688 529.191406 479.800781 532.058594 479.800781 535.527344 L 479.800781 570.804688 C 491.402344 572.71875 501.566406 579.65625 507.542969 589.699219 Z M 507.542969 589.699219 " fill-opacity="1" fill-rule="evenodd"/></svg>