<svg xmlns="http://www.w3.org/2000/svg" xmlns:xlink="http://www.w3.org/1999/xlink" width="1080" zoomAndPan="magnify" viewBox="0 0 810 809.999993" height="1080" preserveAspectRatio="xMidYMid meet" version="1.0"><path fill="#934a29" d="M 375.617188 247.660156 C 385.582031 247.480469 393.917969 255.265625 394.28125 265.40625 L 394.460938 271.5625 C 394.640625 281.519531 386.851562 289.847656 376.707031 290.210938 C 366.742188 290.390625 358.40625 282.605469 358.042969 272.464844 L 357.863281 266.308594 C 357.683594 256.351562 365.472656 248.023438 375.617188 247.660156 Z M 375.617188 247.660156 " fill-opacity="1" fill-rule="nonzero"/><path fill="#934a29" d="M 376.160156 291.113281 C 371.269531 291.113281 366.558594 289.304688 363.117188 285.863281 C 359.492188 282.425781 357.320312 277.71875 357.136719 272.464844 L 356.957031 266.308594 C 356.777344 261.242188 358.769531 256.351562 362.210938 252.730469 C 365.652344 249.109375 370.363281 246.9375 375.617188 246.757812 C 386.125 246.574219 394.824219 254.902344 395.183594 265.40625 L 395.367188 271.5625 C 395.546875 282.0625 387.214844 290.753906 376.707031 291.113281 C 376.523438 291.113281 376.34375 291.113281 376.160156 291.113281 Z M 375.617188 248.566406 C 371.089844 248.746094 366.742188 250.558594 363.480469 254 C 360.21875 257.257812 358.585938 261.785156 358.769531 266.308594 L 358.949219 272.464844 C 359.132812 276.992188 360.941406 281.339844 364.386719 284.597656 C 367.644531 287.855469 372.175781 289.484375 376.707031 289.304688 C 386.125 289.125 393.734375 281.15625 393.554688 271.5625 L 393.375 265.40625 C 393.011719 255.988281 385.039062 248.386719 375.617188 248.566406 Z M 375.617188 248.566406 " fill-opacity="1" fill-rule="nonzero"/><path fill="#df8234" d="M 387.03125 289.847656 C 387.03125 289.847656 364.203125 289.847656 364.203125 289.847656 C 362.753906 308.496094 361.304688 327.144531 359.855469 345.792969 C 358.40625 364.988281 358.042969 383.636719 353.878906 402.464844 C 351.703125 412.421875 349.890625 422.5625 348.984375 432.703125 C 347.171875 451.351562 345 482.128906 364.023438 493.355469 C 368.734375 496.253906 374.351562 497.15625 379.785156 496.796875 C 406.78125 495.527344 413.664062 472.351562 412.214844 447.730469 C 411.128906 427.8125 404.425781 408.441406 401.527344 388.703125 C 399.714844 376.574219 397.902344 364.625 396.089844 352.492188 C 393.011719 331.671875 389.929688 310.851562 386.851562 289.847656 C 387.03125 289.847656 387.03125 289.847656 387.03125 289.847656 Z M 387.03125 289.847656 " fill-opacity="1" fill-rule="nonzero"/><path fill="#df8234" d="M 378.15625 497.703125 C 372.539062 497.703125 367.828125 496.433594 363.660156 494.078125 C 343.1875 481.949219 346.628906 447.367188 348.078125 432.519531 C 348.984375 422.925781 350.796875 412.605469 352.972656 402.101562 C 356.230469 387.617188 357.136719 373.496094 358.042969 358.46875 C 358.40625 354.121094 358.585938 349.777344 358.949219 345.433594 L 363.296875 288.582031 L 387.757812 288.582031 L 387.9375 289.304688 L 387.03125 289.484375 L 387.9375 289.484375 L 398.988281 364.261719 C 400.257812 372.230469 401.34375 380.375 402.613281 388.34375 C 403.882812 396.128906 405.511719 403.914062 407.324219 411.519531 C 410.042969 423.105469 412.757812 435.238281 413.304688 447.367188 C 414.207031 465.292969 410.765625 479.050781 403.15625 487.382812 C 397.539062 493.535156 389.75 496.976562 379.964844 497.339844 C 379.242188 497.703125 378.699219 497.703125 378.15625 497.703125 Z M 365.109375 290.570312 L 360.941406 345.613281 C 360.582031 349.957031 360.398438 354.304688 360.035156 358.648438 C 359.132812 372.953125 358.226562 387.980469 354.964844 402.464844 C 352.609375 412.964844 350.976562 423.105469 350.074219 432.703125 C 348.621094 447.1875 345.179688 480.863281 364.746094 492.449219 C 368.914062 494.984375 374.167969 496.070312 379.964844 495.710938 C 389.207031 495.347656 396.632812 492.089844 401.890625 486.292969 C 409.136719 478.328125 412.578125 464.929688 411.671875 447.546875 C 411.128906 435.597656 408.230469 423.648438 405.695312 412.0625 C 403.882812 404.457031 402.070312 396.492188 400.984375 388.703125 C 399.714844 380.738281 398.628906 372.589844 397.359375 364.625 L 386.488281 290.570312 Z M 365.109375 290.570312 " fill-opacity="1" fill-rule="nonzero"/><path fill="#2c475a" d="M 363.839844 251.28125 C 362.574219 251.28125 361.488281 250.378906 361.125 249.109375 C 360.941406 248.386719 348.078125 181.394531 319.996094 144.277344 C 290.828125 105.710938 293.726562 70.226562 293.90625 68.777344 C 296.261719 43.066406 318.546875 3.957031 369.457031 2.328125 C 418.738281 0.699219 439.210938 45.421875 439.390625 45.78125 C 439.390625 45.78125 439.390625 45.964844 439.390625 45.964844 C 454.609375 89.054688 434.863281 121.828125 419.101562 148.082031 L 416.925781 151.703125 C 401.34375 177.773438 390.113281 247.660156 390.113281 248.386719 C 389.929688 249.835938 388.480469 250.921875 387.03125 250.558594 C 385.582031 250.378906 384.496094 248.929688 384.859375 247.480469 C 385.402344 244.582031 396.273438 175.78125 412.398438 148.804688 L 414.570312 145.183594 C 429.789062 119.835938 448.8125 88.332031 434.5 47.773438 C 433.230469 45.058594 414.753906 6.132812 369.820312 7.578125 C 322.351562 9.210938 301.699219 45.238281 299.523438 69.140625 C 299.523438 69.5 296.625 104.082031 324.527344 140.835938 C 353.515625 179.039062 366.195312 245.125 366.742188 248.023438 C 367.101562 249.472656 366.015625 250.921875 364.566406 251.28125 C 364.203125 251.28125 364.023438 251.28125 363.839844 251.28125 Z M 363.839844 251.28125 " fill-opacity="1" fill-rule="nonzero"/><path fill="#2c475a" d="M 366.921875 250.738281 C 365.652344 250.738281 364.386719 249.835938 364.203125 248.386719 C 364.023438 247.84375 353.695312 184.472656 324.890625 109.878906 C 294.996094 32.566406 367.644531 2.691406 368.371094 2.328125 C 368.914062 2.148438 369.640625 2.148438 370.363281 2.328125 C 402.070312 14.097656 419.644531 36.730469 422.542969 69.320312 C 424.535156 91.953125 419.644531 119.109375 407.503906 152.425781 C 389.929688 200.40625 382.503906 247.660156 382.503906 248.203125 C 382.320312 249.652344 380.871094 250.738281 379.421875 250.558594 C 377.972656 250.378906 376.886719 248.929688 377.066406 247.480469 C 377.066406 246.9375 384.496094 199.320312 402.433594 150.613281 C 430.515625 74.027344 419.824219 27.316406 369.457031 7.941406 C 360.941406 11.746094 303.511719 39.808594 329.960938 108.066406 C 358.949219 183.207031 369.457031 246.9375 369.640625 247.660156 C 369.820312 249.109375 368.914062 250.558594 367.464844 250.738281 C 367.285156 250.558594 367.101562 250.738281 366.921875 250.738281 Z M 366.921875 250.738281 " fill-opacity="1" fill-rule="nonzero"/><path fill="#2c475a" d="M 375.257812 250.378906 C 373.988281 250.378906 372.902344 249.472656 372.539062 248.203125 C 330.144531 60.8125 365.652344 5.589844 367.285156 3.234375 C 367.828125 2.511719 368.550781 2.148438 369.277344 1.96875 C 370.183594 1.96875 370.90625 2.148438 371.453125 2.871094 C 416.5625 50.308594 379.421875 240.058594 377.972656 248.023438 C 377.609375 249.472656 376.523438 250.378906 375.257812 250.378906 Z M 370 9.753906 C 363.660156 23.511719 342.824219 83.625 374.894531 233.902344 C 382.503906 190.265625 402.976562 51.9375 370 9.753906 Z M 370 9.753906 " fill-opacity="1" fill-rule="nonzero"/><path fill="#2c475a" d="M 316.011719 316.28125 L 308.765625 281.519531 C 308.765625 281.519531 302.605469 267.398438 313.476562 260.15625 C 324.34375 253.09375 341.917969 242.410156 346.269531 233.175781 C 350.433594 223.941406 353.152344 224.304688 352.425781 202.214844 C 351.882812 180.128906 343.550781 113.316406 326.882812 89.054688 C 310.394531 64.792969 273.976562 63.164062 241.910156 71.855469 C 209.839844 80.546875 174.148438 98.652344 180.492188 139.933594 C 186.832031 181.214844 204.40625 248.746094 226.871094 260.699219 C 226.871094 260.699219 239.191406 267.757812 254.230469 268.121094 C 269.085938 268.484375 279.777344 271.5625 283.035156 282.785156 L 293.90625 321.714844 Z M 316.011719 316.28125 " fill-opacity="1" fill-rule="nonzero"/><path fill="#2c475a" d="M 293.183594 322.800781 L 282.132812 283.148438 C 279.414062 273.550781 271.261719 269.570312 254.230469 269.207031 C 239.191406 268.84375 227.054688 261.964844 226.511719 261.601562 C 202.230469 248.746094 185.382812 176.507812 179.765625 140.113281 C 174.695312 106.617188 195.527344 83.441406 241.910156 70.949219 C 281.042969 60.449219 313.113281 66.964844 327.789062 88.511719 C 344.457031 112.957031 352.789062 179.765625 353.332031 202.214844 C 353.878906 220.503906 352.066406 223.582031 349.167969 229.375 C 348.621094 230.640625 347.898438 231.910156 346.992188 233.539062 C 343.007812 242.046875 328.148438 251.644531 317.28125 258.707031 C 316.191406 259.429688 315.105469 260.15625 314.019531 260.878906 C 303.871094 267.578125 309.488281 280.433594 309.671875 280.976562 L 309.671875 281.15625 L 317.097656 316.644531 Z M 276.152344 67.871094 C 265.824219 67.871094 254.410156 69.5 242.273438 72.761719 C 196.976562 84.890625 176.503906 107.523438 181.398438 139.933594 C 187.917969 181.9375 205.492188 248.386719 227.234375 260.15625 C 227.414062 260.15625 239.554688 267.214844 254.230469 267.398438 C 266.730469 267.578125 280.136719 269.75 283.941406 282.605469 L 294.449219 320.628906 L 314.925781 315.738281 L 307.859375 282.0625 C 307.316406 280.792969 301.878906 266.851562 312.929688 259.792969 C 314.019531 259.066406 315.105469 258.34375 316.191406 257.621094 C 326.882812 250.738281 341.558594 241.144531 345.363281 233.175781 C 346.085938 231.546875 346.8125 230.097656 347.535156 228.832031 C 350.433594 223.398438 352.066406 220.320312 351.523438 202.578125 C 350.976562 180.308594 342.644531 113.859375 326.15625 89.78125 C 316.375 75.296875 298.617188 67.871094 276.152344 67.871094 Z M 276.152344 67.871094 " fill-opacity="1" fill-rule="nonzero"/><path fill="#ffffff" d="M 319.273438 219.417969 C 319.273438 219.417969 322.171875 227.925781 331.953125 222.132812 C 341.738281 216.339844 340.289062 190.628906 334.128906 160.574219 C 327.96875 130.335938 319.632812 97.382812 308.21875 94.304688 C 296.804688 91.226562 295.902344 93.402344 294.632812 97.566406 Z M 319.273438 219.417969 " fill-opacity="1" fill-rule="nonzero"/><path fill="#ffffff" d="M 325.792969 225.03125 C 324.890625 225.03125 323.984375 224.847656 323.078125 224.484375 C 319.632812 223.21875 318.367188 219.777344 318.367188 219.597656 L 318.367188 219.417969 L 293.90625 97.382812 L 293.90625 97.203125 C 295.355469 92.132812 297.167969 90.140625 308.582031 93.402344 C 320.539062 96.660156 328.695312 129.070312 335.035156 160.390625 C 342.464844 196.601562 341.558594 217.605469 332.5 223.039062 C 329.960938 224.304688 327.789062 225.03125 325.792969 225.03125 Z M 319.996094 219.054688 C 320.179688 219.417969 321.265625 221.953125 323.621094 222.855469 C 325.792969 223.582031 328.332031 223.039062 331.410156 221.410156 C 339.5625 216.699219 340.289062 195.15625 333.222656 160.753906 C 329.78125 143.734375 320.539062 98.46875 308.039062 95.03125 C 297.53125 92.132812 296.804688 93.945312 295.71875 97.382812 Z M 319.996094 219.054688 " fill-opacity="1" fill-rule="nonzero"/><path fill="#ffffff" d="M 215.457031 119.835938 C 215.097656 119.109375 214.914062 118.566406 214.371094 118.023438 C 211.472656 114.402344 205.492188 115.128906 202.230469 118.207031 C 198.972656 121.285156 197.703125 126.171875 197.339844 130.699219 C 196.433594 139.027344 197.523438 147.355469 198.972656 155.503906 C 201.328125 168.539062 205.132812 181.214844 208.753906 193.886719 C 212.558594 206.921875 216.546875 219.960938 223.066406 231.910156 C 226.691406 238.425781 232.308594 245.125 239.734375 245.308594 C 242.996094 245.488281 247.890625 243.679688 248.070312 239.875 C 248.25 237.882812 246.621094 234.625 246.078125 232.453125 C 245.351562 229.554688 244.628906 226.839844 243.722656 223.941406 C 240.824219 213.078125 237.742188 202.035156 234.84375 191.171875 C 228.867188 169.265625 223.066406 147.355469 217.089844 125.449219 C 216.90625 124.542969 216.546875 123.636719 216.363281 122.730469 C 216.183594 121.828125 215.820312 120.742188 215.457031 119.835938 Z M 215.457031 119.835938 " fill-opacity="1" fill-rule="nonzero"/><path fill="#ffffff" d="M 240.097656 246.214844 C 239.917969 246.214844 239.734375 246.214844 239.734375 246.214844 C 233.214844 245.851562 227.414062 241.324219 222.34375 232.273438 C 215.640625 220.140625 211.652344 206.921875 207.847656 194.070312 C 204.226562 181.574219 200.421875 168.902344 197.882812 155.503906 C 196.617188 148.625 195.347656 139.570312 196.253906 130.519531 C 196.796875 124.363281 198.609375 120.199219 201.507812 117.480469 C 203.5 115.488281 206.582031 114.402344 209.480469 114.585938 C 211.835938 114.765625 213.828125 115.671875 215.097656 117.300781 C 215.640625 117.84375 216 118.566406 216.363281 119.292969 C 216.90625 120.378906 217.089844 121.464844 217.449219 122.371094 L 246.984375 231.910156 C 247.164062 232.632812 247.527344 233.359375 247.707031 234.082031 C 248.433594 235.894531 249.15625 237.882812 248.976562 239.515625 C 248.792969 244.039062 243.902344 246.214844 240.097656 246.214844 Z M 208.753906 116.394531 C 206.582031 116.394531 204.226562 117.300781 202.777344 118.75 C 200.238281 121.285156 198.609375 125.085938 198.066406 130.699219 C 197.160156 139.570312 198.425781 148.441406 199.695312 155.140625 C 202.050781 168.359375 205.855469 181.03125 209.480469 193.527344 C 213.285156 206.199219 217.089844 219.417969 223.792969 231.367188 C 228.503906 239.695312 233.757812 244.222656 239.734375 244.402344 C 242.632812 244.582031 246.984375 242.773438 247.164062 239.695312 C 247.164062 238.425781 246.621094 236.617188 245.894531 234.988281 C 245.535156 234.082031 245.351562 233.359375 245.171875 232.632812 L 215.640625 123.09375 C 215.457031 122.1875 215.097656 121.101562 214.734375 120.199219 C 214.371094 119.472656 214.191406 119.109375 213.828125 118.566406 C 212.558594 116.9375 210.746094 116.578125 209.480469 116.394531 C 209.117188 116.394531 208.9375 116.394531 208.753906 116.394531 Z M 208.753906 116.394531 " fill-opacity="1" fill-rule="nonzero"/><path fill="#ffffff" d="M 290.644531 231.003906 C 291.191406 232.089844 291.914062 232.996094 293 233.71875 C 296.625 236.253906 301.878906 233.902344 304.234375 230.28125 C 306.589844 226.476562 306.589844 221.953125 306.226562 217.605469 C 305.140625 202.214844 300.972656 187.007812 297.710938 171.796875 C 294.269531 156.226562 291.007812 140.835938 287.566406 125.265625 C 285.753906 116.578125 283.761719 107.703125 278.871094 100.28125 C 276.878906 97.023438 274.160156 94.125 270.71875 92.496094 C 267.816406 91.046875 263.652344 91.046875 261.660156 93.761719 C 260.753906 95.03125 260.390625 96.660156 260.207031 98.109375 C 259.484375 104.808594 261.113281 111.507812 262.746094 118.023438 C 271.441406 154.054688 280.136719 189.90625 288.835938 225.933594 C 289.378906 227.5625 289.742188 229.375 290.644531 231.003906 Z M 290.644531 231.003906 " fill-opacity="1" fill-rule="nonzero"/><path fill="#ffffff" d="M 296.445312 235.53125 C 294.996094 235.53125 293.546875 235.167969 292.457031 234.261719 C 291.371094 233.539062 290.464844 232.632812 289.921875 231.367188 C 289.015625 229.738281 288.472656 227.746094 288.109375 225.933594 L 262.019531 118.023438 C 260.390625 111.507812 258.757812 104.808594 259.484375 97.925781 C 259.664062 96.296875 260.027344 94.488281 261.113281 93.039062 C 263.46875 90.140625 267.816406 89.960938 271.261719 91.589844 C 274.523438 93.039062 277.238281 95.753906 279.777344 99.558594 C 284.667969 107.34375 286.839844 116.578125 288.652344 124.90625 L 298.800781 171.4375 C 299.523438 174.695312 300.25 177.953125 300.972656 181.214844 C 303.691406 192.980469 306.410156 205.113281 307.316406 217.425781 C 307.675781 221.953125 307.675781 226.839844 305.140625 230.640625 C 303.691406 232.996094 301.15625 234.804688 298.4375 235.351562 C 297.710938 235.53125 297.167969 235.53125 296.445312 235.53125 Z M 291.550781 230.640625 C 292.097656 231.726562 292.820312 232.453125 293.546875 232.996094 C 295.175781 234.082031 296.804688 233.902344 297.894531 233.71875 C 300.066406 233.175781 302.242188 231.726562 303.328125 229.738281 C 305.503906 226.296875 305.503906 221.769531 305.140625 217.605469 C 304.234375 205.476562 301.515625 193.34375 298.800781 181.757812 C 298.074219 178.496094 297.351562 175.238281 296.625 171.980469 L 286.480469 125.449219 C 284.667969 116.9375 282.675781 108.066406 277.964844 100.644531 C 275.609375 97.023438 273.074219 94.667969 270.171875 93.21875 C 267.457031 91.953125 264.011719 91.953125 262.203125 94.125 C 261.296875 95.210938 261.113281 96.839844 260.933594 98.109375 C 260.207031 104.625 261.839844 111.324219 263.46875 117.664062 L 289.558594 225.574219 C 290.101562 227.203125 290.644531 229.011719 291.550781 230.640625 Z M 291.550781 230.640625 " fill-opacity="1" fill-rule="nonzero"/><path fill="#ffffff" d="M 244.445312 101.730469 C 243.902344 100.644531 243.179688 99.738281 242.089844 99.015625 C 238.46875 96.660156 233.394531 98.832031 231.402344 102.636719 C 229.226562 106.4375 229.410156 110.964844 229.769531 115.308594 C 231.21875 130.699219 235.75 145.90625 239.191406 160.933594 C 242.816406 176.324219 246.621094 191.894531 250.242188 207.285156 C 252.238281 215.976562 254.410156 224.847656 259.304688 232.273438 C 261.296875 235.351562 264.011719 238.425781 267.457031 239.875 C 270.355469 241.144531 274.339844 241.144531 276.152344 238.609375 C 277.058594 237.339844 277.238281 235.710938 277.421875 234.261719 C 277.964844 227.5625 276.152344 220.863281 274.523438 214.527344 C 265.101562 178.679688 255.859375 143.011719 246.4375 107.160156 C 245.894531 105.167969 245.351562 103.359375 244.445312 101.730469 Z M 244.445312 101.730469 " fill-opacity="1" fill-rule="nonzero"/><path fill="#ffffff" d="M 271.261719 241.6875 C 269.8125 241.6875 268.363281 241.324219 266.914062 240.78125 C 263.832031 239.332031 260.933594 236.796875 258.398438 232.816406 C 253.324219 225.210938 251.148438 215.796875 249.15625 207.648438 L 238.105469 161.296875 C 237.378906 158.039062 236.476562 154.777344 235.75 151.703125 C 232.851562 139.933594 229.769531 127.800781 228.683594 115.671875 C 228.320312 111.144531 228.140625 106.4375 230.316406 102.453125 C 231.582031 100.101562 234.121094 98.289062 236.65625 97.566406 C 238.648438 97.023438 240.824219 97.382812 242.453125 98.46875 C 243.539062 99.195312 244.265625 100.101562 244.988281 101.367188 C 245.894531 102.996094 246.4375 104.988281 246.984375 106.800781 L 275.066406 214.164062 C 276.695312 220.683594 278.507812 227.382812 277.964844 234.261719 C 277.78125 235.894531 277.601562 237.703125 276.515625 239.152344 C 275.609375 240.78125 273.433594 241.6875 271.261719 241.6875 Z M 238.828125 99.015625 C 238.285156 99.015625 237.742188 99.015625 237.378906 99.195312 C 235.207031 99.738281 233.214844 101.1875 232.125 103.179688 C 230.132812 106.617188 230.316406 111.144531 230.675781 115.308594 C 231.765625 127.441406 234.84375 139.390625 237.742188 150.976562 C 238.46875 154.234375 239.375 157.496094 240.097656 160.753906 L 251.148438 207.105469 C 253.144531 215.613281 255.316406 224.304688 260.027344 231.726562 C 262.382812 235.351562 264.917969 237.703125 267.636719 238.972656 C 270.171875 240.058594 273.617188 240.238281 275.246094 237.882812 C 275.972656 236.796875 276.152344 235.167969 276.332031 233.902344 C 276.878906 227.382812 275.066406 220.683594 273.433594 214.347656 L 245.351562 106.980469 C 244.988281 105.167969 244.445312 103.539062 243.539062 101.910156 C 242.996094 100.824219 242.273438 100.101562 241.546875 99.558594 C 240.640625 99.195312 239.734375 99.015625 238.828125 99.015625 Z M 238.828125 99.015625 " fill-opacity="1" fill-rule="nonzero"/><path fill="#df8234" d="M 320.179688 333.664062 C 312.207031 335.292969 304.414062 337.105469 296.445312 338.734375 C 302.421875 376.394531 308.402344 414.234375 310.574219 452.4375 C 311.84375 472.351562 312.023438 492.449219 316.375 511.824219 C 318.183594 519.609375 320.722656 527.394531 325.070312 534.09375 C 329.417969 540.792969 335.941406 546.40625 343.730469 548.578125 C 357.863281 552.5625 373.625 543.691406 380.328125 530.652344 C 393.917969 503.855469 373.804688 471.992188 363.839844 447.367188 C 351.160156 416.40625 339.019531 385.082031 327.425781 353.398438 C 326.882812 351.769531 320.539062 333.484375 320.179688 333.484375 C 320.359375 333.664062 320.179688 333.664062 320.179688 333.664062 Z M 320.179688 333.664062 " fill-opacity="1" fill-rule="nonzero"/><path fill="#df8234" d="M 350.976562 550.570312 C 348.441406 550.570312 346.085938 550.207031 343.730469 549.484375 C 336.304688 547.3125 329.597656 542.058594 324.707031 534.636719 C 320.902344 528.84375 318.003906 521.601562 315.828125 512.003906 C 312.207031 496.253906 311.300781 479.59375 310.574219 463.664062 C 310.394531 459.859375 310.214844 456.238281 310.03125 452.4375 C 307.675781 414.234375 301.699219 376.03125 295.902344 338.914062 L 295.71875 338.007812 L 320.539062 332.757812 C 321.628906 332.578125 321.628906 332.578125 327.605469 349.957031 C 328.148438 351.589844 328.695312 352.855469 328.695312 353.21875 C 340.109375 384.539062 352.425781 416.226562 365.109375 447.003906 C 366.921875 451.351562 368.914062 455.695312 371.089844 460.402344 C 381.414062 482.855469 393.011719 508.382812 381.597656 531.015625 C 375.257812 542.964844 362.9375 550.570312 350.976562 550.570312 Z M 297.53125 339.457031 C 303.328125 376.394531 309.308594 414.414062 311.664062 452.4375 C 311.84375 456.238281 312.023438 459.859375 312.207031 463.664062 C 312.929688 479.59375 313.835938 495.890625 317.460938 511.644531 C 319.632812 521.058594 322.351562 527.9375 326.15625 533.730469 C 330.867188 540.792969 337.207031 545.863281 344.273438 547.855469 C 357.320312 551.65625 373.082031 543.871094 379.785156 530.292969 C 390.835938 508.566406 379.242188 483.398438 369.097656 461.308594 C 366.921875 456.601562 364.929688 452.074219 363.117188 447.730469 C 350.433594 416.769531 338.113281 385.265625 326.699219 353.761719 C 326.519531 353.398438 326.15625 352.132812 325.613281 350.5 C 324.164062 346.335938 320.902344 336.921875 319.996094 334.75 Z M 297.53125 339.457031 " fill-opacity="1" fill-rule="nonzero"/><path fill="#934a29" d="M 325.433594 332.9375 L 319.453125 315.375 L 291.191406 322.257812 L 293.546875 340.726562 Z M 325.433594 332.9375 " fill-opacity="1" fill-rule="nonzero"/><path fill="#934a29" d="M 292.820312 341.8125 L 290.101562 321.53125 L 319.996094 314.289062 L 326.519531 333.664062 Z M 292.097656 322.980469 L 294.269531 339.636719 L 324.164062 332.394531 L 318.730469 316.464844 Z M 292.097656 322.980469 " fill-opacity="1" fill-rule="nonzero"/><path fill="#95c7c6" d="M 455.878906 299.445312 L 476.714844 299.445312 L 476.714844 216.882812 C 476.714844 216.882812 477.621094 214.164062 481.242188 210.183594 C 484.867188 206.199219 507.152344 189.179688 505.339844 148.804688 L 496.101562 48.316406 C 496.101562 48.316406 493.382812 41.980469 486.859375 43.429688 C 486.859375 43.429688 488.128906 113.5 485.953125 134.863281 C 483.78125 156.226562 477.621094 156.953125 475.628906 144.640625 C 473.453125 132.328125 467.292969 62.257812 470.375 43.25 L 463.667969 43.25 C 463.667969 43.25 457.871094 133.59375 453.34375 144.097656 C 453.34375 144.097656 448.8125 161.476562 445.914062 148.082031 C 443.195312 134.683594 441.386719 52.84375 445.914062 43.429688 C 445.914062 43.429688 438.484375 41.617188 435.769531 49.585938 L 427.796875 145.003906 C 427.796875 145.003906 422.542969 185.378906 450.804688 209.097656 C 450.804688 209.097656 455.335938 213.078125 455.335938 217.96875 Z M 455.878906 299.445312 " fill-opacity="1" fill-rule="nonzero"/><path fill="#95c7c6" d="M 477.4375 300.347656 L 454.792969 300.347656 L 454.429688 217.785156 C 454.429688 213.441406 450.261719 209.640625 450.082031 209.640625 C 422 185.738281 426.710938 145.003906 426.890625 144.640625 L 434.863281 49.042969 C 437.761719 40.351562 445.914062 42.160156 446.097656 42.34375 L 447.183594 42.523438 L 446.640625 43.609375 C 442.292969 52.480469 443.921875 133.777344 446.640625 147.535156 C 447.546875 151.703125 448.269531 151.882812 448.269531 151.882812 C 448.996094 151.882812 450.804688 148.261719 452.074219 143.554688 C 456.605469 133.234375 462.402344 43.792969 462.402344 42.886719 L 462.402344 41.980469 L 471.097656 41.980469 L 470.917969 43.066406 C 467.835938 62.257812 474.179688 132.691406 476.171875 144.097656 C 477.078125 149.527344 478.707031 151.339844 479.613281 151.339844 C 480.882812 151.339844 483.597656 147.71875 484.867188 134.320312 C 487.042969 113.316406 485.773438 43.609375 485.773438 43.066406 L 485.773438 42.34375 L 486.5 42.160156 C 493.5625 40.714844 496.644531 47.59375 496.644531 47.59375 L 496.644531 47.957031 L 505.882812 148.441406 C 507.515625 185.378906 489.035156 203.300781 482.875 209.097656 C 482.332031 209.640625 481.789062 210.183594 481.425781 210.542969 C 478.34375 213.804688 477.257812 216.339844 477.078125 216.882812 L 477.078125 300.347656 Z M 456.785156 298.539062 L 475.808594 298.539062 L 475.808594 216.699219 C 475.808594 216.519531 476.894531 213.804688 480.519531 209.640625 C 480.882812 209.277344 481.425781 208.734375 481.96875 208.191406 C 487.949219 202.398438 506.066406 185.015625 504.433594 148.984375 L 495.195312 48.5 C 494.832031 47.773438 492.476562 43.609375 487.765625 43.972656 C 487.949219 51.757812 488.851562 114.765625 486.859375 134.683594 C 486.136719 141.5625 484.324219 153.148438 479.792969 153.332031 C 477.4375 153.511719 475.628906 150.253906 474.539062 144.640625 C 472.546875 133.414062 466.386719 64.613281 469.105469 43.972656 L 464.214844 43.972656 C 463.488281 53.75 458.234375 134.140625 453.886719 144.277344 C 453.160156 147.175781 451.167969 154.054688 448.269531 153.875 C 446.640625 153.875 445.734375 152.0625 444.828125 148.082031 C 441.929688 134.140625 440.480469 57.550781 444.464844 44.152344 C 442.472656 43.972656 438.488281 44.515625 436.492188 49.765625 L 428.523438 145.003906 C 428.523438 145.363281 423.628906 185.195312 451.167969 208.371094 C 451.351562 208.554688 456.0625 212.71875 456.0625 217.96875 Z M 456.785156 298.539062 " fill-opacity="1" fill-rule="nonzero"/><path fill="#df8234" d="M 482.511719 299.625 C 482.511719 299.625 481.242188 292.925781 473.996094 292.5625 C 466.570312 292.203125 454.792969 288.582031 450.804688 301.074219 L 443.742188 533.371094 C 443.742188 533.371094 445.550781 559.261719 468.199219 559.261719 C 490.847656 559.261719 489.214844 528.117188 489.214844 528.117188 Z M 482.511719 299.625 " fill-opacity="1" fill-rule="nonzero"/><path fill="#df8234" d="M 468.199219 560.164062 C 445.007812 560.164062 442.835938 533.550781 442.835938 533.371094 L 449.902344 300.890625 L 449.902344 300.710938 C 453.523438 289.484375 463.125 290.390625 470.375 291.296875 C 471.640625 291.476562 472.910156 291.476562 474.179688 291.660156 C 482.148438 292.019531 483.597656 299.445312 483.597656 299.445312 L 483.597656 299.625 L 490.304688 528.117188 C 490.304688 528.84375 491.027344 545.320312 482.332031 554.554688 C 478.707031 558.175781 473.996094 560.164062 468.199219 560.164062 Z M 451.710938 301.253906 L 444.644531 533.371094 C 444.644531 534.273438 446.640625 558.355469 468.199219 558.355469 C 473.453125 558.355469 477.621094 556.542969 480.882812 553.285156 C 489.035156 544.777344 488.308594 528.480469 488.308594 528.300781 L 481.605469 299.804688 C 481.425781 299.082031 480.15625 293.832031 473.996094 293.648438 C 472.730469 293.648438 471.460938 293.46875 470.191406 293.289062 C 462.945312 292.382812 454.792969 291.476562 451.710938 301.253906 Z M 451.710938 301.253906 " fill-opacity="1" fill-rule="nonzero"/><path fill="#df8234" d="M 545.925781 321.171875 C 545.925781 321.171875 546.828125 315.375 541.03125 312.84375 C 535.054688 310.488281 526.539062 303.96875 519.472656 313.023438 L 445.007812 500.960938 C 445.007812 500.960938 438.847656 522.6875 457.328125 529.386719 C 475.808594 536.085938 483.78125 510.195312 483.78125 510.195312 Z M 545.925781 321.171875 " fill-opacity="1" fill-rule="nonzero"/><path fill="#95c7c6" d="M 523.640625 312.117188 C 529.800781 314.289062 535.960938 316.644531 542.121094 318.816406 C 547.011719 305.238281 551.902344 291.660156 556.792969 278.078125 C 558.242188 274.097656 559.695312 269.929688 562.59375 266.855469 C 565.855469 263.414062 569.476562 262.871094 574.007812 263.414062 C 577.992188 263.957031 581.617188 261.785156 584.878906 259.972656 C 588.5 258.164062 591.761719 255.628906 595.023438 253.09375 C 617.308594 234.804688 630.351562 206.921875 634.339844 178.316406 C 636.148438 165.28125 636.148438 151.703125 631.800781 139.390625 C 627.453125 127.078125 618.03125 115.851562 605.710938 111.6875 C 595.746094 108.429688 584.695312 109.695312 575.09375 113.859375 C 565.492188 118.023438 557.339844 125.085938 550.453125 132.871094 C 529.257812 156.953125 519.292969 190.628906 524 222.3125 C 524.90625 228.46875 526.539062 234.804688 529.617188 240.238281 C 531.066406 242.953125 532.878906 245.488281 535.054688 247.84375 C 537.226562 250.195312 539.582031 252.550781 540.488281 255.808594 C 541.574219 259.429688 540.308594 263.414062 539.039062 267.035156 C 533.964844 282.242188 528.894531 297.089844 523.640625 312.117188 Z M 523.640625 312.117188 " fill-opacity="1" fill-rule="nonzero"/><path fill="#ffffff" d="M 589.40625 121.828125 C 581.796875 126.898438 574.914062 132.871094 568.933594 139.390625 C 565.851562 142.648438 563.136719 146.269531 560.417969 149.710938 L 556.613281 155.140625 L 553.171875 160.933594 C 551.902344 162.746094 551.179688 164.917969 550.089844 166.910156 C 549.183594 168.902344 548.097656 170.894531 547.375 173.066406 L 544.835938 179.222656 C 544.113281 181.394531 543.570312 183.566406 542.84375 185.738281 L 541.9375 189 C 541.574219 190.085938 541.394531 191.171875 541.214844 192.257812 L 539.765625 198.957031 L 539.402344 200.585938 L 539.21875 202.214844 L 538.675781 205.65625 C 538.316406 207.828125 537.953125 210.183594 537.589844 212.355469 C 537.589844 210 537.589844 207.828125 537.589844 205.476562 L 537.589844 200.222656 L 537.769531 198.59375 C 538.496094 194.070312 538.675781 189.359375 539.945312 185.015625 C 540.488281 182.84375 541.03125 180.488281 541.574219 178.316406 L 543.929688 171.796875 C 544.65625 169.625 545.742188 167.453125 546.648438 165.460938 C 547.734375 163.46875 548.460938 161.296875 549.730469 159.304688 C 554.257812 151.15625 560.054688 143.914062 566.578125 137.398438 C 573.644531 131.0625 581.074219 125.449219 589.40625 121.828125 Z M 589.40625 121.828125 " fill-opacity="1" fill-rule="nonzero"/><path fill="#5a959d" d="M 527.082031 233.175781 C 527.082031 233.175781 597.921875 262.507812 605.894531 170.167969 C 606.800781 172.703125 616.582031 201.128906 599.007812 225.933594 C 585.238281 245.308594 560.597656 254.722656 536.140625 249.652344 C 534.328125 248.023438 531.972656 245.308594 529.980469 241.6875 C 528.53125 238.246094 527.625 235.351562 527.082031 233.175781 Z M 527.082031 233.175781 " fill-opacity="1" fill-rule="nonzero"/><path fill="#5a959d" d="M 549.546875 251.824219 C 545.199219 251.824219 540.671875 251.464844 536.140625 250.378906 L 535.960938 250.378906 L 535.777344 250.195312 C 533.242188 247.84375 531.066406 244.945312 529.4375 241.867188 C 527.988281 239.152344 526.902344 236.253906 526.355469 233.175781 L 525.996094 231.546875 L 527.625 232.273438 C 527.988281 232.453125 554.984375 243.316406 576.90625 229.917969 C 593.03125 220.140625 602.632812 199.863281 605.167969 169.808594 L 605.53125 165.644531 L 606.980469 169.445312 C 608.066406 172.523438 617.671875 200.949219 599.914062 226.117188 C 588.320312 242.410156 569.476562 251.824219 549.546875 251.824219 Z M 536.683594 248.746094 C 560.597656 253.636719 584.695312 244.402344 598.285156 225.390625 C 612.234375 205.835938 608.792969 183.929688 606.4375 174.695312 C 603.175781 202.941406 593.574219 221.953125 577.8125 231.546875 C 558.242188 243.496094 534.691406 236.617188 528.53125 234.445312 C 529.074219 236.796875 529.980469 238.972656 531.066406 240.960938 C 532.515625 243.859375 534.511719 246.394531 536.683594 248.746094 Z M 536.683594 248.746094 " fill-opacity="1" fill-rule="nonzero"/><path fill="#86c4b9" d="M 533.242188 407.898438 L 301.335938 407.898438 C 290.828125 407.898438 282.3125 399.386719 282.3125 388.886719 C 282.3125 378.382812 290.828125 369.875 301.335938 369.875 L 533.242188 369.875 C 543.75 369.875 552.265625 378.382812 552.265625 388.886719 C 552.085938 399.386719 543.75 407.898438 533.242188 407.898438 Z M 533.242188 407.898438 " fill-opacity="1" fill-rule="nonzero"/><path fill="#9ad1ce" d="M 294.449219 407.898438 L 294.449219 743.214844 C 294.449219 743.214844 423.449219 809.300781 539.765625 743.214844 L 539.765625 407.898438 Z M 294.449219 407.898438 " fill-opacity="1" fill-rule="nonzero"/><path fill="#9ad1ce" d="M 424.171875 773.449219 C 405.511719 773.449219 388.121094 771.460938 373.445312 768.925781 C 327.0625 760.777344 294.453125 744.121094 294.089844 744.121094 L 293.546875 743.9375 L 293.546875 407.171875 L 540.671875 407.171875 L 540.671875 743.9375 L 540.125 744.121094 C 500.628906 766.570312 459.683594 773.449219 424.171875 773.449219 Z M 295.355469 742.671875 C 299.523438 744.84375 330.6875 759.507812 373.625 767.113281 C 416.019531 774.539062 479.070312 776.347656 538.675781 742.671875 L 538.675781 408.800781 L 295.355469 408.800781 Z M 295.355469 742.671875 " fill-opacity="1" fill-rule="nonzero"/></svg>