<svg xmlns="http://www.w3.org/2000/svg" xmlns:xlink="http://www.w3.org/1999/xlink" width="1080" zoomAndPan="magnify" viewBox="0 0 810 809.999993" height="1080" preserveAspectRatio="xMidYMid meet" version="1.0"><path fill="#000000" d="M 405 81 C 399.699219 81 394.398438 81.128906 389.101562 81.390625 C 383.804688 81.652344 378.519531 82.039062 373.242188 82.558594 C 367.964844 83.078125 362.703125 83.730469 357.460938 84.507812 C 352.214844 85.285156 346.992188 86.191406 341.789062 87.226562 C 336.589844 88.261719 331.417969 89.421875 326.273438 90.710938 C 321.128906 92 316.023438 93.410156 310.949219 94.953125 C 305.875 96.492188 300.839844 98.152344 295.847656 99.941406 C 290.855469 101.726562 285.910156 103.632812 281.011719 105.664062 C 276.113281 107.691406 271.265625 109.839844 266.472656 112.109375 C 261.679688 114.375 256.945312 116.757812 252.265625 119.257812 C 247.589844 121.757812 242.980469 124.371094 238.429688 127.097656 C 233.882812 129.820312 229.402344 132.65625 224.996094 135.605469 C 220.585938 138.550781 216.253906 141.601562 211.992188 144.761719 C 207.734375 147.917969 203.554688 151.179688 199.457031 154.542969 C 195.359375 157.910156 191.34375 161.371094 187.414062 164.933594 C 183.484375 168.492188 179.648438 172.148438 175.898438 175.898438 C 172.148438 179.648438 168.492188 183.484375 164.933594 187.414062 C 161.371094 191.34375 157.910156 195.359375 154.542969 199.457031 C 151.179688 203.554688 147.917969 207.734375 144.761719 211.992188 C 141.601562 216.253906 138.550781 220.585938 135.605469 224.996094 C 132.65625 229.402344 129.820312 233.882812 127.097656 238.429688 C 124.371094 242.980469 121.757812 247.589844 119.257812 252.265625 C 116.757812 256.945312 114.375 261.679688 112.109375 266.472656 C 109.839844 271.265625 107.691406 276.113281 105.664062 281.011719 C 103.632812 285.910156 101.726562 290.855469 99.941406 295.847656 C 98.152344 300.839844 96.492188 305.875 94.953125 310.949219 C 93.410156 316.023438 92 321.128906 90.710938 326.273438 C 89.421875 331.417969 88.261719 336.589844 87.226562 341.789062 C 86.191406 346.992188 85.285156 352.214844 84.507812 357.460938 C 83.730469 362.703125 83.078125 367.964844 82.558594 373.242188 C 82.039062 378.519531 81.652344 383.804688 81.390625 389.101562 C 81.128906 394.398438 81 399.699219 81 405 C 81 410.300781 81.128906 415.601562 81.390625 420.898438 C 81.652344 426.195312 82.039062 431.480469 82.558594 436.757812 C 83.078125 442.035156 83.730469 447.296875 84.507812 452.539062 C 85.285156 457.785156 86.191406 463.007812 87.226562 468.210938 C 88.261719 473.410156 89.421875 478.582031 90.710938 483.726562 C 92 488.867188 93.410156 493.976562 94.953125 499.050781 C 96.492188 504.125 98.152344 509.160156 99.941406 514.152344 C 101.726562 519.144531 103.632812 524.089844 105.664062 528.988281 C 107.691406 533.886719 109.839844 538.734375 112.109375 543.527344 C 114.375 548.320312 116.757812 553.054688 119.257812 557.734375 C 121.757812 562.410156 124.371094 567.019531 127.097656 571.570312 C 129.820312 576.117188 132.65625 580.597656 135.605469 585.003906 C 138.550781 589.414062 141.601562 593.746094 144.761719 598.007812 C 147.917969 602.265625 151.179688 606.445312 154.542969 610.542969 C 157.910156 614.640625 161.371094 618.65625 164.933594 622.585938 C 168.492188 626.515625 172.148438 630.351562 175.898438 634.101562 C 179.648438 637.851562 183.484375 641.507812 187.414062 645.066406 C 191.34375 648.628906 195.359375 652.089844 199.457031 655.457031 C 203.554688 658.820312 207.734375 662.082031 211.992188 665.238281 C 216.253906 668.398438 220.585938 671.449219 224.996094 674.394531 C 229.402344 677.34375 233.882812 680.179688 238.429688 682.902344 C 242.980469 685.628906 247.589844 688.242188 252.265625 690.742188 C 256.945312 693.242188 261.679688 695.625 266.472656 697.890625 C 271.265625 700.160156 276.113281 702.308594 281.011719 704.335938 C 285.910156 706.367188 290.855469 708.273438 295.847656 710.058594 C 300.839844 711.847656 305.875 713.507812 310.949219 715.046875 C 316.023438 716.585938 321.128906 718 326.273438 719.289062 C 331.417969 720.578125 336.589844 721.738281 341.789062 722.773438 C 346.992188 723.808594 352.214844 724.714844 357.460938 725.492188 C 362.703125 726.269531 367.964844 726.921875 373.242188 727.441406 C 378.519531 727.960938 383.804688 728.347656 389.101562 728.609375 C 394.398438 728.871094 399.699219 729 405 729 C 410.300781 729 415.601562 728.871094 420.898438 728.609375 C 426.195312 728.347656 431.480469 727.960938 436.757812 727.441406 C 442.035156 726.921875 447.296875 726.269531 452.539062 725.492188 C 457.785156 724.714844 463.007812 723.808594 468.210938 722.773438 C 473.410156 721.738281 478.582031 720.578125 483.726562 719.289062 C 488.867188 718 493.976562 716.585938 499.050781 715.046875 C 504.125 713.507812 509.160156 711.847656 514.152344 710.058594 C 519.144531 708.273438 524.089844 706.367188 528.988281 704.335938 C 533.886719 702.308594 538.734375 700.160156 543.527344 697.890625 C 548.320312 695.625 553.054688 693.242188 557.730469 690.742188 C 562.410156 688.242188 567.019531 685.628906 571.570312 682.902344 C 576.117188 680.179688 580.597656 677.34375 585.003906 674.394531 C 589.414062 671.449219 593.746094 668.398438 598.007812 665.238281 C 602.265625 662.082031 606.445312 658.820312 610.542969 655.457031 C 614.640625 652.089844 618.65625 648.628906 622.585938 645.066406 C 626.515625 641.507812 630.351562 637.851562 634.101562 634.101562 C 637.851562 630.351562 641.507812 626.515625 645.066406 622.585938 C 648.628906 618.65625 652.089844 614.640625 655.457031 610.542969 C 658.820312 606.445312 662.082031 602.265625 665.238281 598.007812 C 668.398438 593.746094 671.449219 589.414062 674.394531 585.003906 C 677.34375 580.597656 680.179688 576.117188 682.902344 571.570312 C 685.628906 567.019531 688.242188 562.410156 690.742188 557.734375 C 693.242188 553.054688 695.625 548.320312 697.890625 543.527344 C 700.160156 538.734375 702.308594 533.886719 704.335938 528.988281 C 706.367188 524.089844 708.273438 519.144531 710.058594 514.152344 C 711.847656 509.160156 713.507812 504.125 715.046875 499.050781 C 716.585938 493.976562 718 488.867188 719.289062 483.726562 C 720.578125 478.582031 721.738281 473.410156 722.773438 468.210938 C 723.808594 463.007812 724.714844 457.785156 725.492188 452.539062 C 726.269531 447.296875 726.921875 442.035156 727.441406 436.757812 C 727.960938 431.480469 728.347656 426.195312 728.609375 420.898438 C 728.871094 415.601562 729 410.300781 729 405 C 729 399.699219 728.871094 394.398438 728.609375 389.101562 C 728.347656 383.804688 727.960938 378.519531 727.441406 373.242188 C 726.921875 367.964844 726.269531 362.703125 725.492188 357.460938 C 724.714844 352.214844 723.808594 346.992188 722.773438 341.789062 C 721.738281 336.589844 720.578125 331.417969 719.289062 326.273438 C 718 321.128906 716.585938 316.023438 715.046875 310.949219 C 713.507812 305.875 711.847656 300.839844 710.058594 295.847656 C 708.273438 290.855469 706.367188 285.910156 704.335938 281.011719 C 702.308594 276.113281 700.160156 271.265625 697.890625 266.472656 C 695.625 261.679688 693.242188 256.945312 690.742188 252.265625 C 688.242188 247.589844 685.628906 242.980469 682.902344 238.429688 C 680.179688 233.882812 677.34375 229.402344 674.394531 224.996094 C 671.449219 220.585938 668.398438 216.253906 665.238281 211.992188 C 662.082031 207.734375 658.820312 203.554688 655.457031 199.457031 C 652.089844 195.359375 648.628906 191.34375 645.066406 187.414062 C 641.507812 183.484375 637.851562 179.648438 634.101562 175.898438 C 630.351562 172.148438 626.515625 168.492188 622.585938 164.933594 C 618.65625 161.371094 614.640625 157.910156 610.542969 154.542969 C 606.445312 151.179688 602.265625 147.917969 598.007812 144.761719 C 593.746094 141.601562 589.414062 138.550781 585.003906 135.605469 C 580.597656 132.65625 576.117188 129.820312 571.570312 127.097656 C 567.019531 124.371094 562.410156 121.757812 557.730469 119.257812 C 553.054688 116.757812 548.320312 114.375 543.527344 112.109375 C 538.734375 109.839844 533.886719 107.691406 528.988281 105.664062 C 524.089844 103.632812 519.144531 101.726562 514.152344 99.941406 C 509.160156 98.152344 504.125 96.492188 499.050781 94.953125 C 493.976562 93.410156 488.867188 92 483.726562 90.710938 C 478.582031 89.421875 473.410156 88.261719 468.210938 87.226562 C 463.007812 86.191406 457.785156 85.285156 452.539062 84.507812 C 447.296875 83.730469 442.035156 83.078125 436.757812 82.558594 C 431.480469 82.039062 426.195312 81.652344 420.898438 81.390625 C 415.601562 81.128906 410.300781 81 405 81 Z M 405 698.144531 C 400.203125 698.144531 395.40625 698.023438 390.617188 697.789062 C 385.824219 697.554688 381.042969 697.203125 376.265625 696.730469 C 371.492188 696.261719 366.734375 695.675781 361.988281 694.96875 C 357.242188 694.265625 352.515625 693.445312 347.8125 692.511719 C 343.105469 691.574219 338.425781 690.523438 333.773438 689.359375 C 329.117188 688.191406 324.496094 686.914062 319.90625 685.519531 C 315.3125 684.128906 310.761719 682.625 306.242188 681.007812 C 301.726562 679.390625 297.25 677.664062 292.820312 675.828125 C 288.386719 673.992188 284.003906 672.050781 279.664062 669.996094 C 275.328125 667.945312 271.042969 665.789062 266.8125 663.527344 C 262.582031 661.265625 258.410156 658.902344 254.292969 656.4375 C 250.179688 653.96875 246.128906 651.40625 242.136719 648.738281 C 238.148438 646.074219 234.226562 643.3125 230.375 640.453125 C 226.523438 637.597656 222.742188 634.644531 219.03125 631.601562 C 215.324219 628.558594 211.691406 625.425781 208.136719 622.203125 C 204.582031 618.984375 201.109375 615.675781 197.714844 612.285156 C 194.324219 608.890625 191.015625 605.417969 187.796875 601.863281 C 184.574219 598.308594 181.441406 594.675781 178.398438 590.96875 C 175.355469 587.257812 172.402344 583.476562 169.546875 579.625 C 166.6875 575.773438 163.925781 571.851562 161.261719 567.863281 C 158.59375 563.871094 156.03125 559.820312 153.5625 555.707031 C 151.097656 551.589844 148.734375 547.417969 146.472656 543.1875 C 144.210938 538.957031 142.054688 534.671875 140 530.335938 C 137.949219 525.996094 136.007812 521.613281 134.171875 517.179688 C 132.335938 512.75 130.609375 508.273438 128.992188 503.757812 C 127.375 499.238281 125.871094 494.6875 124.480469 490.09375 C 123.085938 485.503906 121.808594 480.882812 120.640625 476.226562 C 119.476562 471.574219 118.425781 466.894531 117.488281 462.1875 C 116.554688 457.484375 115.734375 452.757812 115.03125 448.011719 C 114.324219 443.265625 113.738281 438.507812 113.269531 433.734375 C 112.796875 428.957031 112.445312 424.175781 112.210938 419.382812 C 111.976562 414.59375 111.855469 409.796875 111.855469 405 C 111.855469 400.203125 111.976562 395.40625 112.210938 390.617188 C 112.445312 385.824219 112.796875 381.042969 113.269531 376.265625 C 113.738281 371.492188 114.324219 366.734375 115.03125 361.988281 C 115.734375 357.242188 116.554688 352.515625 117.488281 347.8125 C 118.425781 343.105469 119.476562 338.425781 120.640625 333.773438 C 121.808594 329.117188 123.085938 324.496094 124.480469 319.90625 C 125.871094 315.3125 127.375 310.761719 128.992188 306.242188 C 130.609375 301.726562 132.335938 297.25 134.171875 292.820312 C 136.007812 288.386719 137.949219 284.003906 140.003906 279.664062 C 142.054688 275.328125 144.210938 271.042969 146.472656 266.8125 C 148.734375 262.582031 151.097656 258.410156 153.5625 254.292969 C 156.03125 250.179688 158.59375 246.128906 161.261719 242.136719 C 163.925781 238.148438 166.6875 234.226562 169.546875 230.375 C 172.402344 226.523438 175.355469 222.742188 178.398438 219.03125 C 181.441406 215.324219 184.574219 211.691406 187.796875 208.136719 C 191.015625 204.582031 194.324219 201.109375 197.714844 197.714844 C 201.109375 194.324219 204.582031 191.015625 208.136719 187.796875 C 211.691406 184.574219 215.324219 181.441406 219.03125 178.398438 C 222.742188 175.355469 226.523438 172.402344 230.375 169.546875 C 234.226562 166.6875 238.148438 163.925781 242.136719 161.261719 C 246.128906 158.59375 250.179688 156.03125 254.292969 153.5625 C 258.410156 151.097656 262.582031 148.734375 266.8125 146.472656 C 271.042969 144.210938 275.328125 142.054688 279.664062 140.003906 C 284.003906 137.949219 288.386719 136.007812 292.820312 134.171875 C 297.25 132.335938 301.726562 130.609375 306.242188 128.992188 C 310.761719 127.375 315.3125 125.871094 319.90625 124.480469 C 324.496094 123.085938 329.117188 121.808594 333.773438 120.640625 C 338.425781 119.476562 343.105469 118.425781 347.8125 117.488281 C 352.515625 116.554688 357.242188 115.734375 361.988281 115.03125 C 366.734375 114.324219 371.492188 113.738281 376.265625 113.269531 C 381.042969 112.796875 385.824219 112.445312 390.617188 112.210938 C 395.40625 111.976562 400.203125 111.855469 405 111.855469 C 409.796875 111.855469 414.59375 111.976562 419.382812 112.210938 C 424.175781 112.445312 428.957031 112.796875 433.734375 113.269531 C 438.507812 113.738281 443.265625 114.324219 448.011719 115.03125 C 452.757812 115.734375 457.484375 116.554688 462.1875 117.488281 C 466.894531 118.425781 471.574219 119.476562 476.226562 120.640625 C 480.882812 121.808594 485.503906 123.085938 490.09375 124.480469 C 494.6875 125.871094 499.238281 127.375 503.757812 128.992188 C 508.273438 130.609375 512.75 132.335938 517.179688 134.171875 C 521.613281 136.007812 525.996094 137.949219 530.335938 140.003906 C 534.671875 142.054688 538.957031 144.210938 543.1875 146.472656 C 547.417969 148.734375 551.589844 151.097656 555.707031 153.5625 C 559.820312 156.03125 563.871094 158.59375 567.859375 161.261719 C 571.851562 163.925781 575.773438 166.6875 579.625 169.546875 C 583.476562 172.402344 587.257812 175.355469 590.96875 178.398438 C 594.675781 181.441406 598.308594 184.574219 601.863281 187.796875 C 605.417969 191.015625 608.890625 194.324219 612.285156 197.714844 C 615.675781 201.109375 618.984375 204.582031 622.203125 208.136719 C 625.425781 211.691406 628.558594 215.324219 631.601562 219.03125 C 634.644531 222.742188 637.597656 226.523438 640.453125 230.375 C 643.3125 234.226562 646.074219 238.148438 648.738281 242.136719 C 651.40625 246.128906 653.96875 250.179688 656.4375 254.292969 C 658.902344 258.410156 661.265625 262.582031 663.527344 266.8125 C 665.789062 271.042969 667.945312 275.328125 669.996094 279.664062 C 672.050781 284.003906 673.992188 288.386719 675.828125 292.820312 C 677.664062 297.25 679.390625 301.726562 681.007812 306.242188 C 682.625 310.761719 684.128906 315.3125 685.519531 319.90625 C 686.914062 324.496094 688.191406 329.117188 689.359375 333.773438 C 690.523438 338.425781 691.574219 343.105469 692.511719 347.8125 C 693.445312 352.515625 694.265625 357.242188 694.96875 361.988281 C 695.675781 366.734375 696.261719 371.492188 696.730469 376.265625 C 697.203125 381.042969 697.554688 385.824219 697.789062 390.617188 C 698.023438 395.40625 698.144531 400.203125 698.144531 405 C 698.144531 409.796875 698.023438 414.59375 697.789062 419.382812 C 697.554688 424.175781 697.203125 428.957031 696.730469 433.734375 C 696.261719 438.507812 695.675781 443.265625 694.96875 448.011719 C 694.265625 452.757812 693.445312 457.484375 692.511719 462.1875 C 691.574219 466.894531 690.523438 471.574219 689.359375 476.226562 C 688.191406 480.882812 686.914062 485.503906 685.519531 490.09375 C 684.128906 494.6875 682.625 499.238281 681.007812 503.757812 C 679.390625 508.273438 677.664062 512.75 675.828125 517.179688 C 673.992188 521.613281 672.050781 525.996094 669.996094 530.335938 C 667.945312 534.671875 665.789062 538.957031 663.527344 543.1875 C 661.265625 547.417969 658.902344 551.589844 656.4375 555.707031 C 653.96875 559.820312 651.40625 563.871094 648.738281 567.859375 C 646.074219 571.851562 643.3125 575.773438 640.453125 579.625 C 637.597656 583.476562 634.644531 587.257812 631.601562 590.96875 C 628.558594 594.675781 625.425781 598.308594 622.203125 601.863281 C 618.984375 605.417969 615.675781 608.890625 612.285156 612.285156 C 608.890625 615.675781 605.417969 618.984375 601.863281 622.203125 C 598.308594 625.425781 594.675781 628.558594 590.96875 631.601562 C 587.257812 634.644531 583.476562 637.597656 579.625 640.453125 C 575.773438 643.3125 571.851562 646.074219 567.863281 648.738281 C 563.871094 651.40625 559.820312 653.96875 555.707031 656.4375 C 551.589844 658.902344 547.417969 661.265625 543.1875 663.527344 C 538.957031 665.789062 534.671875 667.945312 530.335938 669.996094 C 525.996094 672.050781 521.613281 673.992188 517.179688 675.828125 C 512.75 677.664062 508.273438 679.390625 503.757812 681.007812 C 499.238281 682.625 494.6875 684.128906 490.09375 685.519531 C 485.503906 686.914062 480.882812 688.191406 476.226562 689.359375 C 471.574219 690.523438 466.894531 691.574219 462.1875 692.511719 C 457.484375 693.445312 452.757812 694.265625 448.011719 694.96875 C 443.265625 695.675781 438.507812 696.261719 433.734375 696.730469 C 428.957031 697.203125 424.175781 697.554688 419.382812 697.789062 C 414.59375 698.023438 409.796875 698.144531 405 698.144531 Z M 405 698.144531 " fill-opacity="1" fill-rule="nonzero"/><path fill="#000000" d="M 420.429688 204.429688 L 389.570312 204.429688 L 389.570312 420.429688 L 605.570312 420.429688 L 605.570312 389.570312 L 420.429688 389.570312 Z M 420.429688 204.429688 " fill-opacity="1" fill-rule="nonzero"/></svg>